%TF.GenerationSoftware,KiCad,Pcbnew,9.0.0*%
%TF.CreationDate,2026-01-14T19:26:19-05:00*%
%TF.ProjectId,telemetry-node,74656c65-6d65-4747-9279-2d6e6f64652e,rev?*%
%TF.SameCoordinates,Original*%
%TF.FileFunction,Copper,L2,Inr*%
%TF.FilePolarity,Positive*%
%FSLAX46Y46*%
G04 Gerber Fmt 4.6, Leading zero omitted, Abs format (unit mm)*
G04 Created by KiCad (PCBNEW 9.0.0) date 2026-01-14 19:26:19*
%MOMM*%
%LPD*%
G01*
G04 APERTURE LIST*
%TA.AperFunction,ComponentPad*%
%ADD10R,1.100000X1.100000*%
%TD*%
%TA.AperFunction,ComponentPad*%
%ADD11C,1.100000*%
%TD*%
%TA.AperFunction,ComponentPad*%
%ADD12C,0.900000*%
%TD*%
%TA.AperFunction,ComponentPad*%
%ADD13R,1.350000X1.350000*%
%TD*%
%TA.AperFunction,HeatsinkPad*%
%ADD14O,1.800000X1.150000*%
%TD*%
%TA.AperFunction,HeatsinkPad*%
%ADD15O,2.000000X1.450000*%
%TD*%
%TA.AperFunction,ComponentPad*%
%ADD16O,1.350000X1.350000*%
%TD*%
%TA.AperFunction,ViaPad*%
%ADD17C,0.700000*%
%TD*%
G04 APERTURE END LIST*
D10*
%TO.N,/CAN_N*%
%TO.C,J4*%
X204837500Y-81900000D03*
D11*
%TO.N,/CAN_P*%
X206087500Y-81900000D03*
%TD*%
D12*
%TO.N,+3.3V Buck*%
%TO.C,J9*%
X205600000Y-44400000D03*
%TO.N,Net-(J10-Pin_1)*%
X206850000Y-44400000D03*
%TO.N,GND*%
X208100000Y-44400000D03*
%TD*%
%TO.N,+3.3V Buck*%
%TO.C,J1*%
X189000000Y-44400000D03*
%TO.N,Net-(J5-Pin_1)*%
X190250000Y-44400000D03*
%TO.N,GND*%
X191500000Y-44400000D03*
%TD*%
D13*
%TO.N,Net-(J15-Pin_1)*%
%TO.C,J15*%
X223400000Y-48200000D03*
%TD*%
D10*
%TO.N,GND*%
%TO.C,J3*%
X190200000Y-56625000D03*
D11*
%TO.N,+5V In*%
X190200000Y-57875000D03*
%TD*%
D14*
%TO.N,unconnected-(J11-Shield-Pad6)*%
%TO.C,J11*%
X187100000Y-65325000D03*
D15*
%TO.N,unconnected-(J11-Shield-Pad6)_3*%
X190900000Y-65475000D03*
%TO.N,unconnected-(J11-Shield-Pad6)_1*%
X190900000Y-72925000D03*
D14*
%TO.N,unconnected-(J11-Shield-Pad6)_2*%
X187100000Y-73075000D03*
%TD*%
D13*
%TO.N,Net-(J10-Pin_1)*%
%TO.C,J10*%
X206900000Y-48200000D03*
%TD*%
D12*
%TO.N,+3.3V Buck*%
%TO.C,J14*%
X222200000Y-44400000D03*
%TO.N,Net-(J15-Pin_1)*%
X223450000Y-44400000D03*
%TO.N,GND*%
X224700000Y-44400000D03*
%TD*%
D13*
%TO.N,Net-(J8-Pin_1)*%
%TO.C,J8*%
X198500000Y-48200000D03*
%TD*%
%TO.N,+3.3V Buck*%
%TO.C,J2*%
X191300000Y-83200000D03*
D16*
%TO.N,GND*%
X193300000Y-83200000D03*
%TO.N,/SWDIO*%
X195300000Y-83200000D03*
%TO.N,/SWCLK*%
X197300000Y-83200000D03*
%TO.N,/SWO*%
X199300000Y-83200000D03*
%TO.N,/NRST*%
X201300000Y-83200000D03*
%TD*%
D13*
%TO.N,Net-(J13-Pin_1)*%
%TO.C,J13*%
X215200000Y-48200000D03*
%TD*%
D12*
%TO.N,+3.3V Buck*%
%TO.C,J6*%
X197300000Y-44400000D03*
%TO.N,Net-(J8-Pin_1)*%
X198550000Y-44400000D03*
%TO.N,GND*%
X199800000Y-44400000D03*
%TD*%
D13*
%TO.N,/PB11*%
%TO.C,J7*%
X213500000Y-57600000D03*
D16*
%TO.N,/PB10*%
X215500000Y-57600000D03*
%TO.N,/PB2*%
X217500000Y-57600000D03*
%TO.N,/PB1*%
X219500000Y-57600000D03*
%TO.N,/PB0*%
X221500000Y-57600000D03*
%TO.N,/PA7*%
X223500000Y-57600000D03*
%TO.N,/PA6*%
X225500000Y-57600000D03*
%TD*%
D13*
%TO.N,Net-(J5-Pin_1)*%
%TO.C,J5*%
X190250000Y-48200000D03*
%TD*%
D12*
%TO.N,+3.3V Buck*%
%TO.C,J12*%
X213900000Y-44400000D03*
%TO.N,Net-(J13-Pin_1)*%
X215150000Y-44400000D03*
%TO.N,GND*%
X216400000Y-44400000D03*
%TD*%
D17*
%TO.N,+3.3V Buck*%
X188400000Y-43150000D03*
X196750000Y-43200000D03*
X205000000Y-43200000D03*
X213100000Y-43200000D03*
X221450000Y-43200000D03*
%TO.N,GND*%
X225350000Y-43250000D03*
X217000000Y-43250000D03*
X208600000Y-43150000D03*
X200300000Y-43150000D03*
X192000000Y-43200000D03*
X195900000Y-54200000D03*
X191400000Y-56700000D03*
X220350000Y-63500000D03*
X223937500Y-70150000D03*
X210000000Y-79000000D03*
X205800000Y-59700000D03*
X198600000Y-72800000D03*
X213750000Y-68600000D03*
X197050000Y-69325000D03*
X198500000Y-68300000D03*
X208300000Y-63500000D03*
X193400000Y-63600000D03*
X194700000Y-57600000D03*
X208200000Y-59700000D03*
X194700000Y-56800000D03*
X217500000Y-63700000D03*
X217687500Y-75400000D03*
X224300000Y-77900000D03*
X209000000Y-59700000D03*
X193900000Y-81500000D03*
X188000000Y-77700000D03*
X218200000Y-83700000D03*
X204837500Y-77850000D03*
X193400000Y-65800000D03*
X221187500Y-73850000D03*
X195500000Y-52600000D03*
X203587500Y-72400000D03*
X220337500Y-74200000D03*
X202600000Y-57800000D03*
X203600000Y-59700000D03*
X205637500Y-77850000D03*
X190500000Y-62700000D03*
X189500000Y-70400000D03*
X188000000Y-75400000D03*
X205400000Y-62100000D03*
X206600000Y-59700000D03*
X213850000Y-71950000D03*
X220400000Y-68700000D03*
X188000000Y-80000000D03*
X195500000Y-53400000D03*
X201500000Y-68700000D03*
X213037500Y-79400000D03*
X191400000Y-55800000D03*
X224650000Y-68100000D03*
X204400000Y-59700000D03*
X195900000Y-55000000D03*
%TO.N,+3.3V Buck*%
X204700000Y-53200000D03*
X204700000Y-54000000D03*
X219650000Y-75400000D03*
X216450000Y-75350000D03*
X202300000Y-62100000D03*
X224200000Y-63200000D03*
X212500000Y-80300000D03*
X204700000Y-54800000D03*
X207700000Y-79000000D03*
X206100000Y-65600000D03*
X206600000Y-55100000D03*
X197300000Y-61400000D03*
X189500000Y-85100000D03*
X208800000Y-55100000D03*
X208000000Y-55100000D03*
X198300000Y-71700000D03*
X216537500Y-78200000D03*
X203587500Y-73400000D03*
X198600000Y-74300000D03*
X205700000Y-55100000D03*
%TO.N,/BOOT0*%
X211800000Y-75850000D03*
X216700000Y-77250000D03*
%TO.N,/NRST*%
X224150000Y-74250000D03*
X217050000Y-68200000D03*
%TO.N,/SWCLK*%
X208549998Y-71648872D03*
X200055026Y-79705023D03*
%TO.N,/SWDIO*%
X208550001Y-70748870D03*
X200278118Y-78773412D03*
%TO.N,/SWO*%
X200100000Y-80650000D03*
X209450000Y-71650000D03*
%TO.N,/CAN_RX*%
X212200000Y-71350000D03*
X207450000Y-74450000D03*
%TO.N,/PA0*%
X212900000Y-68300000D03*
X223050000Y-61000000D03*
%TO.N,/PA10*%
X208485774Y-69851162D03*
X198305025Y-79205025D03*
%TO.N,/CAN_TX*%
X213125426Y-71416152D03*
X206986636Y-78451259D03*
%TO.N,/PA8*%
X198550000Y-76450000D03*
X208532827Y-68942754D03*
%TO.N,/PB15*%
X209900000Y-69300000D03*
X198628093Y-75378093D03*
%TO.N,Net-(IC2-I{slash}O1_2)*%
X189675000Y-69425003D03*
X193177686Y-70028460D03*
%TO.N,Net-(IC2-I{slash}O2_2)*%
X189675000Y-68525000D03*
X193132475Y-68142525D03*
%TO.N,/PA6*%
X213972705Y-62222705D03*
%TO.N,/PB0*%
X212007755Y-62207755D03*
%TO.N,/PA7*%
X213052730Y-62152730D03*
%TD*%
%TA.AperFunction,Conductor*%
%TO.N,GND*%
G36*
X225503736Y-36000726D02*
G01*
X225769690Y-36016813D01*
X225784551Y-36018617D01*
X226042938Y-36065968D01*
X226057463Y-36069549D01*
X226308251Y-36147698D01*
X226322242Y-36153003D01*
X226561798Y-36260818D01*
X226575044Y-36267771D01*
X226799852Y-36403672D01*
X226812163Y-36412170D01*
X227018949Y-36574176D01*
X227030157Y-36584106D01*
X227215893Y-36769842D01*
X227225823Y-36781050D01*
X227387825Y-36987830D01*
X227396331Y-37000153D01*
X227532225Y-37224949D01*
X227539184Y-37238208D01*
X227646994Y-37477752D01*
X227652303Y-37491753D01*
X227730448Y-37742529D01*
X227734032Y-37757068D01*
X227781381Y-38015447D01*
X227783186Y-38030311D01*
X227799274Y-38296263D01*
X227799500Y-38303750D01*
X227799500Y-90930440D01*
X227799479Y-90942986D01*
X227799159Y-90943777D01*
X227799418Y-90980406D01*
X227799418Y-90980977D01*
X227799387Y-90981080D01*
X227799240Y-90987417D01*
X227784906Y-91254669D01*
X227783191Y-91269612D01*
X227737261Y-91529451D01*
X227733749Y-91544078D01*
X227656694Y-91796443D01*
X227651438Y-91810535D01*
X227544394Y-92051716D01*
X227537473Y-92065062D01*
X227402014Y-92291508D01*
X227393524Y-92303924D01*
X227231643Y-92512305D01*
X227221711Y-92523602D01*
X227035795Y-92710844D01*
X227024569Y-92720855D01*
X226817355Y-92884205D01*
X226804999Y-92892784D01*
X226579517Y-93029850D01*
X226566215Y-93036869D01*
X226325803Y-93145624D01*
X226311747Y-93150981D01*
X226059939Y-93229825D01*
X226045339Y-93233440D01*
X225785831Y-93281217D01*
X225770900Y-93283039D01*
X225503752Y-93299272D01*
X225496231Y-93299500D01*
X186003751Y-93299500D01*
X185996264Y-93299274D01*
X185730311Y-93283186D01*
X185715447Y-93281381D01*
X185457068Y-93234032D01*
X185442529Y-93230448D01*
X185191753Y-93152303D01*
X185177752Y-93146994D01*
X184938208Y-93039184D01*
X184924949Y-93032225D01*
X184899398Y-93016779D01*
X184700150Y-92896329D01*
X184687830Y-92887825D01*
X184683209Y-92884205D01*
X184481050Y-92725823D01*
X184469842Y-92715893D01*
X184284106Y-92530157D01*
X184274176Y-92518949D01*
X184112174Y-92312169D01*
X184103672Y-92299852D01*
X183967771Y-92075044D01*
X183960818Y-92061798D01*
X183853003Y-91822242D01*
X183847696Y-91808246D01*
X183769549Y-91557463D01*
X183765967Y-91542931D01*
X183765180Y-91538639D01*
X183718617Y-91284551D01*
X183716813Y-91269688D01*
X183716808Y-91269612D01*
X183700726Y-91003736D01*
X183700500Y-90996249D01*
X183700500Y-90897648D01*
X184699500Y-90897648D01*
X184699500Y-91102351D01*
X184731522Y-91304534D01*
X184794781Y-91499223D01*
X184887715Y-91681613D01*
X185008028Y-91847213D01*
X185152786Y-91991971D01*
X185258302Y-92068631D01*
X185318390Y-92112287D01*
X185423835Y-92166014D01*
X185500776Y-92205218D01*
X185500778Y-92205218D01*
X185500781Y-92205220D01*
X185605137Y-92239127D01*
X185695465Y-92268477D01*
X185796557Y-92284488D01*
X185897648Y-92300500D01*
X185897649Y-92300500D01*
X186102351Y-92300500D01*
X186102352Y-92300500D01*
X186304534Y-92268477D01*
X186499219Y-92205220D01*
X186681610Y-92112287D01*
X186806251Y-92021731D01*
X186847213Y-91991971D01*
X186847215Y-91991968D01*
X186847219Y-91991966D01*
X186991966Y-91847219D01*
X186991968Y-91847215D01*
X186991971Y-91847213D01*
X187063491Y-91748772D01*
X187112287Y-91681610D01*
X187205220Y-91499219D01*
X187268477Y-91304534D01*
X187300500Y-91102352D01*
X187300500Y-90897648D01*
X187268477Y-90695466D01*
X187266629Y-90689778D01*
X192599500Y-90689778D01*
X192599500Y-90910222D01*
X192614311Y-91003736D01*
X192633985Y-91127952D01*
X192702103Y-91337603D01*
X192702104Y-91337606D01*
X192802187Y-91534025D01*
X192931752Y-91712358D01*
X192931756Y-91712363D01*
X193087636Y-91868243D01*
X193087641Y-91868247D01*
X193243192Y-91981260D01*
X193265978Y-91997815D01*
X193371750Y-92051709D01*
X193462393Y-92097895D01*
X193462396Y-92097896D01*
X193567221Y-92131955D01*
X193672049Y-92166015D01*
X193889778Y-92200500D01*
X193889779Y-92200500D01*
X219910221Y-92200500D01*
X219910222Y-92200500D01*
X220127951Y-92166015D01*
X220337606Y-92097895D01*
X220534022Y-91997815D01*
X220712365Y-91868242D01*
X220868242Y-91712365D01*
X220997815Y-91534022D01*
X221097895Y-91337606D01*
X221166015Y-91127951D01*
X221200500Y-90910222D01*
X221200500Y-90897648D01*
X224199500Y-90897648D01*
X224199500Y-91102351D01*
X224231522Y-91304534D01*
X224294781Y-91499223D01*
X224387715Y-91681613D01*
X224508028Y-91847213D01*
X224652786Y-91991971D01*
X224758302Y-92068631D01*
X224818390Y-92112287D01*
X224923835Y-92166014D01*
X225000776Y-92205218D01*
X225000778Y-92205218D01*
X225000781Y-92205220D01*
X225105137Y-92239127D01*
X225195465Y-92268477D01*
X225296557Y-92284488D01*
X225397648Y-92300500D01*
X225397649Y-92300500D01*
X225602351Y-92300500D01*
X225602352Y-92300500D01*
X225804534Y-92268477D01*
X225999219Y-92205220D01*
X226181610Y-92112287D01*
X226306251Y-92021731D01*
X226347213Y-91991971D01*
X226347215Y-91991968D01*
X226347219Y-91991966D01*
X226491966Y-91847219D01*
X226491968Y-91847215D01*
X226491971Y-91847213D01*
X226563491Y-91748772D01*
X226612287Y-91681610D01*
X226705220Y-91499219D01*
X226768477Y-91304534D01*
X226800500Y-91102352D01*
X226800500Y-90897648D01*
X226768477Y-90695466D01*
X226705220Y-90500781D01*
X226705218Y-90500778D01*
X226705218Y-90500776D01*
X226630678Y-90354485D01*
X226612287Y-90318390D01*
X226604556Y-90307749D01*
X226491971Y-90152786D01*
X226347213Y-90008028D01*
X226181613Y-89887715D01*
X226181612Y-89887714D01*
X226181610Y-89887713D01*
X226124653Y-89858691D01*
X225999223Y-89794781D01*
X225804534Y-89731522D01*
X225629995Y-89703878D01*
X225602352Y-89699500D01*
X225397648Y-89699500D01*
X225373329Y-89703351D01*
X225195465Y-89731522D01*
X225000776Y-89794781D01*
X224818386Y-89887715D01*
X224652786Y-90008028D01*
X224508028Y-90152786D01*
X224387715Y-90318386D01*
X224294781Y-90500776D01*
X224231522Y-90695465D01*
X224199500Y-90897648D01*
X221200500Y-90897648D01*
X221200500Y-90689778D01*
X221166015Y-90472049D01*
X221097895Y-90262394D01*
X221097895Y-90262393D01*
X221042046Y-90152786D01*
X220997815Y-90065978D01*
X220981260Y-90043192D01*
X220868247Y-89887641D01*
X220868243Y-89887636D01*
X220712363Y-89731756D01*
X220712358Y-89731752D01*
X220534025Y-89602187D01*
X220534024Y-89602186D01*
X220534022Y-89602185D01*
X220471096Y-89570122D01*
X220337606Y-89502104D01*
X220337603Y-89502103D01*
X220127952Y-89433985D01*
X220019086Y-89416742D01*
X219910222Y-89399500D01*
X219839882Y-89399500D01*
X194039882Y-89399500D01*
X194000000Y-89399500D01*
X193889778Y-89399500D01*
X193817201Y-89410995D01*
X193672047Y-89433985D01*
X193462396Y-89502103D01*
X193462393Y-89502104D01*
X193265974Y-89602187D01*
X193087641Y-89731752D01*
X193087636Y-89731756D01*
X192931756Y-89887636D01*
X192931752Y-89887641D01*
X192802187Y-90065974D01*
X192702104Y-90262393D01*
X192702103Y-90262396D01*
X192633985Y-90472047D01*
X192633985Y-90472049D01*
X192599500Y-90689778D01*
X187266629Y-90689778D01*
X187205220Y-90500781D01*
X187205218Y-90500778D01*
X187205218Y-90500776D01*
X187130678Y-90354485D01*
X187112287Y-90318390D01*
X187104556Y-90307749D01*
X186991971Y-90152786D01*
X186847213Y-90008028D01*
X186681613Y-89887715D01*
X186681612Y-89887714D01*
X186681610Y-89887713D01*
X186624653Y-89858691D01*
X186499223Y-89794781D01*
X186304534Y-89731522D01*
X186129995Y-89703878D01*
X186102352Y-89699500D01*
X185897648Y-89699500D01*
X185873329Y-89703351D01*
X185695465Y-89731522D01*
X185500776Y-89794781D01*
X185318386Y-89887715D01*
X185152786Y-90008028D01*
X185008028Y-90152786D01*
X184887715Y-90318386D01*
X184794781Y-90500776D01*
X184731522Y-90695465D01*
X184699500Y-90897648D01*
X183700500Y-90897648D01*
X183700500Y-85164071D01*
X188849499Y-85164071D01*
X188874497Y-85289738D01*
X188874499Y-85289744D01*
X188923533Y-85408124D01*
X188923538Y-85408133D01*
X188994723Y-85514668D01*
X188994726Y-85514672D01*
X189085327Y-85605273D01*
X189085331Y-85605276D01*
X189191866Y-85676461D01*
X189191872Y-85676464D01*
X189191873Y-85676465D01*
X189310256Y-85725501D01*
X189310260Y-85725501D01*
X189310261Y-85725502D01*
X189435928Y-85750500D01*
X189435931Y-85750500D01*
X189564071Y-85750500D01*
X189648615Y-85733682D01*
X189689744Y-85725501D01*
X189808127Y-85676465D01*
X189914669Y-85605276D01*
X190005276Y-85514669D01*
X190076465Y-85408127D01*
X190125501Y-85289744D01*
X190150500Y-85164069D01*
X190150500Y-85035931D01*
X190150500Y-85035928D01*
X190125502Y-84910261D01*
X190125501Y-84910260D01*
X190125501Y-84910256D01*
X190076465Y-84791873D01*
X190076464Y-84791872D01*
X190076461Y-84791866D01*
X190005276Y-84685331D01*
X190005273Y-84685327D01*
X189914672Y-84594726D01*
X189914668Y-84594723D01*
X189808133Y-84523538D01*
X189808124Y-84523533D01*
X189689744Y-84474499D01*
X189689738Y-84474497D01*
X189564071Y-84449500D01*
X189564069Y-84449500D01*
X189435931Y-84449500D01*
X189435929Y-84449500D01*
X189310261Y-84474497D01*
X189310255Y-84474499D01*
X189191875Y-84523533D01*
X189191866Y-84523538D01*
X189085331Y-84594723D01*
X189085327Y-84594726D01*
X188994726Y-84685327D01*
X188994723Y-84685331D01*
X188923538Y-84791866D01*
X188923533Y-84791875D01*
X188874499Y-84910255D01*
X188874497Y-84910261D01*
X188849500Y-85035928D01*
X188849500Y-85035931D01*
X188849500Y-85164069D01*
X188849500Y-85164071D01*
X188849499Y-85164071D01*
X183700500Y-85164071D01*
X183700500Y-82480131D01*
X190324500Y-82480131D01*
X190324500Y-83919856D01*
X190324502Y-83919882D01*
X190327413Y-83944987D01*
X190327415Y-83944991D01*
X190372793Y-84047764D01*
X190372794Y-84047765D01*
X190452235Y-84127206D01*
X190555009Y-84172585D01*
X190580135Y-84175500D01*
X192019864Y-84175499D01*
X192019879Y-84175497D01*
X192019882Y-84175497D01*
X192044987Y-84172586D01*
X192044988Y-84172585D01*
X192044991Y-84172585D01*
X192147765Y-84127206D01*
X192227206Y-84047765D01*
X192233377Y-84033788D01*
X192278461Y-83980413D01*
X192345246Y-83959884D01*
X192412529Y-83978721D01*
X192434492Y-83996193D01*
X192534540Y-84096241D01*
X192534545Y-84096245D01*
X192684162Y-84204947D01*
X192848956Y-84288915D01*
X192848959Y-84288916D01*
X193024845Y-84346064D01*
X193024858Y-84346067D01*
X193050000Y-84350049D01*
X193050000Y-83515686D01*
X193054394Y-83520080D01*
X193145606Y-83572741D01*
X193247339Y-83600000D01*
X193352661Y-83600000D01*
X193454394Y-83572741D01*
X193545606Y-83520080D01*
X193550000Y-83515686D01*
X193550000Y-84350048D01*
X193575141Y-84346067D01*
X193575154Y-84346064D01*
X193751040Y-84288916D01*
X193751043Y-84288915D01*
X193915837Y-84204947D01*
X194065454Y-84096245D01*
X194065459Y-84096241D01*
X194196241Y-83965459D01*
X194196245Y-83965454D01*
X194304947Y-83815838D01*
X194309842Y-83806232D01*
X194357816Y-83755435D01*
X194425636Y-83738639D01*
X194491772Y-83761175D01*
X194523431Y-83793635D01*
X194542281Y-83821847D01*
X194678151Y-83957717D01*
X194678155Y-83957720D01*
X194837927Y-84064477D01*
X194837928Y-84064477D01*
X194837929Y-84064478D01*
X194837931Y-84064479D01*
X194914612Y-84096241D01*
X195015457Y-84138012D01*
X195203907Y-84175497D01*
X195203917Y-84175499D01*
X195203920Y-84175500D01*
X195203922Y-84175500D01*
X195396080Y-84175500D01*
X195396081Y-84175499D01*
X195584543Y-84138012D01*
X195762073Y-84064477D01*
X195921845Y-83957720D01*
X196057720Y-83821845D01*
X196164477Y-83662073D01*
X196185439Y-83611467D01*
X196229280Y-83557063D01*
X196295574Y-83534998D01*
X196363273Y-83552277D01*
X196410884Y-83603414D01*
X196414561Y-83611467D01*
X196435520Y-83662068D01*
X196435521Y-83662070D01*
X196542279Y-83821844D01*
X196542282Y-83821848D01*
X196678151Y-83957717D01*
X196678155Y-83957720D01*
X196837927Y-84064477D01*
X196837928Y-84064477D01*
X196837929Y-84064478D01*
X196837931Y-84064479D01*
X196914612Y-84096241D01*
X197015457Y-84138012D01*
X197203907Y-84175497D01*
X197203917Y-84175499D01*
X197203920Y-84175500D01*
X197203922Y-84175500D01*
X197396080Y-84175500D01*
X197396081Y-84175499D01*
X197584543Y-84138012D01*
X197762073Y-84064477D01*
X197921845Y-83957720D01*
X198057720Y-83821845D01*
X198164477Y-83662073D01*
X198185439Y-83611467D01*
X198229280Y-83557063D01*
X198295574Y-83534998D01*
X198363273Y-83552277D01*
X198410884Y-83603414D01*
X198414561Y-83611467D01*
X198435520Y-83662068D01*
X198435521Y-83662070D01*
X198542279Y-83821844D01*
X198542282Y-83821848D01*
X198678151Y-83957717D01*
X198678155Y-83957720D01*
X198837927Y-84064477D01*
X198837928Y-84064477D01*
X198837929Y-84064478D01*
X198837931Y-84064479D01*
X198914612Y-84096241D01*
X199015457Y-84138012D01*
X199203907Y-84175497D01*
X199203917Y-84175499D01*
X199203920Y-84175500D01*
X199203922Y-84175500D01*
X199396080Y-84175500D01*
X199396081Y-84175499D01*
X199584543Y-84138012D01*
X199762073Y-84064477D01*
X199921845Y-83957720D01*
X200057720Y-83821845D01*
X200164477Y-83662073D01*
X200185439Y-83611467D01*
X200229280Y-83557063D01*
X200295574Y-83534998D01*
X200363273Y-83552277D01*
X200410884Y-83603414D01*
X200414561Y-83611467D01*
X200435520Y-83662068D01*
X200435521Y-83662070D01*
X200542279Y-83821844D01*
X200542282Y-83821848D01*
X200678151Y-83957717D01*
X200678155Y-83957720D01*
X200837927Y-84064477D01*
X200837928Y-84064477D01*
X200837929Y-84064478D01*
X200837931Y-84064479D01*
X200914612Y-84096241D01*
X201015457Y-84138012D01*
X201203907Y-84175497D01*
X201203917Y-84175499D01*
X201203920Y-84175500D01*
X201203922Y-84175500D01*
X201396080Y-84175500D01*
X201396081Y-84175499D01*
X201584543Y-84138012D01*
X201762073Y-84064477D01*
X201921845Y-83957720D01*
X202057720Y-83821845D01*
X202164477Y-83662073D01*
X202238012Y-83484543D01*
X202275500Y-83296078D01*
X202275500Y-83103922D01*
X202275500Y-83103919D01*
X202275499Y-83103917D01*
X202238013Y-82915464D01*
X202238012Y-82915457D01*
X202217113Y-82865001D01*
X202164479Y-82737931D01*
X202164478Y-82737929D01*
X202114537Y-82663188D01*
X202057720Y-82578155D01*
X202057717Y-82578151D01*
X201921848Y-82442282D01*
X201921844Y-82442279D01*
X201762070Y-82335521D01*
X201762068Y-82335520D01*
X201584547Y-82261989D01*
X201584535Y-82261986D01*
X201396081Y-82224500D01*
X201396078Y-82224500D01*
X201203922Y-82224500D01*
X201203919Y-82224500D01*
X201015464Y-82261986D01*
X201015452Y-82261989D01*
X200837931Y-82335520D01*
X200837929Y-82335521D01*
X200678155Y-82442279D01*
X200678151Y-82442282D01*
X200542282Y-82578151D01*
X200542279Y-82578155D01*
X200435521Y-82737929D01*
X200414561Y-82788533D01*
X200370720Y-82842936D01*
X200304426Y-82865001D01*
X200236726Y-82847722D01*
X200189116Y-82796584D01*
X200185439Y-82788533D01*
X200164478Y-82737929D01*
X200114537Y-82663188D01*
X200057720Y-82578155D01*
X200057717Y-82578151D01*
X199921848Y-82442282D01*
X199921844Y-82442279D01*
X199762070Y-82335521D01*
X199762068Y-82335520D01*
X199584547Y-82261989D01*
X199584535Y-82261986D01*
X199396081Y-82224500D01*
X199396078Y-82224500D01*
X199203922Y-82224500D01*
X199203919Y-82224500D01*
X199015464Y-82261986D01*
X199015452Y-82261989D01*
X198837931Y-82335520D01*
X198837929Y-82335521D01*
X198678155Y-82442279D01*
X198678151Y-82442282D01*
X198542282Y-82578151D01*
X198542279Y-82578155D01*
X198435521Y-82737929D01*
X198414561Y-82788533D01*
X198370720Y-82842936D01*
X198304426Y-82865001D01*
X198236726Y-82847722D01*
X198189116Y-82796584D01*
X198185439Y-82788533D01*
X198164478Y-82737929D01*
X198114537Y-82663188D01*
X198057720Y-82578155D01*
X198057717Y-82578151D01*
X197921848Y-82442282D01*
X197921844Y-82442279D01*
X197762070Y-82335521D01*
X197762068Y-82335520D01*
X197584547Y-82261989D01*
X197584535Y-82261986D01*
X197396081Y-82224500D01*
X197396078Y-82224500D01*
X197203922Y-82224500D01*
X197203919Y-82224500D01*
X197015464Y-82261986D01*
X197015452Y-82261989D01*
X196837931Y-82335520D01*
X196837929Y-82335521D01*
X196678155Y-82442279D01*
X196678151Y-82442282D01*
X196542282Y-82578151D01*
X196542279Y-82578155D01*
X196435521Y-82737929D01*
X196414561Y-82788533D01*
X196370720Y-82842936D01*
X196304426Y-82865001D01*
X196236726Y-82847722D01*
X196189116Y-82796584D01*
X196185439Y-82788533D01*
X196164478Y-82737929D01*
X196114537Y-82663188D01*
X196057720Y-82578155D01*
X196057717Y-82578151D01*
X195921848Y-82442282D01*
X195921844Y-82442279D01*
X195762070Y-82335521D01*
X195762068Y-82335520D01*
X195584547Y-82261989D01*
X195584535Y-82261986D01*
X195396081Y-82224500D01*
X195396078Y-82224500D01*
X195203922Y-82224500D01*
X195203919Y-82224500D01*
X195015464Y-82261986D01*
X195015452Y-82261989D01*
X194837931Y-82335520D01*
X194837929Y-82335521D01*
X194678155Y-82442279D01*
X194678151Y-82442282D01*
X194542282Y-82578151D01*
X194542279Y-82578155D01*
X194523430Y-82606365D01*
X194469817Y-82651170D01*
X194400492Y-82659877D01*
X194337465Y-82629722D01*
X194309844Y-82593770D01*
X194304949Y-82584164D01*
X194196245Y-82434545D01*
X194196241Y-82434540D01*
X194065459Y-82303758D01*
X194065454Y-82303754D01*
X193915837Y-82195052D01*
X193751043Y-82111084D01*
X193751037Y-82111082D01*
X193575144Y-82053932D01*
X193550000Y-82049950D01*
X193550000Y-82884314D01*
X193545606Y-82879920D01*
X193454394Y-82827259D01*
X193352661Y-82800000D01*
X193247339Y-82800000D01*
X193145606Y-82827259D01*
X193054394Y-82879920D01*
X193050000Y-82884314D01*
X193050000Y-82049950D01*
X193049999Y-82049950D01*
X193024855Y-82053932D01*
X192848962Y-82111082D01*
X192848956Y-82111084D01*
X192684162Y-82195052D01*
X192534546Y-82303753D01*
X192434492Y-82403807D01*
X192373169Y-82437291D01*
X192303477Y-82432307D01*
X192247544Y-82390435D01*
X192233380Y-82366217D01*
X192227206Y-82352235D01*
X192147765Y-82272794D01*
X192123287Y-82261986D01*
X192044992Y-82227415D01*
X192019865Y-82224500D01*
X190580143Y-82224500D01*
X190580117Y-82224502D01*
X190555012Y-82227413D01*
X190555008Y-82227415D01*
X190452235Y-82272793D01*
X190372794Y-82352234D01*
X190327415Y-82455006D01*
X190327415Y-82455008D01*
X190324500Y-82480131D01*
X183700500Y-82480131D01*
X183700500Y-81305131D01*
X203987000Y-81305131D01*
X203987000Y-82494856D01*
X203987002Y-82494882D01*
X203989913Y-82519987D01*
X203989915Y-82519991D01*
X204035293Y-82622764D01*
X204035294Y-82622765D01*
X204114735Y-82702206D01*
X204217509Y-82747585D01*
X204242635Y-82750500D01*
X205432364Y-82750499D01*
X205432379Y-82750497D01*
X205432382Y-82750497D01*
X205457486Y-82747586D01*
X205457487Y-82747585D01*
X205457491Y-82747585D01*
X205560265Y-82702206D01*
X205572401Y-82690070D01*
X205633723Y-82656583D01*
X205703415Y-82661566D01*
X205707508Y-82663176D01*
X205839418Y-82717816D01*
X205989073Y-82747584D01*
X206003728Y-82750499D01*
X206003732Y-82750500D01*
X206003733Y-82750500D01*
X206171268Y-82750500D01*
X206171269Y-82750499D01*
X206335582Y-82717816D01*
X206490363Y-82653703D01*
X206629662Y-82560626D01*
X206748126Y-82442162D01*
X206841203Y-82302863D01*
X206905316Y-82148082D01*
X206938000Y-81983767D01*
X206938000Y-81816233D01*
X206905316Y-81651918D01*
X206841203Y-81497137D01*
X206810037Y-81450494D01*
X206748126Y-81357837D01*
X206629662Y-81239373D01*
X206490360Y-81146295D01*
X206335582Y-81082184D01*
X206335574Y-81082182D01*
X206171271Y-81049500D01*
X206171267Y-81049500D01*
X206003733Y-81049500D01*
X206003728Y-81049500D01*
X205839425Y-81082182D01*
X205839413Y-81082185D01*
X205707535Y-81136811D01*
X205638066Y-81144280D01*
X205575587Y-81113005D01*
X205572402Y-81109931D01*
X205560265Y-81097794D01*
X205457492Y-81052415D01*
X205432365Y-81049500D01*
X204242643Y-81049500D01*
X204242617Y-81049502D01*
X204217512Y-81052413D01*
X204217508Y-81052415D01*
X204114735Y-81097793D01*
X204035294Y-81177234D01*
X203989915Y-81280006D01*
X203989915Y-81280008D01*
X203987000Y-81305131D01*
X183700500Y-81305131D01*
X183700500Y-79269096D01*
X197654524Y-79269096D01*
X197679522Y-79394763D01*
X197679524Y-79394769D01*
X197728558Y-79513149D01*
X197728563Y-79513158D01*
X197799748Y-79619693D01*
X197799751Y-79619697D01*
X197890352Y-79710298D01*
X197890356Y-79710301D01*
X197996891Y-79781486D01*
X197996897Y-79781489D01*
X197996898Y-79781490D01*
X198115281Y-79830526D01*
X198115285Y-79830526D01*
X198115286Y-79830527D01*
X198240953Y-79855525D01*
X198240956Y-79855525D01*
X198369096Y-79855525D01*
X198453640Y-79838707D01*
X198494769Y-79830526D01*
X198613152Y-79781490D01*
X198631704Y-79769094D01*
X199404525Y-79769094D01*
X199429523Y-79894761D01*
X199429525Y-79894767D01*
X199478559Y-80013147D01*
X199478564Y-80013156D01*
X199549749Y-80119691D01*
X199549752Y-80119695D01*
X199551069Y-80121012D01*
X199551538Y-80121871D01*
X199553615Y-80124402D01*
X199553135Y-80124795D01*
X199584554Y-80182335D01*
X199579570Y-80252027D01*
X199566491Y-80277583D01*
X199523537Y-80341868D01*
X199523533Y-80341875D01*
X199474499Y-80460255D01*
X199474497Y-80460261D01*
X199449500Y-80585928D01*
X199449500Y-80585931D01*
X199449500Y-80714069D01*
X199449500Y-80714071D01*
X199449499Y-80714071D01*
X199474497Y-80839738D01*
X199474499Y-80839744D01*
X199523533Y-80958124D01*
X199523538Y-80958133D01*
X199594723Y-81064668D01*
X199594726Y-81064672D01*
X199685327Y-81155273D01*
X199685331Y-81155276D01*
X199791866Y-81226461D01*
X199791872Y-81226464D01*
X199791873Y-81226465D01*
X199910256Y-81275501D01*
X199910260Y-81275501D01*
X199910261Y-81275502D01*
X200035928Y-81300500D01*
X200035931Y-81300500D01*
X200164071Y-81300500D01*
X200267096Y-81280006D01*
X200289744Y-81275501D01*
X200408127Y-81226465D01*
X200408133Y-81226461D01*
X200450052Y-81198452D01*
X200482628Y-81176685D01*
X200514669Y-81155276D01*
X200605276Y-81064669D01*
X200676465Y-80958127D01*
X200725501Y-80839744D01*
X200750500Y-80714069D01*
X200750500Y-80585931D01*
X200750500Y-80585928D01*
X200725502Y-80460261D01*
X200725501Y-80460260D01*
X200725501Y-80460256D01*
X200685660Y-80364071D01*
X211849499Y-80364071D01*
X211874497Y-80489738D01*
X211874499Y-80489744D01*
X211923533Y-80608124D01*
X211923538Y-80608133D01*
X211994723Y-80714668D01*
X211994726Y-80714672D01*
X212085327Y-80805273D01*
X212085331Y-80805276D01*
X212191866Y-80876461D01*
X212191872Y-80876464D01*
X212191873Y-80876465D01*
X212310256Y-80925501D01*
X212310260Y-80925501D01*
X212310261Y-80925502D01*
X212435928Y-80950500D01*
X212435931Y-80950500D01*
X212564071Y-80950500D01*
X212648615Y-80933682D01*
X212689744Y-80925501D01*
X212808127Y-80876465D01*
X212914669Y-80805276D01*
X213005276Y-80714669D01*
X213076465Y-80608127D01*
X213125501Y-80489744D01*
X213150500Y-80364069D01*
X213150500Y-80235931D01*
X213150500Y-80235928D01*
X213125502Y-80110261D01*
X213125501Y-80110260D01*
X213125501Y-80110256D01*
X213076465Y-79991873D01*
X213076464Y-79991872D01*
X213076461Y-79991866D01*
X213005276Y-79885331D01*
X213005273Y-79885327D01*
X212914672Y-79794726D01*
X212914668Y-79794723D01*
X212808133Y-79723538D01*
X212808124Y-79723533D01*
X212689744Y-79674499D01*
X212689738Y-79674497D01*
X212564071Y-79649500D01*
X212564069Y-79649500D01*
X212435931Y-79649500D01*
X212435929Y-79649500D01*
X212310261Y-79674497D01*
X212310255Y-79674499D01*
X212191875Y-79723533D01*
X212191866Y-79723538D01*
X212085331Y-79794723D01*
X212085327Y-79794726D01*
X211994726Y-79885327D01*
X211994723Y-79885331D01*
X211923538Y-79991866D01*
X211923533Y-79991875D01*
X211874499Y-80110255D01*
X211874497Y-80110261D01*
X211849500Y-80235928D01*
X211849500Y-80235931D01*
X211849500Y-80364069D01*
X211849500Y-80364071D01*
X211849499Y-80364071D01*
X200685660Y-80364071D01*
X200676465Y-80341873D01*
X200605276Y-80235331D01*
X200596506Y-80226561D01*
X200590421Y-80217963D01*
X200582368Y-80194474D01*
X200570471Y-80172687D01*
X200571235Y-80162002D01*
X200567761Y-80151870D01*
X200573683Y-80127760D01*
X200575455Y-80102995D01*
X200583749Y-80086787D01*
X200584430Y-80084018D01*
X200585861Y-80082660D01*
X200588532Y-80077442D01*
X200631491Y-80013150D01*
X200680527Y-79894767D01*
X200688708Y-79853638D01*
X200705526Y-79769094D01*
X200705526Y-79640951D01*
X200680528Y-79515284D01*
X200680527Y-79515283D01*
X200680527Y-79515279D01*
X200645371Y-79430407D01*
X200637903Y-79360939D01*
X200669178Y-79298459D01*
X200691042Y-79279853D01*
X200692787Y-79278688D01*
X200783394Y-79188081D01*
X200854583Y-79081539D01*
X200903619Y-78963156D01*
X200922959Y-78865931D01*
X200928618Y-78837483D01*
X200928618Y-78709340D01*
X200903620Y-78583673D01*
X200903619Y-78583672D01*
X200903619Y-78583668D01*
X200875312Y-78515330D01*
X206336135Y-78515330D01*
X206361133Y-78640997D01*
X206361135Y-78641003D01*
X206410169Y-78759383D01*
X206410174Y-78759392D01*
X206481359Y-78865927D01*
X206481362Y-78865931D01*
X206571963Y-78956532D01*
X206571967Y-78956535D01*
X206678502Y-79027720D01*
X206678508Y-79027723D01*
X206678509Y-79027724D01*
X206796892Y-79076760D01*
X206796896Y-79076760D01*
X206796897Y-79076761D01*
X206922564Y-79101759D01*
X206955844Y-79101759D01*
X207022883Y-79121444D01*
X207068638Y-79174248D01*
X207074480Y-79189700D01*
X207123533Y-79308124D01*
X207123538Y-79308133D01*
X207194723Y-79414668D01*
X207194726Y-79414672D01*
X207285327Y-79505273D01*
X207285331Y-79505276D01*
X207391866Y-79576461D01*
X207391872Y-79576464D01*
X207391873Y-79576465D01*
X207510256Y-79625501D01*
X207510260Y-79625501D01*
X207510261Y-79625502D01*
X207635928Y-79650500D01*
X207635931Y-79650500D01*
X207764071Y-79650500D01*
X207848615Y-79633682D01*
X207889744Y-79625501D01*
X208008127Y-79576465D01*
X208114669Y-79505276D01*
X208205276Y-79414669D01*
X208276465Y-79308127D01*
X208325501Y-79189744D01*
X208339087Y-79121444D01*
X208350500Y-79064071D01*
X208350500Y-78935928D01*
X208325502Y-78810261D01*
X208325501Y-78810260D01*
X208325501Y-78810256D01*
X208282017Y-78705276D01*
X208276466Y-78691875D01*
X208276461Y-78691866D01*
X208205276Y-78585331D01*
X208205273Y-78585327D01*
X208114672Y-78494726D01*
X208114668Y-78494723D01*
X208008133Y-78423538D01*
X208008124Y-78423533D01*
X207889744Y-78374499D01*
X207889738Y-78374497D01*
X207764071Y-78349500D01*
X207764069Y-78349500D01*
X207730792Y-78349500D01*
X207711278Y-78343770D01*
X207690956Y-78342927D01*
X207678434Y-78334126D01*
X207663753Y-78329815D01*
X207650435Y-78314446D01*
X207633794Y-78302749D01*
X207623784Y-78283689D01*
X207617998Y-78277011D01*
X207615959Y-78272292D01*
X207612680Y-78264245D01*
X207612645Y-78264071D01*
X215886999Y-78264071D01*
X215911997Y-78389738D01*
X215911999Y-78389744D01*
X215961033Y-78508124D01*
X215961038Y-78508133D01*
X216032223Y-78614668D01*
X216032226Y-78614672D01*
X216122827Y-78705273D01*
X216122831Y-78705276D01*
X216229366Y-78776461D01*
X216229372Y-78776464D01*
X216229373Y-78776465D01*
X216347756Y-78825501D01*
X216347760Y-78825501D01*
X216347761Y-78825502D01*
X216473428Y-78850500D01*
X216473431Y-78850500D01*
X216601571Y-78850500D01*
X216686115Y-78833682D01*
X216727244Y-78825501D01*
X216845627Y-78776465D01*
X216952169Y-78705276D01*
X217042776Y-78614669D01*
X217113965Y-78508127D01*
X217163001Y-78389744D01*
X217180306Y-78302749D01*
X217188000Y-78264071D01*
X217188000Y-78135928D01*
X217163002Y-78010261D01*
X217163001Y-78010260D01*
X217163001Y-78010256D01*
X217113965Y-77891873D01*
X217113964Y-77891872D01*
X217111092Y-77886498D01*
X217113070Y-77885440D01*
X217095193Y-77828351D01*
X217113675Y-77760970D01*
X217131489Y-77738455D01*
X217205276Y-77664669D01*
X217276465Y-77558127D01*
X217325501Y-77439744D01*
X217350500Y-77314069D01*
X217350500Y-77185931D01*
X217350500Y-77185928D01*
X217325502Y-77060261D01*
X217325501Y-77060260D01*
X217325501Y-77060256D01*
X217282017Y-76955276D01*
X217276466Y-76941875D01*
X217276461Y-76941866D01*
X217205276Y-76835331D01*
X217205273Y-76835327D01*
X217114672Y-76744726D01*
X217114668Y-76744723D01*
X217008133Y-76673538D01*
X217008124Y-76673533D01*
X216889744Y-76624499D01*
X216889738Y-76624497D01*
X216764071Y-76599500D01*
X216764069Y-76599500D01*
X216635931Y-76599500D01*
X216635929Y-76599500D01*
X216510261Y-76624497D01*
X216510255Y-76624499D01*
X216391875Y-76673533D01*
X216391866Y-76673538D01*
X216285331Y-76744723D01*
X216285327Y-76744726D01*
X216194726Y-76835327D01*
X216194723Y-76835331D01*
X216123538Y-76941866D01*
X216123533Y-76941875D01*
X216074499Y-77060255D01*
X216074497Y-77060261D01*
X216049500Y-77185928D01*
X216049500Y-77185931D01*
X216049500Y-77314069D01*
X216049500Y-77314071D01*
X216049499Y-77314071D01*
X216074497Y-77439738D01*
X216074499Y-77439744D01*
X216123535Y-77558129D01*
X216126405Y-77563497D01*
X216124429Y-77564552D01*
X216142306Y-77621662D01*
X216123816Y-77689040D01*
X216106008Y-77711546D01*
X216032223Y-77785331D01*
X215961038Y-77891866D01*
X215961033Y-77891875D01*
X215911999Y-78010255D01*
X215911997Y-78010261D01*
X215887000Y-78135928D01*
X215887000Y-78135931D01*
X215887000Y-78264069D01*
X215887000Y-78264071D01*
X215886999Y-78264071D01*
X207612645Y-78264071D01*
X207612137Y-78261515D01*
X207563101Y-78143132D01*
X207563099Y-78143129D01*
X207563097Y-78143125D01*
X207491912Y-78036590D01*
X207491909Y-78036586D01*
X207401308Y-77945985D01*
X207401304Y-77945982D01*
X207294769Y-77874797D01*
X207294760Y-77874792D01*
X207176380Y-77825758D01*
X207176374Y-77825756D01*
X207050707Y-77800759D01*
X207050705Y-77800759D01*
X206922567Y-77800759D01*
X206922565Y-77800759D01*
X206796897Y-77825756D01*
X206796891Y-77825758D01*
X206678511Y-77874792D01*
X206678502Y-77874797D01*
X206571967Y-77945982D01*
X206571963Y-77945985D01*
X206481362Y-78036586D01*
X206481359Y-78036590D01*
X206410174Y-78143125D01*
X206410169Y-78143134D01*
X206361135Y-78261514D01*
X206361133Y-78261520D01*
X206336136Y-78387187D01*
X206336136Y-78387190D01*
X206336136Y-78515328D01*
X206336136Y-78515330D01*
X206336135Y-78515330D01*
X200875312Y-78515330D01*
X200854583Y-78465285D01*
X200826685Y-78423533D01*
X200783394Y-78358743D01*
X200783391Y-78358739D01*
X200692790Y-78268138D01*
X200692786Y-78268135D01*
X200586251Y-78196950D01*
X200586242Y-78196945D01*
X200467862Y-78147911D01*
X200467856Y-78147909D01*
X200342189Y-78122912D01*
X200342187Y-78122912D01*
X200214049Y-78122912D01*
X200214047Y-78122912D01*
X200088379Y-78147909D01*
X200088373Y-78147911D01*
X199969993Y-78196945D01*
X199969984Y-78196950D01*
X199863449Y-78268135D01*
X199863445Y-78268138D01*
X199772844Y-78358739D01*
X199772841Y-78358743D01*
X199701656Y-78465278D01*
X199701651Y-78465287D01*
X199652617Y-78583667D01*
X199652615Y-78583673D01*
X199627618Y-78709340D01*
X199627618Y-78709343D01*
X199627618Y-78837481D01*
X199627618Y-78837483D01*
X199627617Y-78837483D01*
X199652615Y-78963150D01*
X199652618Y-78963160D01*
X199687771Y-79048027D01*
X199695240Y-79117496D01*
X199663965Y-79179975D01*
X199642105Y-79198579D01*
X199640354Y-79199748D01*
X199549752Y-79290350D01*
X199549749Y-79290354D01*
X199478564Y-79396889D01*
X199478559Y-79396898D01*
X199429525Y-79515278D01*
X199429523Y-79515284D01*
X199404526Y-79640951D01*
X199404526Y-79640954D01*
X199404526Y-79769092D01*
X199404526Y-79769094D01*
X199404525Y-79769094D01*
X198631704Y-79769094D01*
X198719694Y-79710301D01*
X198810301Y-79619694D01*
X198839186Y-79576465D01*
X198846198Y-79565971D01*
X198881486Y-79513158D01*
X198881486Y-79513157D01*
X198881490Y-79513152D01*
X198930526Y-79394769D01*
X198940727Y-79343488D01*
X198955525Y-79269096D01*
X198955525Y-79140953D01*
X198930527Y-79015286D01*
X198930526Y-79015285D01*
X198930526Y-79015281D01*
X198881490Y-78896898D01*
X198881489Y-78896897D01*
X198881486Y-78896891D01*
X198810301Y-78790356D01*
X198810298Y-78790352D01*
X198719697Y-78699751D01*
X198719693Y-78699748D01*
X198613158Y-78628563D01*
X198613149Y-78628558D01*
X198494769Y-78579524D01*
X198494763Y-78579522D01*
X198369096Y-78554525D01*
X198369094Y-78554525D01*
X198240956Y-78554525D01*
X198240954Y-78554525D01*
X198115286Y-78579522D01*
X198115280Y-78579524D01*
X197996900Y-78628558D01*
X197996891Y-78628563D01*
X197890356Y-78699748D01*
X197890352Y-78699751D01*
X197799751Y-78790352D01*
X197799748Y-78790356D01*
X197728563Y-78896891D01*
X197728558Y-78896900D01*
X197679524Y-79015280D01*
X197679522Y-79015286D01*
X197654525Y-79140953D01*
X197654525Y-79140956D01*
X197654525Y-79269094D01*
X197654525Y-79269096D01*
X197654524Y-79269096D01*
X183700500Y-79269096D01*
X183700500Y-76514071D01*
X197899499Y-76514071D01*
X197924497Y-76639738D01*
X197924499Y-76639744D01*
X197973533Y-76758124D01*
X197973538Y-76758133D01*
X198044723Y-76864668D01*
X198044726Y-76864672D01*
X198135327Y-76955273D01*
X198135331Y-76955276D01*
X198241866Y-77026461D01*
X198241872Y-77026464D01*
X198241873Y-77026465D01*
X198360256Y-77075501D01*
X198360260Y-77075501D01*
X198360261Y-77075502D01*
X198485928Y-77100500D01*
X198485931Y-77100500D01*
X198614071Y-77100500D01*
X198698615Y-77083682D01*
X198739744Y-77075501D01*
X198858127Y-77026465D01*
X198964669Y-76955276D01*
X199055276Y-76864669D01*
X199126465Y-76758127D01*
X199175501Y-76639744D01*
X199200500Y-76514069D01*
X199200500Y-76385931D01*
X199200500Y-76385928D01*
X199175502Y-76260261D01*
X199175501Y-76260260D01*
X199175501Y-76260256D01*
X199126465Y-76141873D01*
X199126464Y-76141872D01*
X199126461Y-76141866D01*
X199055274Y-76035328D01*
X199052431Y-76031863D01*
X199039975Y-76002531D01*
X199026027Y-75973890D01*
X199026416Y-75970601D01*
X199025122Y-75967552D01*
X199030502Y-75936139D01*
X199033118Y-75914071D01*
X211149499Y-75914071D01*
X211174497Y-76039738D01*
X211174499Y-76039744D01*
X211223533Y-76158124D01*
X211223538Y-76158133D01*
X211294723Y-76264668D01*
X211294726Y-76264672D01*
X211385327Y-76355273D01*
X211385331Y-76355276D01*
X211491866Y-76426461D01*
X211491872Y-76426464D01*
X211491873Y-76426465D01*
X211610256Y-76475501D01*
X211610260Y-76475501D01*
X211610261Y-76475502D01*
X211735928Y-76500500D01*
X211735931Y-76500500D01*
X211864071Y-76500500D01*
X211948615Y-76483682D01*
X211989744Y-76475501D01*
X212108127Y-76426465D01*
X212214669Y-76355276D01*
X212305276Y-76264669D01*
X212376465Y-76158127D01*
X212425501Y-76039744D01*
X212439861Y-75967552D01*
X212450500Y-75914071D01*
X212450500Y-75785928D01*
X212425502Y-75660261D01*
X212425501Y-75660260D01*
X212425501Y-75660256D01*
X212376465Y-75541873D01*
X212376464Y-75541872D01*
X212376461Y-75541866D01*
X212305276Y-75435331D01*
X212305273Y-75435327D01*
X212284017Y-75414071D01*
X215799499Y-75414071D01*
X215824497Y-75539738D01*
X215824499Y-75539744D01*
X215873533Y-75658124D01*
X215873538Y-75658133D01*
X215944723Y-75764668D01*
X215944726Y-75764672D01*
X216035327Y-75855273D01*
X216035331Y-75855276D01*
X216141866Y-75926461D01*
X216141872Y-75926464D01*
X216141873Y-75926465D01*
X216260256Y-75975501D01*
X216260260Y-75975501D01*
X216260261Y-75975502D01*
X216385928Y-76000500D01*
X216385931Y-76000500D01*
X216514071Y-76000500D01*
X216598615Y-75983682D01*
X216639744Y-75975501D01*
X216758127Y-75926465D01*
X216864669Y-75855276D01*
X216955276Y-75764669D01*
X217026465Y-75658127D01*
X217075501Y-75539744D01*
X217090554Y-75464071D01*
X218999499Y-75464071D01*
X219024497Y-75589738D01*
X219024499Y-75589744D01*
X219073533Y-75708124D01*
X219073538Y-75708133D01*
X219144723Y-75814668D01*
X219144726Y-75814672D01*
X219235327Y-75905273D01*
X219235331Y-75905276D01*
X219341866Y-75976461D01*
X219341872Y-75976464D01*
X219341873Y-75976465D01*
X219460256Y-76025501D01*
X219460260Y-76025501D01*
X219460261Y-76025502D01*
X219585928Y-76050500D01*
X219585931Y-76050500D01*
X219714071Y-76050500D01*
X219807761Y-76031863D01*
X219839744Y-76025501D01*
X219958127Y-75976465D01*
X220064669Y-75905276D01*
X220155276Y-75814669D01*
X220226465Y-75708127D01*
X220275501Y-75589744D01*
X220300500Y-75464069D01*
X220300500Y-75335931D01*
X220300500Y-75335928D01*
X220275502Y-75210261D01*
X220275501Y-75210260D01*
X220275501Y-75210256D01*
X220237574Y-75118692D01*
X220226466Y-75091875D01*
X220226461Y-75091866D01*
X220155276Y-74985331D01*
X220155273Y-74985327D01*
X220064672Y-74894726D01*
X220064668Y-74894723D01*
X219958133Y-74823538D01*
X219958124Y-74823533D01*
X219839744Y-74774499D01*
X219839738Y-74774497D01*
X219714071Y-74749500D01*
X219714069Y-74749500D01*
X219585931Y-74749500D01*
X219585929Y-74749500D01*
X219460261Y-74774497D01*
X219460255Y-74774499D01*
X219341875Y-74823533D01*
X219341866Y-74823538D01*
X219235331Y-74894723D01*
X219235327Y-74894726D01*
X219144726Y-74985327D01*
X219144723Y-74985331D01*
X219073538Y-75091866D01*
X219073533Y-75091875D01*
X219024499Y-75210255D01*
X219024497Y-75210261D01*
X218999500Y-75335928D01*
X218999500Y-75335931D01*
X218999500Y-75464069D01*
X218999500Y-75464071D01*
X218999499Y-75464071D01*
X217090554Y-75464071D01*
X217090554Y-75464069D01*
X217100500Y-75414071D01*
X217100500Y-75285928D01*
X217075502Y-75160261D01*
X217075501Y-75160260D01*
X217075501Y-75160256D01*
X217026465Y-75041873D01*
X217026464Y-75041872D01*
X217026461Y-75041866D01*
X216955276Y-74935331D01*
X216955273Y-74935327D01*
X216864672Y-74844726D01*
X216864668Y-74844723D01*
X216758133Y-74773538D01*
X216758124Y-74773533D01*
X216639744Y-74724499D01*
X216639738Y-74724497D01*
X216514071Y-74699500D01*
X216514069Y-74699500D01*
X216385931Y-74699500D01*
X216385929Y-74699500D01*
X216260261Y-74724497D01*
X216260255Y-74724499D01*
X216141875Y-74773533D01*
X216141866Y-74773538D01*
X216035331Y-74844723D01*
X216035327Y-74844726D01*
X215944726Y-74935327D01*
X215944723Y-74935331D01*
X215873538Y-75041866D01*
X215873533Y-75041875D01*
X215824499Y-75160255D01*
X215824497Y-75160261D01*
X215799500Y-75285928D01*
X215799500Y-75285931D01*
X215799500Y-75414069D01*
X215799500Y-75414071D01*
X215799499Y-75414071D01*
X212284017Y-75414071D01*
X212214672Y-75344726D01*
X212214668Y-75344723D01*
X212108133Y-75273538D01*
X212108124Y-75273533D01*
X211989744Y-75224499D01*
X211989738Y-75224497D01*
X211864071Y-75199500D01*
X211864069Y-75199500D01*
X211735931Y-75199500D01*
X211735929Y-75199500D01*
X211610261Y-75224497D01*
X211610255Y-75224499D01*
X211491875Y-75273533D01*
X211491866Y-75273538D01*
X211385331Y-75344723D01*
X211385327Y-75344726D01*
X211294726Y-75435327D01*
X211294723Y-75435331D01*
X211223538Y-75541866D01*
X211223533Y-75541875D01*
X211174499Y-75660255D01*
X211174497Y-75660261D01*
X211149500Y-75785928D01*
X211149500Y-75785931D01*
X211149500Y-75914069D01*
X211149500Y-75914071D01*
X211149499Y-75914071D01*
X199033118Y-75914071D01*
X199034252Y-75904506D01*
X199036485Y-75901201D01*
X199036917Y-75898685D01*
X199052591Y-75874351D01*
X199056387Y-75869743D01*
X199133369Y-75792762D01*
X199204558Y-75686220D01*
X199253594Y-75567837D01*
X199274235Y-75464071D01*
X199278593Y-75442164D01*
X199278593Y-75314021D01*
X199253595Y-75188354D01*
X199253594Y-75188353D01*
X199253594Y-75188349D01*
X199204558Y-75069966D01*
X199204557Y-75069965D01*
X199204554Y-75069959D01*
X199133369Y-74963424D01*
X199133366Y-74963420D01*
X199082626Y-74912680D01*
X199049141Y-74851357D01*
X199054125Y-74781665D01*
X199082627Y-74737317D01*
X199105276Y-74714669D01*
X199176465Y-74608127D01*
X199215424Y-74514071D01*
X206799499Y-74514071D01*
X206824497Y-74639738D01*
X206824499Y-74639744D01*
X206873533Y-74758124D01*
X206873538Y-74758133D01*
X206944723Y-74864668D01*
X206944726Y-74864672D01*
X207035327Y-74955273D01*
X207035331Y-74955276D01*
X207141866Y-75026461D01*
X207141872Y-75026464D01*
X207141873Y-75026465D01*
X207260256Y-75075501D01*
X207260260Y-75075501D01*
X207260261Y-75075502D01*
X207385928Y-75100500D01*
X207385931Y-75100500D01*
X207514071Y-75100500D01*
X207598615Y-75083682D01*
X207639744Y-75075501D01*
X207758127Y-75026465D01*
X207864669Y-74955276D01*
X207955276Y-74864669D01*
X208026465Y-74758127D01*
X208075501Y-74639744D01*
X208100500Y-74514069D01*
X208100500Y-74385931D01*
X208100500Y-74385928D01*
X208086206Y-74314071D01*
X223499499Y-74314071D01*
X223524497Y-74439738D01*
X223524499Y-74439744D01*
X223573533Y-74558124D01*
X223573538Y-74558133D01*
X223644723Y-74664668D01*
X223644726Y-74664672D01*
X223735327Y-74755273D01*
X223735331Y-74755276D01*
X223841866Y-74826461D01*
X223841875Y-74826466D01*
X223849586Y-74829660D01*
X223960256Y-74875501D01*
X223960260Y-74875501D01*
X223960261Y-74875502D01*
X224085928Y-74900500D01*
X224085931Y-74900500D01*
X224214071Y-74900500D01*
X224298615Y-74883682D01*
X224339744Y-74875501D01*
X224458127Y-74826465D01*
X224564669Y-74755276D01*
X224655276Y-74664669D01*
X224726465Y-74558127D01*
X224775501Y-74439744D01*
X224800500Y-74314069D01*
X224800500Y-74185931D01*
X224800500Y-74185928D01*
X224775502Y-74060261D01*
X224775501Y-74060260D01*
X224775501Y-74060256D01*
X224737574Y-73968692D01*
X224726466Y-73941875D01*
X224726461Y-73941866D01*
X224655276Y-73835331D01*
X224655273Y-73835327D01*
X224564672Y-73744726D01*
X224564668Y-73744723D01*
X224458133Y-73673538D01*
X224458124Y-73673533D01*
X224339744Y-73624499D01*
X224339738Y-73624497D01*
X224214071Y-73599500D01*
X224214069Y-73599500D01*
X224085931Y-73599500D01*
X224085929Y-73599500D01*
X223960261Y-73624497D01*
X223960255Y-73624499D01*
X223841875Y-73673533D01*
X223841866Y-73673538D01*
X223735331Y-73744723D01*
X223735327Y-73744726D01*
X223644726Y-73835327D01*
X223644723Y-73835331D01*
X223573538Y-73941866D01*
X223573533Y-73941875D01*
X223524499Y-74060255D01*
X223524497Y-74060261D01*
X223499500Y-74185928D01*
X223499500Y-74185931D01*
X223499500Y-74314069D01*
X223499500Y-74314071D01*
X223499499Y-74314071D01*
X208086206Y-74314071D01*
X208075502Y-74260261D01*
X208075501Y-74260260D01*
X208075501Y-74260256D01*
X208075499Y-74260251D01*
X208061847Y-74227291D01*
X208026466Y-74141876D01*
X208026466Y-74141875D01*
X208026465Y-74141873D01*
X208026463Y-74141870D01*
X208026461Y-74141866D01*
X207955276Y-74035331D01*
X207955273Y-74035327D01*
X207864672Y-73944726D01*
X207864668Y-73944723D01*
X207758133Y-73873538D01*
X207758124Y-73873533D01*
X207639744Y-73824499D01*
X207639738Y-73824497D01*
X207514071Y-73799500D01*
X207514069Y-73799500D01*
X207385931Y-73799500D01*
X207385929Y-73799500D01*
X207260261Y-73824497D01*
X207260255Y-73824499D01*
X207141875Y-73873533D01*
X207141866Y-73873538D01*
X207035331Y-73944723D01*
X207035327Y-73944726D01*
X206944726Y-74035327D01*
X206944723Y-74035331D01*
X206873538Y-74141866D01*
X206873533Y-74141875D01*
X206824499Y-74260255D01*
X206824497Y-74260261D01*
X206799500Y-74385928D01*
X206799500Y-74385931D01*
X206799500Y-74514069D01*
X206799500Y-74514071D01*
X206799499Y-74514071D01*
X199215424Y-74514071D01*
X199225501Y-74489744D01*
X199235448Y-74439738D01*
X199250500Y-74364071D01*
X199250500Y-74235928D01*
X199225502Y-74110261D01*
X199225501Y-74110260D01*
X199225501Y-74110256D01*
X199176465Y-73991873D01*
X199176464Y-73991872D01*
X199176461Y-73991866D01*
X199105276Y-73885331D01*
X199105273Y-73885327D01*
X199014672Y-73794726D01*
X199014668Y-73794723D01*
X198908133Y-73723538D01*
X198908124Y-73723533D01*
X198789744Y-73674499D01*
X198789738Y-73674497D01*
X198664071Y-73649500D01*
X198664069Y-73649500D01*
X198535931Y-73649500D01*
X198535929Y-73649500D01*
X198410261Y-73674497D01*
X198410255Y-73674499D01*
X198291875Y-73723533D01*
X198291866Y-73723538D01*
X198185331Y-73794723D01*
X198185327Y-73794726D01*
X198094726Y-73885327D01*
X198094723Y-73885331D01*
X198023538Y-73991866D01*
X198023533Y-73991875D01*
X197974499Y-74110255D01*
X197974497Y-74110261D01*
X197949500Y-74235928D01*
X197949500Y-74235931D01*
X197949500Y-74364069D01*
X197949500Y-74364071D01*
X197949499Y-74364071D01*
X197974497Y-74489738D01*
X197974499Y-74489744D01*
X198023533Y-74608124D01*
X198023538Y-74608133D01*
X198094723Y-74714668D01*
X198094726Y-74714672D01*
X198145466Y-74765412D01*
X198178951Y-74826735D01*
X198173967Y-74896427D01*
X198145466Y-74940774D01*
X198122819Y-74963420D01*
X198122816Y-74963424D01*
X198051631Y-75069959D01*
X198051626Y-75069968D01*
X198002592Y-75188348D01*
X198002590Y-75188354D01*
X197977593Y-75314021D01*
X197977593Y-75314024D01*
X197977593Y-75442162D01*
X197977593Y-75442164D01*
X197977592Y-75442164D01*
X198002590Y-75567831D01*
X198002592Y-75567837D01*
X198051626Y-75686217D01*
X198051631Y-75686226D01*
X198122818Y-75792764D01*
X198125662Y-75796230D01*
X198152970Y-75860542D01*
X198141174Y-75929408D01*
X198117485Y-75962569D01*
X198044723Y-76035331D01*
X197973538Y-76141866D01*
X197973533Y-76141875D01*
X197924499Y-76260255D01*
X197924497Y-76260261D01*
X197899500Y-76385928D01*
X197899500Y-76385931D01*
X197899500Y-76514069D01*
X197899500Y-76514071D01*
X197899499Y-76514071D01*
X183700500Y-76514071D01*
X183700500Y-72988766D01*
X185899500Y-72988766D01*
X185899500Y-73161233D01*
X185933143Y-73330366D01*
X185933146Y-73330378D01*
X185999138Y-73489698D01*
X185999145Y-73489711D01*
X186094954Y-73633098D01*
X186094957Y-73633102D01*
X186216897Y-73755042D01*
X186216901Y-73755045D01*
X186360288Y-73850854D01*
X186360301Y-73850861D01*
X186505708Y-73911090D01*
X186519626Y-73916855D01*
X186659728Y-73944723D01*
X186688766Y-73950499D01*
X186688769Y-73950500D01*
X186688771Y-73950500D01*
X187511231Y-73950500D01*
X187511232Y-73950499D01*
X187680374Y-73916855D01*
X187839705Y-73850858D01*
X187983099Y-73755045D01*
X188105045Y-73633099D01*
X188200858Y-73489705D01*
X188266855Y-73330374D01*
X188300500Y-73161229D01*
X188300500Y-72988771D01*
X188300500Y-72988768D01*
X188300499Y-72988766D01*
X188281793Y-72894724D01*
X188266855Y-72819626D01*
X188237808Y-72749500D01*
X188200861Y-72660301D01*
X188200854Y-72660288D01*
X188105045Y-72516901D01*
X188105042Y-72516897D01*
X187983102Y-72394957D01*
X187983098Y-72394954D01*
X187839711Y-72299145D01*
X187839698Y-72299138D01*
X187680378Y-72233146D01*
X187680366Y-72233143D01*
X187511232Y-72199500D01*
X187511229Y-72199500D01*
X186688771Y-72199500D01*
X186688768Y-72199500D01*
X186519633Y-72233143D01*
X186519621Y-72233146D01*
X186360301Y-72299138D01*
X186360288Y-72299145D01*
X186216901Y-72394954D01*
X186216897Y-72394957D01*
X186094957Y-72516897D01*
X186094954Y-72516901D01*
X185999145Y-72660288D01*
X185999138Y-72660301D01*
X185933146Y-72819621D01*
X185933143Y-72819633D01*
X185899500Y-72988766D01*
X183700500Y-72988766D01*
X183700500Y-71768995D01*
X189149499Y-71768995D01*
X189176418Y-71904322D01*
X189176421Y-71904332D01*
X189229221Y-72031804D01*
X189229228Y-72031817D01*
X189305885Y-72146541D01*
X189305888Y-72146545D01*
X189403454Y-72244111D01*
X189403458Y-72244114D01*
X189518182Y-72320771D01*
X189518195Y-72320778D01*
X189614536Y-72360683D01*
X189668940Y-72404523D01*
X189691005Y-72470817D01*
X189681645Y-72522696D01*
X189638910Y-72625868D01*
X189638907Y-72625880D01*
X189599500Y-72823992D01*
X189599500Y-73026007D01*
X189638907Y-73224119D01*
X189638909Y-73224127D01*
X189716212Y-73410752D01*
X189716217Y-73410762D01*
X189828441Y-73578718D01*
X189971281Y-73721558D01*
X190139237Y-73833782D01*
X190139241Y-73833784D01*
X190139244Y-73833786D01*
X190325873Y-73911091D01*
X190480591Y-73941866D01*
X190523992Y-73950499D01*
X190523996Y-73950500D01*
X190523997Y-73950500D01*
X191276004Y-73950500D01*
X191276005Y-73950499D01*
X191474127Y-73911091D01*
X191660756Y-73833786D01*
X191828718Y-73721558D01*
X191971558Y-73578718D01*
X192048162Y-73464071D01*
X202936999Y-73464071D01*
X202961997Y-73589738D01*
X202961999Y-73589744D01*
X203011033Y-73708124D01*
X203011038Y-73708133D01*
X203082223Y-73814668D01*
X203082226Y-73814672D01*
X203172827Y-73905273D01*
X203172831Y-73905276D01*
X203279366Y-73976461D01*
X203279372Y-73976464D01*
X203279373Y-73976465D01*
X203397756Y-74025501D01*
X203397760Y-74025501D01*
X203397761Y-74025502D01*
X203523428Y-74050500D01*
X203523431Y-74050500D01*
X203651571Y-74050500D01*
X203736115Y-74033682D01*
X203777244Y-74025501D01*
X203895627Y-73976465D01*
X204002169Y-73905276D01*
X204092776Y-73814669D01*
X204163965Y-73708127D01*
X204213001Y-73589744D01*
X204221182Y-73548615D01*
X204238000Y-73464071D01*
X204238000Y-73335928D01*
X204213002Y-73210261D01*
X204213001Y-73210260D01*
X204213001Y-73210256D01*
X204163965Y-73091873D01*
X204163964Y-73091872D01*
X204163961Y-73091866D01*
X204092776Y-72985331D01*
X204092773Y-72985327D01*
X204002172Y-72894726D01*
X204002168Y-72894723D01*
X203895633Y-72823538D01*
X203895624Y-72823533D01*
X203777244Y-72774499D01*
X203777238Y-72774497D01*
X203651571Y-72749500D01*
X203651569Y-72749500D01*
X203523431Y-72749500D01*
X203523429Y-72749500D01*
X203397761Y-72774497D01*
X203397755Y-72774499D01*
X203279375Y-72823533D01*
X203279366Y-72823538D01*
X203172831Y-72894723D01*
X203172827Y-72894726D01*
X203082226Y-72985327D01*
X203082223Y-72985331D01*
X203011038Y-73091866D01*
X203011033Y-73091875D01*
X202961999Y-73210255D01*
X202961997Y-73210261D01*
X202937000Y-73335928D01*
X202937000Y-73335931D01*
X202937000Y-73464069D01*
X202937000Y-73464071D01*
X202936999Y-73464071D01*
X192048162Y-73464071D01*
X192083786Y-73410756D01*
X192161091Y-73224127D01*
X192200500Y-73026003D01*
X192200500Y-72823997D01*
X192161091Y-72625873D01*
X192083786Y-72439244D01*
X192083784Y-72439241D01*
X192083782Y-72439237D01*
X191971558Y-72271281D01*
X191828718Y-72128441D01*
X191660762Y-72016217D01*
X191660752Y-72016212D01*
X191474127Y-71938909D01*
X191474119Y-71938907D01*
X191276007Y-71899500D01*
X191276003Y-71899500D01*
X190674459Y-71899500D01*
X190665756Y-71896944D01*
X190656777Y-71898233D01*
X190632755Y-71887254D01*
X190607420Y-71879815D01*
X190601480Y-71872960D01*
X190593230Y-71869190D01*
X190578956Y-71846966D01*
X190561665Y-71827011D01*
X190559375Y-71816478D01*
X190555472Y-71810401D01*
X190553516Y-71789529D01*
X190550459Y-71775465D01*
X190550460Y-71769190D01*
X190550500Y-71768993D01*
X190550500Y-71764071D01*
X197649499Y-71764071D01*
X197674497Y-71889738D01*
X197674499Y-71889744D01*
X197723533Y-72008124D01*
X197723538Y-72008133D01*
X197794723Y-72114668D01*
X197794726Y-72114672D01*
X197885327Y-72205273D01*
X197885331Y-72205276D01*
X197991866Y-72276461D01*
X197991872Y-72276464D01*
X197991873Y-72276465D01*
X198110256Y-72325501D01*
X198110260Y-72325501D01*
X198110261Y-72325502D01*
X198235928Y-72350500D01*
X198235931Y-72350500D01*
X198364071Y-72350500D01*
X198448615Y-72333682D01*
X198489744Y-72325501D01*
X198608127Y-72276465D01*
X198714669Y-72205276D01*
X198805276Y-72114669D01*
X198876465Y-72008127D01*
X198925501Y-71889744D01*
X198935671Y-71838616D01*
X198950500Y-71764071D01*
X198950500Y-71635928D01*
X198925502Y-71510261D01*
X198925501Y-71510260D01*
X198925501Y-71510256D01*
X198876465Y-71391873D01*
X198876464Y-71391872D01*
X198876461Y-71391866D01*
X198805276Y-71285331D01*
X198805273Y-71285327D01*
X198714672Y-71194726D01*
X198714668Y-71194723D01*
X198608133Y-71123538D01*
X198608124Y-71123533D01*
X198489744Y-71074499D01*
X198489738Y-71074497D01*
X198364071Y-71049500D01*
X198364069Y-71049500D01*
X198235931Y-71049500D01*
X198235929Y-71049500D01*
X198110261Y-71074497D01*
X198110255Y-71074499D01*
X197991875Y-71123533D01*
X197991866Y-71123538D01*
X197885331Y-71194723D01*
X197885327Y-71194726D01*
X197794726Y-71285327D01*
X197794723Y-71285331D01*
X197723538Y-71391866D01*
X197723533Y-71391875D01*
X197674499Y-71510255D01*
X197674497Y-71510261D01*
X197649500Y-71635928D01*
X197649500Y-71635931D01*
X197649500Y-71764069D01*
X197649500Y-71764071D01*
X197649499Y-71764071D01*
X190550500Y-71764071D01*
X190550500Y-71631007D01*
X190523580Y-71495672D01*
X190517180Y-71480221D01*
X190470778Y-71368195D01*
X190470771Y-71368182D01*
X190394114Y-71253458D01*
X190394111Y-71253454D01*
X190296545Y-71155888D01*
X190296541Y-71155885D01*
X190181817Y-71079228D01*
X190181804Y-71079221D01*
X190054332Y-71026421D01*
X190054322Y-71026418D01*
X189918995Y-70999500D01*
X189918993Y-70999500D01*
X189781007Y-70999500D01*
X189781005Y-70999500D01*
X189645677Y-71026418D01*
X189645667Y-71026421D01*
X189518195Y-71079221D01*
X189518182Y-71079228D01*
X189403458Y-71155885D01*
X189403454Y-71155888D01*
X189305888Y-71253454D01*
X189305885Y-71253458D01*
X189229228Y-71368182D01*
X189229221Y-71368195D01*
X189176421Y-71495667D01*
X189176418Y-71495677D01*
X189149500Y-71631004D01*
X189149500Y-71631007D01*
X189149500Y-71768993D01*
X189149500Y-71768995D01*
X189149499Y-71768995D01*
X183700500Y-71768995D01*
X183700500Y-70092531D01*
X192527185Y-70092531D01*
X192552183Y-70218198D01*
X192552185Y-70218204D01*
X192601219Y-70336584D01*
X192601224Y-70336593D01*
X192672409Y-70443128D01*
X192672412Y-70443132D01*
X192763013Y-70533733D01*
X192763017Y-70533736D01*
X192869552Y-70604921D01*
X192869558Y-70604924D01*
X192869559Y-70604925D01*
X192987942Y-70653961D01*
X192987946Y-70653961D01*
X192987947Y-70653962D01*
X193113614Y-70678960D01*
X193113617Y-70678960D01*
X193241757Y-70678960D01*
X193326301Y-70662142D01*
X193367430Y-70653961D01*
X193485813Y-70604925D01*
X193592355Y-70533736D01*
X193682962Y-70443129D01*
X193754151Y-70336587D01*
X193803187Y-70218204D01*
X193811368Y-70177075D01*
X193828186Y-70092531D01*
X193828186Y-69964388D01*
X193818408Y-69915233D01*
X207835273Y-69915233D01*
X207860271Y-70040900D01*
X207860273Y-70040906D01*
X207909307Y-70159286D01*
X207909312Y-70159295D01*
X207980495Y-70265828D01*
X207982744Y-70268568D01*
X207983471Y-70270282D01*
X207983882Y-70270896D01*
X207983765Y-70270973D01*
X208010053Y-70332880D01*
X207998258Y-70401747D01*
X207989989Y-70416117D01*
X207973541Y-70440733D01*
X207973534Y-70440745D01*
X207924500Y-70559125D01*
X207924498Y-70559131D01*
X207899501Y-70684798D01*
X207899501Y-70684801D01*
X207899501Y-70812939D01*
X207899501Y-70812941D01*
X207899500Y-70812941D01*
X207924498Y-70938608D01*
X207924500Y-70938614D01*
X207973534Y-71056994D01*
X207973538Y-71057001D01*
X208022300Y-71129979D01*
X208043177Y-71196656D01*
X208024692Y-71264036D01*
X208022299Y-71267759D01*
X207973539Y-71340733D01*
X207973531Y-71340747D01*
X207924497Y-71459127D01*
X207924495Y-71459133D01*
X207899498Y-71584800D01*
X207899498Y-71584803D01*
X207899498Y-71712941D01*
X207899498Y-71712943D01*
X207899497Y-71712943D01*
X207924495Y-71838610D01*
X207924497Y-71838616D01*
X207973531Y-71956996D01*
X207973536Y-71957005D01*
X208044721Y-72063540D01*
X208044724Y-72063544D01*
X208135325Y-72154145D01*
X208135329Y-72154148D01*
X208241864Y-72225333D01*
X208241873Y-72225338D01*
X208268690Y-72236446D01*
X208360254Y-72274373D01*
X208360258Y-72274373D01*
X208360259Y-72274374D01*
X208485926Y-72299372D01*
X208485929Y-72299372D01*
X208614069Y-72299372D01*
X208698613Y-72282554D01*
X208739742Y-72274373D01*
X208858125Y-72225337D01*
X208930263Y-72177135D01*
X208996939Y-72156257D01*
X209064319Y-72174741D01*
X209068045Y-72177135D01*
X209141866Y-72226461D01*
X209141872Y-72226464D01*
X209141873Y-72226465D01*
X209260256Y-72275501D01*
X209260260Y-72275501D01*
X209260261Y-72275502D01*
X209385928Y-72300500D01*
X209385931Y-72300500D01*
X209514071Y-72300500D01*
X209598615Y-72283682D01*
X209639744Y-72275501D01*
X209758127Y-72226465D01*
X209864669Y-72155276D01*
X209955276Y-72064669D01*
X210026465Y-71958127D01*
X210075501Y-71839744D01*
X210100500Y-71714069D01*
X210100500Y-71585931D01*
X210100500Y-71585928D01*
X210075502Y-71460261D01*
X210075501Y-71460260D01*
X210075501Y-71460256D01*
X210056370Y-71414071D01*
X211549499Y-71414071D01*
X211574497Y-71539738D01*
X211574499Y-71539744D01*
X211623533Y-71658124D01*
X211623538Y-71658133D01*
X211694723Y-71764668D01*
X211694726Y-71764672D01*
X211785327Y-71855273D01*
X211785331Y-71855276D01*
X211891866Y-71926461D01*
X211891872Y-71926464D01*
X211891873Y-71926465D01*
X212010256Y-71975501D01*
X212010260Y-71975501D01*
X212010261Y-71975502D01*
X212135928Y-72000500D01*
X212135931Y-72000500D01*
X212264071Y-72000500D01*
X212348615Y-71983682D01*
X212389744Y-71975501D01*
X212508127Y-71926465D01*
X212536918Y-71907227D01*
X212548000Y-71899823D01*
X212614677Y-71878945D01*
X212682057Y-71897429D01*
X212704572Y-71915244D01*
X212710753Y-71921425D01*
X212710757Y-71921428D01*
X212817292Y-71992613D01*
X212817298Y-71992616D01*
X212817299Y-71992617D01*
X212935682Y-72041653D01*
X212935686Y-72041653D01*
X212935687Y-72041654D01*
X213061354Y-72066652D01*
X213061357Y-72066652D01*
X213189497Y-72066652D01*
X213274041Y-72049834D01*
X213315170Y-72041653D01*
X213433553Y-71992617D01*
X213540095Y-71921428D01*
X213630702Y-71830821D01*
X213701891Y-71724279D01*
X213750927Y-71605896D01*
X213775926Y-71480221D01*
X213775926Y-71352083D01*
X213775926Y-71352080D01*
X213750928Y-71226413D01*
X213750927Y-71226412D01*
X213750927Y-71226408D01*
X213708317Y-71123538D01*
X213701892Y-71108027D01*
X213701887Y-71108018D01*
X213630702Y-71001483D01*
X213630699Y-71001479D01*
X213540098Y-70910878D01*
X213540094Y-70910875D01*
X213433559Y-70839690D01*
X213433550Y-70839685D01*
X213315170Y-70790651D01*
X213315164Y-70790649D01*
X213189497Y-70765652D01*
X213189495Y-70765652D01*
X213061357Y-70765652D01*
X213061355Y-70765652D01*
X212935687Y-70790649D01*
X212935681Y-70790651D01*
X212817301Y-70839685D01*
X212817296Y-70839688D01*
X212777423Y-70866330D01*
X212710745Y-70887206D01*
X212643365Y-70868720D01*
X212620853Y-70850907D01*
X212614672Y-70844726D01*
X212614668Y-70844723D01*
X212508133Y-70773538D01*
X212508124Y-70773533D01*
X212389744Y-70724499D01*
X212389738Y-70724497D01*
X212264071Y-70699500D01*
X212264069Y-70699500D01*
X212135931Y-70699500D01*
X212135929Y-70699500D01*
X212010261Y-70724497D01*
X212010255Y-70724499D01*
X211891875Y-70773533D01*
X211891866Y-70773538D01*
X211785331Y-70844723D01*
X211785327Y-70844726D01*
X211694726Y-70935327D01*
X211694723Y-70935331D01*
X211623538Y-71041866D01*
X211623533Y-71041875D01*
X211574499Y-71160255D01*
X211574497Y-71160261D01*
X211549500Y-71285928D01*
X211549500Y-71285931D01*
X211549500Y-71414069D01*
X211549500Y-71414071D01*
X211549499Y-71414071D01*
X210056370Y-71414071D01*
X210026465Y-71341873D01*
X210025711Y-71340745D01*
X209955276Y-71235331D01*
X209955273Y-71235327D01*
X209864672Y-71144726D01*
X209864668Y-71144723D01*
X209758133Y-71073538D01*
X209758124Y-71073533D01*
X209639744Y-71024499D01*
X209639738Y-71024497D01*
X209514071Y-70999500D01*
X209514069Y-70999500D01*
X209385931Y-70999500D01*
X209385926Y-70999500D01*
X209336236Y-71009384D01*
X209266644Y-71003157D01*
X209211467Y-70960293D01*
X209188223Y-70894403D01*
X209190427Y-70863580D01*
X209200501Y-70812939D01*
X209200501Y-70684801D01*
X209200501Y-70684798D01*
X209175503Y-70559131D01*
X209175502Y-70559130D01*
X209175502Y-70559126D01*
X209126466Y-70440743D01*
X209126465Y-70440742D01*
X209126462Y-70440736D01*
X209055274Y-70334196D01*
X209053032Y-70331464D01*
X209052305Y-70329753D01*
X209051893Y-70329136D01*
X209052010Y-70329057D01*
X209025721Y-70267153D01*
X209037515Y-70198286D01*
X209045788Y-70183910D01*
X209062233Y-70159298D01*
X209062235Y-70159295D01*
X209062239Y-70159289D01*
X209111275Y-70040906D01*
X209126496Y-69964388D01*
X209136274Y-69915233D01*
X209136274Y-69787093D01*
X209136273Y-69787090D01*
X209127827Y-69744629D01*
X209134053Y-69675040D01*
X209176915Y-69619862D01*
X209242804Y-69596616D01*
X209310802Y-69612683D01*
X209352546Y-69651546D01*
X209394726Y-69714672D01*
X209485327Y-69805273D01*
X209485331Y-69805276D01*
X209591866Y-69876461D01*
X209591872Y-69876464D01*
X209591873Y-69876465D01*
X209710256Y-69925501D01*
X209710260Y-69925501D01*
X209710261Y-69925502D01*
X209835928Y-69950500D01*
X209835931Y-69950500D01*
X209964071Y-69950500D01*
X210065739Y-69930276D01*
X210089744Y-69925501D01*
X210208127Y-69876465D01*
X210314669Y-69805276D01*
X210405276Y-69714669D01*
X210476465Y-69608127D01*
X210525501Y-69489744D01*
X210542764Y-69402959D01*
X210550500Y-69364071D01*
X210550500Y-69235928D01*
X210525502Y-69110261D01*
X210525501Y-69110260D01*
X210525501Y-69110256D01*
X210476465Y-68991873D01*
X210476464Y-68991872D01*
X210476461Y-68991866D01*
X210405276Y-68885331D01*
X210405273Y-68885327D01*
X210314672Y-68794726D01*
X210314668Y-68794723D01*
X210208133Y-68723538D01*
X210208124Y-68723533D01*
X210089744Y-68674499D01*
X210089738Y-68674497D01*
X209964071Y-68649500D01*
X209964069Y-68649500D01*
X209835931Y-68649500D01*
X209835929Y-68649500D01*
X209710261Y-68674497D01*
X209710255Y-68674499D01*
X209591875Y-68723533D01*
X209591866Y-68723538D01*
X209485331Y-68794723D01*
X209485327Y-68794726D01*
X209394723Y-68885330D01*
X209391947Y-68888713D01*
X209334197Y-68928042D01*
X209264353Y-68929906D01*
X209204588Y-68893713D01*
X209174484Y-68834230D01*
X209172748Y-68825501D01*
X209158328Y-68753010D01*
X209109292Y-68634627D01*
X209109291Y-68634626D01*
X209109288Y-68634620D01*
X209038103Y-68528085D01*
X209038100Y-68528081D01*
X208947499Y-68437480D01*
X208947495Y-68437477D01*
X208840960Y-68366292D01*
X208840947Y-68366285D01*
X208835602Y-68364071D01*
X212249499Y-68364071D01*
X212274497Y-68489738D01*
X212274499Y-68489744D01*
X212323533Y-68608124D01*
X212323538Y-68608133D01*
X212394723Y-68714668D01*
X212394726Y-68714672D01*
X212485327Y-68805273D01*
X212485331Y-68805276D01*
X212591866Y-68876461D01*
X212591875Y-68876466D01*
X212613268Y-68885327D01*
X212710256Y-68925501D01*
X212710260Y-68925501D01*
X212710261Y-68925502D01*
X212835928Y-68950500D01*
X212835931Y-68950500D01*
X212964071Y-68950500D01*
X213067599Y-68929906D01*
X213089744Y-68925501D01*
X213208127Y-68876465D01*
X213314669Y-68805276D01*
X213405276Y-68714669D01*
X213476465Y-68608127D01*
X213525501Y-68489744D01*
X213550058Y-68366292D01*
X213550500Y-68364071D01*
X213550500Y-68264071D01*
X216399499Y-68264071D01*
X216424497Y-68389738D01*
X216424499Y-68389744D01*
X216473533Y-68508124D01*
X216473538Y-68508133D01*
X216544723Y-68614668D01*
X216544726Y-68614672D01*
X216635327Y-68705273D01*
X216635331Y-68705276D01*
X216741866Y-68776461D01*
X216741872Y-68776464D01*
X216741873Y-68776465D01*
X216860256Y-68825501D01*
X216860260Y-68825501D01*
X216860261Y-68825502D01*
X216985928Y-68850500D01*
X216985931Y-68850500D01*
X217114071Y-68850500D01*
X217201376Y-68833133D01*
X217239744Y-68825501D01*
X217358127Y-68776465D01*
X217464669Y-68705276D01*
X217555276Y-68614669D01*
X217626465Y-68508127D01*
X217675501Y-68389744D01*
X217700500Y-68264069D01*
X217700500Y-68135931D01*
X217700500Y-68135928D01*
X217675502Y-68010261D01*
X217675501Y-68010260D01*
X217675501Y-68010256D01*
X217626465Y-67891873D01*
X217626464Y-67891872D01*
X217626461Y-67891866D01*
X217555276Y-67785331D01*
X217555273Y-67785327D01*
X217464672Y-67694726D01*
X217464668Y-67694723D01*
X217358133Y-67623538D01*
X217358124Y-67623533D01*
X217239744Y-67574499D01*
X217239738Y-67574497D01*
X217114071Y-67549500D01*
X217114069Y-67549500D01*
X216985931Y-67549500D01*
X216985929Y-67549500D01*
X216860261Y-67574497D01*
X216860255Y-67574499D01*
X216741875Y-67623533D01*
X216741866Y-67623538D01*
X216635331Y-67694723D01*
X216635327Y-67694726D01*
X216544726Y-67785327D01*
X216544723Y-67785331D01*
X216473538Y-67891866D01*
X216473533Y-67891875D01*
X216424499Y-68010255D01*
X216424497Y-68010261D01*
X216399500Y-68135928D01*
X216399500Y-68135931D01*
X216399500Y-68264069D01*
X216399500Y-68264071D01*
X216399499Y-68264071D01*
X213550500Y-68264071D01*
X213550500Y-68235928D01*
X213534209Y-68154031D01*
X213525502Y-68110261D01*
X213525501Y-68110260D01*
X213525501Y-68110256D01*
X213476465Y-67991873D01*
X213476464Y-67991872D01*
X213476461Y-67991866D01*
X213405276Y-67885331D01*
X213405273Y-67885327D01*
X213314672Y-67794726D01*
X213314668Y-67794723D01*
X213208133Y-67723538D01*
X213208124Y-67723533D01*
X213089744Y-67674499D01*
X213089738Y-67674497D01*
X212964071Y-67649500D01*
X212964069Y-67649500D01*
X212835931Y-67649500D01*
X212835929Y-67649500D01*
X212710261Y-67674497D01*
X212710255Y-67674499D01*
X212591875Y-67723533D01*
X212591866Y-67723538D01*
X212485331Y-67794723D01*
X212485327Y-67794726D01*
X212394726Y-67885327D01*
X212394723Y-67885331D01*
X212323538Y-67991866D01*
X212323533Y-67991875D01*
X212274499Y-68110255D01*
X212274497Y-68110261D01*
X212249500Y-68235928D01*
X212249500Y-68235931D01*
X212249500Y-68364069D01*
X212249500Y-68364071D01*
X212249499Y-68364071D01*
X208835602Y-68364071D01*
X208788110Y-68344400D01*
X208788109Y-68344400D01*
X208766031Y-68335255D01*
X208722571Y-68317253D01*
X208722565Y-68317251D01*
X208596898Y-68292254D01*
X208596896Y-68292254D01*
X208468758Y-68292254D01*
X208468756Y-68292254D01*
X208343088Y-68317251D01*
X208343082Y-68317253D01*
X208224702Y-68366287D01*
X208224693Y-68366292D01*
X208118158Y-68437477D01*
X208118154Y-68437480D01*
X208027553Y-68528081D01*
X208027550Y-68528085D01*
X207956365Y-68634620D01*
X207956360Y-68634629D01*
X207907326Y-68753009D01*
X207907324Y-68753015D01*
X207882327Y-68878682D01*
X207882327Y-68878685D01*
X207882327Y-69006823D01*
X207882327Y-69006825D01*
X207882326Y-69006825D01*
X207907324Y-69132492D01*
X207907326Y-69132498D01*
X207956360Y-69250878D01*
X207956365Y-69250887D01*
X207984463Y-69292938D01*
X208005341Y-69359616D01*
X207986856Y-69426996D01*
X207983752Y-69431341D01*
X207983882Y-69431428D01*
X207909312Y-69543028D01*
X207909307Y-69543037D01*
X207860273Y-69661417D01*
X207860271Y-69661423D01*
X207835274Y-69787090D01*
X207835274Y-69787093D01*
X207835274Y-69915231D01*
X207835274Y-69915233D01*
X207835273Y-69915233D01*
X193818408Y-69915233D01*
X193803188Y-69838721D01*
X193803187Y-69838720D01*
X193803187Y-69838716D01*
X193764216Y-69744632D01*
X193754154Y-69720339D01*
X193754147Y-69720326D01*
X193682962Y-69613791D01*
X193682959Y-69613787D01*
X193592358Y-69523186D01*
X193592354Y-69523183D01*
X193485819Y-69451998D01*
X193485810Y-69451993D01*
X193367430Y-69402959D01*
X193367424Y-69402957D01*
X193241757Y-69377960D01*
X193241755Y-69377960D01*
X193113617Y-69377960D01*
X193113615Y-69377960D01*
X192987947Y-69402957D01*
X192987941Y-69402959D01*
X192869561Y-69451993D01*
X192869552Y-69451998D01*
X192763017Y-69523183D01*
X192763013Y-69523186D01*
X192672412Y-69613787D01*
X192672409Y-69613791D01*
X192601224Y-69720326D01*
X192601219Y-69720335D01*
X192552185Y-69838715D01*
X192552183Y-69838721D01*
X192527186Y-69964388D01*
X192527186Y-69964391D01*
X192527186Y-70092529D01*
X192527186Y-70092531D01*
X192527185Y-70092531D01*
X183700500Y-70092531D01*
X183700500Y-68589071D01*
X189024499Y-68589071D01*
X189049497Y-68714738D01*
X189049499Y-68714744D01*
X189098533Y-68833124D01*
X189098538Y-68833133D01*
X189147300Y-68906110D01*
X189168178Y-68972788D01*
X189149693Y-69040168D01*
X189147301Y-69043891D01*
X189098537Y-69116871D01*
X189098533Y-69116878D01*
X189049499Y-69235258D01*
X189049497Y-69235264D01*
X189024500Y-69360931D01*
X189024500Y-69360934D01*
X189024500Y-69489072D01*
X189024500Y-69489074D01*
X189024499Y-69489074D01*
X189049497Y-69614741D01*
X189049499Y-69614747D01*
X189098533Y-69733127D01*
X189098538Y-69733136D01*
X189169723Y-69839671D01*
X189169726Y-69839675D01*
X189260327Y-69930276D01*
X189260331Y-69930279D01*
X189366866Y-70001464D01*
X189366872Y-70001467D01*
X189366873Y-70001468D01*
X189485256Y-70050504D01*
X189485260Y-70050504D01*
X189485261Y-70050505D01*
X189610928Y-70075503D01*
X189610931Y-70075503D01*
X189739071Y-70075503D01*
X189823615Y-70058685D01*
X189864744Y-70050504D01*
X189983127Y-70001468D01*
X190089669Y-69930279D01*
X190104717Y-69915231D01*
X190149331Y-69870618D01*
X190180273Y-69839675D01*
X190180276Y-69839672D01*
X190251465Y-69733130D01*
X190300501Y-69614747D01*
X190308682Y-69573618D01*
X190325500Y-69489074D01*
X190325500Y-69360931D01*
X190300502Y-69235264D01*
X190300501Y-69235263D01*
X190300501Y-69235259D01*
X190251465Y-69116876D01*
X190251462Y-69116871D01*
X190251461Y-69116869D01*
X190202699Y-69043892D01*
X190181821Y-68977215D01*
X190200305Y-68909834D01*
X190202672Y-68906150D01*
X190251465Y-68833127D01*
X190300501Y-68714744D01*
X190325500Y-68589069D01*
X190325500Y-68460931D01*
X190325500Y-68460928D01*
X190300502Y-68335261D01*
X190300501Y-68335260D01*
X190300501Y-68335256D01*
X190251465Y-68216873D01*
X190251464Y-68216872D01*
X190251461Y-68216866D01*
X190244599Y-68206596D01*
X192481974Y-68206596D01*
X192506972Y-68332263D01*
X192506974Y-68332269D01*
X192556008Y-68450649D01*
X192556013Y-68450658D01*
X192627198Y-68557193D01*
X192627201Y-68557197D01*
X192717802Y-68647798D01*
X192717806Y-68647801D01*
X192824341Y-68718986D01*
X192824350Y-68718991D01*
X192835328Y-68723538D01*
X192942731Y-68768026D01*
X192942735Y-68768026D01*
X192942736Y-68768027D01*
X193068403Y-68793025D01*
X193068406Y-68793025D01*
X193196546Y-68793025D01*
X193281090Y-68776207D01*
X193322219Y-68768026D01*
X193440602Y-68718990D01*
X193547144Y-68647801D01*
X193637751Y-68557194D01*
X193708940Y-68450652D01*
X193757976Y-68332269D01*
X193771542Y-68264069D01*
X193782975Y-68206596D01*
X193782975Y-68078453D01*
X193757977Y-67952786D01*
X193757976Y-67952785D01*
X193757976Y-67952781D01*
X193708940Y-67834398D01*
X193708939Y-67834397D01*
X193708936Y-67834391D01*
X193637751Y-67727856D01*
X193637748Y-67727852D01*
X193547147Y-67637251D01*
X193547143Y-67637248D01*
X193440608Y-67566063D01*
X193440599Y-67566058D01*
X193322219Y-67517024D01*
X193322213Y-67517022D01*
X193196546Y-67492025D01*
X193196544Y-67492025D01*
X193068406Y-67492025D01*
X193068404Y-67492025D01*
X192942736Y-67517022D01*
X192942730Y-67517024D01*
X192824350Y-67566058D01*
X192824341Y-67566063D01*
X192717806Y-67637248D01*
X192717802Y-67637251D01*
X192627201Y-67727852D01*
X192627198Y-67727856D01*
X192556013Y-67834391D01*
X192556008Y-67834400D01*
X192506974Y-67952780D01*
X192506972Y-67952786D01*
X192481975Y-68078453D01*
X192481975Y-68078456D01*
X192481975Y-68206594D01*
X192481975Y-68206596D01*
X192481974Y-68206596D01*
X190244599Y-68206596D01*
X190200939Y-68141255D01*
X190180276Y-68110330D01*
X190089672Y-68019726D01*
X190089668Y-68019723D01*
X189983133Y-67948538D01*
X189983124Y-67948533D01*
X189864744Y-67899499D01*
X189864738Y-67899497D01*
X189739071Y-67874500D01*
X189739069Y-67874500D01*
X189610931Y-67874500D01*
X189610929Y-67874500D01*
X189485261Y-67899497D01*
X189485255Y-67899499D01*
X189366875Y-67948533D01*
X189366866Y-67948538D01*
X189260331Y-68019723D01*
X189260327Y-68019726D01*
X189169726Y-68110327D01*
X189169723Y-68110331D01*
X189098538Y-68216866D01*
X189098533Y-68216875D01*
X189049499Y-68335255D01*
X189049497Y-68335261D01*
X189024500Y-68460928D01*
X189024500Y-68460931D01*
X189024500Y-68589069D01*
X189024500Y-68589071D01*
X189024499Y-68589071D01*
X183700500Y-68589071D01*
X183700500Y-66768995D01*
X189149499Y-66768995D01*
X189176418Y-66904322D01*
X189176421Y-66904332D01*
X189229221Y-67031804D01*
X189229228Y-67031817D01*
X189305885Y-67146541D01*
X189305888Y-67146545D01*
X189403454Y-67244111D01*
X189403458Y-67244114D01*
X189518182Y-67320771D01*
X189518195Y-67320778D01*
X189645667Y-67373578D01*
X189645672Y-67373580D01*
X189645676Y-67373580D01*
X189645677Y-67373581D01*
X189781004Y-67400500D01*
X189781007Y-67400500D01*
X189918995Y-67400500D01*
X190010041Y-67382389D01*
X190054328Y-67373580D01*
X190181811Y-67320775D01*
X190296542Y-67244114D01*
X190394114Y-67146542D01*
X190470775Y-67031811D01*
X190523580Y-66904328D01*
X190550500Y-66768993D01*
X190550500Y-66631007D01*
X190550500Y-66624915D01*
X190553290Y-66624915D01*
X190564058Y-66568041D01*
X190612108Y-66517317D01*
X190674459Y-66500500D01*
X191276004Y-66500500D01*
X191276005Y-66500499D01*
X191474127Y-66461091D01*
X191660756Y-66383786D01*
X191828718Y-66271558D01*
X191971558Y-66128718D01*
X192083786Y-65960756D01*
X192161091Y-65774127D01*
X192182982Y-65664071D01*
X205449499Y-65664071D01*
X205474497Y-65789738D01*
X205474499Y-65789744D01*
X205523533Y-65908124D01*
X205523538Y-65908133D01*
X205594723Y-66014668D01*
X205594726Y-66014672D01*
X205685327Y-66105273D01*
X205685331Y-66105276D01*
X205791866Y-66176461D01*
X205791872Y-66176464D01*
X205791873Y-66176465D01*
X205910256Y-66225501D01*
X205910260Y-66225501D01*
X205910261Y-66225502D01*
X206035928Y-66250500D01*
X206035931Y-66250500D01*
X206164071Y-66250500D01*
X206248615Y-66233682D01*
X206289744Y-66225501D01*
X206408127Y-66176465D01*
X206514669Y-66105276D01*
X206605276Y-66014669D01*
X206676465Y-65908127D01*
X206725501Y-65789744D01*
X206750500Y-65664069D01*
X206750500Y-65535931D01*
X206750500Y-65535928D01*
X206725502Y-65410261D01*
X206725501Y-65410260D01*
X206725501Y-65410256D01*
X206676465Y-65291873D01*
X206676464Y-65291872D01*
X206676461Y-65291866D01*
X206605276Y-65185331D01*
X206605273Y-65185327D01*
X206514672Y-65094726D01*
X206514668Y-65094723D01*
X206408133Y-65023538D01*
X206408124Y-65023533D01*
X206289744Y-64974499D01*
X206289738Y-64974497D01*
X206164071Y-64949500D01*
X206164069Y-64949500D01*
X206035931Y-64949500D01*
X206035929Y-64949500D01*
X205910261Y-64974497D01*
X205910255Y-64974499D01*
X205791875Y-65023533D01*
X205791866Y-65023538D01*
X205685331Y-65094723D01*
X205685327Y-65094726D01*
X205594726Y-65185327D01*
X205594723Y-65185331D01*
X205523538Y-65291866D01*
X205523533Y-65291875D01*
X205474499Y-65410255D01*
X205474497Y-65410261D01*
X205449500Y-65535928D01*
X205449500Y-65535931D01*
X205449500Y-65664069D01*
X205449500Y-65664071D01*
X205449499Y-65664071D01*
X192182982Y-65664071D01*
X192200500Y-65576003D01*
X192200500Y-65373997D01*
X192161091Y-65175873D01*
X192083786Y-64989244D01*
X192083784Y-64989241D01*
X192083782Y-64989237D01*
X191971558Y-64821281D01*
X191828718Y-64678441D01*
X191660762Y-64566217D01*
X191660752Y-64566212D01*
X191474127Y-64488909D01*
X191474119Y-64488907D01*
X191276007Y-64449500D01*
X191276003Y-64449500D01*
X190523997Y-64449500D01*
X190523992Y-64449500D01*
X190325880Y-64488907D01*
X190325872Y-64488909D01*
X190139247Y-64566212D01*
X190139237Y-64566217D01*
X189971281Y-64678441D01*
X189828441Y-64821281D01*
X189716217Y-64989237D01*
X189716212Y-64989247D01*
X189638909Y-65175872D01*
X189638907Y-65175880D01*
X189599500Y-65373992D01*
X189599500Y-65576007D01*
X189638907Y-65774119D01*
X189638910Y-65774131D01*
X189681645Y-65877303D01*
X189689114Y-65946772D01*
X189657838Y-66009251D01*
X189614537Y-66039316D01*
X189518192Y-66079223D01*
X189518182Y-66079228D01*
X189403458Y-66155885D01*
X189403454Y-66155888D01*
X189305888Y-66253454D01*
X189305885Y-66253458D01*
X189229228Y-66368182D01*
X189229221Y-66368195D01*
X189176421Y-66495667D01*
X189176418Y-66495677D01*
X189149500Y-66631004D01*
X189149500Y-66631007D01*
X189149500Y-66768993D01*
X189149500Y-66768995D01*
X189149499Y-66768995D01*
X183700500Y-66768995D01*
X183700500Y-65238766D01*
X185899500Y-65238766D01*
X185899500Y-65411233D01*
X185933143Y-65580366D01*
X185933146Y-65580378D01*
X185999138Y-65739698D01*
X185999145Y-65739711D01*
X186094954Y-65883098D01*
X186094957Y-65883102D01*
X186216897Y-66005042D01*
X186216901Y-66005045D01*
X186360288Y-66100854D01*
X186360301Y-66100861D01*
X186493142Y-66155885D01*
X186519626Y-66166855D01*
X186688766Y-66200499D01*
X186688769Y-66200500D01*
X186688771Y-66200500D01*
X187511231Y-66200500D01*
X187511232Y-66200499D01*
X187680374Y-66166855D01*
X187839705Y-66100858D01*
X187983099Y-66005045D01*
X188105045Y-65883099D01*
X188200858Y-65739705D01*
X188266855Y-65580374D01*
X188300500Y-65411229D01*
X188300500Y-65238771D01*
X188300500Y-65238768D01*
X188300499Y-65238766D01*
X188287989Y-65175873D01*
X188266855Y-65069626D01*
X188227452Y-64974499D01*
X188200861Y-64910301D01*
X188200854Y-64910288D01*
X188105045Y-64766901D01*
X188105042Y-64766897D01*
X187983102Y-64644957D01*
X187983098Y-64644954D01*
X187839711Y-64549145D01*
X187839698Y-64549138D01*
X187680378Y-64483146D01*
X187680366Y-64483143D01*
X187511232Y-64449500D01*
X187511229Y-64449500D01*
X186688771Y-64449500D01*
X186688768Y-64449500D01*
X186519633Y-64483143D01*
X186519621Y-64483146D01*
X186360301Y-64549138D01*
X186360288Y-64549145D01*
X186216901Y-64644954D01*
X186216897Y-64644957D01*
X186094957Y-64766897D01*
X186094954Y-64766901D01*
X185999145Y-64910288D01*
X185999138Y-64910301D01*
X185933146Y-65069621D01*
X185933143Y-65069633D01*
X185899500Y-65238766D01*
X183700500Y-65238766D01*
X183700500Y-63264071D01*
X223549499Y-63264071D01*
X223574497Y-63389738D01*
X223574499Y-63389744D01*
X223623533Y-63508124D01*
X223623538Y-63508133D01*
X223694723Y-63614668D01*
X223694726Y-63614672D01*
X223785327Y-63705273D01*
X223785331Y-63705276D01*
X223891866Y-63776461D01*
X223891872Y-63776464D01*
X223891873Y-63776465D01*
X224010256Y-63825501D01*
X224010260Y-63825501D01*
X224010261Y-63825502D01*
X224135928Y-63850500D01*
X224135931Y-63850500D01*
X224264071Y-63850500D01*
X224348615Y-63833682D01*
X224389744Y-63825501D01*
X224508127Y-63776465D01*
X224614669Y-63705276D01*
X224705276Y-63614669D01*
X224776465Y-63508127D01*
X224825501Y-63389744D01*
X224850500Y-63264069D01*
X224850500Y-63135931D01*
X224850500Y-63135928D01*
X224825502Y-63010261D01*
X224825501Y-63010260D01*
X224825501Y-63010256D01*
X224776465Y-62891873D01*
X224776464Y-62891872D01*
X224776461Y-62891866D01*
X224705276Y-62785331D01*
X224705273Y-62785327D01*
X224614672Y-62694726D01*
X224614668Y-62694723D01*
X224508133Y-62623538D01*
X224508124Y-62623533D01*
X224389744Y-62574499D01*
X224389738Y-62574497D01*
X224264071Y-62549500D01*
X224264069Y-62549500D01*
X224135931Y-62549500D01*
X224135929Y-62549500D01*
X224010261Y-62574497D01*
X224010255Y-62574499D01*
X223891875Y-62623533D01*
X223891866Y-62623538D01*
X223785331Y-62694723D01*
X223785327Y-62694726D01*
X223694726Y-62785327D01*
X223694723Y-62785331D01*
X223623538Y-62891866D01*
X223623533Y-62891875D01*
X223574499Y-63010255D01*
X223574497Y-63010261D01*
X223549500Y-63135928D01*
X223549500Y-63135931D01*
X223549500Y-63264069D01*
X223549500Y-63264071D01*
X223549499Y-63264071D01*
X183700500Y-63264071D01*
X183700500Y-62164071D01*
X201649499Y-62164071D01*
X201674497Y-62289738D01*
X201674499Y-62289744D01*
X201723533Y-62408124D01*
X201723538Y-62408133D01*
X201794723Y-62514668D01*
X201794726Y-62514672D01*
X201885327Y-62605273D01*
X201885331Y-62605276D01*
X201991866Y-62676461D01*
X201991872Y-62676464D01*
X201991873Y-62676465D01*
X202110256Y-62725501D01*
X202110260Y-62725501D01*
X202110261Y-62725502D01*
X202235928Y-62750500D01*
X202235931Y-62750500D01*
X202364071Y-62750500D01*
X202471168Y-62729196D01*
X202489744Y-62725501D01*
X202608127Y-62676465D01*
X202714669Y-62605276D01*
X202805276Y-62514669D01*
X202876465Y-62408127D01*
X202925501Y-62289744D01*
X202929065Y-62271826D01*
X211357254Y-62271826D01*
X211382252Y-62397493D01*
X211382254Y-62397499D01*
X211431288Y-62515879D01*
X211431293Y-62515888D01*
X211502478Y-62622423D01*
X211502481Y-62622427D01*
X211593082Y-62713028D01*
X211593086Y-62713031D01*
X211699621Y-62784216D01*
X211699630Y-62784221D01*
X211702310Y-62785331D01*
X211818011Y-62833256D01*
X211818015Y-62833256D01*
X211818016Y-62833257D01*
X211943683Y-62858255D01*
X211943686Y-62858255D01*
X212071826Y-62858255D01*
X212156370Y-62841437D01*
X212197499Y-62833256D01*
X212315882Y-62784220D01*
X212422424Y-62713031D01*
X212470377Y-62665077D01*
X212531696Y-62631594D01*
X212601387Y-62636577D01*
X212632928Y-62654723D01*
X212632996Y-62654622D01*
X212634510Y-62655633D01*
X212636718Y-62656904D01*
X212638062Y-62658007D01*
X212744596Y-62729191D01*
X212744602Y-62729194D01*
X212744603Y-62729195D01*
X212862986Y-62778231D01*
X212862990Y-62778231D01*
X212862991Y-62778232D01*
X212988658Y-62803230D01*
X212988661Y-62803230D01*
X213116801Y-62803230D01*
X213212386Y-62784216D01*
X213242474Y-62778231D01*
X213360857Y-62729195D01*
X213395168Y-62706268D01*
X213461845Y-62685389D01*
X213529225Y-62703872D01*
X213551742Y-62721688D01*
X213558032Y-62727978D01*
X213558036Y-62727981D01*
X213664571Y-62799166D01*
X213664580Y-62799171D01*
X213691397Y-62810279D01*
X213782961Y-62848206D01*
X213782965Y-62848206D01*
X213782966Y-62848207D01*
X213908633Y-62873205D01*
X213908636Y-62873205D01*
X214036776Y-62873205D01*
X214121320Y-62856387D01*
X214162449Y-62848206D01*
X214280832Y-62799170D01*
X214387374Y-62727981D01*
X214477981Y-62637374D01*
X214549170Y-62530832D01*
X214598206Y-62412449D01*
X214606387Y-62371320D01*
X214623205Y-62286776D01*
X214623205Y-62158633D01*
X214598207Y-62032966D01*
X214598206Y-62032965D01*
X214598206Y-62032961D01*
X214560279Y-61941397D01*
X214549171Y-61914580D01*
X214549166Y-61914571D01*
X214477981Y-61808036D01*
X214477978Y-61808032D01*
X214387377Y-61717431D01*
X214387373Y-61717428D01*
X214280838Y-61646243D01*
X214280829Y-61646238D01*
X214162449Y-61597204D01*
X214162443Y-61597202D01*
X214036776Y-61572205D01*
X214036774Y-61572205D01*
X213908636Y-61572205D01*
X213908634Y-61572205D01*
X213782966Y-61597202D01*
X213782960Y-61597204D01*
X213664580Y-61646238D01*
X213664566Y-61646246D01*
X213630263Y-61669167D01*
X213563586Y-61690045D01*
X213496206Y-61671560D01*
X213473692Y-61653746D01*
X213467402Y-61647456D01*
X213467398Y-61647453D01*
X213360863Y-61576268D01*
X213360854Y-61576263D01*
X213242474Y-61527229D01*
X213242468Y-61527227D01*
X213116801Y-61502230D01*
X213116799Y-61502230D01*
X212988661Y-61502230D01*
X212988659Y-61502230D01*
X212862991Y-61527227D01*
X212862985Y-61527229D01*
X212744605Y-61576263D01*
X212744596Y-61576268D01*
X212638061Y-61647453D01*
X212638056Y-61647457D01*
X212590107Y-61695406D01*
X212528784Y-61728890D01*
X212459092Y-61723905D01*
X212427557Y-61705760D01*
X212427489Y-61705863D01*
X212425960Y-61704841D01*
X212423759Y-61703575D01*
X212422419Y-61702475D01*
X212315888Y-61631293D01*
X212315879Y-61631288D01*
X212197499Y-61582254D01*
X212197493Y-61582252D01*
X212071826Y-61557255D01*
X212071824Y-61557255D01*
X211943686Y-61557255D01*
X211943684Y-61557255D01*
X211818016Y-61582252D01*
X211818010Y-61582254D01*
X211699630Y-61631288D01*
X211699621Y-61631293D01*
X211593086Y-61702478D01*
X211593082Y-61702481D01*
X211502481Y-61793082D01*
X211502478Y-61793086D01*
X211431293Y-61899621D01*
X211431288Y-61899630D01*
X211382254Y-62018010D01*
X211382252Y-62018016D01*
X211357255Y-62143683D01*
X211357255Y-62143686D01*
X211357255Y-62271824D01*
X211357255Y-62271826D01*
X211357254Y-62271826D01*
X202929065Y-62271826D01*
X202950500Y-62164069D01*
X202950500Y-62035931D01*
X202950500Y-62035928D01*
X202925502Y-61910261D01*
X202925501Y-61910260D01*
X202925501Y-61910256D01*
X202883158Y-61808032D01*
X202876466Y-61791875D01*
X202876461Y-61791866D01*
X202805276Y-61685331D01*
X202805273Y-61685327D01*
X202714672Y-61594726D01*
X202714668Y-61594723D01*
X202608133Y-61523538D01*
X202608124Y-61523533D01*
X202489744Y-61474499D01*
X202489738Y-61474497D01*
X202364071Y-61449500D01*
X202364069Y-61449500D01*
X202235931Y-61449500D01*
X202235929Y-61449500D01*
X202110261Y-61474497D01*
X202110255Y-61474499D01*
X201991875Y-61523533D01*
X201991866Y-61523538D01*
X201885331Y-61594723D01*
X201885327Y-61594726D01*
X201794726Y-61685327D01*
X201794723Y-61685331D01*
X201723538Y-61791866D01*
X201723533Y-61791875D01*
X201674499Y-61910255D01*
X201674497Y-61910261D01*
X201649500Y-62035928D01*
X201649500Y-62035931D01*
X201649500Y-62164069D01*
X201649500Y-62164071D01*
X201649499Y-62164071D01*
X183700500Y-62164071D01*
X183700500Y-61464071D01*
X196649499Y-61464071D01*
X196674497Y-61589738D01*
X196674499Y-61589744D01*
X196723533Y-61708124D01*
X196723538Y-61708133D01*
X196794723Y-61814668D01*
X196794726Y-61814672D01*
X196885327Y-61905273D01*
X196885331Y-61905276D01*
X196991866Y-61976461D01*
X196991872Y-61976464D01*
X196991873Y-61976465D01*
X197110256Y-62025501D01*
X197110260Y-62025501D01*
X197110261Y-62025502D01*
X197235928Y-62050500D01*
X197235931Y-62050500D01*
X197364071Y-62050500D01*
X197452246Y-62032960D01*
X197489744Y-62025501D01*
X197608127Y-61976465D01*
X197608133Y-61976461D01*
X197682551Y-61926737D01*
X197695733Y-61917928D01*
X197714669Y-61905276D01*
X197805276Y-61814669D01*
X197876465Y-61708127D01*
X197925501Y-61589744D01*
X197942909Y-61502230D01*
X197950500Y-61464071D01*
X197950500Y-61335928D01*
X197925502Y-61210261D01*
X197925501Y-61210260D01*
X197925501Y-61210256D01*
X197876465Y-61091873D01*
X197876464Y-61091872D01*
X197876461Y-61091866D01*
X197857889Y-61064071D01*
X222399499Y-61064071D01*
X222424497Y-61189738D01*
X222424499Y-61189744D01*
X222473533Y-61308124D01*
X222473538Y-61308133D01*
X222544723Y-61414668D01*
X222544726Y-61414672D01*
X222635327Y-61505273D01*
X222635331Y-61505276D01*
X222741866Y-61576461D01*
X222741872Y-61576464D01*
X222741873Y-61576465D01*
X222860256Y-61625501D01*
X222860260Y-61625501D01*
X222860261Y-61625502D01*
X222985928Y-61650500D01*
X222985931Y-61650500D01*
X223114071Y-61650500D01*
X223210626Y-61631293D01*
X223239744Y-61625501D01*
X223358127Y-61576465D01*
X223464669Y-61505276D01*
X223555276Y-61414669D01*
X223626465Y-61308127D01*
X223675501Y-61189744D01*
X223694969Y-61091875D01*
X223700500Y-61064071D01*
X223700500Y-60935928D01*
X223675502Y-60810261D01*
X223675501Y-60810260D01*
X223675501Y-60810256D01*
X223626465Y-60691873D01*
X223626464Y-60691872D01*
X223626461Y-60691866D01*
X223555276Y-60585331D01*
X223555273Y-60585327D01*
X223464672Y-60494726D01*
X223464668Y-60494723D01*
X223358133Y-60423538D01*
X223358124Y-60423533D01*
X223239744Y-60374499D01*
X223239738Y-60374497D01*
X223114071Y-60349500D01*
X223114069Y-60349500D01*
X222985931Y-60349500D01*
X222985929Y-60349500D01*
X222860261Y-60374497D01*
X222860255Y-60374499D01*
X222741875Y-60423533D01*
X222741866Y-60423538D01*
X222635331Y-60494723D01*
X222635327Y-60494726D01*
X222544726Y-60585327D01*
X222544723Y-60585331D01*
X222473538Y-60691866D01*
X222473533Y-60691875D01*
X222424499Y-60810255D01*
X222424497Y-60810261D01*
X222399500Y-60935928D01*
X222399500Y-60935931D01*
X222399500Y-61064069D01*
X222399500Y-61064071D01*
X222399499Y-61064071D01*
X197857889Y-61064071D01*
X197814229Y-60998730D01*
X197814228Y-60998729D01*
X197805274Y-60985328D01*
X197714672Y-60894726D01*
X197714668Y-60894723D01*
X197608133Y-60823538D01*
X197608124Y-60823533D01*
X197489744Y-60774499D01*
X197489738Y-60774497D01*
X197364071Y-60749500D01*
X197364069Y-60749500D01*
X197235931Y-60749500D01*
X197235929Y-60749500D01*
X197110261Y-60774497D01*
X197110255Y-60774499D01*
X196991875Y-60823533D01*
X196991866Y-60823538D01*
X196885331Y-60894723D01*
X196885327Y-60894726D01*
X196794726Y-60985327D01*
X196794723Y-60985331D01*
X196723538Y-61091866D01*
X196723533Y-61091875D01*
X196674499Y-61210255D01*
X196674497Y-61210261D01*
X196649500Y-61335928D01*
X196649500Y-61335931D01*
X196649500Y-61464069D01*
X196649500Y-61464071D01*
X196649499Y-61464071D01*
X183700500Y-61464071D01*
X183700500Y-56875000D01*
X189150000Y-56875000D01*
X189150000Y-57222844D01*
X189156401Y-57282372D01*
X189156403Y-57282379D01*
X189206645Y-57417086D01*
X189206649Y-57417093D01*
X189292809Y-57532186D01*
X189324451Y-57555874D01*
X189366322Y-57611808D01*
X189371758Y-57679331D01*
X189349500Y-57791234D01*
X189349500Y-57958771D01*
X189382182Y-58123074D01*
X189382184Y-58123082D01*
X189446295Y-58277860D01*
X189539373Y-58417162D01*
X189657837Y-58535626D01*
X189713152Y-58572586D01*
X189797137Y-58628703D01*
X189951918Y-58692816D01*
X190116228Y-58725499D01*
X190116232Y-58725500D01*
X190116233Y-58725500D01*
X190283768Y-58725500D01*
X190283769Y-58725499D01*
X190448082Y-58692816D01*
X190602863Y-58628703D01*
X190742162Y-58535626D01*
X190860626Y-58417162D01*
X190953703Y-58277863D01*
X191017816Y-58123082D01*
X191050500Y-57958767D01*
X191050500Y-57791233D01*
X191041450Y-57745736D01*
X191028242Y-57679332D01*
X191034469Y-57609741D01*
X191075549Y-57555873D01*
X191107190Y-57532186D01*
X191193352Y-57417088D01*
X191193354Y-57417086D01*
X191243596Y-57282379D01*
X191243598Y-57282372D01*
X191249999Y-57222844D01*
X191250000Y-57222827D01*
X191250000Y-56880131D01*
X212524500Y-56880131D01*
X212524500Y-58319856D01*
X212524502Y-58319882D01*
X212527413Y-58344987D01*
X212527415Y-58344991D01*
X212572793Y-58447764D01*
X212572794Y-58447765D01*
X212652235Y-58527206D01*
X212755009Y-58572585D01*
X212780135Y-58575500D01*
X214219864Y-58575499D01*
X214219879Y-58575497D01*
X214219882Y-58575497D01*
X214244987Y-58572586D01*
X214244988Y-58572585D01*
X214244991Y-58572585D01*
X214347765Y-58527206D01*
X214427206Y-58447765D01*
X214472585Y-58344991D01*
X214475500Y-58319865D01*
X214475499Y-58231351D01*
X214495183Y-58164316D01*
X214547986Y-58118560D01*
X214617145Y-58108616D01*
X214680701Y-58137640D01*
X214702601Y-58162462D01*
X214742282Y-58221848D01*
X214878151Y-58357717D01*
X214878155Y-58357720D01*
X215037927Y-58464477D01*
X215037928Y-58464477D01*
X215037929Y-58464478D01*
X215037931Y-58464479D01*
X215215452Y-58538010D01*
X215215457Y-58538012D01*
X215403907Y-58575497D01*
X215403917Y-58575499D01*
X215403920Y-58575500D01*
X215403922Y-58575500D01*
X215596080Y-58575500D01*
X215596081Y-58575499D01*
X215784543Y-58538012D01*
X215962073Y-58464477D01*
X216121845Y-58357720D01*
X216257720Y-58221845D01*
X216364477Y-58062073D01*
X216385439Y-58011467D01*
X216429280Y-57957063D01*
X216495574Y-57934998D01*
X216563273Y-57952277D01*
X216610884Y-58003414D01*
X216614561Y-58011467D01*
X216635520Y-58062068D01*
X216635521Y-58062070D01*
X216742279Y-58221844D01*
X216742282Y-58221848D01*
X216878151Y-58357717D01*
X216878155Y-58357720D01*
X217037927Y-58464477D01*
X217037928Y-58464477D01*
X217037929Y-58464478D01*
X217037931Y-58464479D01*
X217215452Y-58538010D01*
X217215457Y-58538012D01*
X217403907Y-58575497D01*
X217403917Y-58575499D01*
X217403920Y-58575500D01*
X217403922Y-58575500D01*
X217596080Y-58575500D01*
X217596081Y-58575499D01*
X217784543Y-58538012D01*
X217962073Y-58464477D01*
X218121845Y-58357720D01*
X218257720Y-58221845D01*
X218364477Y-58062073D01*
X218385439Y-58011467D01*
X218429280Y-57957063D01*
X218495574Y-57934998D01*
X218563273Y-57952277D01*
X218610884Y-58003414D01*
X218614561Y-58011467D01*
X218635520Y-58062068D01*
X218635521Y-58062070D01*
X218742279Y-58221844D01*
X218742282Y-58221848D01*
X218878151Y-58357717D01*
X218878155Y-58357720D01*
X219037927Y-58464477D01*
X219037928Y-58464477D01*
X219037929Y-58464478D01*
X219037931Y-58464479D01*
X219215452Y-58538010D01*
X219215457Y-58538012D01*
X219403907Y-58575497D01*
X219403917Y-58575499D01*
X219403920Y-58575500D01*
X219403922Y-58575500D01*
X219596080Y-58575500D01*
X219596081Y-58575499D01*
X219784543Y-58538012D01*
X219962073Y-58464477D01*
X220121845Y-58357720D01*
X220257720Y-58221845D01*
X220364477Y-58062073D01*
X220385439Y-58011467D01*
X220429280Y-57957063D01*
X220495574Y-57934998D01*
X220563273Y-57952277D01*
X220610884Y-58003414D01*
X220614561Y-58011467D01*
X220635520Y-58062068D01*
X220635521Y-58062070D01*
X220742279Y-58221844D01*
X220742282Y-58221848D01*
X220878151Y-58357717D01*
X220878155Y-58357720D01*
X221037927Y-58464477D01*
X221037928Y-58464477D01*
X221037929Y-58464478D01*
X221037931Y-58464479D01*
X221215452Y-58538010D01*
X221215457Y-58538012D01*
X221403907Y-58575497D01*
X221403917Y-58575499D01*
X221403920Y-58575500D01*
X221403922Y-58575500D01*
X221596080Y-58575500D01*
X221596081Y-58575499D01*
X221784543Y-58538012D01*
X221962073Y-58464477D01*
X222121845Y-58357720D01*
X222257720Y-58221845D01*
X222364477Y-58062073D01*
X222385439Y-58011467D01*
X222429280Y-57957063D01*
X222495574Y-57934998D01*
X222563273Y-57952277D01*
X222610884Y-58003414D01*
X222614561Y-58011467D01*
X222635520Y-58062068D01*
X222635521Y-58062070D01*
X222742279Y-58221844D01*
X222742282Y-58221848D01*
X222878151Y-58357717D01*
X222878155Y-58357720D01*
X223037927Y-58464477D01*
X223037928Y-58464477D01*
X223037929Y-58464478D01*
X223037931Y-58464479D01*
X223215452Y-58538010D01*
X223215457Y-58538012D01*
X223403907Y-58575497D01*
X223403917Y-58575499D01*
X223403920Y-58575500D01*
X223403922Y-58575500D01*
X223596080Y-58575500D01*
X223596081Y-58575499D01*
X223784543Y-58538012D01*
X223962073Y-58464477D01*
X224121845Y-58357720D01*
X224257720Y-58221845D01*
X224364477Y-58062073D01*
X224385439Y-58011467D01*
X224429280Y-57957063D01*
X224495574Y-57934998D01*
X224563273Y-57952277D01*
X224610884Y-58003414D01*
X224614561Y-58011467D01*
X224635520Y-58062068D01*
X224635521Y-58062070D01*
X224742279Y-58221844D01*
X224742282Y-58221848D01*
X224878151Y-58357717D01*
X224878155Y-58357720D01*
X225037927Y-58464477D01*
X225037928Y-58464477D01*
X225037929Y-58464478D01*
X225037931Y-58464479D01*
X225215452Y-58538010D01*
X225215457Y-58538012D01*
X225403907Y-58575497D01*
X225403917Y-58575499D01*
X225403920Y-58575500D01*
X225403922Y-58575500D01*
X225596080Y-58575500D01*
X225596081Y-58575499D01*
X225784543Y-58538012D01*
X225962073Y-58464477D01*
X226121845Y-58357720D01*
X226257720Y-58221845D01*
X226364477Y-58062073D01*
X226438012Y-57884543D01*
X226475500Y-57696078D01*
X226475500Y-57503922D01*
X226475500Y-57503919D01*
X226475499Y-57503917D01*
X226469178Y-57472137D01*
X226438012Y-57315457D01*
X226417113Y-57265001D01*
X226364479Y-57137931D01*
X226364478Y-57137929D01*
X226333154Y-57091050D01*
X226257720Y-56978155D01*
X226257717Y-56978151D01*
X226121848Y-56842282D01*
X226121844Y-56842279D01*
X225962070Y-56735521D01*
X225962068Y-56735520D01*
X225784547Y-56661989D01*
X225784535Y-56661986D01*
X225596081Y-56624500D01*
X225596078Y-56624500D01*
X225403922Y-56624500D01*
X225403919Y-56624500D01*
X225215464Y-56661986D01*
X225215452Y-56661989D01*
X225037931Y-56735520D01*
X225037929Y-56735521D01*
X224878155Y-56842279D01*
X224878151Y-56842282D01*
X224742282Y-56978151D01*
X224742279Y-56978155D01*
X224635521Y-57137929D01*
X224614561Y-57188533D01*
X224570720Y-57242936D01*
X224504426Y-57265001D01*
X224436726Y-57247722D01*
X224389116Y-57196584D01*
X224385439Y-57188533D01*
X224364478Y-57137929D01*
X224333154Y-57091050D01*
X224257720Y-56978155D01*
X224257717Y-56978151D01*
X224121848Y-56842282D01*
X224121844Y-56842279D01*
X223962070Y-56735521D01*
X223962068Y-56735520D01*
X223784547Y-56661989D01*
X223784535Y-56661986D01*
X223596081Y-56624500D01*
X223596078Y-56624500D01*
X223403922Y-56624500D01*
X223403919Y-56624500D01*
X223215464Y-56661986D01*
X223215452Y-56661989D01*
X223037931Y-56735520D01*
X223037929Y-56735521D01*
X222878155Y-56842279D01*
X222878151Y-56842282D01*
X222742282Y-56978151D01*
X222742279Y-56978155D01*
X222635521Y-57137929D01*
X222614561Y-57188533D01*
X222570720Y-57242936D01*
X222504426Y-57265001D01*
X222436726Y-57247722D01*
X222389116Y-57196584D01*
X222385439Y-57188533D01*
X222364478Y-57137929D01*
X222333154Y-57091050D01*
X222257720Y-56978155D01*
X222257717Y-56978151D01*
X222121848Y-56842282D01*
X222121844Y-56842279D01*
X221962070Y-56735521D01*
X221962068Y-56735520D01*
X221784547Y-56661989D01*
X221784535Y-56661986D01*
X221596081Y-56624500D01*
X221596078Y-56624500D01*
X221403922Y-56624500D01*
X221403919Y-56624500D01*
X221215464Y-56661986D01*
X221215452Y-56661989D01*
X221037931Y-56735520D01*
X221037929Y-56735521D01*
X220878155Y-56842279D01*
X220878151Y-56842282D01*
X220742282Y-56978151D01*
X220742279Y-56978155D01*
X220635521Y-57137929D01*
X220614561Y-57188533D01*
X220570720Y-57242936D01*
X220504426Y-57265001D01*
X220436726Y-57247722D01*
X220389116Y-57196584D01*
X220385439Y-57188533D01*
X220364478Y-57137929D01*
X220333154Y-57091050D01*
X220257720Y-56978155D01*
X220257717Y-56978151D01*
X220121848Y-56842282D01*
X220121844Y-56842279D01*
X219962070Y-56735521D01*
X219962068Y-56735520D01*
X219784547Y-56661989D01*
X219784535Y-56661986D01*
X219596081Y-56624500D01*
X219596078Y-56624500D01*
X219403922Y-56624500D01*
X219403919Y-56624500D01*
X219215464Y-56661986D01*
X219215452Y-56661989D01*
X219037931Y-56735520D01*
X219037929Y-56735521D01*
X218878155Y-56842279D01*
X218878151Y-56842282D01*
X218742282Y-56978151D01*
X218742279Y-56978155D01*
X218635521Y-57137929D01*
X218614561Y-57188533D01*
X218570720Y-57242936D01*
X218504426Y-57265001D01*
X218436726Y-57247722D01*
X218389116Y-57196584D01*
X218385439Y-57188533D01*
X218364478Y-57137929D01*
X218333154Y-57091050D01*
X218257720Y-56978155D01*
X218257717Y-56978151D01*
X218121848Y-56842282D01*
X218121844Y-56842279D01*
X217962070Y-56735521D01*
X217962068Y-56735520D01*
X217784547Y-56661989D01*
X217784535Y-56661986D01*
X217596081Y-56624500D01*
X217596078Y-56624500D01*
X217403922Y-56624500D01*
X217403919Y-56624500D01*
X217215464Y-56661986D01*
X217215452Y-56661989D01*
X217037931Y-56735520D01*
X217037929Y-56735521D01*
X216878155Y-56842279D01*
X216878151Y-56842282D01*
X216742282Y-56978151D01*
X216742279Y-56978155D01*
X216635521Y-57137929D01*
X216614561Y-57188533D01*
X216570720Y-57242936D01*
X216504426Y-57265001D01*
X216436726Y-57247722D01*
X216389116Y-57196584D01*
X216385439Y-57188533D01*
X216364478Y-57137929D01*
X216333154Y-57091050D01*
X216257720Y-56978155D01*
X216257717Y-56978151D01*
X216121848Y-56842282D01*
X216121844Y-56842279D01*
X215962070Y-56735521D01*
X215962068Y-56735520D01*
X215784547Y-56661989D01*
X215784535Y-56661986D01*
X215596081Y-56624500D01*
X215596078Y-56624500D01*
X215403922Y-56624500D01*
X215403919Y-56624500D01*
X215215464Y-56661986D01*
X215215452Y-56661989D01*
X215037931Y-56735520D01*
X215037929Y-56735521D01*
X214878155Y-56842279D01*
X214878151Y-56842282D01*
X214742282Y-56978151D01*
X214742279Y-56978155D01*
X214702601Y-57037538D01*
X214648989Y-57082343D01*
X214579664Y-57091050D01*
X214516636Y-57060895D01*
X214479917Y-57001452D01*
X214475499Y-56968647D01*
X214475499Y-56880143D01*
X214475499Y-56880136D01*
X214475497Y-56880117D01*
X214472586Y-56855012D01*
X214472585Y-56855010D01*
X214472585Y-56855009D01*
X214427206Y-56752235D01*
X214347765Y-56672794D01*
X214323287Y-56661986D01*
X214244992Y-56627415D01*
X214219865Y-56624500D01*
X212780143Y-56624500D01*
X212780117Y-56624502D01*
X212755012Y-56627413D01*
X212755008Y-56627415D01*
X212652235Y-56672793D01*
X212572794Y-56752234D01*
X212527415Y-56855006D01*
X212527415Y-56855008D01*
X212524500Y-56880131D01*
X191250000Y-56880131D01*
X191250000Y-56875000D01*
X190444975Y-56875000D01*
X190480070Y-56839905D01*
X190526148Y-56760095D01*
X190550000Y-56671078D01*
X190550000Y-56578922D01*
X190526148Y-56489905D01*
X190480070Y-56410095D01*
X190444975Y-56375000D01*
X190450000Y-56375000D01*
X191250000Y-56375000D01*
X191250000Y-56027172D01*
X191249999Y-56027155D01*
X191243598Y-55967627D01*
X191243596Y-55967620D01*
X191193354Y-55832913D01*
X191193350Y-55832906D01*
X191107190Y-55717812D01*
X191107187Y-55717809D01*
X190992093Y-55631649D01*
X190992086Y-55631645D01*
X190857379Y-55581403D01*
X190857372Y-55581401D01*
X190797844Y-55575000D01*
X190450000Y-55575000D01*
X190450000Y-56375000D01*
X190444975Y-56375000D01*
X190414905Y-56344930D01*
X190335095Y-56298852D01*
X190246078Y-56275000D01*
X190153922Y-56275000D01*
X190064905Y-56298852D01*
X189985095Y-56344930D01*
X189919930Y-56410095D01*
X189873852Y-56489905D01*
X189850000Y-56578922D01*
X189850000Y-56671078D01*
X189873852Y-56760095D01*
X189919930Y-56839905D01*
X189955025Y-56875000D01*
X189150000Y-56875000D01*
X183700500Y-56875000D01*
X183700500Y-56027155D01*
X189150000Y-56027155D01*
X189150000Y-56375000D01*
X189950000Y-56375000D01*
X189950000Y-55575000D01*
X189602155Y-55575000D01*
X189542627Y-55581401D01*
X189542620Y-55581403D01*
X189407913Y-55631645D01*
X189407906Y-55631649D01*
X189292812Y-55717809D01*
X189292809Y-55717812D01*
X189206649Y-55832906D01*
X189206645Y-55832913D01*
X189156403Y-55967620D01*
X189156401Y-55967627D01*
X189150000Y-56027155D01*
X183700500Y-56027155D01*
X183700500Y-53264071D01*
X204049499Y-53264071D01*
X204074497Y-53389738D01*
X204074499Y-53389744D01*
X204123534Y-53508127D01*
X204138892Y-53531112D01*
X204159768Y-53597790D01*
X204141282Y-53665170D01*
X204138892Y-53668888D01*
X204123534Y-53691872D01*
X204074499Y-53810255D01*
X204074497Y-53810261D01*
X204049500Y-53935928D01*
X204049500Y-53935931D01*
X204049500Y-54064069D01*
X204049500Y-54064071D01*
X204049499Y-54064071D01*
X204074497Y-54189738D01*
X204074499Y-54189744D01*
X204123534Y-54308127D01*
X204138892Y-54331112D01*
X204159768Y-54397790D01*
X204141282Y-54465170D01*
X204138892Y-54468888D01*
X204123534Y-54491872D01*
X204074499Y-54610255D01*
X204074497Y-54610261D01*
X204049500Y-54735928D01*
X204049500Y-54735931D01*
X204049500Y-54864069D01*
X204049500Y-54864071D01*
X204049499Y-54864071D01*
X204074497Y-54989738D01*
X204074499Y-54989744D01*
X204123533Y-55108124D01*
X204123538Y-55108133D01*
X204194723Y-55214668D01*
X204194726Y-55214672D01*
X204285327Y-55305273D01*
X204285331Y-55305276D01*
X204391866Y-55376461D01*
X204391875Y-55376466D01*
X204412070Y-55384831D01*
X204510256Y-55425501D01*
X204510260Y-55425501D01*
X204510261Y-55425502D01*
X204635928Y-55450500D01*
X204635931Y-55450500D01*
X204764071Y-55450500D01*
X204864608Y-55430501D01*
X204889744Y-55425501D01*
X204987930Y-55384830D01*
X205057398Y-55377362D01*
X205119878Y-55408637D01*
X205138484Y-55430501D01*
X205194723Y-55514668D01*
X205194726Y-55514672D01*
X205285327Y-55605273D01*
X205285331Y-55605276D01*
X205391866Y-55676461D01*
X205391872Y-55676464D01*
X205391873Y-55676465D01*
X205510256Y-55725501D01*
X205510260Y-55725501D01*
X205510261Y-55725502D01*
X205635928Y-55750500D01*
X205635931Y-55750500D01*
X205764071Y-55750500D01*
X205848615Y-55733682D01*
X205889744Y-55725501D01*
X206008127Y-55676465D01*
X206081109Y-55627699D01*
X206147786Y-55606822D01*
X206215166Y-55625306D01*
X206218889Y-55627698D01*
X206291873Y-55676465D01*
X206410256Y-55725501D01*
X206410260Y-55725501D01*
X206410261Y-55725502D01*
X206535928Y-55750500D01*
X206535931Y-55750500D01*
X206664071Y-55750500D01*
X206748615Y-55733682D01*
X206789744Y-55725501D01*
X206908127Y-55676465D01*
X207014669Y-55605276D01*
X207105276Y-55514669D01*
X207176465Y-55408127D01*
X207185439Y-55386463D01*
X207229280Y-55332059D01*
X207295574Y-55309994D01*
X207363273Y-55327273D01*
X207410884Y-55378410D01*
X207414561Y-55386463D01*
X207423531Y-55408120D01*
X207423538Y-55408133D01*
X207494723Y-55514668D01*
X207494726Y-55514672D01*
X207585327Y-55605273D01*
X207585331Y-55605276D01*
X207691866Y-55676461D01*
X207691872Y-55676464D01*
X207691873Y-55676465D01*
X207810256Y-55725501D01*
X207810260Y-55725501D01*
X207810261Y-55725502D01*
X207935928Y-55750500D01*
X207935931Y-55750500D01*
X208064071Y-55750500D01*
X208148615Y-55733682D01*
X208189744Y-55725501D01*
X208308127Y-55676465D01*
X208331109Y-55661108D01*
X208397785Y-55640230D01*
X208465165Y-55658714D01*
X208468873Y-55661096D01*
X208491873Y-55676465D01*
X208610256Y-55725501D01*
X208610260Y-55725501D01*
X208610261Y-55725502D01*
X208735928Y-55750500D01*
X208735931Y-55750500D01*
X208864071Y-55750500D01*
X208948615Y-55733682D01*
X208989744Y-55725501D01*
X209108127Y-55676465D01*
X209214669Y-55605276D01*
X209305276Y-55514669D01*
X209376465Y-55408127D01*
X209425501Y-55289744D01*
X209450500Y-55164069D01*
X209450500Y-55035931D01*
X209450500Y-55035928D01*
X209425502Y-54910261D01*
X209425501Y-54910260D01*
X209425501Y-54910256D01*
X209376465Y-54791873D01*
X209376464Y-54791872D01*
X209376461Y-54791866D01*
X209305276Y-54685331D01*
X209305273Y-54685327D01*
X209214672Y-54594726D01*
X209214668Y-54594723D01*
X209108133Y-54523538D01*
X209108124Y-54523533D01*
X208989744Y-54474499D01*
X208989738Y-54474497D01*
X208864071Y-54449500D01*
X208864069Y-54449500D01*
X208735931Y-54449500D01*
X208735929Y-54449500D01*
X208610261Y-54474497D01*
X208610255Y-54474499D01*
X208491872Y-54523534D01*
X208468888Y-54538892D01*
X208402210Y-54559768D01*
X208334830Y-54541282D01*
X208331112Y-54538892D01*
X208308127Y-54523534D01*
X208189744Y-54474499D01*
X208189738Y-54474497D01*
X208064071Y-54449500D01*
X208064069Y-54449500D01*
X207935931Y-54449500D01*
X207935929Y-54449500D01*
X207810261Y-54474497D01*
X207810255Y-54474499D01*
X207691875Y-54523533D01*
X207691866Y-54523538D01*
X207585331Y-54594723D01*
X207585327Y-54594726D01*
X207494726Y-54685327D01*
X207494723Y-54685331D01*
X207423538Y-54791866D01*
X207423535Y-54791873D01*
X207414561Y-54813538D01*
X207370719Y-54867941D01*
X207304425Y-54890005D01*
X207236726Y-54872725D01*
X207189116Y-54821588D01*
X207185439Y-54813538D01*
X207185138Y-54812812D01*
X207176465Y-54791873D01*
X207176462Y-54791868D01*
X207176461Y-54791866D01*
X207105276Y-54685331D01*
X207105273Y-54685327D01*
X207014672Y-54594726D01*
X207014668Y-54594723D01*
X206908133Y-54523538D01*
X206908124Y-54523533D01*
X206789744Y-54474499D01*
X206789738Y-54474497D01*
X206664071Y-54449500D01*
X206664069Y-54449500D01*
X206535931Y-54449500D01*
X206535929Y-54449500D01*
X206410261Y-54474497D01*
X206410255Y-54474499D01*
X206291875Y-54523533D01*
X206291861Y-54523541D01*
X206218890Y-54572299D01*
X206152213Y-54593177D01*
X206084833Y-54574692D01*
X206081110Y-54572299D01*
X206008138Y-54523541D01*
X206008124Y-54523533D01*
X205889744Y-54474499D01*
X205889738Y-54474497D01*
X205764071Y-54449500D01*
X205764069Y-54449500D01*
X205635931Y-54449500D01*
X205635929Y-54449500D01*
X205510261Y-54474497D01*
X205510251Y-54474500D01*
X205412068Y-54515169D01*
X205380483Y-54518564D01*
X205349127Y-54523637D01*
X205345995Y-54522272D01*
X205342599Y-54522638D01*
X205314192Y-54508418D01*
X205285072Y-54495733D01*
X205281988Y-54492298D01*
X205280120Y-54491363D01*
X205261498Y-54469474D01*
X205261087Y-54468858D01*
X205240229Y-54402178D01*
X205258733Y-54334803D01*
X205261096Y-54331127D01*
X205276465Y-54308127D01*
X205325501Y-54189744D01*
X205350500Y-54064069D01*
X205350500Y-53935931D01*
X205350500Y-53935928D01*
X205325502Y-53810261D01*
X205325501Y-53810260D01*
X205325501Y-53810256D01*
X205276465Y-53691873D01*
X205261108Y-53668890D01*
X205240230Y-53602215D01*
X205258714Y-53534835D01*
X205261096Y-53531126D01*
X205276465Y-53508127D01*
X205325501Y-53389744D01*
X205350500Y-53264069D01*
X205350500Y-53135931D01*
X205350500Y-53135928D01*
X205325502Y-53010261D01*
X205325501Y-53010260D01*
X205325501Y-53010256D01*
X205276465Y-52891873D01*
X205276464Y-52891872D01*
X205276461Y-52891866D01*
X205205276Y-52785331D01*
X205205273Y-52785327D01*
X205114672Y-52694726D01*
X205114668Y-52694723D01*
X205008133Y-52623538D01*
X205008124Y-52623533D01*
X204889744Y-52574499D01*
X204889738Y-52574497D01*
X204764071Y-52549500D01*
X204764069Y-52549500D01*
X204635931Y-52549500D01*
X204635929Y-52549500D01*
X204510261Y-52574497D01*
X204510255Y-52574499D01*
X204391875Y-52623533D01*
X204391866Y-52623538D01*
X204285331Y-52694723D01*
X204285327Y-52694726D01*
X204194726Y-52785327D01*
X204194723Y-52785331D01*
X204123538Y-52891866D01*
X204123533Y-52891875D01*
X204074499Y-53010255D01*
X204074497Y-53010261D01*
X204049500Y-53135928D01*
X204049500Y-53135931D01*
X204049500Y-53264069D01*
X204049500Y-53264071D01*
X204049499Y-53264071D01*
X183700500Y-53264071D01*
X183700500Y-47480131D01*
X189274500Y-47480131D01*
X189274500Y-48919856D01*
X189274502Y-48919882D01*
X189277413Y-48944987D01*
X189277415Y-48944991D01*
X189322793Y-49047764D01*
X189322794Y-49047765D01*
X189402235Y-49127206D01*
X189505009Y-49172585D01*
X189530135Y-49175500D01*
X190969864Y-49175499D01*
X190969879Y-49175497D01*
X190969882Y-49175497D01*
X190994987Y-49172586D01*
X190994988Y-49172585D01*
X190994991Y-49172585D01*
X191097765Y-49127206D01*
X191177206Y-49047765D01*
X191222585Y-48944991D01*
X191225500Y-48919865D01*
X191225499Y-47480136D01*
X191225499Y-47480135D01*
X191225499Y-47480131D01*
X197524500Y-47480131D01*
X197524500Y-48919856D01*
X197524502Y-48919882D01*
X197527413Y-48944987D01*
X197527415Y-48944991D01*
X197572793Y-49047764D01*
X197572794Y-49047765D01*
X197652235Y-49127206D01*
X197755009Y-49172585D01*
X197780135Y-49175500D01*
X199219864Y-49175499D01*
X199219879Y-49175497D01*
X199219882Y-49175497D01*
X199244987Y-49172586D01*
X199244988Y-49172585D01*
X199244991Y-49172585D01*
X199347765Y-49127206D01*
X199427206Y-49047765D01*
X199472585Y-48944991D01*
X199475500Y-48919865D01*
X199475499Y-47480136D01*
X199475499Y-47480135D01*
X199475499Y-47480131D01*
X205924500Y-47480131D01*
X205924500Y-48919856D01*
X205924502Y-48919882D01*
X205927413Y-48944987D01*
X205927415Y-48944991D01*
X205972793Y-49047764D01*
X205972794Y-49047765D01*
X206052235Y-49127206D01*
X206155009Y-49172585D01*
X206180135Y-49175500D01*
X207619864Y-49175499D01*
X207619879Y-49175497D01*
X207619882Y-49175497D01*
X207644987Y-49172586D01*
X207644988Y-49172585D01*
X207644991Y-49172585D01*
X207747765Y-49127206D01*
X207827206Y-49047765D01*
X207872585Y-48944991D01*
X207875500Y-48919865D01*
X207875499Y-47480136D01*
X207875499Y-47480135D01*
X207875499Y-47480131D01*
X214224500Y-47480131D01*
X214224500Y-48919856D01*
X214224502Y-48919882D01*
X214227413Y-48944987D01*
X214227415Y-48944991D01*
X214272793Y-49047764D01*
X214272794Y-49047765D01*
X214352235Y-49127206D01*
X214455009Y-49172585D01*
X214480135Y-49175500D01*
X215919864Y-49175499D01*
X215919879Y-49175497D01*
X215919882Y-49175497D01*
X215944987Y-49172586D01*
X215944988Y-49172585D01*
X215944991Y-49172585D01*
X216047765Y-49127206D01*
X216127206Y-49047765D01*
X216172585Y-48944991D01*
X216175500Y-48919865D01*
X216175499Y-47480136D01*
X216175499Y-47480135D01*
X216175499Y-47480131D01*
X222424500Y-47480131D01*
X222424500Y-48919856D01*
X222424502Y-48919882D01*
X222427413Y-48944987D01*
X222427415Y-48944991D01*
X222472793Y-49047764D01*
X222472794Y-49047765D01*
X222552235Y-49127206D01*
X222655009Y-49172585D01*
X222680135Y-49175500D01*
X224119864Y-49175499D01*
X224119879Y-49175497D01*
X224119882Y-49175497D01*
X224144987Y-49172586D01*
X224144988Y-49172585D01*
X224144991Y-49172585D01*
X224247765Y-49127206D01*
X224327206Y-49047765D01*
X224372585Y-48944991D01*
X224375500Y-48919865D01*
X224375499Y-47480136D01*
X224375497Y-47480117D01*
X224372586Y-47455012D01*
X224372585Y-47455010D01*
X224372585Y-47455009D01*
X224327206Y-47352235D01*
X224247765Y-47272794D01*
X224247763Y-47272793D01*
X224144992Y-47227415D01*
X224119865Y-47224500D01*
X222680143Y-47224500D01*
X222680117Y-47224502D01*
X222655012Y-47227413D01*
X222655008Y-47227415D01*
X222552235Y-47272793D01*
X222472794Y-47352234D01*
X222427415Y-47455006D01*
X222427415Y-47455008D01*
X222424500Y-47480131D01*
X216175499Y-47480131D01*
X216175499Y-47480130D01*
X216172586Y-47455012D01*
X216172585Y-47455010D01*
X216172585Y-47455009D01*
X216127206Y-47352235D01*
X216047765Y-47272794D01*
X216047763Y-47272793D01*
X215944992Y-47227415D01*
X215919865Y-47224500D01*
X214480143Y-47224500D01*
X214480117Y-47224502D01*
X214455012Y-47227413D01*
X214455008Y-47227415D01*
X214352235Y-47272793D01*
X214272794Y-47352234D01*
X214227415Y-47455006D01*
X214227415Y-47455008D01*
X214224500Y-47480131D01*
X207875499Y-47480131D01*
X207875499Y-47480130D01*
X207872586Y-47455012D01*
X207872585Y-47455010D01*
X207872585Y-47455009D01*
X207827206Y-47352235D01*
X207747765Y-47272794D01*
X207747763Y-47272793D01*
X207644992Y-47227415D01*
X207619865Y-47224500D01*
X206180143Y-47224500D01*
X206180117Y-47224502D01*
X206155012Y-47227413D01*
X206155008Y-47227415D01*
X206052235Y-47272793D01*
X205972794Y-47352234D01*
X205927415Y-47455006D01*
X205927415Y-47455008D01*
X205924500Y-47480131D01*
X199475499Y-47480131D01*
X199475499Y-47480130D01*
X199472586Y-47455012D01*
X199472585Y-47455010D01*
X199472585Y-47455009D01*
X199427206Y-47352235D01*
X199347765Y-47272794D01*
X199347763Y-47272793D01*
X199244992Y-47227415D01*
X199219865Y-47224500D01*
X197780143Y-47224500D01*
X197780117Y-47224502D01*
X197755012Y-47227413D01*
X197755008Y-47227415D01*
X197652235Y-47272793D01*
X197572794Y-47352234D01*
X197527415Y-47455006D01*
X197527415Y-47455008D01*
X197524500Y-47480131D01*
X191225499Y-47480131D01*
X191225499Y-47480130D01*
X191222586Y-47455012D01*
X191222585Y-47455010D01*
X191222585Y-47455009D01*
X191177206Y-47352235D01*
X191097765Y-47272794D01*
X191097763Y-47272793D01*
X190994992Y-47227415D01*
X190969865Y-47224500D01*
X189530143Y-47224500D01*
X189530117Y-47224502D01*
X189505012Y-47227413D01*
X189505008Y-47227415D01*
X189402235Y-47272793D01*
X189322794Y-47352234D01*
X189277415Y-47455006D01*
X189277415Y-47455008D01*
X189274500Y-47480131D01*
X183700500Y-47480131D01*
X183700500Y-45226524D01*
X191027027Y-45226524D01*
X191027027Y-45226525D01*
X191050007Y-45241879D01*
X191222894Y-45313491D01*
X191222902Y-45313493D01*
X191406428Y-45349999D01*
X191406431Y-45350000D01*
X191593569Y-45350000D01*
X191593571Y-45349999D01*
X191777097Y-45313493D01*
X191777105Y-45313491D01*
X191949992Y-45241879D01*
X191949998Y-45241876D01*
X191972971Y-45226525D01*
X191972972Y-45226524D01*
X199327027Y-45226524D01*
X199327027Y-45226525D01*
X199350007Y-45241879D01*
X199522894Y-45313491D01*
X199522902Y-45313493D01*
X199706428Y-45349999D01*
X199706431Y-45350000D01*
X199893569Y-45350000D01*
X199893571Y-45349999D01*
X200077097Y-45313493D01*
X200077105Y-45313491D01*
X200249992Y-45241879D01*
X200249998Y-45241876D01*
X200272971Y-45226525D01*
X200272972Y-45226524D01*
X207627027Y-45226524D01*
X207627027Y-45226525D01*
X207650007Y-45241879D01*
X207822894Y-45313491D01*
X207822902Y-45313493D01*
X208006428Y-45349999D01*
X208006431Y-45350000D01*
X208193569Y-45350000D01*
X208193571Y-45349999D01*
X208377097Y-45313493D01*
X208377105Y-45313491D01*
X208549992Y-45241879D01*
X208549998Y-45241876D01*
X208572971Y-45226525D01*
X208572972Y-45226524D01*
X215927027Y-45226524D01*
X215927027Y-45226525D01*
X215950007Y-45241879D01*
X216122894Y-45313491D01*
X216122902Y-45313493D01*
X216306428Y-45349999D01*
X216306431Y-45350000D01*
X216493569Y-45350000D01*
X216493571Y-45349999D01*
X216677097Y-45313493D01*
X216677105Y-45313491D01*
X216849992Y-45241879D01*
X216849998Y-45241876D01*
X216872971Y-45226525D01*
X216872972Y-45226524D01*
X224227027Y-45226524D01*
X224227027Y-45226525D01*
X224250007Y-45241879D01*
X224422894Y-45313491D01*
X224422902Y-45313493D01*
X224606428Y-45349999D01*
X224606431Y-45350000D01*
X224793569Y-45350000D01*
X224793571Y-45349999D01*
X224977097Y-45313493D01*
X224977105Y-45313491D01*
X225149992Y-45241879D01*
X225149998Y-45241876D01*
X225172971Y-45226525D01*
X225172972Y-45226524D01*
X224700001Y-44753553D01*
X224700000Y-44753553D01*
X224227027Y-45226524D01*
X216872972Y-45226524D01*
X216400001Y-44753553D01*
X216400000Y-44753553D01*
X215927027Y-45226524D01*
X208572972Y-45226524D01*
X208100001Y-44753553D01*
X208100000Y-44753553D01*
X207627027Y-45226524D01*
X200272972Y-45226524D01*
X199800001Y-44753553D01*
X199800000Y-44753553D01*
X199327027Y-45226524D01*
X191972972Y-45226524D01*
X191500001Y-44753553D01*
X191500000Y-44753553D01*
X191027027Y-45226524D01*
X183700500Y-45226524D01*
X183700500Y-43214071D01*
X187749499Y-43214071D01*
X187774497Y-43339738D01*
X187774499Y-43339744D01*
X187823533Y-43458124D01*
X187823538Y-43458133D01*
X187894723Y-43564668D01*
X187894726Y-43564672D01*
X187985327Y-43655273D01*
X187985331Y-43655276D01*
X188091866Y-43726461D01*
X188091875Y-43726466D01*
X188110658Y-43734246D01*
X188210256Y-43775501D01*
X188210260Y-43775501D01*
X188210261Y-43775502D01*
X188296933Y-43792743D01*
X188358844Y-43825128D01*
X188393418Y-43885844D01*
X188389677Y-43955614D01*
X188375844Y-43983250D01*
X188334918Y-44044500D01*
X188334912Y-44044511D01*
X188278343Y-44181082D01*
X188278340Y-44181092D01*
X188249500Y-44326079D01*
X188249500Y-44326082D01*
X188249500Y-44473918D01*
X188249500Y-44473920D01*
X188249499Y-44473920D01*
X188278340Y-44618907D01*
X188278343Y-44618917D01*
X188334912Y-44755488D01*
X188334919Y-44755501D01*
X188417048Y-44878415D01*
X188417051Y-44878419D01*
X188521580Y-44982948D01*
X188521584Y-44982951D01*
X188644498Y-45065080D01*
X188644511Y-45065087D01*
X188781082Y-45121656D01*
X188781087Y-45121658D01*
X188781091Y-45121658D01*
X188781092Y-45121659D01*
X188926079Y-45150500D01*
X188926082Y-45150500D01*
X189073920Y-45150500D01*
X189171462Y-45131096D01*
X189218913Y-45121658D01*
X189353880Y-45065753D01*
X189355488Y-45065087D01*
X189355488Y-45065086D01*
X189355495Y-45065084D01*
X189478416Y-44982951D01*
X189478419Y-44982948D01*
X189537319Y-44924049D01*
X189598642Y-44890564D01*
X189668334Y-44895548D01*
X189712681Y-44924049D01*
X189771580Y-44982948D01*
X189771584Y-44982951D01*
X189894498Y-45065080D01*
X189894511Y-45065087D01*
X190031082Y-45121656D01*
X190031087Y-45121658D01*
X190031091Y-45121658D01*
X190031092Y-45121659D01*
X190176079Y-45150500D01*
X190176082Y-45150500D01*
X190323920Y-45150500D01*
X190421462Y-45131096D01*
X190468913Y-45121658D01*
X190526531Y-45097791D01*
X190603881Y-45065753D01*
X190603882Y-45065752D01*
X190605495Y-45065084D01*
X190728416Y-44982951D01*
X190832951Y-44878416D01*
X190915084Y-44755495D01*
X190971658Y-44618913D01*
X190975276Y-44600722D01*
X191007659Y-44538814D01*
X191009212Y-44537232D01*
X191146445Y-44399999D01*
X191091745Y-44345299D01*
X191225000Y-44345299D01*
X191225000Y-44454701D01*
X191266866Y-44555775D01*
X191344225Y-44633134D01*
X191445299Y-44675000D01*
X191554701Y-44675000D01*
X191655775Y-44633134D01*
X191733134Y-44555775D01*
X191775000Y-44454701D01*
X191775000Y-44399999D01*
X191853553Y-44399999D01*
X191853553Y-44400001D01*
X192326524Y-44872972D01*
X192326525Y-44872971D01*
X192341876Y-44849998D01*
X192341879Y-44849992D01*
X192413491Y-44677105D01*
X192413493Y-44677097D01*
X192449999Y-44493571D01*
X192450000Y-44493569D01*
X192450000Y-44306430D01*
X192449999Y-44306428D01*
X192413493Y-44122902D01*
X192413491Y-44122894D01*
X192341879Y-43950007D01*
X192326524Y-43927027D01*
X191853553Y-44399999D01*
X191775000Y-44399999D01*
X191775000Y-44345299D01*
X191733134Y-44244225D01*
X191655775Y-44166866D01*
X191554701Y-44125000D01*
X191445299Y-44125000D01*
X191344225Y-44166866D01*
X191266866Y-44244225D01*
X191225000Y-44345299D01*
X191091745Y-44345299D01*
X191009212Y-44262766D01*
X190975727Y-44201443D01*
X190975294Y-44199369D01*
X190971658Y-44181087D01*
X190915888Y-44046446D01*
X190915087Y-44044511D01*
X190915080Y-44044498D01*
X190832951Y-43921584D01*
X190832948Y-43921580D01*
X190728419Y-43817051D01*
X190728415Y-43817048D01*
X190605501Y-43734919D01*
X190605491Y-43734914D01*
X190603878Y-43734246D01*
X190603877Y-43734245D01*
X190603875Y-43734245D01*
X190468913Y-43678342D01*
X190468907Y-43678340D01*
X190323920Y-43649500D01*
X190323918Y-43649500D01*
X190176082Y-43649500D01*
X190176080Y-43649500D01*
X190031092Y-43678340D01*
X190031082Y-43678343D01*
X189894511Y-43734912D01*
X189894498Y-43734919D01*
X189771584Y-43817048D01*
X189771580Y-43817051D01*
X189712681Y-43875951D01*
X189651358Y-43909436D01*
X189581666Y-43904452D01*
X189537319Y-43875951D01*
X189478419Y-43817051D01*
X189478415Y-43817048D01*
X189355501Y-43734919D01*
X189355488Y-43734912D01*
X189218917Y-43678343D01*
X189218907Y-43678340D01*
X189073913Y-43649498D01*
X189068386Y-43648954D01*
X189003600Y-43622790D01*
X188968706Y-43573473D01*
X191027027Y-43573473D01*
X191027027Y-43573474D01*
X191500000Y-44046446D01*
X191500001Y-44046446D01*
X191972972Y-43573474D01*
X191972971Y-43573473D01*
X191950002Y-43558126D01*
X191949990Y-43558119D01*
X191777105Y-43486508D01*
X191777097Y-43486506D01*
X191593570Y-43450000D01*
X191406430Y-43450000D01*
X191222902Y-43486506D01*
X191222894Y-43486508D01*
X191050005Y-43558121D01*
X191027027Y-43573473D01*
X188968706Y-43573473D01*
X188963244Y-43565754D01*
X188960130Y-43495954D01*
X188974273Y-43463866D01*
X188973592Y-43463502D01*
X188976461Y-43458131D01*
X188976465Y-43458127D01*
X189025501Y-43339744D01*
X189040554Y-43264071D01*
X196099499Y-43264071D01*
X196124497Y-43389738D01*
X196124499Y-43389744D01*
X196173533Y-43508124D01*
X196173538Y-43508133D01*
X196244723Y-43614668D01*
X196244726Y-43614672D01*
X196335327Y-43705273D01*
X196335331Y-43705276D01*
X196441866Y-43776461D01*
X196441872Y-43776464D01*
X196441873Y-43776465D01*
X196560256Y-43825501D01*
X196560260Y-43825501D01*
X196560261Y-43825502D01*
X196573310Y-43828098D01*
X196635221Y-43860483D01*
X196669795Y-43921199D01*
X196666055Y-43990968D01*
X196652221Y-44018605D01*
X196634918Y-44044500D01*
X196634912Y-44044511D01*
X196578343Y-44181082D01*
X196578340Y-44181092D01*
X196549500Y-44326079D01*
X196549500Y-44326082D01*
X196549500Y-44473918D01*
X196549500Y-44473920D01*
X196549499Y-44473920D01*
X196578340Y-44618907D01*
X196578343Y-44618917D01*
X196634912Y-44755488D01*
X196634919Y-44755501D01*
X196717048Y-44878415D01*
X196717051Y-44878419D01*
X196821580Y-44982948D01*
X196821584Y-44982951D01*
X196944498Y-45065080D01*
X196944511Y-45065087D01*
X197081082Y-45121656D01*
X197081087Y-45121658D01*
X197081091Y-45121658D01*
X197081092Y-45121659D01*
X197226079Y-45150500D01*
X197226082Y-45150500D01*
X197373920Y-45150500D01*
X197471462Y-45131096D01*
X197518913Y-45121658D01*
X197653880Y-45065753D01*
X197655488Y-45065087D01*
X197655488Y-45065086D01*
X197655495Y-45065084D01*
X197778416Y-44982951D01*
X197778419Y-44982948D01*
X197837319Y-44924049D01*
X197898642Y-44890564D01*
X197968334Y-44895548D01*
X198012681Y-44924049D01*
X198071580Y-44982948D01*
X198071584Y-44982951D01*
X198194498Y-45065080D01*
X198194511Y-45065087D01*
X198331082Y-45121656D01*
X198331087Y-45121658D01*
X198331091Y-45121658D01*
X198331092Y-45121659D01*
X198476079Y-45150500D01*
X198476082Y-45150500D01*
X198623920Y-45150500D01*
X198721462Y-45131096D01*
X198768913Y-45121658D01*
X198826531Y-45097791D01*
X198903881Y-45065753D01*
X198903882Y-45065752D01*
X198905495Y-45065084D01*
X199028416Y-44982951D01*
X199132951Y-44878416D01*
X199215084Y-44755495D01*
X199271658Y-44618913D01*
X199275276Y-44600722D01*
X199307659Y-44538814D01*
X199309212Y-44537232D01*
X199446445Y-44399999D01*
X199391745Y-44345299D01*
X199525000Y-44345299D01*
X199525000Y-44454701D01*
X199566866Y-44555775D01*
X199644225Y-44633134D01*
X199745299Y-44675000D01*
X199854701Y-44675000D01*
X199955775Y-44633134D01*
X200033134Y-44555775D01*
X200075000Y-44454701D01*
X200075000Y-44399999D01*
X200153553Y-44399999D01*
X200153553Y-44400001D01*
X200626524Y-44872972D01*
X200626525Y-44872971D01*
X200641876Y-44849998D01*
X200641879Y-44849992D01*
X200713491Y-44677105D01*
X200713493Y-44677097D01*
X200749999Y-44493571D01*
X200750000Y-44493569D01*
X200750000Y-44306430D01*
X200749999Y-44306428D01*
X200713493Y-44122902D01*
X200713491Y-44122894D01*
X200641879Y-43950007D01*
X200626524Y-43927027D01*
X200153553Y-44399999D01*
X200075000Y-44399999D01*
X200075000Y-44345299D01*
X200033134Y-44244225D01*
X199955775Y-44166866D01*
X199854701Y-44125000D01*
X199745299Y-44125000D01*
X199644225Y-44166866D01*
X199566866Y-44244225D01*
X199525000Y-44345299D01*
X199391745Y-44345299D01*
X199309212Y-44262766D01*
X199275727Y-44201443D01*
X199275294Y-44199369D01*
X199271658Y-44181087D01*
X199215888Y-44046446D01*
X199215087Y-44044511D01*
X199215080Y-44044498D01*
X199132951Y-43921584D01*
X199132948Y-43921580D01*
X199028419Y-43817051D01*
X199028415Y-43817048D01*
X198905501Y-43734919D01*
X198905491Y-43734914D01*
X198903878Y-43734246D01*
X198903877Y-43734245D01*
X198903875Y-43734245D01*
X198768913Y-43678342D01*
X198768907Y-43678340D01*
X198623920Y-43649500D01*
X198623918Y-43649500D01*
X198476082Y-43649500D01*
X198476080Y-43649500D01*
X198331092Y-43678340D01*
X198331082Y-43678343D01*
X198194511Y-43734912D01*
X198194498Y-43734919D01*
X198071584Y-43817048D01*
X198071580Y-43817051D01*
X198012681Y-43875951D01*
X197951358Y-43909436D01*
X197881666Y-43904452D01*
X197837319Y-43875951D01*
X197778419Y-43817051D01*
X197778415Y-43817048D01*
X197655501Y-43734919D01*
X197655488Y-43734912D01*
X197518917Y-43678343D01*
X197518908Y-43678340D01*
X197424165Y-43659494D01*
X197362255Y-43627108D01*
X197331713Y-43573473D01*
X199327027Y-43573473D01*
X199327027Y-43573474D01*
X199800000Y-44046446D01*
X199800001Y-44046446D01*
X200272972Y-43573474D01*
X200272971Y-43573473D01*
X200250002Y-43558126D01*
X200249990Y-43558119D01*
X200077105Y-43486508D01*
X200077097Y-43486506D01*
X199893570Y-43450000D01*
X199706430Y-43450000D01*
X199522902Y-43486506D01*
X199522894Y-43486508D01*
X199350005Y-43558121D01*
X199327027Y-43573473D01*
X197331713Y-43573473D01*
X197327681Y-43566392D01*
X197331422Y-43496623D01*
X197333786Y-43490451D01*
X197375501Y-43389744D01*
X197400500Y-43264071D01*
X204349499Y-43264071D01*
X204374497Y-43389738D01*
X204374499Y-43389744D01*
X204423533Y-43508124D01*
X204423538Y-43508133D01*
X204494723Y-43614668D01*
X204494726Y-43614672D01*
X204585327Y-43705273D01*
X204585331Y-43705276D01*
X204691866Y-43776461D01*
X204691872Y-43776464D01*
X204691873Y-43776465D01*
X204810256Y-43825501D01*
X204810260Y-43825501D01*
X204810261Y-43825502D01*
X204867444Y-43836877D01*
X204929355Y-43869262D01*
X204963929Y-43929978D01*
X204960189Y-43999747D01*
X204946355Y-44027383D01*
X204934921Y-44044495D01*
X204934912Y-44044511D01*
X204878343Y-44181082D01*
X204878340Y-44181092D01*
X204849500Y-44326079D01*
X204849500Y-44326082D01*
X204849500Y-44473918D01*
X204849500Y-44473920D01*
X204849499Y-44473920D01*
X204878340Y-44618907D01*
X204878343Y-44618917D01*
X204934912Y-44755488D01*
X204934919Y-44755501D01*
X205017048Y-44878415D01*
X205017051Y-44878419D01*
X205121580Y-44982948D01*
X205121584Y-44982951D01*
X205244498Y-45065080D01*
X205244511Y-45065087D01*
X205381082Y-45121656D01*
X205381087Y-45121658D01*
X205381091Y-45121658D01*
X205381092Y-45121659D01*
X205526079Y-45150500D01*
X205526082Y-45150500D01*
X205673920Y-45150500D01*
X205771462Y-45131096D01*
X205818913Y-45121658D01*
X205953880Y-45065753D01*
X205955488Y-45065087D01*
X205955488Y-45065086D01*
X205955495Y-45065084D01*
X206078416Y-44982951D01*
X206078419Y-44982948D01*
X206137319Y-44924049D01*
X206198642Y-44890564D01*
X206268334Y-44895548D01*
X206312681Y-44924049D01*
X206371580Y-44982948D01*
X206371584Y-44982951D01*
X206494498Y-45065080D01*
X206494511Y-45065087D01*
X206631082Y-45121656D01*
X206631087Y-45121658D01*
X206631091Y-45121658D01*
X206631092Y-45121659D01*
X206776079Y-45150500D01*
X206776082Y-45150500D01*
X206923920Y-45150500D01*
X207021462Y-45131096D01*
X207068913Y-45121658D01*
X207126531Y-45097791D01*
X207203881Y-45065753D01*
X207203882Y-45065752D01*
X207205495Y-45065084D01*
X207328416Y-44982951D01*
X207432951Y-44878416D01*
X207515084Y-44755495D01*
X207571658Y-44618913D01*
X207575276Y-44600722D01*
X207607659Y-44538814D01*
X207609212Y-44537232D01*
X207746445Y-44399999D01*
X207691745Y-44345299D01*
X207825000Y-44345299D01*
X207825000Y-44454701D01*
X207866866Y-44555775D01*
X207944225Y-44633134D01*
X208045299Y-44675000D01*
X208154701Y-44675000D01*
X208255775Y-44633134D01*
X208333134Y-44555775D01*
X208375000Y-44454701D01*
X208375000Y-44399999D01*
X208453553Y-44399999D01*
X208453553Y-44400001D01*
X208926524Y-44872972D01*
X208926525Y-44872971D01*
X208941876Y-44849998D01*
X208941879Y-44849992D01*
X209013491Y-44677105D01*
X209013493Y-44677097D01*
X209049999Y-44493571D01*
X209050000Y-44493569D01*
X209050000Y-44306430D01*
X209049999Y-44306428D01*
X209013493Y-44122902D01*
X209013491Y-44122894D01*
X208941879Y-43950007D01*
X208926524Y-43927027D01*
X208453553Y-44399999D01*
X208375000Y-44399999D01*
X208375000Y-44345299D01*
X208333134Y-44244225D01*
X208255775Y-44166866D01*
X208154701Y-44125000D01*
X208045299Y-44125000D01*
X207944225Y-44166866D01*
X207866866Y-44244225D01*
X207825000Y-44345299D01*
X207691745Y-44345299D01*
X207609212Y-44262766D01*
X207575727Y-44201443D01*
X207575294Y-44199369D01*
X207571658Y-44181087D01*
X207515888Y-44046446D01*
X207515087Y-44044511D01*
X207515080Y-44044498D01*
X207432951Y-43921584D01*
X207432948Y-43921580D01*
X207328419Y-43817051D01*
X207328415Y-43817048D01*
X207205501Y-43734919D01*
X207205491Y-43734914D01*
X207203878Y-43734246D01*
X207203877Y-43734245D01*
X207203875Y-43734245D01*
X207068913Y-43678342D01*
X207068907Y-43678340D01*
X206923920Y-43649500D01*
X206923918Y-43649500D01*
X206776082Y-43649500D01*
X206776080Y-43649500D01*
X206631092Y-43678340D01*
X206631082Y-43678343D01*
X206494511Y-43734912D01*
X206494498Y-43734919D01*
X206371584Y-43817048D01*
X206371580Y-43817051D01*
X206312681Y-43875951D01*
X206251358Y-43909436D01*
X206181666Y-43904452D01*
X206137319Y-43875951D01*
X206078419Y-43817051D01*
X206078415Y-43817048D01*
X205955501Y-43734919D01*
X205955488Y-43734912D01*
X205818917Y-43678343D01*
X205818907Y-43678340D01*
X205677972Y-43650306D01*
X205616061Y-43617921D01*
X205590751Y-43573473D01*
X207627027Y-43573473D01*
X207627027Y-43573474D01*
X208100000Y-44046446D01*
X208100001Y-44046446D01*
X208572972Y-43573474D01*
X208572971Y-43573473D01*
X208550002Y-43558126D01*
X208549990Y-43558119D01*
X208377105Y-43486508D01*
X208377097Y-43486506D01*
X208193570Y-43450000D01*
X208006430Y-43450000D01*
X207822902Y-43486506D01*
X207822894Y-43486508D01*
X207650005Y-43558121D01*
X207627027Y-43573473D01*
X205590751Y-43573473D01*
X205581487Y-43557205D01*
X205585227Y-43487435D01*
X205587594Y-43481257D01*
X205625501Y-43389744D01*
X205650500Y-43264071D01*
X212449499Y-43264071D01*
X212474497Y-43389738D01*
X212474499Y-43389744D01*
X212523533Y-43508124D01*
X212523538Y-43508133D01*
X212594723Y-43614668D01*
X212594726Y-43614672D01*
X212685327Y-43705273D01*
X212685331Y-43705276D01*
X212791866Y-43776461D01*
X212791872Y-43776464D01*
X212791873Y-43776465D01*
X212910256Y-43825501D01*
X212910260Y-43825501D01*
X212910261Y-43825502D01*
X213035928Y-43850500D01*
X213132558Y-43850500D01*
X213199597Y-43870185D01*
X213245352Y-43922989D01*
X213255296Y-43992147D01*
X213237376Y-44038909D01*
X213237789Y-44039130D01*
X213236032Y-44042415D01*
X213235658Y-44043394D01*
X213234918Y-44044500D01*
X213234912Y-44044511D01*
X213178343Y-44181082D01*
X213178340Y-44181092D01*
X213149500Y-44326079D01*
X213149500Y-44326082D01*
X213149500Y-44473918D01*
X213149500Y-44473920D01*
X213149499Y-44473920D01*
X213178340Y-44618907D01*
X213178343Y-44618917D01*
X213234912Y-44755488D01*
X213234919Y-44755501D01*
X213317048Y-44878415D01*
X213317051Y-44878419D01*
X213421580Y-44982948D01*
X213421584Y-44982951D01*
X213544498Y-45065080D01*
X213544511Y-45065087D01*
X213681082Y-45121656D01*
X213681087Y-45121658D01*
X213681091Y-45121658D01*
X213681092Y-45121659D01*
X213826079Y-45150500D01*
X213826082Y-45150500D01*
X213973920Y-45150500D01*
X214071462Y-45131096D01*
X214118913Y-45121658D01*
X214253880Y-45065753D01*
X214255488Y-45065087D01*
X214255488Y-45065086D01*
X214255495Y-45065084D01*
X214378416Y-44982951D01*
X214378419Y-44982948D01*
X214437319Y-44924049D01*
X214498642Y-44890564D01*
X214568334Y-44895548D01*
X214612681Y-44924049D01*
X214671580Y-44982948D01*
X214671584Y-44982951D01*
X214794498Y-45065080D01*
X214794511Y-45065087D01*
X214931082Y-45121656D01*
X214931087Y-45121658D01*
X214931091Y-45121658D01*
X214931092Y-45121659D01*
X215076079Y-45150500D01*
X215076082Y-45150500D01*
X215223920Y-45150500D01*
X215321462Y-45131096D01*
X215368913Y-45121658D01*
X215426531Y-45097791D01*
X215503881Y-45065753D01*
X215503882Y-45065752D01*
X215505495Y-45065084D01*
X215628416Y-44982951D01*
X215732951Y-44878416D01*
X215815084Y-44755495D01*
X215871658Y-44618913D01*
X215875276Y-44600722D01*
X215907659Y-44538814D01*
X215909212Y-44537232D01*
X216046445Y-44399999D01*
X215991745Y-44345299D01*
X216125000Y-44345299D01*
X216125000Y-44454701D01*
X216166866Y-44555775D01*
X216244225Y-44633134D01*
X216345299Y-44675000D01*
X216454701Y-44675000D01*
X216555775Y-44633134D01*
X216633134Y-44555775D01*
X216675000Y-44454701D01*
X216675000Y-44399999D01*
X216753553Y-44399999D01*
X216753553Y-44400001D01*
X217226524Y-44872972D01*
X217226525Y-44872971D01*
X217241876Y-44849998D01*
X217241879Y-44849992D01*
X217313491Y-44677105D01*
X217313493Y-44677097D01*
X217349999Y-44493571D01*
X217350000Y-44493569D01*
X217350000Y-44306430D01*
X217349999Y-44306428D01*
X217313493Y-44122902D01*
X217313491Y-44122894D01*
X217241879Y-43950007D01*
X217226524Y-43927027D01*
X216753553Y-44399999D01*
X216675000Y-44399999D01*
X216675000Y-44345299D01*
X216633134Y-44244225D01*
X216555775Y-44166866D01*
X216454701Y-44125000D01*
X216345299Y-44125000D01*
X216244225Y-44166866D01*
X216166866Y-44244225D01*
X216125000Y-44345299D01*
X215991745Y-44345299D01*
X215909212Y-44262766D01*
X215875727Y-44201443D01*
X215875294Y-44199369D01*
X215871658Y-44181087D01*
X215815888Y-44046446D01*
X215815087Y-44044511D01*
X215815080Y-44044498D01*
X215732951Y-43921584D01*
X215732948Y-43921580D01*
X215628419Y-43817051D01*
X215628415Y-43817048D01*
X215505501Y-43734919D01*
X215505491Y-43734914D01*
X215503878Y-43734246D01*
X215503877Y-43734245D01*
X215503875Y-43734245D01*
X215368913Y-43678342D01*
X215368907Y-43678340D01*
X215223920Y-43649500D01*
X215223918Y-43649500D01*
X215076082Y-43649500D01*
X215076080Y-43649500D01*
X214931092Y-43678340D01*
X214931082Y-43678343D01*
X214794511Y-43734912D01*
X214794498Y-43734919D01*
X214671584Y-43817048D01*
X214671580Y-43817051D01*
X214612681Y-43875951D01*
X214551358Y-43909436D01*
X214481666Y-43904452D01*
X214437319Y-43875951D01*
X214378419Y-43817051D01*
X214378415Y-43817048D01*
X214255501Y-43734919D01*
X214255488Y-43734912D01*
X214118917Y-43678343D01*
X214118907Y-43678340D01*
X213973920Y-43649500D01*
X213973918Y-43649500D01*
X213826082Y-43649500D01*
X213826079Y-43649500D01*
X213820017Y-43650097D01*
X213819885Y-43648756D01*
X213757140Y-43643135D01*
X213701967Y-43600265D01*
X213692519Y-43573473D01*
X215927027Y-43573473D01*
X215927027Y-43573474D01*
X216400000Y-44046446D01*
X216400001Y-44046446D01*
X216872972Y-43573474D01*
X216872971Y-43573473D01*
X216850002Y-43558126D01*
X216849990Y-43558119D01*
X216677105Y-43486508D01*
X216677097Y-43486506D01*
X216493570Y-43450000D01*
X216306430Y-43450000D01*
X216122902Y-43486506D01*
X216122894Y-43486508D01*
X215950005Y-43558121D01*
X215927027Y-43573473D01*
X213692519Y-43573473D01*
X213678730Y-43534373D01*
X213687991Y-43480299D01*
X213725501Y-43389744D01*
X213750500Y-43264071D01*
X220799499Y-43264071D01*
X220824497Y-43389738D01*
X220824499Y-43389744D01*
X220873533Y-43508124D01*
X220873538Y-43508133D01*
X220944723Y-43614668D01*
X220944726Y-43614672D01*
X221035327Y-43705273D01*
X221035331Y-43705276D01*
X221141866Y-43776461D01*
X221141872Y-43776464D01*
X221141873Y-43776465D01*
X221260256Y-43825501D01*
X221260260Y-43825501D01*
X221260261Y-43825502D01*
X221385928Y-43850500D01*
X221432558Y-43850500D01*
X221499597Y-43870185D01*
X221545352Y-43922989D01*
X221555296Y-43992147D01*
X221537376Y-44038909D01*
X221537789Y-44039130D01*
X221536032Y-44042415D01*
X221535658Y-44043394D01*
X221534918Y-44044500D01*
X221534912Y-44044511D01*
X221478343Y-44181082D01*
X221478340Y-44181092D01*
X221449500Y-44326079D01*
X221449500Y-44326082D01*
X221449500Y-44473918D01*
X221449500Y-44473920D01*
X221449499Y-44473920D01*
X221478340Y-44618907D01*
X221478343Y-44618917D01*
X221534912Y-44755488D01*
X221534919Y-44755501D01*
X221617048Y-44878415D01*
X221617051Y-44878419D01*
X221721580Y-44982948D01*
X221721584Y-44982951D01*
X221844498Y-45065080D01*
X221844511Y-45065087D01*
X221981082Y-45121656D01*
X221981087Y-45121658D01*
X221981091Y-45121658D01*
X221981092Y-45121659D01*
X222126079Y-45150500D01*
X222126082Y-45150500D01*
X222273920Y-45150500D01*
X222371462Y-45131096D01*
X222418913Y-45121658D01*
X222553880Y-45065753D01*
X222555488Y-45065087D01*
X222555488Y-45065086D01*
X222555495Y-45065084D01*
X222678416Y-44982951D01*
X222678419Y-44982948D01*
X222737319Y-44924049D01*
X222798642Y-44890564D01*
X222868334Y-44895548D01*
X222912681Y-44924049D01*
X222971580Y-44982948D01*
X222971584Y-44982951D01*
X223094498Y-45065080D01*
X223094511Y-45065087D01*
X223231082Y-45121656D01*
X223231087Y-45121658D01*
X223231091Y-45121658D01*
X223231092Y-45121659D01*
X223376079Y-45150500D01*
X223376082Y-45150500D01*
X223523920Y-45150500D01*
X223621462Y-45131096D01*
X223668913Y-45121658D01*
X223726531Y-45097791D01*
X223803881Y-45065753D01*
X223803882Y-45065752D01*
X223805495Y-45065084D01*
X223928416Y-44982951D01*
X224032951Y-44878416D01*
X224115084Y-44755495D01*
X224171658Y-44618913D01*
X224175276Y-44600722D01*
X224207659Y-44538814D01*
X224209212Y-44537232D01*
X224346445Y-44399999D01*
X224291745Y-44345299D01*
X224425000Y-44345299D01*
X224425000Y-44454701D01*
X224466866Y-44555775D01*
X224544225Y-44633134D01*
X224645299Y-44675000D01*
X224754701Y-44675000D01*
X224855775Y-44633134D01*
X224933134Y-44555775D01*
X224975000Y-44454701D01*
X224975000Y-44399999D01*
X225053553Y-44399999D01*
X225053553Y-44400001D01*
X225526524Y-44872972D01*
X225526525Y-44872971D01*
X225541876Y-44849998D01*
X225541879Y-44849992D01*
X225613491Y-44677105D01*
X225613493Y-44677097D01*
X225649999Y-44493571D01*
X225650000Y-44493569D01*
X225650000Y-44306430D01*
X225649999Y-44306428D01*
X225613493Y-44122902D01*
X225613491Y-44122894D01*
X225541879Y-43950007D01*
X225526524Y-43927027D01*
X225053553Y-44399999D01*
X224975000Y-44399999D01*
X224975000Y-44345299D01*
X224933134Y-44244225D01*
X224855775Y-44166866D01*
X224754701Y-44125000D01*
X224645299Y-44125000D01*
X224544225Y-44166866D01*
X224466866Y-44244225D01*
X224425000Y-44345299D01*
X224291745Y-44345299D01*
X224209212Y-44262766D01*
X224175727Y-44201443D01*
X224175294Y-44199369D01*
X224171658Y-44181087D01*
X224115888Y-44046446D01*
X224115087Y-44044511D01*
X224115080Y-44044498D01*
X224032951Y-43921584D01*
X224032948Y-43921580D01*
X223928419Y-43817051D01*
X223928415Y-43817048D01*
X223805501Y-43734919D01*
X223805491Y-43734914D01*
X223803878Y-43734246D01*
X223803877Y-43734245D01*
X223803875Y-43734245D01*
X223668913Y-43678342D01*
X223668907Y-43678340D01*
X223523920Y-43649500D01*
X223523918Y-43649500D01*
X223376082Y-43649500D01*
X223376080Y-43649500D01*
X223231092Y-43678340D01*
X223231082Y-43678343D01*
X223094511Y-43734912D01*
X223094498Y-43734919D01*
X222971584Y-43817048D01*
X222971580Y-43817051D01*
X222912681Y-43875951D01*
X222851358Y-43909436D01*
X222781666Y-43904452D01*
X222737319Y-43875951D01*
X222678419Y-43817051D01*
X222678415Y-43817048D01*
X222555501Y-43734919D01*
X222555488Y-43734912D01*
X222418917Y-43678343D01*
X222418907Y-43678340D01*
X222273920Y-43649500D01*
X222273918Y-43649500D01*
X222153486Y-43649500D01*
X222086447Y-43629815D01*
X222040692Y-43577011D01*
X222040183Y-43573473D01*
X224227027Y-43573473D01*
X224227027Y-43573474D01*
X224700000Y-44046446D01*
X224700001Y-44046446D01*
X225172972Y-43573474D01*
X225172971Y-43573473D01*
X225150002Y-43558126D01*
X225149990Y-43558119D01*
X224977105Y-43486508D01*
X224977097Y-43486506D01*
X224793570Y-43450000D01*
X224606430Y-43450000D01*
X224422902Y-43486506D01*
X224422894Y-43486508D01*
X224250005Y-43558121D01*
X224227027Y-43573473D01*
X222040183Y-43573473D01*
X222030748Y-43507853D01*
X222038925Y-43478048D01*
X222075499Y-43389748D01*
X222075501Y-43389744D01*
X222100500Y-43264069D01*
X222100500Y-43135931D01*
X222100500Y-43135928D01*
X222075502Y-43010261D01*
X222075501Y-43010260D01*
X222075501Y-43010256D01*
X222026465Y-42891873D01*
X222026464Y-42891872D01*
X222026461Y-42891866D01*
X221955276Y-42785331D01*
X221955273Y-42785327D01*
X221864672Y-42694726D01*
X221864668Y-42694723D01*
X221758133Y-42623538D01*
X221758124Y-42623533D01*
X221639744Y-42574499D01*
X221639738Y-42574497D01*
X221514071Y-42549500D01*
X221514069Y-42549500D01*
X221385931Y-42549500D01*
X221385929Y-42549500D01*
X221260261Y-42574497D01*
X221260255Y-42574499D01*
X221141875Y-42623533D01*
X221141866Y-42623538D01*
X221035331Y-42694723D01*
X221035327Y-42694726D01*
X220944726Y-42785327D01*
X220944723Y-42785331D01*
X220873538Y-42891866D01*
X220873533Y-42891875D01*
X220824499Y-43010255D01*
X220824497Y-43010261D01*
X220799500Y-43135928D01*
X220799500Y-43135931D01*
X220799500Y-43264069D01*
X220799500Y-43264071D01*
X220799499Y-43264071D01*
X213750500Y-43264071D01*
X213750500Y-43264069D01*
X213750500Y-43135931D01*
X213750500Y-43135928D01*
X213725502Y-43010261D01*
X213725501Y-43010260D01*
X213725501Y-43010256D01*
X213676465Y-42891873D01*
X213676464Y-42891872D01*
X213676461Y-42891866D01*
X213605276Y-42785331D01*
X213605273Y-42785327D01*
X213514672Y-42694726D01*
X213514668Y-42694723D01*
X213408133Y-42623538D01*
X213408124Y-42623533D01*
X213289744Y-42574499D01*
X213289738Y-42574497D01*
X213164071Y-42549500D01*
X213164069Y-42549500D01*
X213035931Y-42549500D01*
X213035929Y-42549500D01*
X212910261Y-42574497D01*
X212910255Y-42574499D01*
X212791875Y-42623533D01*
X212791866Y-42623538D01*
X212685331Y-42694723D01*
X212685327Y-42694726D01*
X212594726Y-42785327D01*
X212594723Y-42785331D01*
X212523538Y-42891866D01*
X212523533Y-42891875D01*
X212474499Y-43010255D01*
X212474497Y-43010261D01*
X212449500Y-43135928D01*
X212449500Y-43135931D01*
X212449500Y-43264069D01*
X212449500Y-43264071D01*
X212449499Y-43264071D01*
X205650500Y-43264071D01*
X205650500Y-43264069D01*
X205650500Y-43135931D01*
X205650500Y-43135928D01*
X205625502Y-43010261D01*
X205625501Y-43010260D01*
X205625501Y-43010256D01*
X205576465Y-42891873D01*
X205576464Y-42891872D01*
X205576461Y-42891866D01*
X205505276Y-42785331D01*
X205505273Y-42785327D01*
X205414672Y-42694726D01*
X205414668Y-42694723D01*
X205308133Y-42623538D01*
X205308124Y-42623533D01*
X205189744Y-42574499D01*
X205189738Y-42574497D01*
X205064071Y-42549500D01*
X205064069Y-42549500D01*
X204935931Y-42549500D01*
X204935929Y-42549500D01*
X204810261Y-42574497D01*
X204810255Y-42574499D01*
X204691875Y-42623533D01*
X204691866Y-42623538D01*
X204585331Y-42694723D01*
X204585327Y-42694726D01*
X204494726Y-42785327D01*
X204494723Y-42785331D01*
X204423538Y-42891866D01*
X204423533Y-42891875D01*
X204374499Y-43010255D01*
X204374497Y-43010261D01*
X204349500Y-43135928D01*
X204349500Y-43135931D01*
X204349500Y-43264069D01*
X204349500Y-43264071D01*
X204349499Y-43264071D01*
X197400500Y-43264071D01*
X197400500Y-43264069D01*
X197400500Y-43135931D01*
X197400500Y-43135928D01*
X197375502Y-43010261D01*
X197375501Y-43010260D01*
X197375501Y-43010256D01*
X197326465Y-42891873D01*
X197326464Y-42891872D01*
X197326461Y-42891866D01*
X197255276Y-42785331D01*
X197255273Y-42785327D01*
X197164672Y-42694726D01*
X197164668Y-42694723D01*
X197058133Y-42623538D01*
X197058124Y-42623533D01*
X196939744Y-42574499D01*
X196939738Y-42574497D01*
X196814071Y-42549500D01*
X196814069Y-42549500D01*
X196685931Y-42549500D01*
X196685929Y-42549500D01*
X196560261Y-42574497D01*
X196560255Y-42574499D01*
X196441875Y-42623533D01*
X196441866Y-42623538D01*
X196335331Y-42694723D01*
X196335327Y-42694726D01*
X196244726Y-42785327D01*
X196244723Y-42785331D01*
X196173538Y-42891866D01*
X196173533Y-42891875D01*
X196124499Y-43010255D01*
X196124497Y-43010261D01*
X196099500Y-43135928D01*
X196099500Y-43135931D01*
X196099500Y-43264069D01*
X196099500Y-43264071D01*
X196099499Y-43264071D01*
X189040554Y-43264071D01*
X189050500Y-43214069D01*
X189050500Y-43085931D01*
X189050500Y-43085928D01*
X189025502Y-42960261D01*
X189025501Y-42960260D01*
X189025501Y-42960256D01*
X188976465Y-42841873D01*
X188976464Y-42841872D01*
X188976461Y-42841866D01*
X188905276Y-42735331D01*
X188905273Y-42735327D01*
X188814672Y-42644726D01*
X188814668Y-42644723D01*
X188708133Y-42573538D01*
X188708124Y-42573533D01*
X188589744Y-42524499D01*
X188589738Y-42524497D01*
X188464071Y-42499500D01*
X188464069Y-42499500D01*
X188335931Y-42499500D01*
X188335929Y-42499500D01*
X188210261Y-42524497D01*
X188210255Y-42524499D01*
X188091875Y-42573533D01*
X188091866Y-42573538D01*
X187985331Y-42644723D01*
X187985327Y-42644726D01*
X187894726Y-42735327D01*
X187894723Y-42735331D01*
X187823538Y-42841866D01*
X187823533Y-42841875D01*
X187774499Y-42960255D01*
X187774497Y-42960261D01*
X187749500Y-43085928D01*
X187749500Y-43085931D01*
X187749500Y-43214069D01*
X187749500Y-43214071D01*
X187749499Y-43214071D01*
X183700500Y-43214071D01*
X183700500Y-38303750D01*
X183700726Y-38296263D01*
X183706691Y-38197648D01*
X184699500Y-38197648D01*
X184699500Y-38402351D01*
X184731522Y-38604534D01*
X184794781Y-38799223D01*
X184887715Y-38981613D01*
X185008028Y-39147213D01*
X185152786Y-39291971D01*
X185304689Y-39402333D01*
X185318390Y-39412287D01*
X185434607Y-39471503D01*
X185500776Y-39505218D01*
X185500778Y-39505218D01*
X185500781Y-39505220D01*
X185589434Y-39534025D01*
X185695465Y-39568477D01*
X185796557Y-39584488D01*
X185897648Y-39600500D01*
X185897649Y-39600500D01*
X186102351Y-39600500D01*
X186102352Y-39600500D01*
X186304534Y-39568477D01*
X186499219Y-39505220D01*
X186681610Y-39412287D01*
X186774590Y-39344732D01*
X186847213Y-39291971D01*
X186847215Y-39291968D01*
X186847219Y-39291966D01*
X186991966Y-39147219D01*
X186991968Y-39147215D01*
X186991971Y-39147213D01*
X187045507Y-39073526D01*
X187112287Y-38981610D01*
X187205220Y-38799219D01*
X187240780Y-38689778D01*
X191399500Y-38689778D01*
X191399500Y-38910221D01*
X191433985Y-39127952D01*
X191502103Y-39337603D01*
X191502104Y-39337606D01*
X191540157Y-39412287D01*
X191587509Y-39505220D01*
X191602187Y-39534025D01*
X191731752Y-39712358D01*
X191731756Y-39712363D01*
X191887636Y-39868243D01*
X191887641Y-39868247D01*
X192043192Y-39981260D01*
X192065978Y-39997815D01*
X192194375Y-40063237D01*
X192262393Y-40097895D01*
X192262396Y-40097896D01*
X192367221Y-40131955D01*
X192472049Y-40166015D01*
X192689778Y-40200500D01*
X192689779Y-40200500D01*
X219910221Y-40200500D01*
X219910222Y-40200500D01*
X220127951Y-40166015D01*
X220337606Y-40097895D01*
X220534022Y-39997815D01*
X220712365Y-39868242D01*
X220868242Y-39712365D01*
X220997815Y-39534022D01*
X221097895Y-39337606D01*
X221166015Y-39127951D01*
X221200500Y-38910222D01*
X221200500Y-38689778D01*
X221166015Y-38472049D01*
X221097895Y-38262394D01*
X221097892Y-38262387D01*
X221091107Y-38249070D01*
X221064906Y-38197648D01*
X224199500Y-38197648D01*
X224199500Y-38402351D01*
X224231522Y-38604534D01*
X224294781Y-38799223D01*
X224387715Y-38981613D01*
X224508028Y-39147213D01*
X224652786Y-39291971D01*
X224804689Y-39402333D01*
X224818390Y-39412287D01*
X224934607Y-39471503D01*
X225000776Y-39505218D01*
X225000778Y-39505218D01*
X225000781Y-39505220D01*
X225089434Y-39534025D01*
X225195465Y-39568477D01*
X225296557Y-39584488D01*
X225397648Y-39600500D01*
X225397649Y-39600500D01*
X225602351Y-39600500D01*
X225602352Y-39600500D01*
X225804534Y-39568477D01*
X225999219Y-39505220D01*
X226181610Y-39412287D01*
X226274590Y-39344732D01*
X226347213Y-39291971D01*
X226347215Y-39291968D01*
X226347219Y-39291966D01*
X226491966Y-39147219D01*
X226491968Y-39147215D01*
X226491971Y-39147213D01*
X226545507Y-39073526D01*
X226612287Y-38981610D01*
X226705220Y-38799219D01*
X226768477Y-38604534D01*
X226800500Y-38402352D01*
X226800500Y-38197648D01*
X226768477Y-37995465D01*
X226739127Y-37905137D01*
X226705220Y-37800781D01*
X226705218Y-37800778D01*
X226705218Y-37800776D01*
X226670048Y-37731752D01*
X226612287Y-37618390D01*
X226600515Y-37602187D01*
X226491971Y-37452786D01*
X226347213Y-37308028D01*
X226181613Y-37187715D01*
X226181612Y-37187714D01*
X226181610Y-37187713D01*
X226124653Y-37158691D01*
X225999223Y-37094781D01*
X225804534Y-37031522D01*
X225629995Y-37003878D01*
X225602352Y-36999500D01*
X225397648Y-36999500D01*
X225373329Y-37003351D01*
X225195465Y-37031522D01*
X225000776Y-37094781D01*
X224818386Y-37187715D01*
X224652786Y-37308028D01*
X224508028Y-37452786D01*
X224387715Y-37618386D01*
X224294781Y-37800776D01*
X224231522Y-37995465D01*
X224199500Y-38197648D01*
X221064906Y-38197648D01*
X220997814Y-38065976D01*
X220868247Y-37887641D01*
X220868243Y-37887636D01*
X220712363Y-37731756D01*
X220712358Y-37731752D01*
X220534025Y-37602187D01*
X220534024Y-37602186D01*
X220534022Y-37602185D01*
X220471096Y-37570122D01*
X220337606Y-37502104D01*
X220337603Y-37502103D01*
X220127952Y-37433985D01*
X220019086Y-37416742D01*
X219910222Y-37399500D01*
X219839882Y-37399500D01*
X192839882Y-37399500D01*
X192800000Y-37399500D01*
X192689778Y-37399500D01*
X192617201Y-37410995D01*
X192472047Y-37433985D01*
X192262396Y-37502103D01*
X192262393Y-37502104D01*
X192065974Y-37602187D01*
X191887641Y-37731752D01*
X191887636Y-37731756D01*
X191731756Y-37887636D01*
X191731752Y-37887641D01*
X191602187Y-38065974D01*
X191502104Y-38262393D01*
X191502103Y-38262396D01*
X191433985Y-38472047D01*
X191399500Y-38689778D01*
X187240780Y-38689778D01*
X187268477Y-38604534D01*
X187300500Y-38402352D01*
X187300500Y-38197648D01*
X187268477Y-37995465D01*
X187239127Y-37905137D01*
X187205220Y-37800781D01*
X187205218Y-37800778D01*
X187205218Y-37800776D01*
X187170048Y-37731752D01*
X187112287Y-37618390D01*
X187100515Y-37602187D01*
X186991971Y-37452786D01*
X186847213Y-37308028D01*
X186681613Y-37187715D01*
X186681612Y-37187714D01*
X186681610Y-37187713D01*
X186624653Y-37158691D01*
X186499223Y-37094781D01*
X186304534Y-37031522D01*
X186129995Y-37003878D01*
X186102352Y-36999500D01*
X185897648Y-36999500D01*
X185873329Y-37003351D01*
X185695465Y-37031522D01*
X185500776Y-37094781D01*
X185318386Y-37187715D01*
X185152786Y-37308028D01*
X185008028Y-37452786D01*
X184887715Y-37618386D01*
X184794781Y-37800776D01*
X184731522Y-37995465D01*
X184699500Y-38197648D01*
X183706691Y-38197648D01*
X183707439Y-38185289D01*
X183716813Y-38030311D01*
X183718618Y-38015447D01*
X183722280Y-37995465D01*
X183765969Y-37757057D01*
X183769548Y-37742539D01*
X183847699Y-37491743D01*
X183853001Y-37477762D01*
X183960822Y-37238194D01*
X183967767Y-37224961D01*
X184103677Y-37000139D01*
X184112164Y-36987843D01*
X184274183Y-36781041D01*
X184284098Y-36769850D01*
X184469850Y-36584098D01*
X184481041Y-36574183D01*
X184687843Y-36412164D01*
X184700139Y-36403677D01*
X184924961Y-36267767D01*
X184938194Y-36260822D01*
X185177762Y-36153001D01*
X185191743Y-36147699D01*
X185442539Y-36069548D01*
X185457057Y-36065969D01*
X185715450Y-36018617D01*
X185730307Y-36016813D01*
X185996264Y-36000726D01*
X186003751Y-36000500D01*
X186039882Y-36000500D01*
X225460118Y-36000500D01*
X225496249Y-36000500D01*
X225503736Y-36000726D01*
G37*
%TD.AperFunction*%
%TD*%
M02*
