%TF.GenerationSoftware,KiCad,Pcbnew,9.0.0*%
%TF.CreationDate,2026-01-14T19:26:19-05:00*%
%TF.ProjectId,telemetry-node,74656c65-6d65-4747-9279-2d6e6f64652e,rev?*%
%TF.SameCoordinates,Original*%
%TF.FileFunction,Legend,Bot*%
%TF.FilePolarity,Positive*%
%FSLAX46Y46*%
G04 Gerber Fmt 4.6, Leading zero omitted, Abs format (unit mm)*
G04 Created by KiCad (PCBNEW 9.0.0) date 2026-01-14 19:26:19*
%MOMM*%
%LPD*%
G01*
G04 APERTURE LIST*
%ADD10C,0.200000*%
%ADD11C,0.000000*%
G04 APERTURE END LIST*
D10*
X226064850Y-55467219D02*
X226338660Y-54991028D01*
X226636279Y-55467219D02*
X226511279Y-54467219D01*
X226511279Y-54467219D02*
X226130326Y-54467219D01*
X226130326Y-54467219D02*
X226041041Y-54514838D01*
X226041041Y-54514838D02*
X225999374Y-54562457D01*
X225999374Y-54562457D02*
X225963660Y-54657695D01*
X225963660Y-54657695D02*
X225981517Y-54800552D01*
X225981517Y-54800552D02*
X226041041Y-54895790D01*
X226041041Y-54895790D02*
X226094612Y-54943409D01*
X226094612Y-54943409D02*
X226195802Y-54991028D01*
X226195802Y-54991028D02*
X226576755Y-54991028D01*
X225124374Y-54800552D02*
X225207707Y-55467219D01*
X225552945Y-54800552D02*
X225618422Y-55324361D01*
X225618422Y-55324361D02*
X225582707Y-55419600D01*
X225582707Y-55419600D02*
X225493422Y-55467219D01*
X225493422Y-55467219D02*
X225350564Y-55467219D01*
X225350564Y-55467219D02*
X225249374Y-55419600D01*
X225249374Y-55419600D02*
X225195802Y-55371980D01*
X224791040Y-54800552D02*
X224410088Y-54800552D01*
X224606517Y-54467219D02*
X224713660Y-55324361D01*
X224713660Y-55324361D02*
X224677945Y-55419600D01*
X224677945Y-55419600D02*
X224588660Y-55467219D01*
X224588660Y-55467219D02*
X224493421Y-55467219D01*
X223648183Y-54800552D02*
X223749373Y-55610076D01*
X223749373Y-55610076D02*
X223808897Y-55705314D01*
X223808897Y-55705314D02*
X223862469Y-55752933D01*
X223862469Y-55752933D02*
X223963659Y-55800552D01*
X223963659Y-55800552D02*
X224106516Y-55800552D01*
X224106516Y-55800552D02*
X224195802Y-55752933D01*
X223725564Y-55419600D02*
X223826754Y-55467219D01*
X223826754Y-55467219D02*
X224017231Y-55467219D01*
X224017231Y-55467219D02*
X224106516Y-55419600D01*
X224106516Y-55419600D02*
X224148183Y-55371980D01*
X224148183Y-55371980D02*
X224183897Y-55276742D01*
X224183897Y-55276742D02*
X224148183Y-54991028D01*
X224148183Y-54991028D02*
X224088659Y-54895790D01*
X224088659Y-54895790D02*
X224035088Y-54848171D01*
X224035088Y-54848171D02*
X223933897Y-54800552D01*
X223933897Y-54800552D02*
X223743421Y-54800552D01*
X223743421Y-54800552D02*
X223654135Y-54848171D01*
X222868421Y-55419600D02*
X222969611Y-55467219D01*
X222969611Y-55467219D02*
X223160088Y-55467219D01*
X223160088Y-55467219D02*
X223249373Y-55419600D01*
X223249373Y-55419600D02*
X223285088Y-55324361D01*
X223285088Y-55324361D02*
X223237469Y-54943409D01*
X223237469Y-54943409D02*
X223177945Y-54848171D01*
X223177945Y-54848171D02*
X223076754Y-54800552D01*
X223076754Y-54800552D02*
X222886278Y-54800552D01*
X222886278Y-54800552D02*
X222796992Y-54848171D01*
X222796992Y-54848171D02*
X222761278Y-54943409D01*
X222761278Y-54943409D02*
X222773183Y-55038647D01*
X222773183Y-55038647D02*
X223261278Y-55133885D01*
X222398183Y-55467219D02*
X222314849Y-54800552D01*
X222338659Y-54991028D02*
X222279135Y-54895790D01*
X222279135Y-54895790D02*
X222225564Y-54848171D01*
X222225564Y-54848171D02*
X222124373Y-54800552D01*
X222124373Y-54800552D02*
X222029135Y-54800552D01*
X221820801Y-55419600D02*
X221731516Y-55467219D01*
X221731516Y-55467219D02*
X221541039Y-55467219D01*
X221541039Y-55467219D02*
X221439849Y-55419600D01*
X221439849Y-55419600D02*
X221380325Y-55324361D01*
X221380325Y-55324361D02*
X221374373Y-55276742D01*
X221374373Y-55276742D02*
X221410087Y-55181504D01*
X221410087Y-55181504D02*
X221499373Y-55133885D01*
X221499373Y-55133885D02*
X221642230Y-55133885D01*
X221642230Y-55133885D02*
X221731516Y-55086266D01*
X221731516Y-55086266D02*
X221767230Y-54991028D01*
X221767230Y-54991028D02*
X221761278Y-54943409D01*
X221761278Y-54943409D02*
X221701754Y-54848171D01*
X221701754Y-54848171D02*
X221600563Y-54800552D01*
X221600563Y-54800552D02*
X221457706Y-54800552D01*
X221457706Y-54800552D02*
X221368420Y-54848171D01*
X220249372Y-55419600D02*
X220112468Y-55467219D01*
X220112468Y-55467219D02*
X219874372Y-55467219D01*
X219874372Y-55467219D02*
X219773182Y-55419600D01*
X219773182Y-55419600D02*
X219719610Y-55371980D01*
X219719610Y-55371980D02*
X219660087Y-55276742D01*
X219660087Y-55276742D02*
X219648182Y-55181504D01*
X219648182Y-55181504D02*
X219683896Y-55086266D01*
X219683896Y-55086266D02*
X219725563Y-55038647D01*
X219725563Y-55038647D02*
X219814849Y-54991028D01*
X219814849Y-54991028D02*
X219999372Y-54943409D01*
X219999372Y-54943409D02*
X220088658Y-54895790D01*
X220088658Y-54895790D02*
X220130325Y-54848171D01*
X220130325Y-54848171D02*
X220166039Y-54752933D01*
X220166039Y-54752933D02*
X220154134Y-54657695D01*
X220154134Y-54657695D02*
X220094610Y-54562457D01*
X220094610Y-54562457D02*
X220041039Y-54514838D01*
X220041039Y-54514838D02*
X219939849Y-54467219D01*
X219939849Y-54467219D02*
X219701753Y-54467219D01*
X219701753Y-54467219D02*
X219564849Y-54514838D01*
X219112468Y-55467219D02*
X219201753Y-55419600D01*
X219201753Y-55419600D02*
X219243420Y-55371980D01*
X219243420Y-55371980D02*
X219279134Y-55276742D01*
X219279134Y-55276742D02*
X219243420Y-54991028D01*
X219243420Y-54991028D02*
X219183896Y-54895790D01*
X219183896Y-54895790D02*
X219130325Y-54848171D01*
X219130325Y-54848171D02*
X219029134Y-54800552D01*
X219029134Y-54800552D02*
X218886277Y-54800552D01*
X218886277Y-54800552D02*
X218796991Y-54848171D01*
X218796991Y-54848171D02*
X218755325Y-54895790D01*
X218755325Y-54895790D02*
X218719610Y-54991028D01*
X218719610Y-54991028D02*
X218755325Y-55276742D01*
X218755325Y-55276742D02*
X218814848Y-55371980D01*
X218814848Y-55371980D02*
X218868420Y-55419600D01*
X218868420Y-55419600D02*
X218969610Y-55467219D01*
X218969610Y-55467219D02*
X219112468Y-55467219D01*
X218207706Y-55467219D02*
X218296991Y-55419600D01*
X218296991Y-55419600D02*
X218332706Y-55324361D01*
X218332706Y-55324361D02*
X218225563Y-54467219D01*
X217398181Y-55467219D02*
X217332705Y-54943409D01*
X217332705Y-54943409D02*
X217368419Y-54848171D01*
X217368419Y-54848171D02*
X217457705Y-54800552D01*
X217457705Y-54800552D02*
X217648181Y-54800552D01*
X217648181Y-54800552D02*
X217749372Y-54848171D01*
X217392229Y-55419600D02*
X217493419Y-55467219D01*
X217493419Y-55467219D02*
X217731515Y-55467219D01*
X217731515Y-55467219D02*
X217820800Y-55419600D01*
X217820800Y-55419600D02*
X217856515Y-55324361D01*
X217856515Y-55324361D02*
X217844610Y-55229123D01*
X217844610Y-55229123D02*
X217785086Y-55133885D01*
X217785086Y-55133885D02*
X217683896Y-55086266D01*
X217683896Y-55086266D02*
X217445800Y-55086266D01*
X217445800Y-55086266D02*
X217344610Y-55038647D01*
X216921991Y-55467219D02*
X216838657Y-54800552D01*
X216862467Y-54991028D02*
X216802943Y-54895790D01*
X216802943Y-54895790D02*
X216749372Y-54848171D01*
X216749372Y-54848171D02*
X216648181Y-54800552D01*
X216648181Y-54800552D02*
X216552943Y-54800552D01*
X214957704Y-55371980D02*
X215011276Y-55419600D01*
X215011276Y-55419600D02*
X215160085Y-55467219D01*
X215160085Y-55467219D02*
X215255323Y-55467219D01*
X215255323Y-55467219D02*
X215392228Y-55419600D01*
X215392228Y-55419600D02*
X215475561Y-55324361D01*
X215475561Y-55324361D02*
X215511276Y-55229123D01*
X215511276Y-55229123D02*
X215535085Y-55038647D01*
X215535085Y-55038647D02*
X215517228Y-54895790D01*
X215517228Y-54895790D02*
X215445800Y-54705314D01*
X215445800Y-54705314D02*
X215386276Y-54610076D01*
X215386276Y-54610076D02*
X215279133Y-54514838D01*
X215279133Y-54514838D02*
X215130323Y-54467219D01*
X215130323Y-54467219D02*
X215035085Y-54467219D01*
X215035085Y-54467219D02*
X214898181Y-54514838D01*
X214898181Y-54514838D02*
X214856514Y-54562457D01*
X214112466Y-55467219D02*
X214046990Y-54943409D01*
X214046990Y-54943409D02*
X214082704Y-54848171D01*
X214082704Y-54848171D02*
X214171990Y-54800552D01*
X214171990Y-54800552D02*
X214362466Y-54800552D01*
X214362466Y-54800552D02*
X214463657Y-54848171D01*
X214106514Y-55419600D02*
X214207704Y-55467219D01*
X214207704Y-55467219D02*
X214445800Y-55467219D01*
X214445800Y-55467219D02*
X214535085Y-55419600D01*
X214535085Y-55419600D02*
X214570800Y-55324361D01*
X214570800Y-55324361D02*
X214558895Y-55229123D01*
X214558895Y-55229123D02*
X214499371Y-55133885D01*
X214499371Y-55133885D02*
X214398181Y-55086266D01*
X214398181Y-55086266D02*
X214160085Y-55086266D01*
X214160085Y-55086266D02*
X214058895Y-55038647D01*
X213636276Y-55467219D02*
X213552942Y-54800552D01*
X213576752Y-54991028D02*
X213517228Y-54895790D01*
X213517228Y-54895790D02*
X213463657Y-54848171D01*
X213463657Y-54848171D02*
X213362466Y-54800552D01*
X213362466Y-54800552D02*
X213267228Y-54800552D01*
X212189846Y-54562457D02*
X212136275Y-54514838D01*
X212136275Y-54514838D02*
X212035085Y-54467219D01*
X212035085Y-54467219D02*
X211796989Y-54467219D01*
X211796989Y-54467219D02*
X211707704Y-54514838D01*
X211707704Y-54514838D02*
X211666037Y-54562457D01*
X211666037Y-54562457D02*
X211630323Y-54657695D01*
X211630323Y-54657695D02*
X211642227Y-54752933D01*
X211642227Y-54752933D02*
X211707704Y-54895790D01*
X211707704Y-54895790D02*
X212350561Y-55467219D01*
X212350561Y-55467219D02*
X211731513Y-55467219D01*
X210749370Y-54467219D02*
X210939846Y-54467219D01*
X210939846Y-54467219D02*
X211041037Y-54514838D01*
X211041037Y-54514838D02*
X211094608Y-54562457D01*
X211094608Y-54562457D02*
X211207704Y-54705314D01*
X211207704Y-54705314D02*
X211279132Y-54895790D01*
X211279132Y-54895790D02*
X211326751Y-55276742D01*
X211326751Y-55276742D02*
X211291037Y-55371980D01*
X211291037Y-55371980D02*
X211249370Y-55419600D01*
X211249370Y-55419600D02*
X211160085Y-55467219D01*
X211160085Y-55467219D02*
X210969608Y-55467219D01*
X210969608Y-55467219D02*
X210868418Y-55419600D01*
X210868418Y-55419600D02*
X210814846Y-55371980D01*
X210814846Y-55371980D02*
X210755323Y-55276742D01*
X210755323Y-55276742D02*
X210725561Y-55038647D01*
X210725561Y-55038647D02*
X210761275Y-54943409D01*
X210761275Y-54943409D02*
X210802942Y-54895790D01*
X210802942Y-54895790D02*
X210892227Y-54848171D01*
X210892227Y-54848171D02*
X211082704Y-54848171D01*
X211082704Y-54848171D02*
X211183894Y-54895790D01*
X211183894Y-54895790D02*
X211237465Y-54943409D01*
X211237465Y-54943409D02*
X211296989Y-55038647D01*
D11*
G36*
X215704822Y-52201953D02*
G01*
X214026834Y-52201953D01*
X213993498Y-51954700D01*
X215642909Y-51954700D01*
X215704822Y-52201953D01*
G37*
G36*
X220933253Y-51708637D02*
G01*
X218647253Y-51708637D01*
X218585340Y-51461384D01*
X220747516Y-51461384D01*
X220933253Y-51708637D01*
G37*
G36*
X218297210Y-52038044D02*
G01*
X215990969Y-52038044D01*
X215929056Y-51790791D01*
X218235297Y-51790791D01*
X218297210Y-52038044D01*
G37*
G36*
X215786976Y-52531359D02*
G01*
X214199475Y-52531359D01*
X214137563Y-52284106D01*
X215725460Y-52284106D01*
X215786976Y-52531359D01*
G37*
G36*
X216814484Y-50559684D02*
G01*
X214446332Y-50559684D01*
X214384817Y-50312431D01*
X216752969Y-50312431D01*
X216814484Y-50559684D01*
G37*
G36*
X223991175Y-53354875D02*
G01*
X223331966Y-53354875D01*
X223270450Y-53108019D01*
X223929262Y-53108019D01*
X223991175Y-53354875D01*
G37*
G36*
X223332759Y-53025469D02*
G01*
X222035772Y-53025469D01*
X221855987Y-52778612D01*
X223276006Y-52778612D01*
X223332759Y-53025469D01*
G37*
G36*
X224073328Y-53683487D02*
G01*
X224063009Y-53684678D01*
X223980856Y-53437425D01*
X225442944Y-53437425D01*
X224073328Y-53683487D01*
G37*
G36*
X222899769Y-53684678D02*
G01*
X221926631Y-53684678D01*
X222081015Y-53437425D01*
X223043834Y-53437425D01*
X222899769Y-53684678D01*
G37*
G36*
X223743525Y-52365862D02*
G01*
X223743922Y-52366656D01*
X223085110Y-52366656D01*
X223023197Y-52119403D01*
X223682009Y-52119403D01*
X223743525Y-52365862D01*
G37*
G36*
X220995166Y-53026262D02*
G01*
X218976660Y-53026262D01*
X218915144Y-52779406D01*
X221180507Y-52779406D01*
X220995166Y-53026262D01*
G37*
G36*
X218626616Y-53356065D02*
G01*
X216320376Y-53356065D01*
X216289419Y-53232241D01*
X217772144Y-53232241D01*
X217741188Y-53108812D01*
X218565100Y-53108812D01*
X218626616Y-53356065D01*
G37*
G36*
X222707285Y-54014084D02*
G01*
X221720653Y-54014084D01*
X221875038Y-53766831D01*
X222851747Y-53766831D01*
X222707285Y-54014084D01*
G37*
G36*
X224155481Y-54012894D02*
G01*
X224145559Y-54014084D01*
X224063009Y-53766831D01*
X225360394Y-53766831D01*
X224155481Y-54012894D01*
G37*
G36*
X218709166Y-53685472D02*
G01*
X216402528Y-53685472D01*
X216341013Y-53438218D01*
X218647254Y-53438218D01*
X218709166Y-53685472D01*
G37*
G36*
X217061738Y-50889091D02*
G01*
X214199475Y-50889091D01*
X214137563Y-50641837D01*
X216999825Y-50641837D01*
X217061738Y-50889091D01*
G37*
G36*
X218503188Y-54014878D02*
G01*
X216485078Y-54014878D01*
X216423166Y-53767625D01*
X218688528Y-53767625D01*
X218503188Y-54014878D01*
G37*
G36*
X218379760Y-52367450D02*
G01*
X217555848Y-52367450D01*
X217524891Y-52244022D01*
X216042166Y-52244022D01*
X216011607Y-52120197D01*
X218317847Y-52120197D01*
X218379760Y-52367450D01*
G37*
G36*
X223908228Y-53024675D02*
G01*
X223908625Y-53025469D01*
X223249813Y-53025469D01*
X223187900Y-52778612D01*
X223847109Y-52778612D01*
X223908228Y-53024675D01*
G37*
G36*
X218461912Y-52696856D02*
G01*
X217638397Y-52696856D01*
X217576485Y-52450000D01*
X218400000Y-52450000D01*
X218461912Y-52696856D01*
G37*
G36*
X223589537Y-53231447D02*
G01*
X222889450Y-53231447D01*
X222889450Y-53108019D01*
X223589537Y-53108019D01*
X223589537Y-53231447D01*
G37*
G36*
X221200747Y-52696856D02*
G01*
X218925463Y-52696856D01*
X219048891Y-52450000D01*
X221139231Y-52450000D01*
X221200747Y-52696856D01*
G37*
G36*
X222477494Y-52531359D02*
G01*
X223218856Y-52531359D01*
X223256956Y-52696062D01*
X221796060Y-52696062D01*
X221736131Y-52613512D01*
X221697238Y-52448809D01*
X222394944Y-52448809D01*
X222477494Y-52531359D01*
G37*
G36*
X221448000Y-53685472D02*
G01*
X219141363Y-53685472D01*
X219079847Y-53438218D01*
X221386088Y-53438218D01*
X221448000Y-53685472D01*
G37*
G36*
X217188341Y-51143091D02*
G01*
X215440107Y-51143091D01*
X215457570Y-51213337D01*
X214055013Y-51213337D01*
X213993498Y-50966481D01*
X217143891Y-50966481D01*
X217188341Y-51143091D01*
G37*
G36*
X222343747Y-52366656D02*
G01*
X221678188Y-52366656D01*
X221619847Y-52119403D01*
X222281834Y-52119403D01*
X222343747Y-52366656D01*
G37*
G36*
X216341013Y-50230278D02*
G01*
X214920200Y-50230278D01*
X214858289Y-49983025D01*
X216279100Y-49983025D01*
X216341013Y-50230278D01*
G37*
G36*
X223908228Y-53024675D02*
G01*
X223898306Y-53025469D01*
X223816153Y-52778612D01*
X225607647Y-52778612D01*
X223908228Y-53024675D01*
G37*
G36*
X223826075Y-52695268D02*
G01*
X223816153Y-52696062D01*
X223733603Y-52448809D01*
X225689800Y-52448809D01*
X223826075Y-52695268D01*
G37*
G36*
X218184100Y-51708637D02*
G01*
X215908419Y-51708637D01*
X215846904Y-51461384D01*
X217936847Y-51461384D01*
X218184100Y-51708637D01*
G37*
G36*
X221036044Y-52038044D02*
G01*
X218729803Y-52038044D01*
X218667891Y-51790791D01*
X220974528Y-51790791D01*
X221036044Y-52038044D01*
G37*
G36*
X218544463Y-53026262D02*
G01*
X217720550Y-53026262D01*
X217659034Y-52779406D01*
X218482550Y-52779406D01*
X218544463Y-53026262D01*
G37*
G36*
X223091856Y-53354875D02*
G01*
X222132609Y-53354875D01*
X222286994Y-53108019D01*
X223235922Y-53108019D01*
X223091856Y-53354875D01*
G37*
G36*
X224155878Y-54014084D02*
G01*
X223496669Y-54014084D01*
X223435153Y-53766831D01*
X224093966Y-53766831D01*
X224155878Y-54014084D01*
G37*
G36*
X223990778Y-53354081D02*
G01*
X223980856Y-53354875D01*
X223898306Y-53108019D01*
X225525097Y-53108019D01*
X223990778Y-53354081D01*
G37*
G36*
X223579219Y-51706653D02*
G01*
X223579219Y-51707447D01*
X222920406Y-51707447D01*
X222858494Y-51460591D01*
X223517306Y-51460591D01*
X223579219Y-51706653D01*
G37*
G36*
X215929453Y-53190172D02*
G01*
X214920200Y-53190172D01*
X214858289Y-52943315D01*
X215861190Y-52943315D01*
X215929453Y-53190172D01*
G37*
G36*
X223661372Y-52036059D02*
G01*
X223661769Y-52037250D01*
X223002559Y-52037250D01*
X222940647Y-51789997D01*
X223599856Y-51789997D01*
X223661372Y-52036059D01*
G37*
G36*
X223826075Y-52695268D02*
G01*
X223826472Y-52696062D01*
X223167262Y-52696062D01*
X223105747Y-52448809D01*
X223764559Y-52448809D01*
X223826075Y-52695268D01*
G37*
G36*
X223743525Y-52365862D02*
G01*
X223733603Y-52366656D01*
X223651450Y-52119403D01*
X225772350Y-52119403D01*
X223743525Y-52365862D01*
G37*
G36*
X223661372Y-52036059D02*
G01*
X223651450Y-52037250D01*
X223568900Y-51789997D01*
X225854503Y-51789997D01*
X223661372Y-52036059D01*
G37*
G36*
X221118594Y-52367450D02*
G01*
X220459384Y-52367450D01*
X220397869Y-52120197D01*
X221056681Y-52120197D01*
X221118594Y-52367450D01*
G37*
G36*
X224073328Y-53683487D02*
G01*
X224073328Y-53684678D01*
X223414516Y-53684678D01*
X223352603Y-53437425D01*
X224011813Y-53437425D01*
X224073328Y-53683487D01*
G37*
G36*
X215622272Y-51872547D02*
G01*
X213993498Y-51872547D01*
X213931585Y-51625294D01*
X215560756Y-51625294D01*
X215622272Y-51872547D01*
G37*
G36*
X216814484Y-52860765D02*
G01*
X214446332Y-52860765D01*
X214384817Y-52613512D01*
X216752969Y-52613512D01*
X216814484Y-52860765D01*
G37*
G36*
X223177581Y-52037250D02*
G01*
X222436219Y-52037250D01*
X222312791Y-52037250D01*
X221600400Y-52037250D01*
X221571428Y-51913425D01*
X221674219Y-51789997D01*
X223126781Y-51789997D01*
X223177581Y-52037250D01*
G37*
G36*
X215540120Y-51542744D02*
G01*
X213993498Y-51542744D01*
X213931585Y-51295887D01*
X215478207Y-51295887D01*
X215540120Y-51542744D01*
G37*
G36*
X221530153Y-54014878D02*
G01*
X219367978Y-54014878D01*
X219182638Y-53767625D01*
X221468638Y-53767625D01*
X221530153Y-54014878D01*
G37*
G36*
X223579219Y-51706653D02*
G01*
X223568900Y-51707447D01*
X223486350Y-51460591D01*
X225937053Y-51460591D01*
X223579219Y-51706653D01*
G37*
G36*
X223101778Y-51707447D02*
G01*
X221742878Y-51707447D01*
X221948857Y-51460591D01*
X223025578Y-51460591D01*
X223101778Y-51707447D01*
G37*
G36*
X219718022Y-53356065D02*
G01*
X219059209Y-53356065D01*
X218997297Y-53108812D01*
X219656506Y-53108812D01*
X219718022Y-53356065D01*
G37*
M02*
