%TF.GenerationSoftware,KiCad,Pcbnew,9.0.0*%
%TF.CreationDate,2026-01-14T19:26:19-05:00*%
%TF.ProjectId,telemetry-node,74656c65-6d65-4747-9279-2d6e6f64652e,rev?*%
%TF.SameCoordinates,Original*%
%TF.FileFunction,Copper,L4,Bot*%
%TF.FilePolarity,Positive*%
%FSLAX46Y46*%
G04 Gerber Fmt 4.6, Leading zero omitted, Abs format (unit mm)*
G04 Created by KiCad (PCBNEW 9.0.0) date 2026-01-14 19:26:19*
%MOMM*%
%LPD*%
G01*
G04 APERTURE LIST*
%TA.AperFunction,ComponentPad*%
%ADD10R,1.100000X1.100000*%
%TD*%
%TA.AperFunction,ComponentPad*%
%ADD11C,1.100000*%
%TD*%
%TA.AperFunction,ComponentPad*%
%ADD12C,0.900000*%
%TD*%
%TA.AperFunction,ComponentPad*%
%ADD13R,1.350000X1.350000*%
%TD*%
%TA.AperFunction,HeatsinkPad*%
%ADD14O,1.800000X1.150000*%
%TD*%
%TA.AperFunction,HeatsinkPad*%
%ADD15O,2.000000X1.450000*%
%TD*%
%TA.AperFunction,ComponentPad*%
%ADD16O,1.350000X1.350000*%
%TD*%
%TA.AperFunction,ViaPad*%
%ADD17C,0.700000*%
%TD*%
%TA.AperFunction,Conductor*%
%ADD18C,0.300000*%
%TD*%
G04 APERTURE END LIST*
D10*
%TO.P,J4,1,1*%
%TO.N,/CAN_N*%
X204837500Y-81900000D03*
D11*
%TO.P,J4,2,2*%
%TO.N,/CAN_P*%
X206087500Y-81900000D03*
%TD*%
D12*
%TO.P,J9,1,1*%
%TO.N,+3.3V Buck*%
X205600000Y-44400000D03*
%TO.P,J9,2,2*%
%TO.N,Net-(J10-Pin_1)*%
X206850000Y-44400000D03*
%TO.P,J9,3,3*%
%TO.N,GND*%
X208100000Y-44400000D03*
%TD*%
%TO.P,J1,1,1*%
%TO.N,+3.3V Buck*%
X189000000Y-44400000D03*
%TO.P,J1,2,2*%
%TO.N,Net-(J5-Pin_1)*%
X190250000Y-44400000D03*
%TO.P,J1,3,3*%
%TO.N,GND*%
X191500000Y-44400000D03*
%TD*%
D13*
%TO.P,J15,1,Pin_1*%
%TO.N,Net-(J15-Pin_1)*%
X223400000Y-48200000D03*
%TD*%
D10*
%TO.P,J3,1,1*%
%TO.N,GND*%
X190200000Y-56625000D03*
D11*
%TO.P,J3,2,2*%
%TO.N,+5V In*%
X190200000Y-57875000D03*
%TD*%
D14*
%TO.P,J11,6,Shield*%
%TO.N,unconnected-(J11-Shield-Pad6)*%
X187100000Y-65325000D03*
D15*
%TO.N,unconnected-(J11-Shield-Pad6)_3*%
X190900000Y-65475000D03*
%TO.N,unconnected-(J11-Shield-Pad6)_1*%
X190900000Y-72925000D03*
D14*
%TO.N,unconnected-(J11-Shield-Pad6)_2*%
X187100000Y-73075000D03*
%TD*%
D13*
%TO.P,J10,1,Pin_1*%
%TO.N,Net-(J10-Pin_1)*%
X206900000Y-48200000D03*
%TD*%
D12*
%TO.P,J14,1,1*%
%TO.N,+3.3V Buck*%
X222200000Y-44400000D03*
%TO.P,J14,2,2*%
%TO.N,Net-(J15-Pin_1)*%
X223450000Y-44400000D03*
%TO.P,J14,3,3*%
%TO.N,GND*%
X224700000Y-44400000D03*
%TD*%
D13*
%TO.P,J8,1,Pin_1*%
%TO.N,Net-(J8-Pin_1)*%
X198500000Y-48200000D03*
%TD*%
%TO.P,J2,1,Pin_1*%
%TO.N,+3.3V Buck*%
X191300000Y-83200000D03*
D16*
%TO.P,J2,2,Pin_2*%
%TO.N,GND*%
X193300000Y-83200000D03*
%TO.P,J2,3,Pin_3*%
%TO.N,/SWDIO*%
X195300000Y-83200000D03*
%TO.P,J2,4,Pin_4*%
%TO.N,/SWCLK*%
X197300000Y-83200000D03*
%TO.P,J2,5,Pin_5*%
%TO.N,/SWO*%
X199300000Y-83200000D03*
%TO.P,J2,6,Pin_6*%
%TO.N,/NRST*%
X201300000Y-83200000D03*
%TD*%
D13*
%TO.P,J13,1,Pin_1*%
%TO.N,Net-(J13-Pin_1)*%
X215200000Y-48200000D03*
%TD*%
D12*
%TO.P,J6,1,1*%
%TO.N,+3.3V Buck*%
X197300000Y-44400000D03*
%TO.P,J6,2,2*%
%TO.N,Net-(J8-Pin_1)*%
X198550000Y-44400000D03*
%TO.P,J6,3,3*%
%TO.N,GND*%
X199800000Y-44400000D03*
%TD*%
D13*
%TO.P,J7,1,Pin_1*%
%TO.N,/PB11*%
X213500000Y-57600000D03*
D16*
%TO.P,J7,2,Pin_2*%
%TO.N,/PB10*%
X215500000Y-57600000D03*
%TO.P,J7,3,Pin_3*%
%TO.N,/PB2*%
X217500000Y-57600000D03*
%TO.P,J7,4,Pin_4*%
%TO.N,/PB1*%
X219500000Y-57600000D03*
%TO.P,J7,5,Pin_5*%
%TO.N,/PB0*%
X221500000Y-57600000D03*
%TO.P,J7,6,Pin_6*%
%TO.N,/PA7*%
X223500000Y-57600000D03*
%TO.P,J7,7,Pin_7*%
%TO.N,/PA6*%
X225500000Y-57600000D03*
%TD*%
D13*
%TO.P,J5,1,Pin_1*%
%TO.N,Net-(J5-Pin_1)*%
X190250000Y-48200000D03*
%TD*%
D12*
%TO.P,J12,1,1*%
%TO.N,+3.3V Buck*%
X213900000Y-44400000D03*
%TO.P,J12,2,2*%
%TO.N,Net-(J13-Pin_1)*%
X215150000Y-44400000D03*
%TO.P,J12,3,3*%
%TO.N,GND*%
X216400000Y-44400000D03*
%TD*%
D17*
%TO.N,+3.3V Buck*%
X188400000Y-43150000D03*
X196750000Y-43200000D03*
X205000000Y-43200000D03*
X213100000Y-43200000D03*
X221450000Y-43200000D03*
%TO.N,GND*%
X225350000Y-43250000D03*
X217000000Y-43250000D03*
X208600000Y-43150000D03*
X200300000Y-43150000D03*
X192000000Y-43200000D03*
X195900000Y-54200000D03*
X191400000Y-56700000D03*
X220350000Y-63500000D03*
X223937500Y-70150000D03*
X210000000Y-79000000D03*
X205800000Y-59700000D03*
X198600000Y-72800000D03*
X213750000Y-68600000D03*
X197050000Y-69325000D03*
X198500000Y-68300000D03*
X208300000Y-63500000D03*
X193400000Y-63600000D03*
X194700000Y-57600000D03*
X208200000Y-59700000D03*
X194700000Y-56800000D03*
X217500000Y-63700000D03*
X217687500Y-75400000D03*
X224300000Y-77900000D03*
X209000000Y-59700000D03*
X193900000Y-81500000D03*
X188000000Y-77700000D03*
X218200000Y-83700000D03*
X204837500Y-77850000D03*
X193400000Y-65800000D03*
X221187500Y-73850000D03*
X195500000Y-52600000D03*
X203587500Y-72400000D03*
X220337500Y-74200000D03*
X202600000Y-57800000D03*
X203600000Y-59700000D03*
X205637500Y-77850000D03*
X190500000Y-62700000D03*
X189500000Y-70400000D03*
X188000000Y-75400000D03*
X205400000Y-62100000D03*
X206600000Y-59700000D03*
X213850000Y-71950000D03*
X220400000Y-68700000D03*
X188000000Y-80000000D03*
X195500000Y-53400000D03*
X201500000Y-68700000D03*
X213037500Y-79400000D03*
X191400000Y-55800000D03*
X224650000Y-68100000D03*
X204400000Y-59700000D03*
X195900000Y-55000000D03*
%TO.N,+3.3V Buck*%
X204700000Y-53200000D03*
X204700000Y-54000000D03*
X219650000Y-75400000D03*
X216450000Y-75350000D03*
X202300000Y-62100000D03*
X224200000Y-63200000D03*
X212500000Y-80300000D03*
X204700000Y-54800000D03*
X207700000Y-79000000D03*
X206100000Y-65600000D03*
X206600000Y-55100000D03*
X197300000Y-61400000D03*
X189500000Y-85100000D03*
X208800000Y-55100000D03*
X208000000Y-55100000D03*
X198300000Y-71700000D03*
X216537500Y-78200000D03*
X203587500Y-73400000D03*
X198600000Y-74300000D03*
X205700000Y-55100000D03*
%TO.N,/BOOT0*%
X211800000Y-75850000D03*
X216700000Y-77250000D03*
%TO.N,/NRST*%
X224150000Y-74250000D03*
X217050000Y-68200000D03*
%TO.N,/SWCLK*%
X208549998Y-71648872D03*
X200055026Y-79705023D03*
%TO.N,/SWDIO*%
X208550001Y-70748870D03*
X200278118Y-78773412D03*
%TO.N,/SWO*%
X200100000Y-80650000D03*
X209450000Y-71650000D03*
%TO.N,/CAN_RX*%
X212200000Y-71350000D03*
X207450000Y-74450000D03*
%TO.N,/PA0*%
X212900000Y-68300000D03*
X223050000Y-61000000D03*
%TO.N,/PA10*%
X208485774Y-69851162D03*
X198305025Y-79205025D03*
%TO.N,/CAN_TX*%
X213125426Y-71416152D03*
X206986636Y-78451259D03*
%TO.N,/PA8*%
X198550000Y-76450000D03*
X208532827Y-68942754D03*
%TO.N,/PB15*%
X209900000Y-69300000D03*
X198628093Y-75378093D03*
%TO.N,Net-(IC2-I{slash}O1_2)*%
X189675000Y-69425003D03*
X193177686Y-70028460D03*
%TO.N,Net-(IC2-I{slash}O2_2)*%
X189675000Y-68525000D03*
X193132475Y-68142525D03*
%TO.N,/PA6*%
X213972705Y-62222705D03*
%TO.N,/PB0*%
X212007755Y-62207755D03*
%TO.N,/PA7*%
X213052730Y-62152730D03*
%TD*%
D18*
%TO.N,/BOOT0*%
X216700000Y-77250000D02*
X213200000Y-77250000D01*
X213200000Y-77250000D02*
X211800000Y-75850000D01*
%TO.N,/NRST*%
X223500000Y-68000000D02*
X224650000Y-69150000D01*
X224650000Y-69150000D02*
X224650000Y-73750000D01*
X224650000Y-73750000D02*
X224150000Y-74250000D01*
X217250000Y-68000000D02*
X223500000Y-68000000D01*
X217050000Y-68200000D02*
X217250000Y-68000000D01*
%TO.N,/SWCLK*%
X200336457Y-79705023D02*
X206570740Y-73470740D01*
X208102000Y-73248000D02*
X208400000Y-72950000D01*
X206793480Y-73248000D02*
X207208520Y-73248000D01*
X207208520Y-73248000D02*
X208102000Y-73248000D01*
X200055026Y-79705023D02*
X200336457Y-79705023D01*
X206570740Y-73470740D02*
X206793480Y-73248000D01*
X208400000Y-71798870D02*
X208549998Y-71648872D01*
X208400000Y-72950000D02*
X208400000Y-71798870D01*
%TO.N,/SWDIO*%
X200559548Y-78773412D02*
X206291480Y-73041480D01*
X208460186Y-70748870D02*
X208550001Y-70748870D01*
X206291480Y-72917576D02*
X208460186Y-70748870D01*
X200278118Y-78773412D02*
X200559548Y-78773412D01*
X206291480Y-73041480D02*
X206291480Y-72917576D01*
%TO.N,/SWO*%
X209151000Y-73749000D02*
X209450000Y-73450000D01*
X207350000Y-73749000D02*
X209151000Y-73749000D01*
X207001000Y-73749000D02*
X207350000Y-73749000D01*
X209450000Y-73450000D02*
X209450000Y-71650000D01*
X200100000Y-80650000D02*
X207001000Y-73749000D01*
%TO.N,/CAN_RX*%
X211650000Y-74450000D02*
X212450000Y-73650000D01*
X212450000Y-71600000D02*
X212200000Y-71350000D01*
X212450000Y-72200000D02*
X212450000Y-71600000D01*
X212450000Y-73650000D02*
X212450000Y-72200000D01*
X207450000Y-74450000D02*
X211650000Y-74450000D01*
%TO.N,/PA0*%
X213701000Y-67499000D02*
X219101000Y-67499000D01*
X219101000Y-67499000D02*
X223000000Y-63600000D01*
X223000000Y-63600000D02*
X223000000Y-61050000D01*
X223000000Y-61050000D02*
X223050000Y-61000000D01*
X212900000Y-68300000D02*
X213701000Y-67499000D01*
%TO.N,/PA10*%
X198305025Y-79205025D02*
X198844975Y-79205025D01*
X208198838Y-69851162D02*
X208485774Y-69851162D01*
X198844975Y-79205025D02*
X208198838Y-69851162D01*
%TO.N,/CAN_TX*%
X211899000Y-74951000D02*
X212985355Y-73864645D01*
X209600000Y-75850000D02*
X210499000Y-74951000D01*
X210499000Y-74951000D02*
X211899000Y-74951000D01*
X212985355Y-71556223D02*
X213125426Y-71416152D01*
X212985355Y-73864645D02*
X212985355Y-72456009D01*
X212985355Y-72456009D02*
X212985355Y-71556223D01*
X206986636Y-78451259D02*
X209587895Y-75850000D01*
X209587895Y-75850000D02*
X209600000Y-75850000D01*
%TO.N,/PA8*%
X207795739Y-69545740D02*
X208398725Y-68942754D01*
X198550000Y-76446136D02*
X203796136Y-71200000D01*
X203796136Y-71200000D02*
X203800000Y-71200000D01*
X208398725Y-68942754D02*
X208532827Y-68942754D01*
X198550000Y-76450000D02*
X198550000Y-76446136D01*
X206141480Y-71200000D02*
X207795739Y-69545740D01*
X203800000Y-71200000D02*
X206141480Y-71200000D01*
%TO.N,/PB15*%
X205749000Y-70350000D02*
X205750000Y-70350000D01*
X198628093Y-75378093D02*
X198909523Y-75378093D01*
X209900000Y-69300000D02*
X208798606Y-68198606D01*
X203293807Y-70993808D02*
X203588616Y-70699000D01*
X203588616Y-70699000D02*
X205400000Y-70699000D01*
X205400000Y-70699000D02*
X205749000Y-70350000D01*
X205750000Y-70350000D02*
X207901394Y-68198606D01*
X208798606Y-68198606D02*
X207901394Y-68198606D01*
X198909523Y-75378093D02*
X203293807Y-70993808D01*
%TO.N,Net-(IC2-I{slash}O1_2)*%
X192100000Y-69200000D02*
X189900003Y-69200000D01*
X189900003Y-69200000D02*
X189675000Y-69425003D01*
X192349226Y-69200000D02*
X192100000Y-69200000D01*
X193177686Y-70028460D02*
X192349226Y-69200000D01*
%TO.N,Net-(IC2-I{slash}O2_2)*%
X190057475Y-68142525D02*
X189675000Y-68525000D01*
X193132475Y-68142525D02*
X190057475Y-68142525D01*
%TO.N,/PA6*%
X223269740Y-59830260D02*
X225500000Y-57600000D01*
X218965043Y-61552000D02*
X220686782Y-59830260D01*
X213972705Y-62222705D02*
X214643410Y-61552000D01*
X214643410Y-61552000D02*
X218965043Y-61552000D01*
X220686782Y-59830260D02*
X223269740Y-59830260D01*
%TO.N,/PB0*%
X218550000Y-60550000D02*
X221500000Y-57600000D01*
X212007755Y-62207755D02*
X213665510Y-60550000D01*
X213665510Y-60550000D02*
X218550000Y-60550000D01*
%TO.N,/PA7*%
X213052730Y-62152730D02*
X214154460Y-61051000D01*
X221770740Y-59329260D02*
X223500000Y-57600000D01*
X218757521Y-61051000D02*
X220479260Y-59329260D01*
X220479260Y-59329260D02*
X221770740Y-59329260D01*
X214154460Y-61051000D02*
X218757521Y-61051000D01*
%TD*%
M02*
