%TF.GenerationSoftware,KiCad,Pcbnew,9.0.0*%
%TF.CreationDate,2026-01-14T19:26:19-05:00*%
%TF.ProjectId,telemetry-node,74656c65-6d65-4747-9279-2d6e6f64652e,rev?*%
%TF.SameCoordinates,Original*%
%TF.FileFunction,Copper,L3,Inr*%
%TF.FilePolarity,Positive*%
%FSLAX46Y46*%
G04 Gerber Fmt 4.6, Leading zero omitted, Abs format (unit mm)*
G04 Created by KiCad (PCBNEW 9.0.0) date 2026-01-14 19:26:19*
%MOMM*%
%LPD*%
G01*
G04 APERTURE LIST*
%TA.AperFunction,ComponentPad*%
%ADD10R,1.100000X1.100000*%
%TD*%
%TA.AperFunction,ComponentPad*%
%ADD11C,1.100000*%
%TD*%
%TA.AperFunction,ComponentPad*%
%ADD12C,0.900000*%
%TD*%
%TA.AperFunction,ComponentPad*%
%ADD13R,1.350000X1.350000*%
%TD*%
%TA.AperFunction,HeatsinkPad*%
%ADD14O,1.800000X1.150000*%
%TD*%
%TA.AperFunction,HeatsinkPad*%
%ADD15O,2.000000X1.450000*%
%TD*%
%TA.AperFunction,ComponentPad*%
%ADD16O,1.350000X1.350000*%
%TD*%
%TA.AperFunction,ViaPad*%
%ADD17C,0.700000*%
%TD*%
G04 APERTURE END LIST*
D10*
%TO.N,/CAN_N*%
%TO.C,J4*%
X204837500Y-81900000D03*
D11*
%TO.N,/CAN_P*%
X206087500Y-81900000D03*
%TD*%
D12*
%TO.N,+3.3V Buck*%
%TO.C,J9*%
X205600000Y-44400000D03*
%TO.N,Net-(J10-Pin_1)*%
X206850000Y-44400000D03*
%TO.N,GND*%
X208100000Y-44400000D03*
%TD*%
%TO.N,+3.3V Buck*%
%TO.C,J1*%
X189000000Y-44400000D03*
%TO.N,Net-(J5-Pin_1)*%
X190250000Y-44400000D03*
%TO.N,GND*%
X191500000Y-44400000D03*
%TD*%
D13*
%TO.N,Net-(J15-Pin_1)*%
%TO.C,J15*%
X223400000Y-48200000D03*
%TD*%
D10*
%TO.N,GND*%
%TO.C,J3*%
X190200000Y-56625000D03*
D11*
%TO.N,+5V In*%
X190200000Y-57875000D03*
%TD*%
D14*
%TO.N,unconnected-(J11-Shield-Pad6)*%
%TO.C,J11*%
X187100000Y-65325000D03*
D15*
%TO.N,unconnected-(J11-Shield-Pad6)_3*%
X190900000Y-65475000D03*
%TO.N,unconnected-(J11-Shield-Pad6)_1*%
X190900000Y-72925000D03*
D14*
%TO.N,unconnected-(J11-Shield-Pad6)_2*%
X187100000Y-73075000D03*
%TD*%
D13*
%TO.N,Net-(J10-Pin_1)*%
%TO.C,J10*%
X206900000Y-48200000D03*
%TD*%
D12*
%TO.N,+3.3V Buck*%
%TO.C,J14*%
X222200000Y-44400000D03*
%TO.N,Net-(J15-Pin_1)*%
X223450000Y-44400000D03*
%TO.N,GND*%
X224700000Y-44400000D03*
%TD*%
D13*
%TO.N,Net-(J8-Pin_1)*%
%TO.C,J8*%
X198500000Y-48200000D03*
%TD*%
%TO.N,+3.3V Buck*%
%TO.C,J2*%
X191300000Y-83200000D03*
D16*
%TO.N,GND*%
X193300000Y-83200000D03*
%TO.N,/SWDIO*%
X195300000Y-83200000D03*
%TO.N,/SWCLK*%
X197300000Y-83200000D03*
%TO.N,/SWO*%
X199300000Y-83200000D03*
%TO.N,/NRST*%
X201300000Y-83200000D03*
%TD*%
D13*
%TO.N,Net-(J13-Pin_1)*%
%TO.C,J13*%
X215200000Y-48200000D03*
%TD*%
D12*
%TO.N,+3.3V Buck*%
%TO.C,J6*%
X197300000Y-44400000D03*
%TO.N,Net-(J8-Pin_1)*%
X198550000Y-44400000D03*
%TO.N,GND*%
X199800000Y-44400000D03*
%TD*%
D13*
%TO.N,/PB11*%
%TO.C,J7*%
X213500000Y-57600000D03*
D16*
%TO.N,/PB10*%
X215500000Y-57600000D03*
%TO.N,/PB2*%
X217500000Y-57600000D03*
%TO.N,/PB1*%
X219500000Y-57600000D03*
%TO.N,/PB0*%
X221500000Y-57600000D03*
%TO.N,/PA7*%
X223500000Y-57600000D03*
%TO.N,/PA6*%
X225500000Y-57600000D03*
%TD*%
D13*
%TO.N,Net-(J5-Pin_1)*%
%TO.C,J5*%
X190250000Y-48200000D03*
%TD*%
D12*
%TO.N,+3.3V Buck*%
%TO.C,J12*%
X213900000Y-44400000D03*
%TO.N,Net-(J13-Pin_1)*%
X215150000Y-44400000D03*
%TO.N,GND*%
X216400000Y-44400000D03*
%TD*%
D17*
%TO.N,+3.3V Buck*%
X188400000Y-43150000D03*
X196750000Y-43200000D03*
X205000000Y-43200000D03*
X213100000Y-43200000D03*
X221450000Y-43200000D03*
%TO.N,GND*%
X225350000Y-43250000D03*
X217000000Y-43250000D03*
X208600000Y-43150000D03*
X200300000Y-43150000D03*
X192000000Y-43200000D03*
X195900000Y-54200000D03*
X191400000Y-56700000D03*
X220350000Y-63500000D03*
X223937500Y-70150000D03*
X210000000Y-79000000D03*
X205800000Y-59700000D03*
X198600000Y-72800000D03*
X213750000Y-68600000D03*
X197050000Y-69325000D03*
X198500000Y-68300000D03*
X208300000Y-63500000D03*
X193400000Y-63600000D03*
X194700000Y-57600000D03*
X208200000Y-59700000D03*
X194700000Y-56800000D03*
X217500000Y-63700000D03*
X217687500Y-75400000D03*
X224300000Y-77900000D03*
X209000000Y-59700000D03*
X193900000Y-81500000D03*
X188000000Y-77700000D03*
X218200000Y-83700000D03*
X204837500Y-77850000D03*
X193400000Y-65800000D03*
X221187500Y-73850000D03*
X195500000Y-52600000D03*
X203587500Y-72400000D03*
X220337500Y-74200000D03*
X202600000Y-57800000D03*
X203600000Y-59700000D03*
X205637500Y-77850000D03*
X190500000Y-62700000D03*
X189500000Y-70400000D03*
X188000000Y-75400000D03*
X205400000Y-62100000D03*
X206600000Y-59700000D03*
X213850000Y-71950000D03*
X220400000Y-68700000D03*
X188000000Y-80000000D03*
X195500000Y-53400000D03*
X201500000Y-68700000D03*
X213037500Y-79400000D03*
X191400000Y-55800000D03*
X224650000Y-68100000D03*
X204400000Y-59700000D03*
X195900000Y-55000000D03*
%TO.N,+3.3V Buck*%
X204700000Y-53200000D03*
X204700000Y-54000000D03*
X219650000Y-75400000D03*
X216450000Y-75350000D03*
X202300000Y-62100000D03*
X224200000Y-63200000D03*
X212500000Y-80300000D03*
X204700000Y-54800000D03*
X207700000Y-79000000D03*
X206100000Y-65600000D03*
X206600000Y-55100000D03*
X197300000Y-61400000D03*
X189500000Y-85100000D03*
X208800000Y-55100000D03*
X208000000Y-55100000D03*
X198300000Y-71700000D03*
X216537500Y-78200000D03*
X203587500Y-73400000D03*
X198600000Y-74300000D03*
X205700000Y-55100000D03*
%TO.N,/BOOT0*%
X211800000Y-75850000D03*
X216700000Y-77250000D03*
%TO.N,/NRST*%
X224150000Y-74250000D03*
X217050000Y-68200000D03*
%TO.N,/SWCLK*%
X208549998Y-71648872D03*
X200055026Y-79705023D03*
%TO.N,/SWDIO*%
X208550001Y-70748870D03*
X200278118Y-78773412D03*
%TO.N,/SWO*%
X200100000Y-80650000D03*
X209450000Y-71650000D03*
%TO.N,/CAN_RX*%
X212200000Y-71350000D03*
X207450000Y-74450000D03*
%TO.N,/PA0*%
X212900000Y-68300000D03*
X223050000Y-61000000D03*
%TO.N,/PA10*%
X208485774Y-69851162D03*
X198305025Y-79205025D03*
%TO.N,/CAN_TX*%
X213125426Y-71416152D03*
X206986636Y-78451259D03*
%TO.N,/PA8*%
X198550000Y-76450000D03*
X208532827Y-68942754D03*
%TO.N,/PB15*%
X209900000Y-69300000D03*
X198628093Y-75378093D03*
%TO.N,Net-(IC2-I{slash}O1_2)*%
X189675000Y-69425003D03*
X193177686Y-70028460D03*
%TO.N,Net-(IC2-I{slash}O2_2)*%
X189675000Y-68525000D03*
X193132475Y-68142525D03*
%TO.N,/PA6*%
X213972705Y-62222705D03*
%TO.N,/PB0*%
X212007755Y-62207755D03*
%TO.N,/PA7*%
X213052730Y-62152730D03*
%TD*%
%TA.AperFunction,Conductor*%
%TO.N,+3.3V Buck*%
G36*
X225503736Y-36000726D02*
G01*
X225769690Y-36016813D01*
X225784551Y-36018617D01*
X226042938Y-36065968D01*
X226057463Y-36069549D01*
X226308251Y-36147698D01*
X226322242Y-36153003D01*
X226561798Y-36260818D01*
X226575044Y-36267771D01*
X226799852Y-36403672D01*
X226812163Y-36412170D01*
X227018949Y-36574176D01*
X227030157Y-36584106D01*
X227215893Y-36769842D01*
X227225823Y-36781050D01*
X227387825Y-36987830D01*
X227396331Y-37000153D01*
X227532225Y-37224949D01*
X227539184Y-37238208D01*
X227646994Y-37477752D01*
X227652303Y-37491753D01*
X227730448Y-37742529D01*
X227734032Y-37757068D01*
X227781381Y-38015447D01*
X227783186Y-38030311D01*
X227799274Y-38296263D01*
X227799500Y-38303750D01*
X227799500Y-90930440D01*
X227799479Y-90942986D01*
X227799159Y-90943777D01*
X227799418Y-90980406D01*
X227799418Y-90980977D01*
X227799387Y-90981080D01*
X227799240Y-90987417D01*
X227784906Y-91254669D01*
X227783191Y-91269612D01*
X227737261Y-91529451D01*
X227733749Y-91544078D01*
X227656694Y-91796443D01*
X227651438Y-91810535D01*
X227544394Y-92051716D01*
X227537473Y-92065062D01*
X227402014Y-92291508D01*
X227393524Y-92303924D01*
X227231643Y-92512305D01*
X227221711Y-92523602D01*
X227035795Y-92710844D01*
X227024569Y-92720855D01*
X226817355Y-92884205D01*
X226804999Y-92892784D01*
X226579517Y-93029850D01*
X226566215Y-93036869D01*
X226325803Y-93145624D01*
X226311747Y-93150981D01*
X226059939Y-93229825D01*
X226045339Y-93233440D01*
X225785831Y-93281217D01*
X225770900Y-93283039D01*
X225503752Y-93299272D01*
X225496231Y-93299500D01*
X186003751Y-93299500D01*
X185996264Y-93299274D01*
X185730311Y-93283186D01*
X185715447Y-93281381D01*
X185457068Y-93234032D01*
X185442529Y-93230448D01*
X185191753Y-93152303D01*
X185177752Y-93146994D01*
X184938208Y-93039184D01*
X184924949Y-93032225D01*
X184899398Y-93016779D01*
X184700150Y-92896329D01*
X184687830Y-92887825D01*
X184683209Y-92884205D01*
X184481050Y-92725823D01*
X184469842Y-92715893D01*
X184284106Y-92530157D01*
X184274176Y-92518949D01*
X184112174Y-92312169D01*
X184103672Y-92299852D01*
X183967771Y-92075044D01*
X183960818Y-92061798D01*
X183853003Y-91822242D01*
X183847696Y-91808246D01*
X183769549Y-91557463D01*
X183765967Y-91542931D01*
X183765180Y-91538639D01*
X183718617Y-91284551D01*
X183716813Y-91269688D01*
X183716808Y-91269612D01*
X183700726Y-91003736D01*
X183700500Y-90996249D01*
X183700500Y-90897648D01*
X184699500Y-90897648D01*
X184699500Y-91102351D01*
X184731522Y-91304534D01*
X184794781Y-91499223D01*
X184887715Y-91681613D01*
X185008028Y-91847213D01*
X185152786Y-91991971D01*
X185258302Y-92068631D01*
X185318390Y-92112287D01*
X185423835Y-92166014D01*
X185500776Y-92205218D01*
X185500778Y-92205218D01*
X185500781Y-92205220D01*
X185605137Y-92239127D01*
X185695465Y-92268477D01*
X185796557Y-92284488D01*
X185897648Y-92300500D01*
X185897649Y-92300500D01*
X186102351Y-92300500D01*
X186102352Y-92300500D01*
X186304534Y-92268477D01*
X186499219Y-92205220D01*
X186681610Y-92112287D01*
X186806251Y-92021731D01*
X186847213Y-91991971D01*
X186847215Y-91991968D01*
X186847219Y-91991966D01*
X186991966Y-91847219D01*
X186991968Y-91847215D01*
X186991971Y-91847213D01*
X187063491Y-91748772D01*
X187112287Y-91681610D01*
X187205220Y-91499219D01*
X187268477Y-91304534D01*
X187300500Y-91102352D01*
X187300500Y-90897648D01*
X187268477Y-90695466D01*
X187266629Y-90689778D01*
X192599500Y-90689778D01*
X192599500Y-90910222D01*
X192614311Y-91003736D01*
X192633985Y-91127952D01*
X192702103Y-91337603D01*
X192702104Y-91337606D01*
X192802187Y-91534025D01*
X192931752Y-91712358D01*
X192931756Y-91712363D01*
X193087636Y-91868243D01*
X193087641Y-91868247D01*
X193243192Y-91981260D01*
X193265978Y-91997815D01*
X193371750Y-92051709D01*
X193462393Y-92097895D01*
X193462396Y-92097896D01*
X193567221Y-92131955D01*
X193672049Y-92166015D01*
X193889778Y-92200500D01*
X193889779Y-92200500D01*
X219910221Y-92200500D01*
X219910222Y-92200500D01*
X220127951Y-92166015D01*
X220337606Y-92097895D01*
X220534022Y-91997815D01*
X220712365Y-91868242D01*
X220868242Y-91712365D01*
X220997815Y-91534022D01*
X221097895Y-91337606D01*
X221166015Y-91127951D01*
X221200500Y-90910222D01*
X221200500Y-90897648D01*
X224199500Y-90897648D01*
X224199500Y-91102351D01*
X224231522Y-91304534D01*
X224294781Y-91499223D01*
X224387715Y-91681613D01*
X224508028Y-91847213D01*
X224652786Y-91991971D01*
X224758302Y-92068631D01*
X224818390Y-92112287D01*
X224923835Y-92166014D01*
X225000776Y-92205218D01*
X225000778Y-92205218D01*
X225000781Y-92205220D01*
X225105137Y-92239127D01*
X225195465Y-92268477D01*
X225296557Y-92284488D01*
X225397648Y-92300500D01*
X225397649Y-92300500D01*
X225602351Y-92300500D01*
X225602352Y-92300500D01*
X225804534Y-92268477D01*
X225999219Y-92205220D01*
X226181610Y-92112287D01*
X226306251Y-92021731D01*
X226347213Y-91991971D01*
X226347215Y-91991968D01*
X226347219Y-91991966D01*
X226491966Y-91847219D01*
X226491968Y-91847215D01*
X226491971Y-91847213D01*
X226563491Y-91748772D01*
X226612287Y-91681610D01*
X226705220Y-91499219D01*
X226768477Y-91304534D01*
X226800500Y-91102352D01*
X226800500Y-90897648D01*
X226768477Y-90695466D01*
X226705220Y-90500781D01*
X226705218Y-90500778D01*
X226705218Y-90500776D01*
X226630678Y-90354485D01*
X226612287Y-90318390D01*
X226604556Y-90307749D01*
X226491971Y-90152786D01*
X226347213Y-90008028D01*
X226181613Y-89887715D01*
X226181612Y-89887714D01*
X226181610Y-89887713D01*
X226124653Y-89858691D01*
X225999223Y-89794781D01*
X225804534Y-89731522D01*
X225629995Y-89703878D01*
X225602352Y-89699500D01*
X225397648Y-89699500D01*
X225373329Y-89703351D01*
X225195465Y-89731522D01*
X225000776Y-89794781D01*
X224818386Y-89887715D01*
X224652786Y-90008028D01*
X224508028Y-90152786D01*
X224387715Y-90318386D01*
X224294781Y-90500776D01*
X224231522Y-90695465D01*
X224199500Y-90897648D01*
X221200500Y-90897648D01*
X221200500Y-90689778D01*
X221166015Y-90472049D01*
X221097895Y-90262394D01*
X221097895Y-90262393D01*
X221042046Y-90152786D01*
X220997815Y-90065978D01*
X220981260Y-90043192D01*
X220868247Y-89887641D01*
X220868243Y-89887636D01*
X220712363Y-89731756D01*
X220712358Y-89731752D01*
X220534025Y-89602187D01*
X220534024Y-89602186D01*
X220534022Y-89602185D01*
X220471096Y-89570122D01*
X220337606Y-89502104D01*
X220337603Y-89502103D01*
X220127952Y-89433985D01*
X220019086Y-89416742D01*
X219910222Y-89399500D01*
X219839882Y-89399500D01*
X194039882Y-89399500D01*
X194000000Y-89399500D01*
X193889778Y-89399500D01*
X193817201Y-89410995D01*
X193672047Y-89433985D01*
X193462396Y-89502103D01*
X193462393Y-89502104D01*
X193265974Y-89602187D01*
X193087641Y-89731752D01*
X193087636Y-89731756D01*
X192931756Y-89887636D01*
X192931752Y-89887641D01*
X192802187Y-90065974D01*
X192702104Y-90262393D01*
X192702103Y-90262396D01*
X192633985Y-90472047D01*
X192633985Y-90472049D01*
X192599500Y-90689778D01*
X187266629Y-90689778D01*
X187205220Y-90500781D01*
X187205218Y-90500778D01*
X187205218Y-90500776D01*
X187130678Y-90354485D01*
X187112287Y-90318390D01*
X187104556Y-90307749D01*
X186991971Y-90152786D01*
X186847213Y-90008028D01*
X186681613Y-89887715D01*
X186681612Y-89887714D01*
X186681610Y-89887713D01*
X186624653Y-89858691D01*
X186499223Y-89794781D01*
X186304534Y-89731522D01*
X186129995Y-89703878D01*
X186102352Y-89699500D01*
X185897648Y-89699500D01*
X185873329Y-89703351D01*
X185695465Y-89731522D01*
X185500776Y-89794781D01*
X185318386Y-89887715D01*
X185152786Y-90008028D01*
X185008028Y-90152786D01*
X184887715Y-90318386D01*
X184794781Y-90500776D01*
X184731522Y-90695465D01*
X184699500Y-90897648D01*
X183700500Y-90897648D01*
X183700500Y-82477155D01*
X190125000Y-82477155D01*
X190125000Y-82950000D01*
X190984314Y-82950000D01*
X190979920Y-82954394D01*
X190927259Y-83045606D01*
X190900000Y-83147339D01*
X190900000Y-83252661D01*
X190927259Y-83354394D01*
X190979920Y-83445606D01*
X190984314Y-83450000D01*
X190125000Y-83450000D01*
X190125000Y-83922844D01*
X190131401Y-83982372D01*
X190131403Y-83982379D01*
X190181645Y-84117086D01*
X190181649Y-84117093D01*
X190267809Y-84232187D01*
X190267812Y-84232190D01*
X190382906Y-84318350D01*
X190382913Y-84318354D01*
X190517620Y-84368596D01*
X190517627Y-84368598D01*
X190577155Y-84374999D01*
X190577172Y-84375000D01*
X191050000Y-84375000D01*
X191050000Y-83515686D01*
X191054394Y-83520080D01*
X191145606Y-83572741D01*
X191247339Y-83600000D01*
X191352661Y-83600000D01*
X191454394Y-83572741D01*
X191545606Y-83520080D01*
X191550000Y-83515686D01*
X191550000Y-84375000D01*
X192022828Y-84375000D01*
X192022844Y-84374999D01*
X192082372Y-84368598D01*
X192082379Y-84368596D01*
X192217086Y-84318354D01*
X192217093Y-84318350D01*
X192332187Y-84232190D01*
X192332190Y-84232187D01*
X192418350Y-84117093D01*
X192418354Y-84117086D01*
X192464795Y-83992572D01*
X192506666Y-83936638D01*
X192572130Y-83912221D01*
X192640403Y-83927072D01*
X192668658Y-83948224D01*
X192678151Y-83957717D01*
X192678155Y-83957720D01*
X192837927Y-84064477D01*
X192837928Y-84064477D01*
X192837929Y-84064478D01*
X192837931Y-84064479D01*
X193015452Y-84138010D01*
X193015457Y-84138012D01*
X193203917Y-84175499D01*
X193203920Y-84175500D01*
X193203922Y-84175500D01*
X193396080Y-84175500D01*
X193396081Y-84175499D01*
X193584543Y-84138012D01*
X193762073Y-84064477D01*
X193921845Y-83957720D01*
X194057720Y-83821845D01*
X194164477Y-83662073D01*
X194185439Y-83611467D01*
X194229280Y-83557063D01*
X194295574Y-83534998D01*
X194363273Y-83552277D01*
X194410884Y-83603414D01*
X194414561Y-83611467D01*
X194435520Y-83662068D01*
X194435521Y-83662070D01*
X194542279Y-83821844D01*
X194542282Y-83821848D01*
X194678151Y-83957717D01*
X194678155Y-83957720D01*
X194837927Y-84064477D01*
X194837928Y-84064477D01*
X194837929Y-84064478D01*
X194837931Y-84064479D01*
X195015452Y-84138010D01*
X195015457Y-84138012D01*
X195203917Y-84175499D01*
X195203920Y-84175500D01*
X195203922Y-84175500D01*
X195396080Y-84175500D01*
X195396081Y-84175499D01*
X195584543Y-84138012D01*
X195762073Y-84064477D01*
X195921845Y-83957720D01*
X196057720Y-83821845D01*
X196164477Y-83662073D01*
X196185439Y-83611467D01*
X196229280Y-83557063D01*
X196295574Y-83534998D01*
X196363273Y-83552277D01*
X196410884Y-83603414D01*
X196414561Y-83611467D01*
X196435520Y-83662068D01*
X196435521Y-83662070D01*
X196542279Y-83821844D01*
X196542282Y-83821848D01*
X196678151Y-83957717D01*
X196678155Y-83957720D01*
X196837927Y-84064477D01*
X196837928Y-84064477D01*
X196837929Y-84064478D01*
X196837931Y-84064479D01*
X197015452Y-84138010D01*
X197015457Y-84138012D01*
X197203917Y-84175499D01*
X197203920Y-84175500D01*
X197203922Y-84175500D01*
X197396080Y-84175500D01*
X197396081Y-84175499D01*
X197584543Y-84138012D01*
X197762073Y-84064477D01*
X197921845Y-83957720D01*
X198057720Y-83821845D01*
X198164477Y-83662073D01*
X198185439Y-83611467D01*
X198229280Y-83557063D01*
X198295574Y-83534998D01*
X198363273Y-83552277D01*
X198410884Y-83603414D01*
X198414561Y-83611467D01*
X198435520Y-83662068D01*
X198435521Y-83662070D01*
X198542279Y-83821844D01*
X198542282Y-83821848D01*
X198678151Y-83957717D01*
X198678155Y-83957720D01*
X198837927Y-84064477D01*
X198837928Y-84064477D01*
X198837929Y-84064478D01*
X198837931Y-84064479D01*
X199015452Y-84138010D01*
X199015457Y-84138012D01*
X199203917Y-84175499D01*
X199203920Y-84175500D01*
X199203922Y-84175500D01*
X199396080Y-84175500D01*
X199396081Y-84175499D01*
X199584543Y-84138012D01*
X199762073Y-84064477D01*
X199921845Y-83957720D01*
X200057720Y-83821845D01*
X200164477Y-83662073D01*
X200185439Y-83611467D01*
X200229280Y-83557063D01*
X200295574Y-83534998D01*
X200363273Y-83552277D01*
X200410884Y-83603414D01*
X200414561Y-83611467D01*
X200435520Y-83662068D01*
X200435521Y-83662070D01*
X200542279Y-83821844D01*
X200542282Y-83821848D01*
X200678151Y-83957717D01*
X200678155Y-83957720D01*
X200837927Y-84064477D01*
X200837928Y-84064477D01*
X200837929Y-84064478D01*
X200837931Y-84064479D01*
X201015452Y-84138010D01*
X201015457Y-84138012D01*
X201203917Y-84175499D01*
X201203920Y-84175500D01*
X201203922Y-84175500D01*
X201396080Y-84175500D01*
X201396081Y-84175499D01*
X201584543Y-84138012D01*
X201762073Y-84064477D01*
X201921845Y-83957720D01*
X202057720Y-83821845D01*
X202096324Y-83764071D01*
X217549499Y-83764071D01*
X217574497Y-83889738D01*
X217574499Y-83889744D01*
X217623533Y-84008124D01*
X217623538Y-84008133D01*
X217694723Y-84114668D01*
X217694726Y-84114672D01*
X217785327Y-84205273D01*
X217785331Y-84205276D01*
X217891866Y-84276461D01*
X217891872Y-84276464D01*
X217891873Y-84276465D01*
X218010256Y-84325501D01*
X218010260Y-84325501D01*
X218010261Y-84325502D01*
X218135928Y-84350500D01*
X218135931Y-84350500D01*
X218264071Y-84350500D01*
X218348615Y-84333682D01*
X218389744Y-84325501D01*
X218508127Y-84276465D01*
X218614669Y-84205276D01*
X218705276Y-84114669D01*
X218776465Y-84008127D01*
X218825501Y-83889744D01*
X218850500Y-83764069D01*
X218850500Y-83635931D01*
X218850500Y-83635928D01*
X218825502Y-83510261D01*
X218825501Y-83510260D01*
X218825501Y-83510256D01*
X218776465Y-83391873D01*
X218776464Y-83391872D01*
X218776461Y-83391866D01*
X218705276Y-83285331D01*
X218705273Y-83285327D01*
X218614672Y-83194726D01*
X218614668Y-83194723D01*
X218508133Y-83123538D01*
X218508124Y-83123533D01*
X218389744Y-83074499D01*
X218389738Y-83074497D01*
X218264071Y-83049500D01*
X218264069Y-83049500D01*
X218135931Y-83049500D01*
X218135929Y-83049500D01*
X218010261Y-83074497D01*
X218010255Y-83074499D01*
X217891875Y-83123533D01*
X217891866Y-83123538D01*
X217785331Y-83194723D01*
X217785327Y-83194726D01*
X217694726Y-83285327D01*
X217694723Y-83285331D01*
X217623538Y-83391866D01*
X217623533Y-83391875D01*
X217574499Y-83510255D01*
X217574497Y-83510261D01*
X217549500Y-83635928D01*
X217549500Y-83635931D01*
X217549500Y-83764069D01*
X217549500Y-83764071D01*
X217549499Y-83764071D01*
X202096324Y-83764071D01*
X202164477Y-83662073D01*
X202238012Y-83484543D01*
X202275500Y-83296078D01*
X202275500Y-83103922D01*
X202275500Y-83103919D01*
X202275499Y-83103917D01*
X202238013Y-82915464D01*
X202238012Y-82915457D01*
X202217113Y-82865001D01*
X202164479Y-82737931D01*
X202164478Y-82737929D01*
X202114537Y-82663188D01*
X202057720Y-82578155D01*
X202057717Y-82578151D01*
X201921848Y-82442282D01*
X201921844Y-82442279D01*
X201762070Y-82335521D01*
X201762068Y-82335520D01*
X201584547Y-82261989D01*
X201584535Y-82261986D01*
X201396081Y-82224500D01*
X201396078Y-82224500D01*
X201203922Y-82224500D01*
X201203919Y-82224500D01*
X201015464Y-82261986D01*
X201015452Y-82261989D01*
X200837931Y-82335520D01*
X200837929Y-82335521D01*
X200678155Y-82442279D01*
X200678151Y-82442282D01*
X200542282Y-82578151D01*
X200542279Y-82578155D01*
X200435521Y-82737929D01*
X200414561Y-82788533D01*
X200370720Y-82842936D01*
X200304426Y-82865001D01*
X200236726Y-82847722D01*
X200189116Y-82796584D01*
X200185439Y-82788533D01*
X200164478Y-82737929D01*
X200114537Y-82663188D01*
X200057720Y-82578155D01*
X200057717Y-82578151D01*
X199921848Y-82442282D01*
X199921844Y-82442279D01*
X199762070Y-82335521D01*
X199762068Y-82335520D01*
X199584547Y-82261989D01*
X199584535Y-82261986D01*
X199396081Y-82224500D01*
X199396078Y-82224500D01*
X199203922Y-82224500D01*
X199203919Y-82224500D01*
X199015464Y-82261986D01*
X199015452Y-82261989D01*
X198837931Y-82335520D01*
X198837929Y-82335521D01*
X198678155Y-82442279D01*
X198678151Y-82442282D01*
X198542282Y-82578151D01*
X198542279Y-82578155D01*
X198435521Y-82737929D01*
X198414561Y-82788533D01*
X198370720Y-82842936D01*
X198304426Y-82865001D01*
X198236726Y-82847722D01*
X198189116Y-82796584D01*
X198185439Y-82788533D01*
X198164478Y-82737929D01*
X198114537Y-82663188D01*
X198057720Y-82578155D01*
X198057717Y-82578151D01*
X197921848Y-82442282D01*
X197921844Y-82442279D01*
X197762070Y-82335521D01*
X197762068Y-82335520D01*
X197584547Y-82261989D01*
X197584535Y-82261986D01*
X197396081Y-82224500D01*
X197396078Y-82224500D01*
X197203922Y-82224500D01*
X197203919Y-82224500D01*
X197015464Y-82261986D01*
X197015452Y-82261989D01*
X196837931Y-82335520D01*
X196837929Y-82335521D01*
X196678155Y-82442279D01*
X196678151Y-82442282D01*
X196542282Y-82578151D01*
X196542279Y-82578155D01*
X196435521Y-82737929D01*
X196414561Y-82788533D01*
X196370720Y-82842936D01*
X196304426Y-82865001D01*
X196236726Y-82847722D01*
X196189116Y-82796584D01*
X196185439Y-82788533D01*
X196164478Y-82737929D01*
X196114537Y-82663188D01*
X196057720Y-82578155D01*
X196057717Y-82578151D01*
X195921848Y-82442282D01*
X195921844Y-82442279D01*
X195762070Y-82335521D01*
X195762068Y-82335520D01*
X195584547Y-82261989D01*
X195584535Y-82261986D01*
X195396081Y-82224500D01*
X195396078Y-82224500D01*
X195203922Y-82224500D01*
X195203919Y-82224500D01*
X195015464Y-82261986D01*
X195015452Y-82261989D01*
X194837931Y-82335520D01*
X194837929Y-82335521D01*
X194678155Y-82442279D01*
X194678151Y-82442282D01*
X194542282Y-82578151D01*
X194542279Y-82578155D01*
X194435521Y-82737929D01*
X194414561Y-82788533D01*
X194370720Y-82842936D01*
X194304426Y-82865001D01*
X194236726Y-82847722D01*
X194189116Y-82796584D01*
X194185439Y-82788533D01*
X194164478Y-82737929D01*
X194114537Y-82663188D01*
X194057720Y-82578155D01*
X194057717Y-82578151D01*
X193921848Y-82442282D01*
X193921844Y-82442279D01*
X193825048Y-82377602D01*
X193780243Y-82323990D01*
X193771536Y-82254665D01*
X193801690Y-82191638D01*
X193861133Y-82154918D01*
X193893939Y-82150500D01*
X193964071Y-82150500D01*
X194053784Y-82132654D01*
X194089744Y-82125501D01*
X194208127Y-82076465D01*
X194314669Y-82005276D01*
X194405276Y-81914669D01*
X194476465Y-81808127D01*
X194525501Y-81689744D01*
X194550500Y-81564069D01*
X194550500Y-81435931D01*
X194550500Y-81435928D01*
X194525502Y-81310261D01*
X194525501Y-81310260D01*
X194525501Y-81310256D01*
X194523378Y-81305131D01*
X203987000Y-81305131D01*
X203987000Y-82494856D01*
X203987002Y-82494882D01*
X203989913Y-82519987D01*
X203989915Y-82519991D01*
X204035293Y-82622764D01*
X204035294Y-82622765D01*
X204114735Y-82702206D01*
X204217509Y-82747585D01*
X204242635Y-82750500D01*
X205432364Y-82750499D01*
X205432379Y-82750497D01*
X205432382Y-82750497D01*
X205457486Y-82747586D01*
X205457487Y-82747585D01*
X205457491Y-82747585D01*
X205560265Y-82702206D01*
X205572401Y-82690070D01*
X205633723Y-82656583D01*
X205703415Y-82661566D01*
X205707508Y-82663176D01*
X205839418Y-82717816D01*
X205989073Y-82747584D01*
X206003728Y-82750499D01*
X206003732Y-82750500D01*
X206003733Y-82750500D01*
X206171268Y-82750500D01*
X206171269Y-82750499D01*
X206335582Y-82717816D01*
X206490363Y-82653703D01*
X206629662Y-82560626D01*
X206748126Y-82442162D01*
X206841203Y-82302863D01*
X206905316Y-82148082D01*
X206938000Y-81983767D01*
X206938000Y-81816233D01*
X206905316Y-81651918D01*
X206841203Y-81497137D01*
X206800304Y-81435928D01*
X206748126Y-81357837D01*
X206629662Y-81239373D01*
X206490360Y-81146295D01*
X206335582Y-81082184D01*
X206335574Y-81082182D01*
X206171271Y-81049500D01*
X206171267Y-81049500D01*
X206003733Y-81049500D01*
X206003728Y-81049500D01*
X205839425Y-81082182D01*
X205839413Y-81082185D01*
X205707535Y-81136811D01*
X205638066Y-81144280D01*
X205575587Y-81113005D01*
X205572402Y-81109931D01*
X205560265Y-81097794D01*
X205457492Y-81052415D01*
X205432365Y-81049500D01*
X204242643Y-81049500D01*
X204242617Y-81049502D01*
X204217512Y-81052413D01*
X204217508Y-81052415D01*
X204114735Y-81097793D01*
X204035294Y-81177234D01*
X203989915Y-81280006D01*
X203989915Y-81280008D01*
X203987000Y-81305131D01*
X194523378Y-81305131D01*
X194476465Y-81191873D01*
X194476464Y-81191872D01*
X194476461Y-81191866D01*
X194405276Y-81085331D01*
X194405273Y-81085327D01*
X194314672Y-80994726D01*
X194314668Y-80994723D01*
X194208133Y-80923538D01*
X194208124Y-80923533D01*
X194089744Y-80874499D01*
X194089738Y-80874497D01*
X193964071Y-80849500D01*
X193964069Y-80849500D01*
X193835931Y-80849500D01*
X193835929Y-80849500D01*
X193710261Y-80874497D01*
X193710255Y-80874499D01*
X193591875Y-80923533D01*
X193591866Y-80923538D01*
X193485331Y-80994723D01*
X193485327Y-80994726D01*
X193394726Y-81085327D01*
X193394723Y-81085331D01*
X193323538Y-81191866D01*
X193323533Y-81191875D01*
X193274499Y-81310255D01*
X193274497Y-81310261D01*
X193249500Y-81435928D01*
X193249500Y-81435931D01*
X193249500Y-81564069D01*
X193249500Y-81564071D01*
X193249499Y-81564071D01*
X193274497Y-81689738D01*
X193274499Y-81689744D01*
X193323533Y-81808124D01*
X193323538Y-81808133D01*
X193394723Y-81914668D01*
X193394726Y-81914672D01*
X193489638Y-82009584D01*
X193488753Y-82010468D01*
X193524406Y-82062809D01*
X193526277Y-82132654D01*
X193490090Y-82192422D01*
X193427334Y-82223138D01*
X193402170Y-82224038D01*
X193402170Y-82224500D01*
X193203919Y-82224500D01*
X193015464Y-82261986D01*
X193015452Y-82261989D01*
X192837931Y-82335520D01*
X192837929Y-82335521D01*
X192678155Y-82442279D01*
X192678149Y-82442284D01*
X192668655Y-82451778D01*
X192607331Y-82485261D01*
X192537639Y-82480274D01*
X192481707Y-82438401D01*
X192464795Y-82407427D01*
X192418354Y-82282913D01*
X192418350Y-82282906D01*
X192332190Y-82167812D01*
X192332187Y-82167809D01*
X192217093Y-82081649D01*
X192217086Y-82081645D01*
X192082379Y-82031403D01*
X192082372Y-82031401D01*
X192022844Y-82025000D01*
X191550000Y-82025000D01*
X191550000Y-82884314D01*
X191545606Y-82879920D01*
X191454394Y-82827259D01*
X191352661Y-82800000D01*
X191247339Y-82800000D01*
X191145606Y-82827259D01*
X191054394Y-82879920D01*
X191050000Y-82884314D01*
X191050000Y-82025000D01*
X190577155Y-82025000D01*
X190517627Y-82031401D01*
X190517620Y-82031403D01*
X190382913Y-82081645D01*
X190382906Y-82081649D01*
X190267812Y-82167809D01*
X190267809Y-82167812D01*
X190181649Y-82282906D01*
X190181645Y-82282913D01*
X190131403Y-82417620D01*
X190131401Y-82417627D01*
X190125000Y-82477155D01*
X183700500Y-82477155D01*
X183700500Y-80064071D01*
X187349499Y-80064071D01*
X187374497Y-80189738D01*
X187374499Y-80189744D01*
X187423533Y-80308124D01*
X187423538Y-80308133D01*
X187494723Y-80414668D01*
X187494726Y-80414672D01*
X187585327Y-80505273D01*
X187585331Y-80505276D01*
X187691866Y-80576461D01*
X187691872Y-80576464D01*
X187691873Y-80576465D01*
X187810256Y-80625501D01*
X187810260Y-80625501D01*
X187810261Y-80625502D01*
X187935928Y-80650500D01*
X187935931Y-80650500D01*
X188064071Y-80650500D01*
X188148615Y-80633682D01*
X188189744Y-80625501D01*
X188308127Y-80576465D01*
X188414669Y-80505276D01*
X188505276Y-80414669D01*
X188576465Y-80308127D01*
X188625501Y-80189744D01*
X188650500Y-80064069D01*
X188650500Y-79935931D01*
X188650500Y-79935928D01*
X188625502Y-79810261D01*
X188625501Y-79810260D01*
X188625501Y-79810256D01*
X188576465Y-79691873D01*
X188576464Y-79691872D01*
X188576461Y-79691866D01*
X188505276Y-79585331D01*
X188505273Y-79585327D01*
X188414672Y-79494726D01*
X188414668Y-79494723D01*
X188308133Y-79423538D01*
X188308124Y-79423533D01*
X188189744Y-79374499D01*
X188189738Y-79374497D01*
X188064071Y-79349500D01*
X188064069Y-79349500D01*
X187935931Y-79349500D01*
X187935929Y-79349500D01*
X187810261Y-79374497D01*
X187810255Y-79374499D01*
X187691875Y-79423533D01*
X187691866Y-79423538D01*
X187585331Y-79494723D01*
X187585327Y-79494726D01*
X187494726Y-79585327D01*
X187494723Y-79585331D01*
X187423538Y-79691866D01*
X187423533Y-79691875D01*
X187374499Y-79810255D01*
X187374497Y-79810261D01*
X187349500Y-79935928D01*
X187349500Y-79935931D01*
X187349500Y-80064069D01*
X187349500Y-80064071D01*
X187349499Y-80064071D01*
X183700500Y-80064071D01*
X183700500Y-79269096D01*
X197654524Y-79269096D01*
X197679522Y-79394763D01*
X197679524Y-79394769D01*
X197728558Y-79513149D01*
X197728563Y-79513158D01*
X197799748Y-79619693D01*
X197799751Y-79619697D01*
X197890352Y-79710298D01*
X197890356Y-79710301D01*
X197996891Y-79781486D01*
X197996897Y-79781489D01*
X197996898Y-79781490D01*
X198115281Y-79830526D01*
X198115285Y-79830526D01*
X198115286Y-79830527D01*
X198240953Y-79855525D01*
X198240956Y-79855525D01*
X198369096Y-79855525D01*
X198453640Y-79838707D01*
X198494769Y-79830526D01*
X198613152Y-79781490D01*
X198631704Y-79769094D01*
X199404525Y-79769094D01*
X199429523Y-79894761D01*
X199429525Y-79894767D01*
X199478559Y-80013147D01*
X199478564Y-80013156D01*
X199549749Y-80119691D01*
X199549752Y-80119695D01*
X199551069Y-80121012D01*
X199551538Y-80121871D01*
X199553615Y-80124402D01*
X199553135Y-80124795D01*
X199584554Y-80182335D01*
X199579570Y-80252027D01*
X199566491Y-80277583D01*
X199523537Y-80341868D01*
X199523533Y-80341875D01*
X199474499Y-80460255D01*
X199474497Y-80460261D01*
X199449500Y-80585928D01*
X199449500Y-80585931D01*
X199449500Y-80714069D01*
X199449500Y-80714071D01*
X199449499Y-80714071D01*
X199474497Y-80839738D01*
X199474499Y-80839744D01*
X199523533Y-80958124D01*
X199523538Y-80958133D01*
X199594723Y-81064668D01*
X199594726Y-81064672D01*
X199685327Y-81155273D01*
X199685331Y-81155276D01*
X199791866Y-81226461D01*
X199791872Y-81226464D01*
X199791873Y-81226465D01*
X199910256Y-81275501D01*
X199910260Y-81275501D01*
X199910261Y-81275502D01*
X200035928Y-81300500D01*
X200035931Y-81300500D01*
X200164071Y-81300500D01*
X200267096Y-81280006D01*
X200289744Y-81275501D01*
X200408127Y-81226465D01*
X200408133Y-81226461D01*
X200450052Y-81198452D01*
X200482628Y-81176685D01*
X200514669Y-81155276D01*
X200605276Y-81064669D01*
X200676465Y-80958127D01*
X200725501Y-80839744D01*
X200750500Y-80714069D01*
X200750500Y-80585931D01*
X200750500Y-80585928D01*
X200725502Y-80460261D01*
X200725501Y-80460260D01*
X200725501Y-80460256D01*
X200676465Y-80341873D01*
X200676462Y-80341868D01*
X200676461Y-80341866D01*
X200605276Y-80235331D01*
X200605273Y-80235327D01*
X200603956Y-80234010D01*
X200603486Y-80233149D01*
X200601411Y-80230621D01*
X200601890Y-80230227D01*
X200570471Y-80172687D01*
X200575455Y-80102995D01*
X200588532Y-80077442D01*
X200631491Y-80013150D01*
X200680527Y-79894767D01*
X200688708Y-79853638D01*
X200705526Y-79769094D01*
X200705526Y-79640951D01*
X200680528Y-79515284D01*
X200680527Y-79515283D01*
X200680527Y-79515279D01*
X200645371Y-79430407D01*
X200637903Y-79360939D01*
X200669178Y-79298459D01*
X200691042Y-79279853D01*
X200692787Y-79278688D01*
X200783394Y-79188081D01*
X200854583Y-79081539D01*
X200903619Y-78963156D01*
X200922959Y-78865931D01*
X200928618Y-78837483D01*
X200928618Y-78709340D01*
X200903620Y-78583673D01*
X200903619Y-78583672D01*
X200903619Y-78583668D01*
X200854583Y-78465285D01*
X200854582Y-78465284D01*
X200854579Y-78465278D01*
X200783394Y-78358743D01*
X200783391Y-78358739D01*
X200692790Y-78268138D01*
X200692786Y-78268135D01*
X200586251Y-78196950D01*
X200586242Y-78196945D01*
X200467862Y-78147911D01*
X200467856Y-78147909D01*
X200342189Y-78122912D01*
X200342187Y-78122912D01*
X200214049Y-78122912D01*
X200214047Y-78122912D01*
X200088379Y-78147909D01*
X200088373Y-78147911D01*
X199969993Y-78196945D01*
X199969984Y-78196950D01*
X199863449Y-78268135D01*
X199863445Y-78268138D01*
X199772844Y-78358739D01*
X199772841Y-78358743D01*
X199701656Y-78465278D01*
X199701651Y-78465287D01*
X199652617Y-78583667D01*
X199652615Y-78583673D01*
X199627618Y-78709340D01*
X199627618Y-78709343D01*
X199627618Y-78837481D01*
X199627618Y-78837483D01*
X199627617Y-78837483D01*
X199652615Y-78963150D01*
X199652618Y-78963160D01*
X199687771Y-79048027D01*
X199695240Y-79117496D01*
X199663965Y-79179975D01*
X199642105Y-79198579D01*
X199640354Y-79199748D01*
X199549752Y-79290350D01*
X199549749Y-79290354D01*
X199478564Y-79396889D01*
X199478559Y-79396898D01*
X199429525Y-79515278D01*
X199429523Y-79515284D01*
X199404526Y-79640951D01*
X199404526Y-79640954D01*
X199404526Y-79769092D01*
X199404526Y-79769094D01*
X199404525Y-79769094D01*
X198631704Y-79769094D01*
X198719694Y-79710301D01*
X198810301Y-79619694D01*
X198839186Y-79576465D01*
X198846198Y-79565971D01*
X198881486Y-79513158D01*
X198881486Y-79513157D01*
X198881490Y-79513152D01*
X198930526Y-79394769D01*
X198942231Y-79335928D01*
X198955525Y-79269096D01*
X198955525Y-79140953D01*
X198930527Y-79015286D01*
X198930526Y-79015285D01*
X198930526Y-79015281D01*
X198881490Y-78896898D01*
X198881489Y-78896897D01*
X198881486Y-78896891D01*
X198810301Y-78790356D01*
X198810298Y-78790352D01*
X198719697Y-78699751D01*
X198719693Y-78699748D01*
X198613158Y-78628563D01*
X198613149Y-78628558D01*
X198494769Y-78579524D01*
X198494763Y-78579522D01*
X198369096Y-78554525D01*
X198369094Y-78554525D01*
X198240956Y-78554525D01*
X198240954Y-78554525D01*
X198115286Y-78579522D01*
X198115280Y-78579524D01*
X197996900Y-78628558D01*
X197996891Y-78628563D01*
X197890356Y-78699748D01*
X197890352Y-78699751D01*
X197799751Y-78790352D01*
X197799748Y-78790356D01*
X197728563Y-78896891D01*
X197728558Y-78896900D01*
X197679524Y-79015280D01*
X197679522Y-79015286D01*
X197654525Y-79140953D01*
X197654525Y-79140956D01*
X197654525Y-79269094D01*
X197654525Y-79269096D01*
X197654524Y-79269096D01*
X183700500Y-79269096D01*
X183700500Y-77764071D01*
X187349499Y-77764071D01*
X187374497Y-77889738D01*
X187374499Y-77889744D01*
X187423533Y-78008124D01*
X187423538Y-78008133D01*
X187494723Y-78114668D01*
X187494726Y-78114672D01*
X187585327Y-78205273D01*
X187585331Y-78205276D01*
X187691866Y-78276461D01*
X187691872Y-78276464D01*
X187691873Y-78276465D01*
X187810256Y-78325501D01*
X187810260Y-78325501D01*
X187810261Y-78325502D01*
X187935928Y-78350500D01*
X187935931Y-78350500D01*
X188064071Y-78350500D01*
X188148615Y-78333682D01*
X188189744Y-78325501D01*
X188308127Y-78276465D01*
X188414669Y-78205276D01*
X188505276Y-78114669D01*
X188576465Y-78008127D01*
X188615424Y-77914071D01*
X204186999Y-77914071D01*
X204211997Y-78039738D01*
X204211999Y-78039744D01*
X204261033Y-78158124D01*
X204261038Y-78158133D01*
X204332223Y-78264668D01*
X204332226Y-78264672D01*
X204422827Y-78355273D01*
X204422831Y-78355276D01*
X204529366Y-78426461D01*
X204529372Y-78426464D01*
X204529373Y-78426465D01*
X204647756Y-78475501D01*
X204647760Y-78475501D01*
X204647761Y-78475502D01*
X204773428Y-78500500D01*
X204773431Y-78500500D01*
X204901571Y-78500500D01*
X204986115Y-78483682D01*
X205027244Y-78475501D01*
X205145627Y-78426465D01*
X205168609Y-78411108D01*
X205235285Y-78390230D01*
X205302665Y-78408714D01*
X205306373Y-78411096D01*
X205329373Y-78426465D01*
X205447756Y-78475501D01*
X205447760Y-78475501D01*
X205447761Y-78475502D01*
X205573428Y-78500500D01*
X205573431Y-78500500D01*
X205701571Y-78500500D01*
X205786115Y-78483682D01*
X205827244Y-78475501D01*
X205945627Y-78426465D01*
X206052169Y-78355276D01*
X206125594Y-78281850D01*
X206186915Y-78248367D01*
X206256607Y-78253351D01*
X206312541Y-78295222D01*
X206336958Y-78360686D01*
X206336678Y-78381676D01*
X206336136Y-78387184D01*
X206336136Y-78387190D01*
X206336136Y-78515328D01*
X206336136Y-78515330D01*
X206336135Y-78515330D01*
X206361133Y-78640997D01*
X206361135Y-78641003D01*
X206410169Y-78759383D01*
X206410174Y-78759392D01*
X206481359Y-78865927D01*
X206481362Y-78865931D01*
X206571963Y-78956532D01*
X206571967Y-78956535D01*
X206678502Y-79027720D01*
X206678508Y-79027723D01*
X206678509Y-79027724D01*
X206796892Y-79076760D01*
X206796896Y-79076760D01*
X206796897Y-79076761D01*
X206922564Y-79101759D01*
X206922567Y-79101759D01*
X207050707Y-79101759D01*
X207135251Y-79084941D01*
X207176380Y-79076760D01*
X207207014Y-79064071D01*
X209349499Y-79064071D01*
X209374497Y-79189738D01*
X209374499Y-79189744D01*
X209423533Y-79308124D01*
X209423538Y-79308133D01*
X209494723Y-79414668D01*
X209494726Y-79414672D01*
X209585327Y-79505273D01*
X209585331Y-79505276D01*
X209691866Y-79576461D01*
X209691872Y-79576464D01*
X209691873Y-79576465D01*
X209810256Y-79625501D01*
X209810260Y-79625501D01*
X209810261Y-79625502D01*
X209935928Y-79650500D01*
X209935931Y-79650500D01*
X210064071Y-79650500D01*
X210148615Y-79633682D01*
X210189744Y-79625501D01*
X210308127Y-79576465D01*
X210414669Y-79505276D01*
X210455874Y-79464071D01*
X212386999Y-79464071D01*
X212411997Y-79589738D01*
X212411999Y-79589744D01*
X212461033Y-79708124D01*
X212461038Y-79708133D01*
X212532223Y-79814668D01*
X212532226Y-79814672D01*
X212622827Y-79905273D01*
X212622831Y-79905276D01*
X212729366Y-79976461D01*
X212729372Y-79976464D01*
X212729373Y-79976465D01*
X212847756Y-80025501D01*
X212847760Y-80025501D01*
X212847761Y-80025502D01*
X212973428Y-80050500D01*
X212973431Y-80050500D01*
X213101571Y-80050500D01*
X213186115Y-80033682D01*
X213227244Y-80025501D01*
X213345627Y-79976465D01*
X213452169Y-79905276D01*
X213542776Y-79814669D01*
X213613965Y-79708127D01*
X213663001Y-79589744D01*
X213671182Y-79548615D01*
X213688000Y-79464071D01*
X213688000Y-79335928D01*
X213663002Y-79210261D01*
X213663001Y-79210260D01*
X213663001Y-79210256D01*
X213613965Y-79091873D01*
X213613964Y-79091872D01*
X213613961Y-79091866D01*
X213542776Y-78985331D01*
X213542773Y-78985327D01*
X213452172Y-78894726D01*
X213452168Y-78894723D01*
X213345633Y-78823538D01*
X213345624Y-78823533D01*
X213227244Y-78774499D01*
X213227238Y-78774497D01*
X213101571Y-78749500D01*
X213101569Y-78749500D01*
X212973431Y-78749500D01*
X212973429Y-78749500D01*
X212847761Y-78774497D01*
X212847755Y-78774499D01*
X212729375Y-78823533D01*
X212729366Y-78823538D01*
X212622831Y-78894723D01*
X212622827Y-78894726D01*
X212532226Y-78985327D01*
X212532223Y-78985331D01*
X212461038Y-79091866D01*
X212461033Y-79091875D01*
X212411999Y-79210255D01*
X212411997Y-79210261D01*
X212387000Y-79335928D01*
X212387000Y-79335931D01*
X212387000Y-79464069D01*
X212387000Y-79464071D01*
X212386999Y-79464071D01*
X210455874Y-79464071D01*
X210505276Y-79414669D01*
X210576465Y-79308127D01*
X210625501Y-79189744D01*
X210636401Y-79134946D01*
X210650500Y-79064071D01*
X210650500Y-78935928D01*
X210625502Y-78810261D01*
X210625501Y-78810260D01*
X210625501Y-78810256D01*
X210576465Y-78691873D01*
X210576464Y-78691872D01*
X210576461Y-78691866D01*
X210505276Y-78585331D01*
X210505273Y-78585327D01*
X210414672Y-78494726D01*
X210414668Y-78494723D01*
X210308133Y-78423538D01*
X210308124Y-78423533D01*
X210189744Y-78374499D01*
X210189738Y-78374497D01*
X210064071Y-78349500D01*
X210064069Y-78349500D01*
X209935931Y-78349500D01*
X209935929Y-78349500D01*
X209810261Y-78374497D01*
X209810255Y-78374499D01*
X209691875Y-78423533D01*
X209691866Y-78423538D01*
X209585331Y-78494723D01*
X209585327Y-78494726D01*
X209494726Y-78585327D01*
X209494723Y-78585331D01*
X209423538Y-78691866D01*
X209423533Y-78691875D01*
X209374499Y-78810255D01*
X209374497Y-78810261D01*
X209349500Y-78935928D01*
X209349500Y-78935931D01*
X209349500Y-79064069D01*
X209349500Y-79064071D01*
X209349499Y-79064071D01*
X207207014Y-79064071D01*
X207294763Y-79027724D01*
X207401305Y-78956535D01*
X207491912Y-78865928D01*
X207563101Y-78759386D01*
X207612137Y-78641003D01*
X207630140Y-78550500D01*
X207637136Y-78515330D01*
X207637136Y-78387187D01*
X207612138Y-78261520D01*
X207612137Y-78261519D01*
X207612137Y-78261515D01*
X207563101Y-78143132D01*
X207563100Y-78143131D01*
X207563097Y-78143125D01*
X207491912Y-78036590D01*
X207491909Y-78036586D01*
X207419394Y-77964071D01*
X223649499Y-77964071D01*
X223674497Y-78089738D01*
X223674499Y-78089744D01*
X223723533Y-78208124D01*
X223723538Y-78208133D01*
X223794723Y-78314668D01*
X223794726Y-78314672D01*
X223885327Y-78405273D01*
X223885331Y-78405276D01*
X223991866Y-78476461D01*
X223991872Y-78476464D01*
X223991873Y-78476465D01*
X224110256Y-78525501D01*
X224110260Y-78525501D01*
X224110261Y-78525502D01*
X224235928Y-78550500D01*
X224235931Y-78550500D01*
X224364071Y-78550500D01*
X224448615Y-78533682D01*
X224489744Y-78525501D01*
X224608127Y-78476465D01*
X224714669Y-78405276D01*
X224805276Y-78314669D01*
X224876465Y-78208127D01*
X224925501Y-78089744D01*
X224950500Y-77964069D01*
X224950500Y-77835931D01*
X224950500Y-77835928D01*
X224925502Y-77710261D01*
X224925501Y-77710260D01*
X224925501Y-77710256D01*
X224876465Y-77591873D01*
X224876464Y-77591872D01*
X224876461Y-77591866D01*
X224805276Y-77485331D01*
X224805273Y-77485327D01*
X224714672Y-77394726D01*
X224714668Y-77394723D01*
X224608133Y-77323538D01*
X224608124Y-77323533D01*
X224489744Y-77274499D01*
X224489738Y-77274497D01*
X224364071Y-77249500D01*
X224364069Y-77249500D01*
X224235931Y-77249500D01*
X224235929Y-77249500D01*
X224110261Y-77274497D01*
X224110255Y-77274499D01*
X223991875Y-77323533D01*
X223991866Y-77323538D01*
X223885331Y-77394723D01*
X223885327Y-77394726D01*
X223794726Y-77485327D01*
X223794723Y-77485331D01*
X223723538Y-77591866D01*
X223723533Y-77591875D01*
X223674499Y-77710255D01*
X223674497Y-77710261D01*
X223649500Y-77835928D01*
X223649500Y-77835931D01*
X223649500Y-77964069D01*
X223649500Y-77964071D01*
X223649499Y-77964071D01*
X207419394Y-77964071D01*
X207401308Y-77945985D01*
X207401304Y-77945982D01*
X207294769Y-77874797D01*
X207294760Y-77874792D01*
X207176380Y-77825758D01*
X207176374Y-77825756D01*
X207050707Y-77800759D01*
X207050705Y-77800759D01*
X206922567Y-77800759D01*
X206922565Y-77800759D01*
X206796897Y-77825756D01*
X206796891Y-77825758D01*
X206678511Y-77874792D01*
X206678502Y-77874797D01*
X206571967Y-77945982D01*
X206498542Y-78019407D01*
X206437218Y-78052891D01*
X206367527Y-78047906D01*
X206311593Y-78006035D01*
X206287177Y-77940570D01*
X206287458Y-77919570D01*
X206288000Y-77914067D01*
X206288000Y-77785928D01*
X206263002Y-77660261D01*
X206263001Y-77660260D01*
X206263001Y-77660256D01*
X206213965Y-77541873D01*
X206213964Y-77541872D01*
X206213961Y-77541866D01*
X206142776Y-77435331D01*
X206142773Y-77435327D01*
X206052172Y-77344726D01*
X206052168Y-77344723D01*
X206006294Y-77314071D01*
X216049499Y-77314071D01*
X216074497Y-77439738D01*
X216074499Y-77439744D01*
X216123533Y-77558124D01*
X216123538Y-77558133D01*
X216194723Y-77664668D01*
X216194726Y-77664672D01*
X216285327Y-77755273D01*
X216285331Y-77755276D01*
X216391866Y-77826461D01*
X216391872Y-77826464D01*
X216391873Y-77826465D01*
X216510256Y-77875501D01*
X216510260Y-77875501D01*
X216510261Y-77875502D01*
X216635928Y-77900500D01*
X216635931Y-77900500D01*
X216764071Y-77900500D01*
X216848615Y-77883682D01*
X216889744Y-77875501D01*
X217008127Y-77826465D01*
X217114669Y-77755276D01*
X217114672Y-77755273D01*
X217127788Y-77742158D01*
X217205273Y-77664672D01*
X217205276Y-77664669D01*
X217276465Y-77558127D01*
X217325501Y-77439744D01*
X217344402Y-77344724D01*
X217350500Y-77314071D01*
X217350500Y-77185928D01*
X217325502Y-77060261D01*
X217325501Y-77060260D01*
X217325501Y-77060256D01*
X217282017Y-76955276D01*
X217276466Y-76941875D01*
X217276461Y-76941866D01*
X217205276Y-76835331D01*
X217205273Y-76835327D01*
X217114672Y-76744726D01*
X217114668Y-76744723D01*
X217008133Y-76673538D01*
X217008124Y-76673533D01*
X216889744Y-76624499D01*
X216889738Y-76624497D01*
X216764071Y-76599500D01*
X216764069Y-76599500D01*
X216635931Y-76599500D01*
X216635929Y-76599500D01*
X216510261Y-76624497D01*
X216510255Y-76624499D01*
X216391875Y-76673533D01*
X216391866Y-76673538D01*
X216285331Y-76744723D01*
X216285327Y-76744726D01*
X216194726Y-76835327D01*
X216194723Y-76835331D01*
X216123538Y-76941866D01*
X216123533Y-76941875D01*
X216074499Y-77060255D01*
X216074497Y-77060261D01*
X216049500Y-77185928D01*
X216049500Y-77185931D01*
X216049500Y-77314069D01*
X216049500Y-77314071D01*
X216049499Y-77314071D01*
X206006294Y-77314071D01*
X205959705Y-77282941D01*
X205945633Y-77273538D01*
X205945624Y-77273533D01*
X205827244Y-77224499D01*
X205827238Y-77224497D01*
X205701571Y-77199500D01*
X205701569Y-77199500D01*
X205573431Y-77199500D01*
X205573429Y-77199500D01*
X205447761Y-77224497D01*
X205447755Y-77224499D01*
X205329372Y-77273534D01*
X205306388Y-77288892D01*
X205239710Y-77309768D01*
X205172330Y-77291282D01*
X205168612Y-77288892D01*
X205145627Y-77273534D01*
X205027244Y-77224499D01*
X205027238Y-77224497D01*
X204901571Y-77199500D01*
X204901569Y-77199500D01*
X204773431Y-77199500D01*
X204773429Y-77199500D01*
X204647761Y-77224497D01*
X204647755Y-77224499D01*
X204529375Y-77273533D01*
X204529366Y-77273538D01*
X204422831Y-77344723D01*
X204422827Y-77344726D01*
X204332226Y-77435327D01*
X204332223Y-77435331D01*
X204261038Y-77541866D01*
X204261033Y-77541875D01*
X204211999Y-77660255D01*
X204211997Y-77660261D01*
X204187000Y-77785928D01*
X204187000Y-77785931D01*
X204187000Y-77914069D01*
X204187000Y-77914071D01*
X204186999Y-77914071D01*
X188615424Y-77914071D01*
X188625501Y-77889744D01*
X188643202Y-77800759D01*
X188650500Y-77764071D01*
X188650500Y-77635928D01*
X188625502Y-77510261D01*
X188625501Y-77510260D01*
X188625501Y-77510256D01*
X188576465Y-77391873D01*
X188576464Y-77391872D01*
X188576461Y-77391866D01*
X188505276Y-77285331D01*
X188505273Y-77285327D01*
X188414672Y-77194726D01*
X188414668Y-77194723D01*
X188308133Y-77123538D01*
X188308124Y-77123533D01*
X188189744Y-77074499D01*
X188189738Y-77074497D01*
X188064071Y-77049500D01*
X188064069Y-77049500D01*
X187935931Y-77049500D01*
X187935929Y-77049500D01*
X187810261Y-77074497D01*
X187810255Y-77074499D01*
X187691875Y-77123533D01*
X187691866Y-77123538D01*
X187585331Y-77194723D01*
X187585327Y-77194726D01*
X187494726Y-77285327D01*
X187494723Y-77285331D01*
X187423538Y-77391866D01*
X187423533Y-77391875D01*
X187374499Y-77510255D01*
X187374497Y-77510261D01*
X187349500Y-77635928D01*
X187349500Y-77635931D01*
X187349500Y-77764069D01*
X187349500Y-77764071D01*
X187349499Y-77764071D01*
X183700500Y-77764071D01*
X183700500Y-76514071D01*
X197899499Y-76514071D01*
X197924497Y-76639738D01*
X197924499Y-76639744D01*
X197973533Y-76758124D01*
X197973538Y-76758133D01*
X198044723Y-76864668D01*
X198044726Y-76864672D01*
X198135327Y-76955273D01*
X198135331Y-76955276D01*
X198241866Y-77026461D01*
X198241872Y-77026464D01*
X198241873Y-77026465D01*
X198360256Y-77075501D01*
X198360260Y-77075501D01*
X198360261Y-77075502D01*
X198485928Y-77100500D01*
X198485931Y-77100500D01*
X198614071Y-77100500D01*
X198698615Y-77083682D01*
X198739744Y-77075501D01*
X198858127Y-77026465D01*
X198964669Y-76955276D01*
X199055276Y-76864669D01*
X199126465Y-76758127D01*
X199175501Y-76639744D01*
X199200500Y-76514069D01*
X199200500Y-76385931D01*
X199200500Y-76385928D01*
X199175502Y-76260261D01*
X199175501Y-76260260D01*
X199175501Y-76260256D01*
X199126465Y-76141873D01*
X199126464Y-76141872D01*
X199126461Y-76141866D01*
X199055274Y-76035328D01*
X199052431Y-76031863D01*
X199039975Y-76002531D01*
X199026027Y-75973890D01*
X199026416Y-75970601D01*
X199025122Y-75967552D01*
X199030502Y-75936139D01*
X199033118Y-75914071D01*
X211149499Y-75914071D01*
X211174497Y-76039738D01*
X211174499Y-76039744D01*
X211223533Y-76158124D01*
X211223538Y-76158133D01*
X211294723Y-76264668D01*
X211294726Y-76264672D01*
X211385327Y-76355273D01*
X211385331Y-76355276D01*
X211491866Y-76426461D01*
X211491872Y-76426464D01*
X211491873Y-76426465D01*
X211610256Y-76475501D01*
X211610260Y-76475501D01*
X211610261Y-76475502D01*
X211735928Y-76500500D01*
X211735931Y-76500500D01*
X211864071Y-76500500D01*
X211948615Y-76483682D01*
X211989744Y-76475501D01*
X212108127Y-76426465D01*
X212214669Y-76355276D01*
X212305276Y-76264669D01*
X212376465Y-76158127D01*
X212425501Y-76039744D01*
X212439861Y-75967552D01*
X212450500Y-75914071D01*
X212450500Y-75785928D01*
X212425502Y-75660261D01*
X212425501Y-75660260D01*
X212425501Y-75660256D01*
X212376465Y-75541873D01*
X212376464Y-75541872D01*
X212376461Y-75541866D01*
X212324480Y-75464071D01*
X217036999Y-75464071D01*
X217061997Y-75589738D01*
X217061999Y-75589744D01*
X217111033Y-75708124D01*
X217111038Y-75708133D01*
X217182223Y-75814668D01*
X217182226Y-75814672D01*
X217272827Y-75905273D01*
X217272831Y-75905276D01*
X217379366Y-75976461D01*
X217379372Y-75976464D01*
X217379373Y-75976465D01*
X217497756Y-76025501D01*
X217497760Y-76025501D01*
X217497761Y-76025502D01*
X217623428Y-76050500D01*
X217623431Y-76050500D01*
X217751571Y-76050500D01*
X217845261Y-76031863D01*
X217877244Y-76025501D01*
X217995627Y-75976465D01*
X218102169Y-75905276D01*
X218192776Y-75814669D01*
X218263965Y-75708127D01*
X218313001Y-75589744D01*
X218338000Y-75464069D01*
X218338000Y-75335931D01*
X218338000Y-75335928D01*
X218313002Y-75210261D01*
X218313001Y-75210260D01*
X218313001Y-75210256D01*
X218275074Y-75118692D01*
X218263966Y-75091875D01*
X218263961Y-75091866D01*
X218192776Y-74985331D01*
X218192773Y-74985327D01*
X218102172Y-74894726D01*
X218102168Y-74894723D01*
X217995633Y-74823538D01*
X217995624Y-74823533D01*
X217877244Y-74774499D01*
X217877238Y-74774497D01*
X217751571Y-74749500D01*
X217751569Y-74749500D01*
X217623431Y-74749500D01*
X217623429Y-74749500D01*
X217497761Y-74774497D01*
X217497755Y-74774499D01*
X217379375Y-74823533D01*
X217379366Y-74823538D01*
X217272831Y-74894723D01*
X217272827Y-74894726D01*
X217182226Y-74985327D01*
X217182223Y-74985331D01*
X217111038Y-75091866D01*
X217111033Y-75091875D01*
X217061999Y-75210255D01*
X217061997Y-75210261D01*
X217037000Y-75335928D01*
X217037000Y-75335931D01*
X217037000Y-75464069D01*
X217037000Y-75464071D01*
X217036999Y-75464071D01*
X212324480Y-75464071D01*
X212305276Y-75435331D01*
X212305273Y-75435327D01*
X212214672Y-75344726D01*
X212214668Y-75344723D01*
X212108133Y-75273538D01*
X212108124Y-75273533D01*
X211989744Y-75224499D01*
X211989738Y-75224497D01*
X211864071Y-75199500D01*
X211864069Y-75199500D01*
X211735931Y-75199500D01*
X211735929Y-75199500D01*
X211610261Y-75224497D01*
X211610255Y-75224499D01*
X211491875Y-75273533D01*
X211491866Y-75273538D01*
X211385331Y-75344723D01*
X211385327Y-75344726D01*
X211294726Y-75435327D01*
X211294723Y-75435331D01*
X211223538Y-75541866D01*
X211223533Y-75541875D01*
X211174499Y-75660255D01*
X211174497Y-75660261D01*
X211149500Y-75785928D01*
X211149500Y-75785931D01*
X211149500Y-75914069D01*
X211149500Y-75914071D01*
X211149499Y-75914071D01*
X199033118Y-75914071D01*
X199034252Y-75904506D01*
X199036485Y-75901201D01*
X199036917Y-75898685D01*
X199052591Y-75874351D01*
X199056387Y-75869743D01*
X199133369Y-75792762D01*
X199204558Y-75686220D01*
X199253594Y-75567837D01*
X199274235Y-75464071D01*
X199278593Y-75442164D01*
X199278593Y-75314021D01*
X199253595Y-75188354D01*
X199253594Y-75188353D01*
X199253594Y-75188349D01*
X199204558Y-75069966D01*
X199204557Y-75069965D01*
X199204554Y-75069959D01*
X199133369Y-74963424D01*
X199133366Y-74963420D01*
X199042765Y-74872819D01*
X199042761Y-74872816D01*
X198936226Y-74801631D01*
X198936217Y-74801626D01*
X198817837Y-74752592D01*
X198817831Y-74752590D01*
X198692164Y-74727593D01*
X198692162Y-74727593D01*
X198564024Y-74727593D01*
X198564022Y-74727593D01*
X198438354Y-74752590D01*
X198438348Y-74752592D01*
X198319968Y-74801626D01*
X198319959Y-74801631D01*
X198213424Y-74872816D01*
X198213420Y-74872819D01*
X198122819Y-74963420D01*
X198122816Y-74963424D01*
X198051631Y-75069959D01*
X198051626Y-75069968D01*
X198002592Y-75188348D01*
X198002590Y-75188354D01*
X197977593Y-75314021D01*
X197977593Y-75314024D01*
X197977593Y-75442162D01*
X197977593Y-75442164D01*
X197977592Y-75442164D01*
X198002590Y-75567831D01*
X198002592Y-75567837D01*
X198051626Y-75686217D01*
X198051631Y-75686226D01*
X198122818Y-75792764D01*
X198125662Y-75796230D01*
X198152970Y-75860542D01*
X198141174Y-75929408D01*
X198117485Y-75962569D01*
X198044723Y-76035331D01*
X197973538Y-76141866D01*
X197973533Y-76141875D01*
X197924499Y-76260255D01*
X197924497Y-76260261D01*
X197899500Y-76385928D01*
X197899500Y-76385931D01*
X197899500Y-76514069D01*
X197899500Y-76514071D01*
X197899499Y-76514071D01*
X183700500Y-76514071D01*
X183700500Y-75464071D01*
X187349499Y-75464071D01*
X187374497Y-75589738D01*
X187374499Y-75589744D01*
X187423533Y-75708124D01*
X187423538Y-75708133D01*
X187494723Y-75814668D01*
X187494726Y-75814672D01*
X187585327Y-75905273D01*
X187585331Y-75905276D01*
X187691866Y-75976461D01*
X187691872Y-75976464D01*
X187691873Y-75976465D01*
X187810256Y-76025501D01*
X187810260Y-76025501D01*
X187810261Y-76025502D01*
X187935928Y-76050500D01*
X187935931Y-76050500D01*
X188064071Y-76050500D01*
X188157761Y-76031863D01*
X188189744Y-76025501D01*
X188308127Y-75976465D01*
X188414669Y-75905276D01*
X188505276Y-75814669D01*
X188576465Y-75708127D01*
X188625501Y-75589744D01*
X188650500Y-75464069D01*
X188650500Y-75335931D01*
X188650500Y-75335928D01*
X188625502Y-75210261D01*
X188625501Y-75210260D01*
X188625501Y-75210256D01*
X188587574Y-75118692D01*
X188576466Y-75091875D01*
X188576461Y-75091866D01*
X188505276Y-74985331D01*
X188505273Y-74985327D01*
X188414672Y-74894726D01*
X188414668Y-74894723D01*
X188308133Y-74823538D01*
X188308124Y-74823533D01*
X188189744Y-74774499D01*
X188189738Y-74774497D01*
X188064071Y-74749500D01*
X188064069Y-74749500D01*
X187935931Y-74749500D01*
X187935929Y-74749500D01*
X187810261Y-74774497D01*
X187810255Y-74774499D01*
X187691875Y-74823533D01*
X187691866Y-74823538D01*
X187585331Y-74894723D01*
X187585327Y-74894726D01*
X187494726Y-74985327D01*
X187494723Y-74985331D01*
X187423538Y-75091866D01*
X187423533Y-75091875D01*
X187374499Y-75210255D01*
X187374497Y-75210261D01*
X187349500Y-75335928D01*
X187349500Y-75335931D01*
X187349500Y-75464069D01*
X187349500Y-75464071D01*
X187349499Y-75464071D01*
X183700500Y-75464071D01*
X183700500Y-74514071D01*
X206799499Y-74514071D01*
X206824497Y-74639738D01*
X206824499Y-74639744D01*
X206873533Y-74758124D01*
X206873538Y-74758133D01*
X206944723Y-74864668D01*
X206944726Y-74864672D01*
X207035327Y-74955273D01*
X207035331Y-74955276D01*
X207141866Y-75026461D01*
X207141872Y-75026464D01*
X207141873Y-75026465D01*
X207260256Y-75075501D01*
X207260260Y-75075501D01*
X207260261Y-75075502D01*
X207385928Y-75100500D01*
X207385931Y-75100500D01*
X207514071Y-75100500D01*
X207598615Y-75083682D01*
X207639744Y-75075501D01*
X207758127Y-75026465D01*
X207864669Y-74955276D01*
X207955276Y-74864669D01*
X208026465Y-74758127D01*
X208075501Y-74639744D01*
X208091737Y-74558124D01*
X208100500Y-74514071D01*
X208100500Y-74385928D01*
X208076260Y-74264071D01*
X219686999Y-74264071D01*
X219711997Y-74389738D01*
X219711999Y-74389744D01*
X219761033Y-74508124D01*
X219761038Y-74508133D01*
X219832223Y-74614668D01*
X219832226Y-74614672D01*
X219922827Y-74705273D01*
X219922831Y-74705276D01*
X220029366Y-74776461D01*
X220029372Y-74776464D01*
X220029373Y-74776465D01*
X220147756Y-74825501D01*
X220147760Y-74825501D01*
X220147761Y-74825502D01*
X220273428Y-74850500D01*
X220273431Y-74850500D01*
X220401571Y-74850500D01*
X220486115Y-74833682D01*
X220527244Y-74825501D01*
X220645627Y-74776465D01*
X220752169Y-74705276D01*
X220842776Y-74614669D01*
X220897007Y-74533506D01*
X220950617Y-74488703D01*
X221019942Y-74479995D01*
X221024300Y-74480781D01*
X221123429Y-74500500D01*
X221123431Y-74500500D01*
X221251571Y-74500500D01*
X221350700Y-74480781D01*
X221377244Y-74475501D01*
X221495627Y-74426465D01*
X221602169Y-74355276D01*
X221643374Y-74314071D01*
X223499499Y-74314071D01*
X223524497Y-74439738D01*
X223524499Y-74439744D01*
X223573533Y-74558124D01*
X223573538Y-74558133D01*
X223644723Y-74664668D01*
X223644726Y-74664672D01*
X223735327Y-74755273D01*
X223735331Y-74755276D01*
X223841866Y-74826461D01*
X223841872Y-74826464D01*
X223841873Y-74826465D01*
X223960256Y-74875501D01*
X223960260Y-74875501D01*
X223960261Y-74875502D01*
X224085928Y-74900500D01*
X224085931Y-74900500D01*
X224214071Y-74900500D01*
X224298615Y-74883682D01*
X224339744Y-74875501D01*
X224458127Y-74826465D01*
X224564669Y-74755276D01*
X224655276Y-74664669D01*
X224726465Y-74558127D01*
X224775501Y-74439744D01*
X224800500Y-74314069D01*
X224800500Y-74185931D01*
X224800500Y-74185928D01*
X224775502Y-74060261D01*
X224775501Y-74060260D01*
X224775501Y-74060256D01*
X224737574Y-73968692D01*
X224726466Y-73941875D01*
X224726461Y-73941866D01*
X224655276Y-73835331D01*
X224655273Y-73835327D01*
X224564672Y-73744726D01*
X224564668Y-73744723D01*
X224458133Y-73673538D01*
X224458124Y-73673533D01*
X224339744Y-73624499D01*
X224339738Y-73624497D01*
X224214071Y-73599500D01*
X224214069Y-73599500D01*
X224085931Y-73599500D01*
X224085929Y-73599500D01*
X223960261Y-73624497D01*
X223960255Y-73624499D01*
X223841875Y-73673533D01*
X223841866Y-73673538D01*
X223735331Y-73744723D01*
X223735327Y-73744726D01*
X223644726Y-73835327D01*
X223644723Y-73835331D01*
X223573538Y-73941866D01*
X223573533Y-73941875D01*
X223524499Y-74060255D01*
X223524497Y-74060261D01*
X223499500Y-74185928D01*
X223499500Y-74185931D01*
X223499500Y-74314069D01*
X223499500Y-74314071D01*
X223499499Y-74314071D01*
X221643374Y-74314071D01*
X221692776Y-74264669D01*
X221763965Y-74158127D01*
X221813001Y-74039744D01*
X221830753Y-73950500D01*
X221838000Y-73914071D01*
X221838000Y-73785928D01*
X221813002Y-73660261D01*
X221813001Y-73660260D01*
X221813001Y-73660256D01*
X221763965Y-73541873D01*
X221763964Y-73541872D01*
X221763961Y-73541866D01*
X221692776Y-73435331D01*
X221692773Y-73435327D01*
X221602172Y-73344726D01*
X221602168Y-73344723D01*
X221495633Y-73273538D01*
X221495624Y-73273533D01*
X221377244Y-73224499D01*
X221377238Y-73224497D01*
X221251571Y-73199500D01*
X221251569Y-73199500D01*
X221123431Y-73199500D01*
X221123429Y-73199500D01*
X220997761Y-73224497D01*
X220997755Y-73224499D01*
X220879375Y-73273533D01*
X220879366Y-73273538D01*
X220772831Y-73344723D01*
X220772827Y-73344726D01*
X220682226Y-73435327D01*
X220682223Y-73435331D01*
X220627993Y-73516492D01*
X220574380Y-73561297D01*
X220505055Y-73570004D01*
X220500699Y-73569218D01*
X220401571Y-73549500D01*
X220401569Y-73549500D01*
X220273431Y-73549500D01*
X220273429Y-73549500D01*
X220147761Y-73574497D01*
X220147755Y-73574499D01*
X220029375Y-73623533D01*
X220029366Y-73623538D01*
X219922831Y-73694723D01*
X219922827Y-73694726D01*
X219832226Y-73785327D01*
X219832223Y-73785331D01*
X219761038Y-73891866D01*
X219761033Y-73891875D01*
X219711999Y-74010255D01*
X219711997Y-74010261D01*
X219687000Y-74135928D01*
X219687000Y-74135931D01*
X219687000Y-74264069D01*
X219687000Y-74264071D01*
X219686999Y-74264071D01*
X208076260Y-74264071D01*
X208075502Y-74260261D01*
X208075501Y-74260260D01*
X208075501Y-74260256D01*
X208033197Y-74158126D01*
X208026468Y-74141879D01*
X208026461Y-74141866D01*
X207955276Y-74035331D01*
X207955273Y-74035327D01*
X207864672Y-73944726D01*
X207864668Y-73944723D01*
X207758133Y-73873538D01*
X207758124Y-73873533D01*
X207639744Y-73824499D01*
X207639738Y-73824497D01*
X207514071Y-73799500D01*
X207514069Y-73799500D01*
X207385931Y-73799500D01*
X207385929Y-73799500D01*
X207260261Y-73824497D01*
X207260255Y-73824499D01*
X207141875Y-73873533D01*
X207141866Y-73873538D01*
X207035331Y-73944723D01*
X207035327Y-73944726D01*
X206944726Y-74035327D01*
X206944723Y-74035331D01*
X206873538Y-74141866D01*
X206873533Y-74141875D01*
X206824499Y-74260255D01*
X206824497Y-74260261D01*
X206799500Y-74385928D01*
X206799500Y-74385931D01*
X206799500Y-74514069D01*
X206799500Y-74514071D01*
X206799499Y-74514071D01*
X183700500Y-74514071D01*
X183700500Y-72988766D01*
X185899500Y-72988766D01*
X185899500Y-73161233D01*
X185933143Y-73330366D01*
X185933146Y-73330378D01*
X185999138Y-73489698D01*
X185999145Y-73489711D01*
X186094954Y-73633098D01*
X186094957Y-73633102D01*
X186216897Y-73755042D01*
X186216901Y-73755045D01*
X186360288Y-73850854D01*
X186360301Y-73850861D01*
X186505708Y-73911090D01*
X186519626Y-73916855D01*
X186659728Y-73944723D01*
X186688766Y-73950499D01*
X186688769Y-73950500D01*
X186688771Y-73950500D01*
X187511231Y-73950500D01*
X187511232Y-73950499D01*
X187680374Y-73916855D01*
X187839705Y-73850858D01*
X187983099Y-73755045D01*
X188105045Y-73633099D01*
X188200858Y-73489705D01*
X188266855Y-73330374D01*
X188300500Y-73161229D01*
X188300500Y-72988771D01*
X188300500Y-72988768D01*
X188300499Y-72988766D01*
X188283891Y-72905273D01*
X188266855Y-72819626D01*
X188239685Y-72754031D01*
X188200861Y-72660301D01*
X188200854Y-72660288D01*
X188105045Y-72516901D01*
X188105042Y-72516897D01*
X187983102Y-72394957D01*
X187983098Y-72394954D01*
X187839711Y-72299145D01*
X187839698Y-72299138D01*
X187680378Y-72233146D01*
X187680366Y-72233143D01*
X187511232Y-72199500D01*
X187511229Y-72199500D01*
X186688771Y-72199500D01*
X186688768Y-72199500D01*
X186519633Y-72233143D01*
X186519621Y-72233146D01*
X186360301Y-72299138D01*
X186360288Y-72299145D01*
X186216901Y-72394954D01*
X186216897Y-72394957D01*
X186094957Y-72516897D01*
X186094954Y-72516901D01*
X185999145Y-72660288D01*
X185999138Y-72660301D01*
X185933146Y-72819621D01*
X185933143Y-72819633D01*
X185899500Y-72988766D01*
X183700500Y-72988766D01*
X183700500Y-70464071D01*
X188849499Y-70464071D01*
X188874497Y-70589738D01*
X188874499Y-70589744D01*
X188923533Y-70708124D01*
X188923538Y-70708133D01*
X188994723Y-70814668D01*
X188994726Y-70814672D01*
X189085327Y-70905273D01*
X189085331Y-70905276D01*
X189191866Y-70976461D01*
X189191878Y-70976468D01*
X189256313Y-71003157D01*
X189296903Y-71019970D01*
X189351306Y-71063809D01*
X189373371Y-71130103D01*
X189356092Y-71197803D01*
X189337132Y-71222210D01*
X189305889Y-71253453D01*
X189305885Y-71253458D01*
X189229228Y-71368182D01*
X189229221Y-71368195D01*
X189176421Y-71495667D01*
X189176418Y-71495677D01*
X189149500Y-71631004D01*
X189149500Y-71631007D01*
X189149500Y-71768993D01*
X189149500Y-71768995D01*
X189149499Y-71768995D01*
X189176418Y-71904322D01*
X189176421Y-71904332D01*
X189229221Y-72031804D01*
X189229228Y-72031817D01*
X189305885Y-72146541D01*
X189305888Y-72146545D01*
X189403454Y-72244111D01*
X189403458Y-72244114D01*
X189518182Y-72320771D01*
X189518195Y-72320778D01*
X189614536Y-72360683D01*
X189668940Y-72404523D01*
X189691005Y-72470817D01*
X189681645Y-72522696D01*
X189638910Y-72625868D01*
X189638907Y-72625880D01*
X189599500Y-72823992D01*
X189599500Y-73026007D01*
X189638907Y-73224119D01*
X189638909Y-73224127D01*
X189716212Y-73410752D01*
X189716217Y-73410762D01*
X189828441Y-73578718D01*
X189971281Y-73721558D01*
X190139237Y-73833782D01*
X190139241Y-73833784D01*
X190139244Y-73833786D01*
X190325873Y-73911091D01*
X190480591Y-73941866D01*
X190523992Y-73950499D01*
X190523996Y-73950500D01*
X190523997Y-73950500D01*
X191276004Y-73950500D01*
X191276005Y-73950499D01*
X191474127Y-73911091D01*
X191660756Y-73833786D01*
X191828718Y-73721558D01*
X191971558Y-73578718D01*
X192083786Y-73410756D01*
X192161091Y-73224127D01*
X192200500Y-73026003D01*
X192200500Y-72864071D01*
X197949499Y-72864071D01*
X197974497Y-72989738D01*
X197974499Y-72989744D01*
X198023533Y-73108124D01*
X198023538Y-73108133D01*
X198094723Y-73214668D01*
X198094726Y-73214672D01*
X198185327Y-73305273D01*
X198185331Y-73305276D01*
X198291866Y-73376461D01*
X198291872Y-73376464D01*
X198291873Y-73376465D01*
X198410256Y-73425501D01*
X198410260Y-73425501D01*
X198410261Y-73425502D01*
X198535928Y-73450500D01*
X198535931Y-73450500D01*
X198664071Y-73450500D01*
X198748615Y-73433682D01*
X198789744Y-73425501D01*
X198908127Y-73376465D01*
X199014669Y-73305276D01*
X199105276Y-73214669D01*
X199176465Y-73108127D01*
X199225501Y-72989744D01*
X199250500Y-72864069D01*
X199250500Y-72735931D01*
X199250500Y-72735928D01*
X199225502Y-72610261D01*
X199225501Y-72610260D01*
X199225501Y-72610256D01*
X199176465Y-72491873D01*
X199176464Y-72491872D01*
X199176461Y-72491866D01*
X199157889Y-72464071D01*
X202936999Y-72464071D01*
X202961997Y-72589738D01*
X202961999Y-72589744D01*
X203011033Y-72708124D01*
X203011038Y-72708133D01*
X203082223Y-72814668D01*
X203082226Y-72814672D01*
X203172827Y-72905273D01*
X203172831Y-72905276D01*
X203279366Y-72976461D01*
X203279372Y-72976464D01*
X203279373Y-72976465D01*
X203397756Y-73025501D01*
X203397760Y-73025501D01*
X203397761Y-73025502D01*
X203523428Y-73050500D01*
X203523431Y-73050500D01*
X203651571Y-73050500D01*
X203736115Y-73033682D01*
X203777244Y-73025501D01*
X203895627Y-72976465D01*
X204002169Y-72905276D01*
X204092776Y-72814669D01*
X204163965Y-72708127D01*
X204213001Y-72589744D01*
X204232469Y-72491875D01*
X204238000Y-72464071D01*
X204238000Y-72335928D01*
X204213002Y-72210261D01*
X204213001Y-72210260D01*
X204213001Y-72210256D01*
X204163965Y-72091873D01*
X204163964Y-72091872D01*
X204163961Y-72091866D01*
X204092776Y-71985331D01*
X204092773Y-71985327D01*
X204002172Y-71894726D01*
X204002168Y-71894723D01*
X203895633Y-71823538D01*
X203895624Y-71823533D01*
X203777244Y-71774499D01*
X203777238Y-71774497D01*
X203651571Y-71749500D01*
X203651569Y-71749500D01*
X203523431Y-71749500D01*
X203523429Y-71749500D01*
X203397761Y-71774497D01*
X203397755Y-71774499D01*
X203279375Y-71823533D01*
X203279366Y-71823538D01*
X203172831Y-71894723D01*
X203172827Y-71894726D01*
X203082226Y-71985327D01*
X203082223Y-71985331D01*
X203011038Y-72091866D01*
X203011033Y-72091875D01*
X202961999Y-72210255D01*
X202961997Y-72210261D01*
X202937000Y-72335928D01*
X202937000Y-72335931D01*
X202937000Y-72464069D01*
X202937000Y-72464071D01*
X202936999Y-72464071D01*
X199157889Y-72464071D01*
X199114229Y-72398730D01*
X199114228Y-72398729D01*
X199111706Y-72394955D01*
X199105276Y-72385331D01*
X199105274Y-72385328D01*
X199014672Y-72294726D01*
X199014668Y-72294723D01*
X198908133Y-72223538D01*
X198908124Y-72223533D01*
X198789744Y-72174499D01*
X198789738Y-72174497D01*
X198664071Y-72149500D01*
X198664069Y-72149500D01*
X198535931Y-72149500D01*
X198535929Y-72149500D01*
X198410261Y-72174497D01*
X198410255Y-72174499D01*
X198291875Y-72223533D01*
X198291866Y-72223538D01*
X198185331Y-72294723D01*
X198185327Y-72294726D01*
X198094726Y-72385327D01*
X198094723Y-72385331D01*
X198023538Y-72491866D01*
X198023533Y-72491875D01*
X197974499Y-72610255D01*
X197974497Y-72610261D01*
X197949500Y-72735928D01*
X197949500Y-72735931D01*
X197949500Y-72864069D01*
X197949500Y-72864071D01*
X197949499Y-72864071D01*
X192200500Y-72864071D01*
X192200500Y-72823997D01*
X192161091Y-72625873D01*
X192083786Y-72439244D01*
X192083784Y-72439241D01*
X192083782Y-72439237D01*
X191971558Y-72271281D01*
X191828718Y-72128441D01*
X191660762Y-72016217D01*
X191660752Y-72016212D01*
X191474127Y-71938909D01*
X191474119Y-71938907D01*
X191276007Y-71899500D01*
X191276003Y-71899500D01*
X190674459Y-71899500D01*
X190607420Y-71879815D01*
X190561665Y-71827011D01*
X190553020Y-71775085D01*
X190550500Y-71775085D01*
X190550500Y-71631004D01*
X190523581Y-71495677D01*
X190523580Y-71495676D01*
X190523580Y-71495672D01*
X190523578Y-71495667D01*
X190470778Y-71368195D01*
X190470771Y-71368182D01*
X190394114Y-71253458D01*
X190394111Y-71253454D01*
X190296545Y-71155888D01*
X190296541Y-71155885D01*
X190181817Y-71079228D01*
X190181804Y-71079221D01*
X190054327Y-71026419D01*
X190052190Y-71025771D01*
X190051208Y-71025127D01*
X190048701Y-71024089D01*
X190048898Y-71023613D01*
X189993754Y-70987469D01*
X189965302Y-70923655D01*
X189975868Y-70854588D01*
X190000518Y-70819427D01*
X190005275Y-70814670D01*
X190005276Y-70814669D01*
X190076465Y-70708127D01*
X190125501Y-70589744D01*
X190150500Y-70464069D01*
X190150500Y-70335931D01*
X190150500Y-70335928D01*
X190125502Y-70210261D01*
X190125501Y-70210260D01*
X190125501Y-70210256D01*
X190076738Y-70092531D01*
X192527185Y-70092531D01*
X192552183Y-70218198D01*
X192552185Y-70218204D01*
X192601219Y-70336584D01*
X192601224Y-70336593D01*
X192672409Y-70443128D01*
X192672412Y-70443132D01*
X192763013Y-70533733D01*
X192763017Y-70533736D01*
X192869552Y-70604921D01*
X192869558Y-70604924D01*
X192869559Y-70604925D01*
X192987942Y-70653961D01*
X192987946Y-70653961D01*
X192987947Y-70653962D01*
X193113614Y-70678960D01*
X193113617Y-70678960D01*
X193241757Y-70678960D01*
X193326301Y-70662142D01*
X193367430Y-70653961D01*
X193485813Y-70604925D01*
X193592355Y-70533736D01*
X193682962Y-70443129D01*
X193754151Y-70336587D01*
X193803187Y-70218204D01*
X193828186Y-70092529D01*
X193828186Y-69964391D01*
X193828186Y-69964388D01*
X193803188Y-69838721D01*
X193803187Y-69838720D01*
X193803187Y-69838716D01*
X193759452Y-69733130D01*
X193754152Y-69720335D01*
X193754147Y-69720326D01*
X193682962Y-69613791D01*
X193682959Y-69613787D01*
X193592358Y-69523186D01*
X193592354Y-69523183D01*
X193485819Y-69451998D01*
X193485810Y-69451993D01*
X193367430Y-69402959D01*
X193367424Y-69402957D01*
X193297615Y-69389071D01*
X196399499Y-69389071D01*
X196424497Y-69514738D01*
X196424499Y-69514744D01*
X196473533Y-69633124D01*
X196473538Y-69633133D01*
X196544723Y-69739668D01*
X196544726Y-69739672D01*
X196635327Y-69830273D01*
X196635331Y-69830276D01*
X196741866Y-69901461D01*
X196741872Y-69901464D01*
X196741873Y-69901465D01*
X196860256Y-69950501D01*
X196860260Y-69950501D01*
X196860261Y-69950502D01*
X196985928Y-69975500D01*
X196985931Y-69975500D01*
X197114071Y-69975500D01*
X197214603Y-69955502D01*
X197239744Y-69950501D01*
X197324888Y-69915233D01*
X207835273Y-69915233D01*
X207860271Y-70040900D01*
X207860273Y-70040906D01*
X207909307Y-70159286D01*
X207909312Y-70159295D01*
X207980495Y-70265828D01*
X207982744Y-70268568D01*
X207983471Y-70270282D01*
X207983882Y-70270896D01*
X207983765Y-70270973D01*
X208010053Y-70332880D01*
X207998258Y-70401747D01*
X207989989Y-70416117D01*
X207973541Y-70440733D01*
X207973534Y-70440745D01*
X207924500Y-70559125D01*
X207924498Y-70559131D01*
X207899501Y-70684798D01*
X207899501Y-70684801D01*
X207899501Y-70812939D01*
X207899501Y-70812941D01*
X207899500Y-70812941D01*
X207924498Y-70938608D01*
X207924500Y-70938614D01*
X207973534Y-71056994D01*
X207973538Y-71057001D01*
X208022300Y-71129979D01*
X208043177Y-71196656D01*
X208024692Y-71264036D01*
X208022299Y-71267759D01*
X207973539Y-71340733D01*
X207973531Y-71340747D01*
X207924497Y-71459127D01*
X207924495Y-71459133D01*
X207899498Y-71584800D01*
X207899498Y-71584803D01*
X207899498Y-71712941D01*
X207899498Y-71712943D01*
X207899497Y-71712943D01*
X207924495Y-71838610D01*
X207924497Y-71838616D01*
X207973531Y-71956996D01*
X207973536Y-71957005D01*
X208044721Y-72063540D01*
X208044724Y-72063544D01*
X208135325Y-72154145D01*
X208135329Y-72154148D01*
X208241864Y-72225333D01*
X208241873Y-72225338D01*
X208268690Y-72236446D01*
X208360254Y-72274373D01*
X208360258Y-72274373D01*
X208360259Y-72274374D01*
X208485926Y-72299372D01*
X208485929Y-72299372D01*
X208614069Y-72299372D01*
X208698613Y-72282554D01*
X208739742Y-72274373D01*
X208858125Y-72225337D01*
X208930263Y-72177135D01*
X208996939Y-72156257D01*
X209064319Y-72174741D01*
X209068045Y-72177135D01*
X209141866Y-72226461D01*
X209141872Y-72226464D01*
X209141873Y-72226465D01*
X209260256Y-72275501D01*
X209260260Y-72275501D01*
X209260261Y-72275502D01*
X209385928Y-72300500D01*
X209385931Y-72300500D01*
X209514071Y-72300500D01*
X209598615Y-72283682D01*
X209639744Y-72275501D01*
X209758127Y-72226465D01*
X209864669Y-72155276D01*
X209955276Y-72064669D01*
X210026465Y-71958127D01*
X210075501Y-71839744D01*
X210088363Y-71775085D01*
X210100500Y-71714071D01*
X210100500Y-71585928D01*
X210075502Y-71460261D01*
X210075501Y-71460260D01*
X210075501Y-71460256D01*
X210056370Y-71414071D01*
X211549499Y-71414071D01*
X211574497Y-71539738D01*
X211574499Y-71539744D01*
X211623533Y-71658124D01*
X211623538Y-71658133D01*
X211694723Y-71764668D01*
X211694726Y-71764672D01*
X211785327Y-71855273D01*
X211785331Y-71855276D01*
X211891866Y-71926461D01*
X211891872Y-71926464D01*
X211891873Y-71926465D01*
X212010256Y-71975501D01*
X212010260Y-71975501D01*
X212010261Y-71975502D01*
X212135928Y-72000500D01*
X212135931Y-72000500D01*
X212264071Y-72000500D01*
X212348615Y-71983682D01*
X212389744Y-71975501D01*
X212508127Y-71926465D01*
X212536918Y-71907227D01*
X212548000Y-71899823D01*
X212614677Y-71878945D01*
X212682057Y-71897429D01*
X212704572Y-71915244D01*
X212710753Y-71921425D01*
X212710757Y-71921428D01*
X212817292Y-71992613D01*
X212817298Y-71992616D01*
X212817299Y-71992617D01*
X212935682Y-72041653D01*
X212935686Y-72041653D01*
X212935687Y-72041654D01*
X213061354Y-72066652D01*
X213111369Y-72066652D01*
X213178408Y-72086337D01*
X213224163Y-72139141D01*
X213225930Y-72143199D01*
X213273533Y-72258123D01*
X213273538Y-72258133D01*
X213344723Y-72364668D01*
X213344726Y-72364672D01*
X213435327Y-72455273D01*
X213435331Y-72455276D01*
X213541866Y-72526461D01*
X213541872Y-72526464D01*
X213541873Y-72526465D01*
X213660256Y-72575501D01*
X213660260Y-72575501D01*
X213660261Y-72575502D01*
X213785928Y-72600500D01*
X213785931Y-72600500D01*
X213914071Y-72600500D01*
X213998615Y-72583682D01*
X214039744Y-72575501D01*
X214158127Y-72526465D01*
X214264669Y-72455276D01*
X214355276Y-72364669D01*
X214426465Y-72258127D01*
X214475501Y-72139744D01*
X214490659Y-72063541D01*
X214500500Y-72014071D01*
X214500500Y-71885928D01*
X214475502Y-71760261D01*
X214475501Y-71760260D01*
X214475501Y-71760256D01*
X214426465Y-71641873D01*
X214426464Y-71641872D01*
X214426461Y-71641866D01*
X214355276Y-71535331D01*
X214355273Y-71535327D01*
X214264672Y-71444726D01*
X214264668Y-71444723D01*
X214158133Y-71373538D01*
X214158124Y-71373533D01*
X214039744Y-71324499D01*
X214039738Y-71324497D01*
X213914071Y-71299500D01*
X213914069Y-71299500D01*
X213864057Y-71299500D01*
X213797018Y-71279815D01*
X213751263Y-71227011D01*
X213749496Y-71222953D01*
X213723525Y-71160255D01*
X213701891Y-71108025D01*
X213701889Y-71108022D01*
X213701887Y-71108018D01*
X213630702Y-71001483D01*
X213630699Y-71001479D01*
X213540098Y-70910878D01*
X213540094Y-70910875D01*
X213433559Y-70839690D01*
X213433550Y-70839685D01*
X213315170Y-70790651D01*
X213315164Y-70790649D01*
X213189497Y-70765652D01*
X213189495Y-70765652D01*
X213061357Y-70765652D01*
X213061355Y-70765652D01*
X212935687Y-70790649D01*
X212935681Y-70790651D01*
X212817301Y-70839685D01*
X212817296Y-70839688D01*
X212777423Y-70866330D01*
X212710745Y-70887206D01*
X212643365Y-70868720D01*
X212620853Y-70850907D01*
X212614672Y-70844726D01*
X212614668Y-70844723D01*
X212508133Y-70773538D01*
X212508124Y-70773533D01*
X212389744Y-70724499D01*
X212389738Y-70724497D01*
X212264071Y-70699500D01*
X212264069Y-70699500D01*
X212135931Y-70699500D01*
X212135929Y-70699500D01*
X212010261Y-70724497D01*
X212010255Y-70724499D01*
X211891875Y-70773533D01*
X211891866Y-70773538D01*
X211785331Y-70844723D01*
X211785327Y-70844726D01*
X211694726Y-70935327D01*
X211694723Y-70935331D01*
X211623538Y-71041866D01*
X211623533Y-71041875D01*
X211574499Y-71160255D01*
X211574497Y-71160261D01*
X211549500Y-71285928D01*
X211549500Y-71285931D01*
X211549500Y-71414069D01*
X211549500Y-71414071D01*
X211549499Y-71414071D01*
X210056370Y-71414071D01*
X210026465Y-71341873D01*
X210025711Y-71340745D01*
X209955276Y-71235331D01*
X209955273Y-71235327D01*
X209864672Y-71144726D01*
X209864668Y-71144723D01*
X209758133Y-71073538D01*
X209758124Y-71073533D01*
X209639744Y-71024499D01*
X209639738Y-71024497D01*
X209514071Y-70999500D01*
X209514069Y-70999500D01*
X209385931Y-70999500D01*
X209385926Y-70999500D01*
X209336236Y-71009384D01*
X209266644Y-71003157D01*
X209211467Y-70960293D01*
X209188223Y-70894403D01*
X209190427Y-70863580D01*
X209200501Y-70812939D01*
X209200501Y-70684801D01*
X209200501Y-70684798D01*
X209175503Y-70559131D01*
X209175502Y-70559130D01*
X209175502Y-70559126D01*
X209133667Y-70458127D01*
X209126467Y-70440745D01*
X209126462Y-70440736D01*
X209055274Y-70334196D01*
X209053032Y-70331464D01*
X209052305Y-70329753D01*
X209051893Y-70329136D01*
X209052010Y-70329057D01*
X209025721Y-70267153D01*
X209034232Y-70214071D01*
X223286999Y-70214071D01*
X223311997Y-70339738D01*
X223311999Y-70339744D01*
X223361033Y-70458124D01*
X223361038Y-70458133D01*
X223432223Y-70564668D01*
X223432226Y-70564672D01*
X223522827Y-70655273D01*
X223522831Y-70655276D01*
X223629366Y-70726461D01*
X223629372Y-70726464D01*
X223629373Y-70726465D01*
X223747756Y-70775501D01*
X223747760Y-70775501D01*
X223747761Y-70775502D01*
X223873428Y-70800500D01*
X223873431Y-70800500D01*
X224001571Y-70800500D01*
X224086115Y-70783682D01*
X224127244Y-70775501D01*
X224245627Y-70726465D01*
X224352169Y-70655276D01*
X224442776Y-70564669D01*
X224513965Y-70458127D01*
X224563001Y-70339744D01*
X224577704Y-70265828D01*
X224588000Y-70214071D01*
X224588000Y-70085928D01*
X224563002Y-69960261D01*
X224563001Y-69960260D01*
X224563001Y-69960256D01*
X224513965Y-69841873D01*
X224513964Y-69841872D01*
X224513961Y-69841866D01*
X224442776Y-69735331D01*
X224442773Y-69735327D01*
X224352172Y-69644726D01*
X224352168Y-69644723D01*
X224245633Y-69573538D01*
X224245624Y-69573533D01*
X224127244Y-69524499D01*
X224127238Y-69524497D01*
X224001571Y-69499500D01*
X224001569Y-69499500D01*
X223873431Y-69499500D01*
X223873429Y-69499500D01*
X223747761Y-69524497D01*
X223747755Y-69524499D01*
X223629375Y-69573533D01*
X223629366Y-69573538D01*
X223522831Y-69644723D01*
X223522827Y-69644726D01*
X223432226Y-69735327D01*
X223432223Y-69735331D01*
X223361038Y-69841866D01*
X223361033Y-69841875D01*
X223311999Y-69960255D01*
X223311997Y-69960261D01*
X223287000Y-70085928D01*
X223287000Y-70085931D01*
X223287000Y-70214069D01*
X223287000Y-70214071D01*
X223286999Y-70214071D01*
X209034232Y-70214071D01*
X209036382Y-70200665D01*
X209040432Y-70191925D01*
X209062239Y-70159289D01*
X209111275Y-70040906D01*
X209128263Y-69955502D01*
X209136274Y-69915233D01*
X209136274Y-69787093D01*
X209136273Y-69787090D01*
X209127827Y-69744629D01*
X209134053Y-69675040D01*
X209176915Y-69619862D01*
X209242804Y-69596616D01*
X209310802Y-69612683D01*
X209352546Y-69651546D01*
X209394726Y-69714672D01*
X209485327Y-69805273D01*
X209485331Y-69805276D01*
X209591866Y-69876461D01*
X209591872Y-69876464D01*
X209591873Y-69876465D01*
X209710256Y-69925501D01*
X209710260Y-69925501D01*
X209710261Y-69925502D01*
X209835928Y-69950500D01*
X209835931Y-69950500D01*
X209964071Y-69950500D01*
X210048615Y-69933682D01*
X210089744Y-69925501D01*
X210208127Y-69876465D01*
X210314669Y-69805276D01*
X210405276Y-69714669D01*
X210476465Y-69608127D01*
X210525501Y-69489744D01*
X210542764Y-69402959D01*
X210550500Y-69364071D01*
X210550500Y-69235928D01*
X210525502Y-69110261D01*
X210525501Y-69110260D01*
X210525501Y-69110256D01*
X210476465Y-68991873D01*
X210476464Y-68991872D01*
X210476461Y-68991866D01*
X210405276Y-68885331D01*
X210405273Y-68885327D01*
X210314672Y-68794726D01*
X210314668Y-68794723D01*
X210208133Y-68723538D01*
X210208124Y-68723533D01*
X210089744Y-68674499D01*
X210089738Y-68674497D01*
X209964071Y-68649500D01*
X209964069Y-68649500D01*
X209835931Y-68649500D01*
X209835929Y-68649500D01*
X209710261Y-68674497D01*
X209710255Y-68674499D01*
X209591875Y-68723533D01*
X209591866Y-68723538D01*
X209485331Y-68794723D01*
X209485327Y-68794726D01*
X209394723Y-68885330D01*
X209391947Y-68888713D01*
X209334197Y-68928042D01*
X209264353Y-68929906D01*
X209204588Y-68893713D01*
X209174484Y-68834230D01*
X209172748Y-68825501D01*
X209158328Y-68753010D01*
X209109292Y-68634627D01*
X209109291Y-68634626D01*
X209109288Y-68634620D01*
X209038103Y-68528085D01*
X209038100Y-68528081D01*
X208947499Y-68437480D01*
X208947495Y-68437477D01*
X208840960Y-68366292D01*
X208840947Y-68366285D01*
X208835602Y-68364071D01*
X212249499Y-68364071D01*
X212274497Y-68489738D01*
X212274499Y-68489744D01*
X212323533Y-68608124D01*
X212323538Y-68608133D01*
X212394723Y-68714668D01*
X212394726Y-68714672D01*
X212485327Y-68805273D01*
X212485331Y-68805276D01*
X212591866Y-68876461D01*
X212591875Y-68876466D01*
X212613268Y-68885327D01*
X212710256Y-68925501D01*
X212710260Y-68925501D01*
X212710261Y-68925502D01*
X212835928Y-68950500D01*
X212835931Y-68950500D01*
X212964070Y-68950500D01*
X213030374Y-68937310D01*
X213089744Y-68925501D01*
X213089744Y-68925500D01*
X213092689Y-68924915D01*
X213162280Y-68931142D01*
X213217458Y-68974004D01*
X213219967Y-68977618D01*
X213229488Y-68991866D01*
X213244725Y-69014671D01*
X213335327Y-69105273D01*
X213335331Y-69105276D01*
X213441866Y-69176461D01*
X213441872Y-69176464D01*
X213441873Y-69176465D01*
X213560256Y-69225501D01*
X213560260Y-69225501D01*
X213560261Y-69225502D01*
X213685928Y-69250500D01*
X213685931Y-69250500D01*
X213814071Y-69250500D01*
X213898615Y-69233682D01*
X213939744Y-69225501D01*
X214058127Y-69176465D01*
X214164669Y-69105276D01*
X214255276Y-69014669D01*
X214326465Y-68908127D01*
X214375501Y-68789744D01*
X214392304Y-68705273D01*
X214400500Y-68664071D01*
X214400500Y-68535928D01*
X214375502Y-68410261D01*
X214375501Y-68410260D01*
X214375501Y-68410256D01*
X214326465Y-68291873D01*
X214326464Y-68291872D01*
X214326461Y-68291866D01*
X214307889Y-68264071D01*
X216399499Y-68264071D01*
X216424497Y-68389738D01*
X216424499Y-68389744D01*
X216473533Y-68508124D01*
X216473538Y-68508133D01*
X216544723Y-68614668D01*
X216544726Y-68614672D01*
X216635327Y-68705273D01*
X216635331Y-68705276D01*
X216741866Y-68776461D01*
X216741872Y-68776464D01*
X216741873Y-68776465D01*
X216860256Y-68825501D01*
X216860260Y-68825501D01*
X216860261Y-68825502D01*
X216985928Y-68850500D01*
X216985931Y-68850500D01*
X217114071Y-68850500D01*
X217201376Y-68833133D01*
X217239744Y-68825501D01*
X217358127Y-68776465D01*
X217376676Y-68764071D01*
X219749499Y-68764071D01*
X219774497Y-68889738D01*
X219774499Y-68889744D01*
X219823533Y-69008124D01*
X219823538Y-69008133D01*
X219894723Y-69114668D01*
X219894726Y-69114672D01*
X219985327Y-69205273D01*
X219985331Y-69205276D01*
X220091866Y-69276461D01*
X220091872Y-69276464D01*
X220091873Y-69276465D01*
X220210256Y-69325501D01*
X220210260Y-69325501D01*
X220210261Y-69325502D01*
X220335928Y-69350500D01*
X220335931Y-69350500D01*
X220464071Y-69350500D01*
X220548615Y-69333682D01*
X220589744Y-69325501D01*
X220708127Y-69276465D01*
X220814669Y-69205276D01*
X220905276Y-69114669D01*
X220976465Y-69008127D01*
X221025501Y-68889744D01*
X221039429Y-68819724D01*
X221050500Y-68764071D01*
X221050500Y-68635928D01*
X221025502Y-68510261D01*
X221025501Y-68510260D01*
X221025501Y-68510256D01*
X220976465Y-68391873D01*
X220976464Y-68391872D01*
X220976461Y-68391866D01*
X220905276Y-68285331D01*
X220905273Y-68285327D01*
X220814672Y-68194726D01*
X220814668Y-68194723D01*
X220768794Y-68164071D01*
X223999499Y-68164071D01*
X224024497Y-68289738D01*
X224024499Y-68289744D01*
X224073533Y-68408124D01*
X224073538Y-68408133D01*
X224144723Y-68514668D01*
X224144726Y-68514672D01*
X224235327Y-68605273D01*
X224235331Y-68605276D01*
X224341866Y-68676461D01*
X224341872Y-68676464D01*
X224341873Y-68676465D01*
X224460256Y-68725501D01*
X224460260Y-68725501D01*
X224460261Y-68725502D01*
X224585928Y-68750500D01*
X224585931Y-68750500D01*
X224714071Y-68750500D01*
X224798615Y-68733682D01*
X224839744Y-68725501D01*
X224958127Y-68676465D01*
X225064669Y-68605276D01*
X225155276Y-68514669D01*
X225226465Y-68408127D01*
X225275501Y-68289744D01*
X225289998Y-68216866D01*
X225300500Y-68164071D01*
X225300500Y-68035928D01*
X225275502Y-67910261D01*
X225275501Y-67910260D01*
X225275501Y-67910256D01*
X225226465Y-67791873D01*
X225226464Y-67791872D01*
X225226461Y-67791866D01*
X225155276Y-67685331D01*
X225155273Y-67685327D01*
X225064672Y-67594726D01*
X225064668Y-67594723D01*
X224958133Y-67523538D01*
X224958124Y-67523533D01*
X224839744Y-67474499D01*
X224839738Y-67474497D01*
X224714071Y-67449500D01*
X224714069Y-67449500D01*
X224585931Y-67449500D01*
X224585929Y-67449500D01*
X224460261Y-67474497D01*
X224460255Y-67474499D01*
X224341875Y-67523533D01*
X224341866Y-67523538D01*
X224235331Y-67594723D01*
X224235327Y-67594726D01*
X224144726Y-67685327D01*
X224144723Y-67685331D01*
X224073538Y-67791866D01*
X224073533Y-67791875D01*
X224024499Y-67910255D01*
X224024497Y-67910261D01*
X223999500Y-68035928D01*
X223999500Y-68035931D01*
X223999500Y-68164069D01*
X223999500Y-68164071D01*
X223999499Y-68164071D01*
X220768794Y-68164071D01*
X220722205Y-68132941D01*
X220708133Y-68123538D01*
X220708124Y-68123533D01*
X220589744Y-68074499D01*
X220589738Y-68074497D01*
X220464071Y-68049500D01*
X220464069Y-68049500D01*
X220335931Y-68049500D01*
X220335929Y-68049500D01*
X220210261Y-68074497D01*
X220210255Y-68074499D01*
X220091875Y-68123533D01*
X220091866Y-68123538D01*
X219985331Y-68194723D01*
X219985327Y-68194726D01*
X219894726Y-68285327D01*
X219894723Y-68285331D01*
X219823538Y-68391866D01*
X219823533Y-68391875D01*
X219774499Y-68510255D01*
X219774497Y-68510261D01*
X219749500Y-68635928D01*
X219749500Y-68635931D01*
X219749500Y-68764069D01*
X219749500Y-68764071D01*
X219749499Y-68764071D01*
X217376676Y-68764071D01*
X217464669Y-68705276D01*
X217555276Y-68614669D01*
X217572381Y-68589069D01*
X217591172Y-68560948D01*
X217591173Y-68560946D01*
X217626458Y-68508138D01*
X217626461Y-68508133D01*
X217626465Y-68508127D01*
X217675501Y-68389744D01*
X217694969Y-68291875D01*
X217700500Y-68264071D01*
X217700500Y-68135928D01*
X217675502Y-68010261D01*
X217675501Y-68010260D01*
X217675501Y-68010256D01*
X217626465Y-67891873D01*
X217626464Y-67891872D01*
X217626461Y-67891866D01*
X217555276Y-67785331D01*
X217555273Y-67785327D01*
X217464672Y-67694726D01*
X217464668Y-67694723D01*
X217358133Y-67623538D01*
X217358124Y-67623533D01*
X217239744Y-67574499D01*
X217239738Y-67574497D01*
X217114071Y-67549500D01*
X217114069Y-67549500D01*
X216985931Y-67549500D01*
X216985929Y-67549500D01*
X216860261Y-67574497D01*
X216860255Y-67574499D01*
X216741875Y-67623533D01*
X216741866Y-67623538D01*
X216635331Y-67694723D01*
X216635327Y-67694726D01*
X216544726Y-67785327D01*
X216544723Y-67785331D01*
X216473538Y-67891866D01*
X216473533Y-67891875D01*
X216424499Y-68010255D01*
X216424497Y-68010261D01*
X216399500Y-68135928D01*
X216399500Y-68135931D01*
X216399500Y-68264069D01*
X216399500Y-68264071D01*
X216399499Y-68264071D01*
X214307889Y-68264071D01*
X214264229Y-68198730D01*
X214264228Y-68198729D01*
X214261553Y-68194726D01*
X214255276Y-68185331D01*
X214255274Y-68185328D01*
X214164672Y-68094726D01*
X214164668Y-68094723D01*
X214058133Y-68023538D01*
X214058124Y-68023533D01*
X213939744Y-67974499D01*
X213939738Y-67974497D01*
X213814071Y-67949500D01*
X213814069Y-67949500D01*
X213685931Y-67949500D01*
X213685929Y-67949500D01*
X213557311Y-67975084D01*
X213487719Y-67968857D01*
X213432542Y-67925994D01*
X213430017Y-67922358D01*
X213405276Y-67885331D01*
X213405273Y-67885327D01*
X213314672Y-67794726D01*
X213314668Y-67794723D01*
X213208133Y-67723538D01*
X213208124Y-67723533D01*
X213089744Y-67674499D01*
X213089738Y-67674497D01*
X212964071Y-67649500D01*
X212964069Y-67649500D01*
X212835931Y-67649500D01*
X212835929Y-67649500D01*
X212710261Y-67674497D01*
X212710255Y-67674499D01*
X212591875Y-67723533D01*
X212591866Y-67723538D01*
X212485331Y-67794723D01*
X212485327Y-67794726D01*
X212394726Y-67885327D01*
X212394723Y-67885331D01*
X212323538Y-67991866D01*
X212323533Y-67991875D01*
X212274499Y-68110255D01*
X212274497Y-68110261D01*
X212249500Y-68235928D01*
X212249500Y-68235931D01*
X212249500Y-68364069D01*
X212249500Y-68364071D01*
X212249499Y-68364071D01*
X208835602Y-68364071D01*
X208788110Y-68344400D01*
X208788109Y-68344400D01*
X208766031Y-68335255D01*
X208722571Y-68317253D01*
X208722565Y-68317251D01*
X208596898Y-68292254D01*
X208596896Y-68292254D01*
X208468758Y-68292254D01*
X208468756Y-68292254D01*
X208343088Y-68317251D01*
X208343082Y-68317253D01*
X208224702Y-68366287D01*
X208224693Y-68366292D01*
X208118158Y-68437477D01*
X208118154Y-68437480D01*
X208027553Y-68528081D01*
X208027550Y-68528085D01*
X207956365Y-68634620D01*
X207956360Y-68634629D01*
X207907326Y-68753009D01*
X207907324Y-68753015D01*
X207882327Y-68878682D01*
X207882327Y-68878685D01*
X207882327Y-69006823D01*
X207882327Y-69006825D01*
X207882326Y-69006825D01*
X207907324Y-69132492D01*
X207907326Y-69132498D01*
X207956360Y-69250878D01*
X207956365Y-69250887D01*
X207984463Y-69292938D01*
X208005341Y-69359616D01*
X207986856Y-69426996D01*
X207983752Y-69431341D01*
X207983882Y-69431428D01*
X207909312Y-69543028D01*
X207909307Y-69543037D01*
X207860273Y-69661417D01*
X207860271Y-69661423D01*
X207835274Y-69787090D01*
X207835274Y-69787093D01*
X207835274Y-69915231D01*
X207835274Y-69915233D01*
X207835273Y-69915233D01*
X197324888Y-69915233D01*
X197358127Y-69901465D01*
X197464669Y-69830276D01*
X197555276Y-69739669D01*
X197568201Y-69720326D01*
X197573691Y-69712110D01*
X197626461Y-69633133D01*
X197626461Y-69633132D01*
X197626465Y-69633127D01*
X197675501Y-69514744D01*
X197692074Y-69431428D01*
X197700500Y-69389071D01*
X197700500Y-69260928D01*
X197675502Y-69135261D01*
X197675501Y-69135260D01*
X197675501Y-69135256D01*
X197626465Y-69016873D01*
X197626464Y-69016872D01*
X197626461Y-69016866D01*
X197555276Y-68910331D01*
X197555273Y-68910327D01*
X197464672Y-68819726D01*
X197464668Y-68819723D01*
X197358133Y-68748538D01*
X197358124Y-68748533D01*
X197239744Y-68699499D01*
X197239738Y-68699497D01*
X197114071Y-68674500D01*
X197114069Y-68674500D01*
X196985931Y-68674500D01*
X196985929Y-68674500D01*
X196860261Y-68699497D01*
X196860255Y-68699499D01*
X196741875Y-68748533D01*
X196741866Y-68748538D01*
X196635331Y-68819723D01*
X196635327Y-68819726D01*
X196544726Y-68910327D01*
X196544723Y-68910331D01*
X196473538Y-69016866D01*
X196473533Y-69016875D01*
X196424499Y-69135255D01*
X196424497Y-69135261D01*
X196399500Y-69260928D01*
X196399500Y-69260931D01*
X196399500Y-69389069D01*
X196399500Y-69389071D01*
X196399499Y-69389071D01*
X193297615Y-69389071D01*
X193241757Y-69377960D01*
X193241755Y-69377960D01*
X193113617Y-69377960D01*
X193113615Y-69377960D01*
X192987947Y-69402957D01*
X192987941Y-69402959D01*
X192869561Y-69451993D01*
X192869552Y-69451998D01*
X192763017Y-69523183D01*
X192763013Y-69523186D01*
X192672412Y-69613787D01*
X192672409Y-69613791D01*
X192601224Y-69720326D01*
X192601219Y-69720335D01*
X192552185Y-69838715D01*
X192552183Y-69838721D01*
X192527186Y-69964388D01*
X192527186Y-69964391D01*
X192527186Y-70092529D01*
X192527186Y-70092531D01*
X192527185Y-70092531D01*
X190076738Y-70092531D01*
X190076465Y-70091873D01*
X190076463Y-70091869D01*
X190073569Y-70087539D01*
X190064080Y-70057242D01*
X190052983Y-70027487D01*
X190053712Y-70024135D01*
X190052687Y-70020862D01*
X190061084Y-69990244D01*
X190067835Y-69959214D01*
X190070613Y-69955502D01*
X190071168Y-69953481D01*
X190088986Y-69930960D01*
X190089663Y-69930283D01*
X190089669Y-69930279D01*
X190180276Y-69839672D01*
X190251465Y-69733130D01*
X190300501Y-69614747D01*
X190308699Y-69573533D01*
X190325500Y-69489074D01*
X190325500Y-69360931D01*
X190300502Y-69235264D01*
X190300501Y-69235263D01*
X190300501Y-69235259D01*
X190251465Y-69116876D01*
X190251462Y-69116871D01*
X190251461Y-69116869D01*
X190202699Y-69043892D01*
X190181821Y-68977215D01*
X190200305Y-68909834D01*
X190202672Y-68906150D01*
X190251465Y-68833127D01*
X190300501Y-68714744D01*
X190321709Y-68608127D01*
X190325500Y-68589071D01*
X190325500Y-68460928D01*
X190300502Y-68335261D01*
X190300501Y-68335260D01*
X190300501Y-68335256D01*
X190251465Y-68216873D01*
X190251464Y-68216872D01*
X190251461Y-68216866D01*
X190244599Y-68206596D01*
X192481974Y-68206596D01*
X192506972Y-68332263D01*
X192506974Y-68332269D01*
X192556008Y-68450649D01*
X192556013Y-68450658D01*
X192627198Y-68557193D01*
X192627201Y-68557197D01*
X192717802Y-68647798D01*
X192717806Y-68647801D01*
X192824341Y-68718986D01*
X192824350Y-68718991D01*
X192835328Y-68723538D01*
X192942731Y-68768026D01*
X192942735Y-68768026D01*
X192942736Y-68768027D01*
X193068403Y-68793025D01*
X193068406Y-68793025D01*
X193196546Y-68793025D01*
X193281090Y-68776207D01*
X193322219Y-68768026D01*
X193440602Y-68718990D01*
X193547144Y-68647801D01*
X193637751Y-68557194D01*
X193708940Y-68450652D01*
X193744803Y-68364071D01*
X197849499Y-68364071D01*
X197874497Y-68489738D01*
X197874499Y-68489744D01*
X197923533Y-68608124D01*
X197923538Y-68608133D01*
X197994723Y-68714668D01*
X197994726Y-68714672D01*
X198085327Y-68805273D01*
X198085331Y-68805276D01*
X198191866Y-68876461D01*
X198191875Y-68876466D01*
X198213268Y-68885327D01*
X198310256Y-68925501D01*
X198310260Y-68925501D01*
X198310261Y-68925502D01*
X198435928Y-68950500D01*
X198435931Y-68950500D01*
X198564071Y-68950500D01*
X198648615Y-68933682D01*
X198689744Y-68925501D01*
X198808127Y-68876465D01*
X198914669Y-68805276D01*
X198955874Y-68764071D01*
X200849499Y-68764071D01*
X200874497Y-68889738D01*
X200874499Y-68889744D01*
X200923533Y-69008124D01*
X200923538Y-69008133D01*
X200994723Y-69114668D01*
X200994726Y-69114672D01*
X201085327Y-69205273D01*
X201085331Y-69205276D01*
X201191866Y-69276461D01*
X201191872Y-69276464D01*
X201191873Y-69276465D01*
X201310256Y-69325501D01*
X201310260Y-69325501D01*
X201310261Y-69325502D01*
X201435928Y-69350500D01*
X201435931Y-69350500D01*
X201564071Y-69350500D01*
X201648615Y-69333682D01*
X201689744Y-69325501D01*
X201808127Y-69276465D01*
X201914669Y-69205276D01*
X202005276Y-69114669D01*
X202076465Y-69008127D01*
X202125501Y-68889744D01*
X202139429Y-68819724D01*
X202150500Y-68764071D01*
X202150500Y-68635928D01*
X202125502Y-68510261D01*
X202125501Y-68510260D01*
X202125501Y-68510256D01*
X202076465Y-68391873D01*
X202076464Y-68391872D01*
X202076461Y-68391866D01*
X202005276Y-68285331D01*
X202005273Y-68285327D01*
X201914672Y-68194726D01*
X201914668Y-68194723D01*
X201808133Y-68123538D01*
X201808124Y-68123533D01*
X201689744Y-68074499D01*
X201689738Y-68074497D01*
X201564071Y-68049500D01*
X201564069Y-68049500D01*
X201435931Y-68049500D01*
X201435929Y-68049500D01*
X201310261Y-68074497D01*
X201310255Y-68074499D01*
X201191875Y-68123533D01*
X201191866Y-68123538D01*
X201085331Y-68194723D01*
X201085327Y-68194726D01*
X200994726Y-68285327D01*
X200994723Y-68285331D01*
X200923538Y-68391866D01*
X200923533Y-68391875D01*
X200874499Y-68510255D01*
X200874497Y-68510261D01*
X200849500Y-68635928D01*
X200849500Y-68635931D01*
X200849500Y-68764069D01*
X200849500Y-68764071D01*
X200849499Y-68764071D01*
X198955874Y-68764071D01*
X199005276Y-68714669D01*
X199076465Y-68608127D01*
X199125501Y-68489744D01*
X199144969Y-68391875D01*
X199150500Y-68364071D01*
X199150500Y-68235928D01*
X199125502Y-68110261D01*
X199125501Y-68110260D01*
X199125501Y-68110256D01*
X199076465Y-67991873D01*
X199076464Y-67991872D01*
X199076461Y-67991866D01*
X199005276Y-67885331D01*
X199005273Y-67885327D01*
X198914672Y-67794726D01*
X198914668Y-67794723D01*
X198808133Y-67723538D01*
X198808124Y-67723533D01*
X198689744Y-67674499D01*
X198689738Y-67674497D01*
X198564071Y-67649500D01*
X198564069Y-67649500D01*
X198435931Y-67649500D01*
X198435929Y-67649500D01*
X198310261Y-67674497D01*
X198310255Y-67674499D01*
X198191875Y-67723533D01*
X198191866Y-67723538D01*
X198085331Y-67794723D01*
X198085327Y-67794726D01*
X197994726Y-67885327D01*
X197994723Y-67885331D01*
X197923538Y-67991866D01*
X197923533Y-67991875D01*
X197874499Y-68110255D01*
X197874497Y-68110261D01*
X197849500Y-68235928D01*
X197849500Y-68235931D01*
X197849500Y-68364069D01*
X197849500Y-68364071D01*
X197849499Y-68364071D01*
X193744803Y-68364071D01*
X193757976Y-68332269D01*
X193782975Y-68206594D01*
X193782975Y-68078456D01*
X193782975Y-68078453D01*
X193757977Y-67952786D01*
X193757976Y-67952785D01*
X193757976Y-67952781D01*
X193708940Y-67834398D01*
X193708939Y-67834397D01*
X193708936Y-67834391D01*
X193637751Y-67727856D01*
X193637748Y-67727852D01*
X193547147Y-67637251D01*
X193547143Y-67637248D01*
X193440608Y-67566063D01*
X193440599Y-67566058D01*
X193322219Y-67517024D01*
X193322213Y-67517022D01*
X193196546Y-67492025D01*
X193196544Y-67492025D01*
X193068406Y-67492025D01*
X193068404Y-67492025D01*
X192942736Y-67517022D01*
X192942730Y-67517024D01*
X192824350Y-67566058D01*
X192824341Y-67566063D01*
X192717806Y-67637248D01*
X192717802Y-67637251D01*
X192627201Y-67727852D01*
X192627198Y-67727856D01*
X192556013Y-67834391D01*
X192556008Y-67834400D01*
X192506974Y-67952780D01*
X192506972Y-67952786D01*
X192481975Y-68078453D01*
X192481975Y-68078456D01*
X192481975Y-68206594D01*
X192481975Y-68206596D01*
X192481974Y-68206596D01*
X190244599Y-68206596D01*
X190200939Y-68141255D01*
X190180276Y-68110330D01*
X190089672Y-68019726D01*
X190089668Y-68019723D01*
X189983133Y-67948538D01*
X189983124Y-67948533D01*
X189864744Y-67899499D01*
X189864738Y-67899497D01*
X189739071Y-67874500D01*
X189739069Y-67874500D01*
X189610931Y-67874500D01*
X189610929Y-67874500D01*
X189485261Y-67899497D01*
X189485255Y-67899499D01*
X189366875Y-67948533D01*
X189366866Y-67948538D01*
X189260331Y-68019723D01*
X189260327Y-68019726D01*
X189169726Y-68110327D01*
X189169723Y-68110331D01*
X189098538Y-68216866D01*
X189098533Y-68216875D01*
X189049499Y-68335255D01*
X189049497Y-68335261D01*
X189024500Y-68460928D01*
X189024500Y-68460931D01*
X189024500Y-68589069D01*
X189024500Y-68589071D01*
X189024499Y-68589071D01*
X189049497Y-68714738D01*
X189049499Y-68714744D01*
X189098533Y-68833124D01*
X189098538Y-68833133D01*
X189147300Y-68906110D01*
X189168178Y-68972788D01*
X189149693Y-69040168D01*
X189147301Y-69043891D01*
X189098537Y-69116871D01*
X189098533Y-69116878D01*
X189049499Y-69235258D01*
X189049497Y-69235264D01*
X189024500Y-69360931D01*
X189024500Y-69360934D01*
X189024500Y-69489072D01*
X189024500Y-69489074D01*
X189024499Y-69489074D01*
X189049497Y-69614741D01*
X189049499Y-69614747D01*
X189098533Y-69733127D01*
X189098538Y-69733136D01*
X189101436Y-69737473D01*
X189122311Y-69804152D01*
X189103824Y-69871531D01*
X189086013Y-69894041D01*
X188994723Y-69985331D01*
X188923538Y-70091866D01*
X188923533Y-70091875D01*
X188874499Y-70210255D01*
X188874497Y-70210261D01*
X188849500Y-70335928D01*
X188849500Y-70335931D01*
X188849500Y-70464069D01*
X188849500Y-70464071D01*
X188849499Y-70464071D01*
X183700500Y-70464071D01*
X183700500Y-66768995D01*
X189149499Y-66768995D01*
X189176418Y-66904322D01*
X189176421Y-66904332D01*
X189229221Y-67031804D01*
X189229228Y-67031817D01*
X189305885Y-67146541D01*
X189305888Y-67146545D01*
X189403454Y-67244111D01*
X189403458Y-67244114D01*
X189518182Y-67320771D01*
X189518195Y-67320778D01*
X189645667Y-67373578D01*
X189645672Y-67373580D01*
X189645676Y-67373580D01*
X189645677Y-67373581D01*
X189781004Y-67400500D01*
X189781007Y-67400500D01*
X189918995Y-67400500D01*
X190010041Y-67382389D01*
X190054328Y-67373580D01*
X190181811Y-67320775D01*
X190296542Y-67244114D01*
X190394114Y-67146542D01*
X190470775Y-67031811D01*
X190523580Y-66904328D01*
X190550500Y-66768993D01*
X190550500Y-66631007D01*
X190550500Y-66624915D01*
X190553290Y-66624915D01*
X190564058Y-66568041D01*
X190612108Y-66517317D01*
X190674459Y-66500500D01*
X191276004Y-66500500D01*
X191276005Y-66500499D01*
X191474127Y-66461091D01*
X191660756Y-66383786D01*
X191828718Y-66271558D01*
X191971558Y-66128718D01*
X192083786Y-65960756D01*
X192123835Y-65864071D01*
X192749499Y-65864071D01*
X192774497Y-65989738D01*
X192774499Y-65989744D01*
X192823533Y-66108124D01*
X192823538Y-66108133D01*
X192894723Y-66214668D01*
X192894726Y-66214672D01*
X192985327Y-66305273D01*
X192985331Y-66305276D01*
X193091866Y-66376461D01*
X193091872Y-66376464D01*
X193091873Y-66376465D01*
X193210256Y-66425501D01*
X193210260Y-66425501D01*
X193210261Y-66425502D01*
X193335928Y-66450500D01*
X193335931Y-66450500D01*
X193464071Y-66450500D01*
X193548615Y-66433682D01*
X193589744Y-66425501D01*
X193708127Y-66376465D01*
X193814669Y-66305276D01*
X193905276Y-66214669D01*
X193976465Y-66108127D01*
X194025501Y-65989744D01*
X194050500Y-65864069D01*
X194050500Y-65735931D01*
X194050500Y-65735928D01*
X194025502Y-65610261D01*
X194025501Y-65610260D01*
X194025501Y-65610256D01*
X193976465Y-65491873D01*
X193976464Y-65491872D01*
X193976461Y-65491866D01*
X193905276Y-65385331D01*
X193905273Y-65385327D01*
X193814672Y-65294726D01*
X193814668Y-65294723D01*
X193708133Y-65223538D01*
X193708124Y-65223533D01*
X193589744Y-65174499D01*
X193589738Y-65174497D01*
X193464071Y-65149500D01*
X193464069Y-65149500D01*
X193335931Y-65149500D01*
X193335929Y-65149500D01*
X193210261Y-65174497D01*
X193210255Y-65174499D01*
X193091875Y-65223533D01*
X193091866Y-65223538D01*
X192985331Y-65294723D01*
X192985327Y-65294726D01*
X192894726Y-65385327D01*
X192894723Y-65385331D01*
X192823538Y-65491866D01*
X192823533Y-65491875D01*
X192774499Y-65610255D01*
X192774497Y-65610261D01*
X192749500Y-65735928D01*
X192749500Y-65735931D01*
X192749500Y-65864069D01*
X192749500Y-65864071D01*
X192749499Y-65864071D01*
X192123835Y-65864071D01*
X192161091Y-65774127D01*
X192168689Y-65735928D01*
X192174713Y-65705648D01*
X192199630Y-65580378D01*
X192200500Y-65576003D01*
X192200500Y-65373997D01*
X192161091Y-65175873D01*
X192083786Y-64989244D01*
X192083784Y-64989241D01*
X192083782Y-64989237D01*
X191971558Y-64821281D01*
X191828718Y-64678441D01*
X191660762Y-64566217D01*
X191660752Y-64566212D01*
X191474127Y-64488909D01*
X191474119Y-64488907D01*
X191276007Y-64449500D01*
X191276003Y-64449500D01*
X190523997Y-64449500D01*
X190523992Y-64449500D01*
X190325880Y-64488907D01*
X190325872Y-64488909D01*
X190139247Y-64566212D01*
X190139237Y-64566217D01*
X189971281Y-64678441D01*
X189828441Y-64821281D01*
X189716217Y-64989237D01*
X189716212Y-64989247D01*
X189638909Y-65175872D01*
X189638907Y-65175880D01*
X189599500Y-65373992D01*
X189599500Y-65576007D01*
X189638907Y-65774119D01*
X189638910Y-65774131D01*
X189681645Y-65877303D01*
X189689114Y-65946772D01*
X189657838Y-66009251D01*
X189614537Y-66039316D01*
X189518192Y-66079223D01*
X189518182Y-66079228D01*
X189403458Y-66155885D01*
X189403454Y-66155888D01*
X189305888Y-66253454D01*
X189305885Y-66253458D01*
X189229228Y-66368182D01*
X189229221Y-66368195D01*
X189176421Y-66495667D01*
X189176418Y-66495677D01*
X189149500Y-66631004D01*
X189149500Y-66631007D01*
X189149500Y-66768993D01*
X189149500Y-66768995D01*
X189149499Y-66768995D01*
X183700500Y-66768995D01*
X183700500Y-65238766D01*
X185899500Y-65238766D01*
X185899500Y-65411233D01*
X185933143Y-65580366D01*
X185933146Y-65580378D01*
X185999138Y-65739698D01*
X185999145Y-65739711D01*
X186094954Y-65883098D01*
X186094957Y-65883102D01*
X186216897Y-66005042D01*
X186216901Y-66005045D01*
X186360288Y-66100854D01*
X186360301Y-66100861D01*
X186493142Y-66155885D01*
X186519626Y-66166855D01*
X186688766Y-66200499D01*
X186688769Y-66200500D01*
X186688771Y-66200500D01*
X187511231Y-66200500D01*
X187511232Y-66200499D01*
X187680374Y-66166855D01*
X187839705Y-66100858D01*
X187983099Y-66005045D01*
X188105045Y-65883099D01*
X188200858Y-65739705D01*
X188202423Y-65735928D01*
X188266853Y-65580378D01*
X188266855Y-65580374D01*
X188300500Y-65411229D01*
X188300500Y-65238771D01*
X188300500Y-65238768D01*
X188300499Y-65238766D01*
X188287989Y-65175873D01*
X188266855Y-65069626D01*
X188233557Y-64989237D01*
X188200861Y-64910301D01*
X188200854Y-64910288D01*
X188105045Y-64766901D01*
X188105042Y-64766897D01*
X187983102Y-64644957D01*
X187983098Y-64644954D01*
X187839711Y-64549145D01*
X187839698Y-64549138D01*
X187680378Y-64483146D01*
X187680366Y-64483143D01*
X187511232Y-64449500D01*
X187511229Y-64449500D01*
X186688771Y-64449500D01*
X186688768Y-64449500D01*
X186519633Y-64483143D01*
X186519621Y-64483146D01*
X186360301Y-64549138D01*
X186360288Y-64549145D01*
X186216901Y-64644954D01*
X186216897Y-64644957D01*
X186094957Y-64766897D01*
X186094954Y-64766901D01*
X185999145Y-64910288D01*
X185999138Y-64910301D01*
X185933146Y-65069621D01*
X185933143Y-65069633D01*
X185899500Y-65238766D01*
X183700500Y-65238766D01*
X183700500Y-63664071D01*
X192749499Y-63664071D01*
X192774497Y-63789738D01*
X192774499Y-63789744D01*
X192823533Y-63908124D01*
X192823538Y-63908133D01*
X192894723Y-64014668D01*
X192894726Y-64014672D01*
X192985327Y-64105273D01*
X192985331Y-64105276D01*
X193091866Y-64176461D01*
X193091872Y-64176464D01*
X193091873Y-64176465D01*
X193210256Y-64225501D01*
X193210260Y-64225501D01*
X193210261Y-64225502D01*
X193335928Y-64250500D01*
X193335931Y-64250500D01*
X193464071Y-64250500D01*
X193548615Y-64233682D01*
X193589744Y-64225501D01*
X193708127Y-64176465D01*
X193814669Y-64105276D01*
X193905276Y-64014669D01*
X193976465Y-63908127D01*
X194025501Y-63789744D01*
X194050500Y-63664069D01*
X194050500Y-63564071D01*
X207649499Y-63564071D01*
X207674497Y-63689738D01*
X207674499Y-63689744D01*
X207723533Y-63808124D01*
X207723538Y-63808133D01*
X207794723Y-63914668D01*
X207794726Y-63914672D01*
X207885327Y-64005273D01*
X207885331Y-64005276D01*
X207991866Y-64076461D01*
X207991872Y-64076464D01*
X207991873Y-64076465D01*
X208110256Y-64125501D01*
X208110260Y-64125501D01*
X208110261Y-64125502D01*
X208235928Y-64150500D01*
X208235931Y-64150500D01*
X208364071Y-64150500D01*
X208448615Y-64133682D01*
X208489744Y-64125501D01*
X208608127Y-64076465D01*
X208714669Y-64005276D01*
X208805276Y-63914669D01*
X208876465Y-63808127D01*
X208894714Y-63764071D01*
X216849499Y-63764071D01*
X216874497Y-63889738D01*
X216874499Y-63889744D01*
X216923533Y-64008124D01*
X216923538Y-64008133D01*
X216994723Y-64114668D01*
X216994726Y-64114672D01*
X217085327Y-64205273D01*
X217085331Y-64205276D01*
X217191866Y-64276461D01*
X217191872Y-64276464D01*
X217191873Y-64276465D01*
X217310256Y-64325501D01*
X217310260Y-64325501D01*
X217310261Y-64325502D01*
X217435928Y-64350500D01*
X217435931Y-64350500D01*
X217564071Y-64350500D01*
X217648615Y-64333682D01*
X217689744Y-64325501D01*
X217808127Y-64276465D01*
X217914669Y-64205276D01*
X218005276Y-64114669D01*
X218076465Y-64008127D01*
X218125501Y-63889744D01*
X218150500Y-63764069D01*
X218150500Y-63635931D01*
X218150500Y-63635928D01*
X218136206Y-63564071D01*
X219699499Y-63564071D01*
X219724497Y-63689738D01*
X219724499Y-63689744D01*
X219773533Y-63808124D01*
X219773538Y-63808133D01*
X219844723Y-63914668D01*
X219844726Y-63914672D01*
X219935327Y-64005273D01*
X219935331Y-64005276D01*
X220041866Y-64076461D01*
X220041872Y-64076464D01*
X220041873Y-64076465D01*
X220160256Y-64125501D01*
X220160260Y-64125501D01*
X220160261Y-64125502D01*
X220285928Y-64150500D01*
X220285931Y-64150500D01*
X220414071Y-64150500D01*
X220498615Y-64133682D01*
X220539744Y-64125501D01*
X220658127Y-64076465D01*
X220764669Y-64005276D01*
X220855276Y-63914669D01*
X220926465Y-63808127D01*
X220975501Y-63689744D01*
X220986206Y-63635928D01*
X221000500Y-63564071D01*
X221000500Y-63435928D01*
X220975502Y-63310261D01*
X220975501Y-63310260D01*
X220975501Y-63310256D01*
X220932017Y-63205276D01*
X220926466Y-63191875D01*
X220926461Y-63191866D01*
X220855276Y-63085331D01*
X220855273Y-63085327D01*
X220764672Y-62994726D01*
X220764668Y-62994723D01*
X220658133Y-62923538D01*
X220658124Y-62923533D01*
X220539744Y-62874499D01*
X220539738Y-62874497D01*
X220414071Y-62849500D01*
X220414069Y-62849500D01*
X220285931Y-62849500D01*
X220285929Y-62849500D01*
X220160261Y-62874497D01*
X220160255Y-62874499D01*
X220041875Y-62923533D01*
X220041866Y-62923538D01*
X219935331Y-62994723D01*
X219935327Y-62994726D01*
X219844726Y-63085327D01*
X219844723Y-63085331D01*
X219773538Y-63191866D01*
X219773533Y-63191875D01*
X219724499Y-63310255D01*
X219724497Y-63310261D01*
X219699500Y-63435928D01*
X219699500Y-63435931D01*
X219699500Y-63564069D01*
X219699500Y-63564071D01*
X219699499Y-63564071D01*
X218136206Y-63564071D01*
X218125502Y-63510261D01*
X218125501Y-63510260D01*
X218125501Y-63510256D01*
X218125499Y-63510251D01*
X218111847Y-63477291D01*
X218084082Y-63410261D01*
X218076465Y-63391873D01*
X218076463Y-63391870D01*
X218076461Y-63391866D01*
X218005276Y-63285331D01*
X218005273Y-63285327D01*
X217914672Y-63194726D01*
X217914668Y-63194723D01*
X217808133Y-63123538D01*
X217808124Y-63123533D01*
X217689744Y-63074499D01*
X217689738Y-63074497D01*
X217564071Y-63049500D01*
X217564069Y-63049500D01*
X217435931Y-63049500D01*
X217435929Y-63049500D01*
X217310261Y-63074497D01*
X217310255Y-63074499D01*
X217191875Y-63123533D01*
X217191866Y-63123538D01*
X217085331Y-63194723D01*
X217085327Y-63194726D01*
X216994726Y-63285327D01*
X216994723Y-63285331D01*
X216923538Y-63391866D01*
X216923533Y-63391875D01*
X216874499Y-63510255D01*
X216874497Y-63510261D01*
X216849500Y-63635928D01*
X216849500Y-63635931D01*
X216849500Y-63764069D01*
X216849500Y-63764071D01*
X216849499Y-63764071D01*
X208894714Y-63764071D01*
X208925501Y-63689744D01*
X208930608Y-63664069D01*
X208942230Y-63605647D01*
X208942230Y-63605646D01*
X208950499Y-63564073D01*
X208950500Y-63564071D01*
X208950500Y-63435928D01*
X208925502Y-63310261D01*
X208925501Y-63310260D01*
X208925501Y-63310256D01*
X208882017Y-63205276D01*
X208876466Y-63191875D01*
X208876461Y-63191866D01*
X208805276Y-63085331D01*
X208805273Y-63085327D01*
X208714672Y-62994726D01*
X208714668Y-62994723D01*
X208608133Y-62923538D01*
X208608124Y-62923533D01*
X208489744Y-62874499D01*
X208489738Y-62874497D01*
X208364071Y-62849500D01*
X208364069Y-62849500D01*
X208235931Y-62849500D01*
X208235929Y-62849500D01*
X208110261Y-62874497D01*
X208110255Y-62874499D01*
X207991875Y-62923533D01*
X207991866Y-62923538D01*
X207885331Y-62994723D01*
X207885327Y-62994726D01*
X207794726Y-63085327D01*
X207794723Y-63085331D01*
X207723538Y-63191866D01*
X207723533Y-63191875D01*
X207674499Y-63310255D01*
X207674497Y-63310261D01*
X207649500Y-63435928D01*
X207649500Y-63435931D01*
X207649500Y-63564069D01*
X207649500Y-63564071D01*
X207649499Y-63564071D01*
X194050500Y-63564071D01*
X194050500Y-63535931D01*
X194050500Y-63535928D01*
X194034209Y-63454031D01*
X194025502Y-63410261D01*
X194025501Y-63410260D01*
X194025501Y-63410256D01*
X193976465Y-63291873D01*
X193976464Y-63291872D01*
X193976461Y-63291866D01*
X193905276Y-63185331D01*
X193905273Y-63185327D01*
X193814672Y-63094726D01*
X193814668Y-63094723D01*
X193708133Y-63023538D01*
X193708124Y-63023533D01*
X193589744Y-62974499D01*
X193589738Y-62974497D01*
X193464071Y-62949500D01*
X193464069Y-62949500D01*
X193335931Y-62949500D01*
X193335929Y-62949500D01*
X193210261Y-62974497D01*
X193210255Y-62974499D01*
X193091875Y-63023533D01*
X193091866Y-63023538D01*
X192985331Y-63094723D01*
X192985327Y-63094726D01*
X192894726Y-63185327D01*
X192894723Y-63185331D01*
X192823538Y-63291866D01*
X192823533Y-63291875D01*
X192774499Y-63410255D01*
X192774497Y-63410261D01*
X192749500Y-63535928D01*
X192749500Y-63535931D01*
X192749500Y-63664069D01*
X192749500Y-63664071D01*
X192749499Y-63664071D01*
X183700500Y-63664071D01*
X183700500Y-62764071D01*
X189849499Y-62764071D01*
X189874497Y-62889738D01*
X189874499Y-62889744D01*
X189923533Y-63008124D01*
X189923538Y-63008133D01*
X189994723Y-63114668D01*
X189994726Y-63114672D01*
X190085327Y-63205273D01*
X190085331Y-63205276D01*
X190191866Y-63276461D01*
X190191872Y-63276464D01*
X190191873Y-63276465D01*
X190310256Y-63325501D01*
X190310260Y-63325501D01*
X190310261Y-63325502D01*
X190435928Y-63350500D01*
X190435931Y-63350500D01*
X190564071Y-63350500D01*
X190648615Y-63333682D01*
X190689744Y-63325501D01*
X190808127Y-63276465D01*
X190914669Y-63205276D01*
X191005276Y-63114669D01*
X191076465Y-63008127D01*
X191125501Y-62889744D01*
X191136737Y-62833257D01*
X191150500Y-62764071D01*
X191150500Y-62635928D01*
X191125502Y-62510261D01*
X191125501Y-62510260D01*
X191125501Y-62510256D01*
X191076465Y-62391873D01*
X191076464Y-62391871D01*
X191076461Y-62391866D01*
X191005276Y-62285331D01*
X191005273Y-62285327D01*
X190914672Y-62194726D01*
X190914668Y-62194723D01*
X190868794Y-62164071D01*
X204749499Y-62164071D01*
X204774497Y-62289738D01*
X204774499Y-62289744D01*
X204823533Y-62408124D01*
X204823538Y-62408133D01*
X204894723Y-62514668D01*
X204894726Y-62514672D01*
X204985327Y-62605273D01*
X204985331Y-62605276D01*
X205091866Y-62676461D01*
X205091872Y-62676464D01*
X205091873Y-62676465D01*
X205210256Y-62725501D01*
X205210260Y-62725501D01*
X205210261Y-62725502D01*
X205335928Y-62750500D01*
X205335931Y-62750500D01*
X205464071Y-62750500D01*
X205571168Y-62729196D01*
X205589744Y-62725501D01*
X205708127Y-62676465D01*
X205814669Y-62605276D01*
X205905276Y-62514669D01*
X205976465Y-62408127D01*
X206025501Y-62289744D01*
X206029065Y-62271826D01*
X211357254Y-62271826D01*
X211382252Y-62397493D01*
X211382254Y-62397499D01*
X211431288Y-62515879D01*
X211431291Y-62515884D01*
X211502478Y-62622423D01*
X211502481Y-62622427D01*
X211593082Y-62713028D01*
X211593086Y-62713031D01*
X211699621Y-62784216D01*
X211699627Y-62784219D01*
X211699628Y-62784220D01*
X211818011Y-62833256D01*
X211818015Y-62833256D01*
X211818016Y-62833257D01*
X211943683Y-62858255D01*
X211943686Y-62858255D01*
X212071826Y-62858255D01*
X212156370Y-62841437D01*
X212197499Y-62833256D01*
X212315882Y-62784220D01*
X212422424Y-62713031D01*
X212470377Y-62665077D01*
X212531696Y-62631594D01*
X212601387Y-62636577D01*
X212632928Y-62654723D01*
X212632996Y-62654622D01*
X212634510Y-62655633D01*
X212636718Y-62656904D01*
X212638062Y-62658007D01*
X212744596Y-62729191D01*
X212744602Y-62729194D01*
X212744603Y-62729195D01*
X212862986Y-62778231D01*
X212862990Y-62778231D01*
X212862991Y-62778232D01*
X212988658Y-62803230D01*
X212988661Y-62803230D01*
X213116801Y-62803230D01*
X213212386Y-62784216D01*
X213242474Y-62778231D01*
X213360857Y-62729195D01*
X213395168Y-62706268D01*
X213461845Y-62685389D01*
X213529225Y-62703872D01*
X213551742Y-62721688D01*
X213558032Y-62727978D01*
X213558036Y-62727981D01*
X213664571Y-62799166D01*
X213664580Y-62799171D01*
X213691397Y-62810279D01*
X213782961Y-62848206D01*
X213782965Y-62848206D01*
X213782966Y-62848207D01*
X213908633Y-62873205D01*
X213908636Y-62873205D01*
X214036776Y-62873205D01*
X214121320Y-62856387D01*
X214162449Y-62848206D01*
X214280832Y-62799170D01*
X214387374Y-62727981D01*
X214477981Y-62637374D01*
X214549170Y-62530832D01*
X214598206Y-62412449D01*
X214606387Y-62371320D01*
X214623205Y-62286776D01*
X214623205Y-62158633D01*
X214598207Y-62032966D01*
X214598206Y-62032965D01*
X214598206Y-62032961D01*
X214549170Y-61914578D01*
X214549169Y-61914577D01*
X214549166Y-61914571D01*
X214477981Y-61808036D01*
X214477978Y-61808032D01*
X214387377Y-61717431D01*
X214387373Y-61717428D01*
X214280838Y-61646243D01*
X214280829Y-61646238D01*
X214162449Y-61597204D01*
X214162443Y-61597202D01*
X214036776Y-61572205D01*
X214036774Y-61572205D01*
X213908636Y-61572205D01*
X213908634Y-61572205D01*
X213782966Y-61597202D01*
X213782960Y-61597204D01*
X213664580Y-61646238D01*
X213664566Y-61646246D01*
X213630263Y-61669167D01*
X213563586Y-61690045D01*
X213496206Y-61671560D01*
X213473692Y-61653746D01*
X213467402Y-61647456D01*
X213467398Y-61647453D01*
X213360863Y-61576268D01*
X213360854Y-61576263D01*
X213242474Y-61527229D01*
X213242468Y-61527227D01*
X213116801Y-61502230D01*
X213116799Y-61502230D01*
X212988661Y-61502230D01*
X212988659Y-61502230D01*
X212862991Y-61527227D01*
X212862985Y-61527229D01*
X212744605Y-61576263D01*
X212744596Y-61576268D01*
X212638061Y-61647453D01*
X212638056Y-61647457D01*
X212590107Y-61695406D01*
X212528784Y-61728890D01*
X212459092Y-61723905D01*
X212427557Y-61705760D01*
X212427489Y-61705863D01*
X212425960Y-61704841D01*
X212423759Y-61703575D01*
X212422419Y-61702475D01*
X212315888Y-61631293D01*
X212315879Y-61631288D01*
X212197499Y-61582254D01*
X212197493Y-61582252D01*
X212071826Y-61557255D01*
X212071824Y-61557255D01*
X211943686Y-61557255D01*
X211943684Y-61557255D01*
X211818016Y-61582252D01*
X211818010Y-61582254D01*
X211699630Y-61631288D01*
X211699621Y-61631293D01*
X211593086Y-61702478D01*
X211593082Y-61702481D01*
X211502481Y-61793082D01*
X211502478Y-61793086D01*
X211431293Y-61899621D01*
X211431288Y-61899630D01*
X211382254Y-62018010D01*
X211382252Y-62018016D01*
X211357255Y-62143683D01*
X211357255Y-62143686D01*
X211357255Y-62271824D01*
X211357255Y-62271826D01*
X211357254Y-62271826D01*
X206029065Y-62271826D01*
X206044402Y-62194724D01*
X206050500Y-62164071D01*
X206050500Y-62035928D01*
X206025502Y-61910261D01*
X206025501Y-61910260D01*
X206025501Y-61910256D01*
X205983158Y-61808032D01*
X205976466Y-61791875D01*
X205976461Y-61791866D01*
X205905276Y-61685331D01*
X205905273Y-61685327D01*
X205814672Y-61594726D01*
X205814668Y-61594723D01*
X205708133Y-61523538D01*
X205708124Y-61523533D01*
X205589744Y-61474499D01*
X205589738Y-61474497D01*
X205464071Y-61449500D01*
X205464069Y-61449500D01*
X205335931Y-61449500D01*
X205335929Y-61449500D01*
X205210261Y-61474497D01*
X205210255Y-61474499D01*
X205091875Y-61523533D01*
X205091866Y-61523538D01*
X204985331Y-61594723D01*
X204985327Y-61594726D01*
X204894726Y-61685327D01*
X204894723Y-61685331D01*
X204823538Y-61791866D01*
X204823533Y-61791875D01*
X204774499Y-61910255D01*
X204774497Y-61910261D01*
X204749500Y-62035928D01*
X204749500Y-62035931D01*
X204749500Y-62164069D01*
X204749500Y-62164071D01*
X204749499Y-62164071D01*
X190868794Y-62164071D01*
X190822205Y-62132941D01*
X190808133Y-62123538D01*
X190808124Y-62123533D01*
X190689744Y-62074499D01*
X190689738Y-62074497D01*
X190564071Y-62049500D01*
X190564069Y-62049500D01*
X190435931Y-62049500D01*
X190435929Y-62049500D01*
X190310261Y-62074497D01*
X190310255Y-62074499D01*
X190191875Y-62123533D01*
X190191866Y-62123538D01*
X190085331Y-62194723D01*
X190085327Y-62194726D01*
X189994726Y-62285327D01*
X189994723Y-62285331D01*
X189923538Y-62391866D01*
X189923536Y-62391871D01*
X189874499Y-62510255D01*
X189874497Y-62510261D01*
X189849500Y-62635928D01*
X189849500Y-62635931D01*
X189849500Y-62764069D01*
X189849500Y-62764071D01*
X189849499Y-62764071D01*
X183700500Y-62764071D01*
X183700500Y-61064071D01*
X222399499Y-61064071D01*
X222424497Y-61189738D01*
X222424499Y-61189744D01*
X222473533Y-61308124D01*
X222473538Y-61308133D01*
X222544723Y-61414668D01*
X222544726Y-61414672D01*
X222635327Y-61505273D01*
X222635331Y-61505276D01*
X222741866Y-61576461D01*
X222741872Y-61576464D01*
X222741873Y-61576465D01*
X222860256Y-61625501D01*
X222860260Y-61625501D01*
X222860261Y-61625502D01*
X222985928Y-61650500D01*
X222985931Y-61650500D01*
X223114071Y-61650500D01*
X223210626Y-61631293D01*
X223239744Y-61625501D01*
X223358127Y-61576465D01*
X223464669Y-61505276D01*
X223555276Y-61414669D01*
X223626465Y-61308127D01*
X223675501Y-61189744D01*
X223700500Y-61064069D01*
X223700500Y-60935931D01*
X223700500Y-60935928D01*
X223675502Y-60810261D01*
X223675501Y-60810260D01*
X223675501Y-60810256D01*
X223626465Y-60691873D01*
X223626464Y-60691872D01*
X223626461Y-60691866D01*
X223555276Y-60585331D01*
X223555273Y-60585327D01*
X223464672Y-60494726D01*
X223464668Y-60494723D01*
X223358133Y-60423538D01*
X223358124Y-60423533D01*
X223239744Y-60374499D01*
X223239738Y-60374497D01*
X223114071Y-60349500D01*
X223114069Y-60349500D01*
X222985931Y-60349500D01*
X222985929Y-60349500D01*
X222860261Y-60374497D01*
X222860255Y-60374499D01*
X222741875Y-60423533D01*
X222741866Y-60423538D01*
X222635331Y-60494723D01*
X222635327Y-60494726D01*
X222544726Y-60585327D01*
X222544723Y-60585331D01*
X222473538Y-60691866D01*
X222473533Y-60691875D01*
X222424499Y-60810255D01*
X222424497Y-60810261D01*
X222399500Y-60935928D01*
X222399500Y-60935931D01*
X222399500Y-61064069D01*
X222399500Y-61064071D01*
X222399499Y-61064071D01*
X183700500Y-61064071D01*
X183700500Y-59764071D01*
X202949499Y-59764071D01*
X202974497Y-59889738D01*
X202974499Y-59889744D01*
X203023533Y-60008124D01*
X203023538Y-60008133D01*
X203094723Y-60114668D01*
X203094726Y-60114672D01*
X203185327Y-60205273D01*
X203185331Y-60205276D01*
X203291866Y-60276461D01*
X203291872Y-60276464D01*
X203291873Y-60276465D01*
X203410256Y-60325501D01*
X203410260Y-60325501D01*
X203410261Y-60325502D01*
X203535928Y-60350500D01*
X203535931Y-60350500D01*
X203664071Y-60350500D01*
X203748615Y-60333682D01*
X203789744Y-60325501D01*
X203908127Y-60276465D01*
X203931109Y-60261108D01*
X203997785Y-60240230D01*
X204065165Y-60258714D01*
X204068873Y-60261096D01*
X204091873Y-60276465D01*
X204210256Y-60325501D01*
X204210260Y-60325501D01*
X204210261Y-60325502D01*
X204335928Y-60350500D01*
X204335931Y-60350500D01*
X204464071Y-60350500D01*
X204548615Y-60333682D01*
X204589744Y-60325501D01*
X204708127Y-60276465D01*
X204814669Y-60205276D01*
X204905276Y-60114669D01*
X204976465Y-60008127D01*
X204985439Y-59986463D01*
X205029280Y-59932059D01*
X205095574Y-59909994D01*
X205163273Y-59927273D01*
X205210884Y-59978410D01*
X205214561Y-59986463D01*
X205223531Y-60008120D01*
X205223538Y-60008133D01*
X205294723Y-60114668D01*
X205294726Y-60114672D01*
X205385327Y-60205273D01*
X205385331Y-60205276D01*
X205491866Y-60276461D01*
X205491872Y-60276464D01*
X205491873Y-60276465D01*
X205610256Y-60325501D01*
X205610260Y-60325501D01*
X205610261Y-60325502D01*
X205735928Y-60350500D01*
X205735931Y-60350500D01*
X205864071Y-60350500D01*
X205948615Y-60333682D01*
X205989744Y-60325501D01*
X206108127Y-60276465D01*
X206131109Y-60261108D01*
X206197785Y-60240230D01*
X206265165Y-60258714D01*
X206268873Y-60261096D01*
X206291873Y-60276465D01*
X206410256Y-60325501D01*
X206410260Y-60325501D01*
X206410261Y-60325502D01*
X206535928Y-60350500D01*
X206535931Y-60350500D01*
X206664071Y-60350500D01*
X206748615Y-60333682D01*
X206789744Y-60325501D01*
X206908127Y-60276465D01*
X207014669Y-60205276D01*
X207105276Y-60114669D01*
X207176465Y-60008127D01*
X207225501Y-59889744D01*
X207250500Y-59764071D01*
X207549499Y-59764071D01*
X207574497Y-59889738D01*
X207574499Y-59889744D01*
X207623533Y-60008124D01*
X207623538Y-60008133D01*
X207694723Y-60114668D01*
X207694726Y-60114672D01*
X207785327Y-60205273D01*
X207785331Y-60205276D01*
X207891866Y-60276461D01*
X207891872Y-60276464D01*
X207891873Y-60276465D01*
X208010256Y-60325501D01*
X208010260Y-60325501D01*
X208010261Y-60325502D01*
X208135928Y-60350500D01*
X208135931Y-60350500D01*
X208264071Y-60350500D01*
X208348615Y-60333682D01*
X208389744Y-60325501D01*
X208508127Y-60276465D01*
X208531109Y-60261108D01*
X208597785Y-60240230D01*
X208665165Y-60258714D01*
X208668873Y-60261096D01*
X208691873Y-60276465D01*
X208810256Y-60325501D01*
X208810260Y-60325501D01*
X208810261Y-60325502D01*
X208935928Y-60350500D01*
X208935931Y-60350500D01*
X209064071Y-60350500D01*
X209148615Y-60333682D01*
X209189744Y-60325501D01*
X209308127Y-60276465D01*
X209414669Y-60205276D01*
X209505276Y-60114669D01*
X209576465Y-60008127D01*
X209625501Y-59889744D01*
X209650500Y-59764069D01*
X209650500Y-59635931D01*
X209650500Y-59635928D01*
X209625502Y-59510261D01*
X209625501Y-59510260D01*
X209625501Y-59510256D01*
X209576465Y-59391873D01*
X209576464Y-59391872D01*
X209576461Y-59391866D01*
X209505276Y-59285331D01*
X209505273Y-59285327D01*
X209414672Y-59194726D01*
X209414668Y-59194723D01*
X209308133Y-59123538D01*
X209308124Y-59123533D01*
X209189744Y-59074499D01*
X209189738Y-59074497D01*
X209064071Y-59049500D01*
X209064069Y-59049500D01*
X208935931Y-59049500D01*
X208935929Y-59049500D01*
X208810261Y-59074497D01*
X208810255Y-59074499D01*
X208691872Y-59123534D01*
X208668888Y-59138892D01*
X208602210Y-59159768D01*
X208534830Y-59141282D01*
X208531112Y-59138892D01*
X208508127Y-59123534D01*
X208389744Y-59074499D01*
X208389738Y-59074497D01*
X208264071Y-59049500D01*
X208264069Y-59049500D01*
X208135931Y-59049500D01*
X208135929Y-59049500D01*
X208010261Y-59074497D01*
X208010255Y-59074499D01*
X207891875Y-59123533D01*
X207891866Y-59123538D01*
X207785331Y-59194723D01*
X207785327Y-59194726D01*
X207694726Y-59285327D01*
X207694723Y-59285331D01*
X207623538Y-59391866D01*
X207623533Y-59391875D01*
X207574499Y-59510255D01*
X207574497Y-59510261D01*
X207549500Y-59635928D01*
X207549500Y-59635931D01*
X207549500Y-59764069D01*
X207549500Y-59764071D01*
X207549499Y-59764071D01*
X207250500Y-59764071D01*
X207250500Y-59764069D01*
X207250500Y-59635931D01*
X207250500Y-59635928D01*
X207225502Y-59510261D01*
X207225501Y-59510260D01*
X207225501Y-59510256D01*
X207176465Y-59391873D01*
X207176464Y-59391872D01*
X207176461Y-59391866D01*
X207105276Y-59285331D01*
X207105273Y-59285327D01*
X207014672Y-59194726D01*
X207014668Y-59194723D01*
X206908133Y-59123538D01*
X206908124Y-59123533D01*
X206789744Y-59074499D01*
X206789738Y-59074497D01*
X206664071Y-59049500D01*
X206664069Y-59049500D01*
X206535931Y-59049500D01*
X206535929Y-59049500D01*
X206410261Y-59074497D01*
X206410255Y-59074499D01*
X206291872Y-59123534D01*
X206268888Y-59138892D01*
X206202210Y-59159768D01*
X206134830Y-59141282D01*
X206131112Y-59138892D01*
X206108127Y-59123534D01*
X205989744Y-59074499D01*
X205989738Y-59074497D01*
X205864071Y-59049500D01*
X205864069Y-59049500D01*
X205735931Y-59049500D01*
X205735929Y-59049500D01*
X205610261Y-59074497D01*
X205610255Y-59074499D01*
X205491875Y-59123533D01*
X205491866Y-59123538D01*
X205385331Y-59194723D01*
X205385327Y-59194726D01*
X205294726Y-59285327D01*
X205294723Y-59285331D01*
X205223538Y-59391866D01*
X205223535Y-59391873D01*
X205214561Y-59413538D01*
X205170719Y-59467941D01*
X205104425Y-59490005D01*
X205036726Y-59472725D01*
X204989116Y-59421588D01*
X204985439Y-59413538D01*
X204985138Y-59412812D01*
X204976465Y-59391873D01*
X204976462Y-59391868D01*
X204976461Y-59391866D01*
X204905276Y-59285331D01*
X204905273Y-59285327D01*
X204814672Y-59194726D01*
X204814668Y-59194723D01*
X204708133Y-59123538D01*
X204708124Y-59123533D01*
X204589744Y-59074499D01*
X204589738Y-59074497D01*
X204464071Y-59049500D01*
X204464069Y-59049500D01*
X204335931Y-59049500D01*
X204335929Y-59049500D01*
X204210261Y-59074497D01*
X204210255Y-59074499D01*
X204091872Y-59123534D01*
X204068888Y-59138892D01*
X204002210Y-59159768D01*
X203934830Y-59141282D01*
X203931112Y-59138892D01*
X203908127Y-59123534D01*
X203789744Y-59074499D01*
X203789738Y-59074497D01*
X203664071Y-59049500D01*
X203664069Y-59049500D01*
X203535931Y-59049500D01*
X203535929Y-59049500D01*
X203410261Y-59074497D01*
X203410255Y-59074499D01*
X203291875Y-59123533D01*
X203291866Y-59123538D01*
X203185331Y-59194723D01*
X203185327Y-59194726D01*
X203094726Y-59285327D01*
X203094723Y-59285331D01*
X203023538Y-59391866D01*
X203023533Y-59391875D01*
X202974499Y-59510255D01*
X202974497Y-59510261D01*
X202949500Y-59635928D01*
X202949500Y-59635931D01*
X202949500Y-59764069D01*
X202949500Y-59764071D01*
X202949499Y-59764071D01*
X183700500Y-59764071D01*
X183700500Y-56030131D01*
X189349500Y-56030131D01*
X189349500Y-57219856D01*
X189349502Y-57219882D01*
X189352413Y-57244987D01*
X189352415Y-57244991D01*
X189397793Y-57347764D01*
X189409931Y-57359902D01*
X189443416Y-57421225D01*
X189438432Y-57490917D01*
X189436811Y-57495035D01*
X189382185Y-57626913D01*
X189382182Y-57626925D01*
X189349500Y-57791228D01*
X189349500Y-57958771D01*
X189382182Y-58123074D01*
X189382184Y-58123082D01*
X189446295Y-58277860D01*
X189539373Y-58417162D01*
X189657837Y-58535626D01*
X189713152Y-58572586D01*
X189797137Y-58628703D01*
X189951918Y-58692816D01*
X190116228Y-58725499D01*
X190116232Y-58725500D01*
X190116233Y-58725500D01*
X190283768Y-58725500D01*
X190283769Y-58725499D01*
X190448082Y-58692816D01*
X190602863Y-58628703D01*
X190742162Y-58535626D01*
X190860626Y-58417162D01*
X190953703Y-58277863D01*
X191017816Y-58123082D01*
X191050500Y-57958767D01*
X191050500Y-57791233D01*
X191017816Y-57626918D01*
X190963187Y-57495035D01*
X190961430Y-57478691D01*
X190954794Y-57463650D01*
X190957772Y-57444670D01*
X190955719Y-57425568D01*
X190963177Y-57410233D01*
X190965627Y-57394625D01*
X190982264Y-57370990D01*
X190985089Y-57365182D01*
X190987500Y-57362470D01*
X191002206Y-57347765D01*
X191003811Y-57344128D01*
X191012874Y-57333938D01*
X191036121Y-57319417D01*
X191057354Y-57302083D01*
X191065326Y-57301174D01*
X191072133Y-57296923D01*
X191099544Y-57297275D01*
X191126775Y-57294173D01*
X191139227Y-57297786D01*
X191141997Y-57297822D01*
X191144068Y-57299190D01*
X191152984Y-57301778D01*
X191210256Y-57325501D01*
X191210260Y-57325501D01*
X191210261Y-57325502D01*
X191335928Y-57350500D01*
X191335931Y-57350500D01*
X191464071Y-57350500D01*
X191548615Y-57333682D01*
X191589744Y-57325501D01*
X191708127Y-57276465D01*
X191814669Y-57205276D01*
X191905276Y-57114669D01*
X191976465Y-57008127D01*
X192025501Y-56889744D01*
X192030608Y-56864071D01*
X194049499Y-56864071D01*
X194074497Y-56989738D01*
X194074499Y-56989744D01*
X194123534Y-57108127D01*
X194138892Y-57131112D01*
X194159768Y-57197790D01*
X194141282Y-57265170D01*
X194138892Y-57268888D01*
X194123534Y-57291872D01*
X194074499Y-57410255D01*
X194074497Y-57410261D01*
X194049500Y-57535928D01*
X194049500Y-57535931D01*
X194049500Y-57664069D01*
X194049500Y-57664071D01*
X194049499Y-57664071D01*
X194074497Y-57789738D01*
X194074499Y-57789744D01*
X194123533Y-57908124D01*
X194123538Y-57908133D01*
X194194723Y-58014668D01*
X194194726Y-58014672D01*
X194285327Y-58105273D01*
X194285331Y-58105276D01*
X194391866Y-58176461D01*
X194391872Y-58176464D01*
X194391873Y-58176465D01*
X194510256Y-58225501D01*
X194510260Y-58225501D01*
X194510261Y-58225502D01*
X194635928Y-58250500D01*
X194635931Y-58250500D01*
X194764071Y-58250500D01*
X194848615Y-58233682D01*
X194889744Y-58225501D01*
X195008127Y-58176465D01*
X195114669Y-58105276D01*
X195205276Y-58014669D01*
X195276465Y-57908127D01*
X195294714Y-57864071D01*
X201949499Y-57864071D01*
X201974497Y-57989738D01*
X201974499Y-57989744D01*
X202023533Y-58108124D01*
X202023538Y-58108133D01*
X202094723Y-58214668D01*
X202094726Y-58214672D01*
X202185327Y-58305273D01*
X202185331Y-58305276D01*
X202291866Y-58376461D01*
X202291872Y-58376464D01*
X202291873Y-58376465D01*
X202410256Y-58425501D01*
X202410260Y-58425501D01*
X202410261Y-58425502D01*
X202535928Y-58450500D01*
X202535931Y-58450500D01*
X202664071Y-58450500D01*
X202748615Y-58433682D01*
X202789744Y-58425501D01*
X202908127Y-58376465D01*
X203014669Y-58305276D01*
X203105276Y-58214669D01*
X203176465Y-58108127D01*
X203225501Y-57989744D01*
X203246427Y-57884547D01*
X203250500Y-57864071D01*
X203250500Y-57735928D01*
X203225502Y-57610261D01*
X203225501Y-57610260D01*
X203225501Y-57610256D01*
X203176465Y-57491873D01*
X203176464Y-57491872D01*
X203176461Y-57491866D01*
X203105276Y-57385331D01*
X203105273Y-57385327D01*
X203014672Y-57294726D01*
X203014668Y-57294723D01*
X202908133Y-57223538D01*
X202908124Y-57223533D01*
X202789744Y-57174499D01*
X202789738Y-57174497D01*
X202664071Y-57149500D01*
X202664069Y-57149500D01*
X202535931Y-57149500D01*
X202535929Y-57149500D01*
X202410261Y-57174497D01*
X202410255Y-57174499D01*
X202291875Y-57223533D01*
X202291866Y-57223538D01*
X202185331Y-57294723D01*
X202185327Y-57294726D01*
X202094726Y-57385327D01*
X202094723Y-57385331D01*
X202023538Y-57491866D01*
X202023533Y-57491875D01*
X201974499Y-57610255D01*
X201974497Y-57610261D01*
X201949500Y-57735928D01*
X201949500Y-57735931D01*
X201949500Y-57864069D01*
X201949500Y-57864071D01*
X201949499Y-57864071D01*
X195294714Y-57864071D01*
X195325501Y-57789744D01*
X195329550Y-57769387D01*
X195342230Y-57705647D01*
X195342230Y-57705646D01*
X195350499Y-57664073D01*
X195350500Y-57664071D01*
X195350500Y-57535928D01*
X195325502Y-57410261D01*
X195325501Y-57410260D01*
X195325501Y-57410256D01*
X195276465Y-57291873D01*
X195261108Y-57268890D01*
X195240230Y-57202215D01*
X195258714Y-57134835D01*
X195261096Y-57131126D01*
X195276465Y-57108127D01*
X195325501Y-56989744D01*
X195347305Y-56880131D01*
X212524500Y-56880131D01*
X212524500Y-58319856D01*
X212524502Y-58319882D01*
X212527413Y-58344987D01*
X212527415Y-58344991D01*
X212572793Y-58447764D01*
X212572794Y-58447765D01*
X212652235Y-58527206D01*
X212755009Y-58572585D01*
X212780135Y-58575500D01*
X214219864Y-58575499D01*
X214219879Y-58575497D01*
X214219882Y-58575497D01*
X214244987Y-58572586D01*
X214244988Y-58572585D01*
X214244991Y-58572585D01*
X214347765Y-58527206D01*
X214427206Y-58447765D01*
X214472585Y-58344991D01*
X214475500Y-58319865D01*
X214475499Y-58231351D01*
X214495183Y-58164316D01*
X214547986Y-58118560D01*
X214617145Y-58108616D01*
X214680701Y-58137640D01*
X214702601Y-58162462D01*
X214742282Y-58221848D01*
X214878151Y-58357717D01*
X214878155Y-58357720D01*
X215037927Y-58464477D01*
X215037928Y-58464477D01*
X215037929Y-58464478D01*
X215037931Y-58464479D01*
X215215452Y-58538010D01*
X215215457Y-58538012D01*
X215403907Y-58575497D01*
X215403917Y-58575499D01*
X215403920Y-58575500D01*
X215403922Y-58575500D01*
X215596080Y-58575500D01*
X215596081Y-58575499D01*
X215784543Y-58538012D01*
X215962073Y-58464477D01*
X216121845Y-58357720D01*
X216257720Y-58221845D01*
X216364477Y-58062073D01*
X216384111Y-58014672D01*
X216385439Y-58011467D01*
X216429280Y-57957063D01*
X216495574Y-57934998D01*
X216563273Y-57952277D01*
X216610884Y-58003414D01*
X216614561Y-58011467D01*
X216635520Y-58062068D01*
X216635521Y-58062070D01*
X216742279Y-58221844D01*
X216742282Y-58221848D01*
X216878151Y-58357717D01*
X216878155Y-58357720D01*
X217037927Y-58464477D01*
X217037928Y-58464477D01*
X217037929Y-58464478D01*
X217037931Y-58464479D01*
X217215452Y-58538010D01*
X217215457Y-58538012D01*
X217403907Y-58575497D01*
X217403917Y-58575499D01*
X217403920Y-58575500D01*
X217403922Y-58575500D01*
X217596080Y-58575500D01*
X217596081Y-58575499D01*
X217784543Y-58538012D01*
X217962073Y-58464477D01*
X218121845Y-58357720D01*
X218257720Y-58221845D01*
X218364477Y-58062073D01*
X218384111Y-58014672D01*
X218385439Y-58011467D01*
X218429280Y-57957063D01*
X218495574Y-57934998D01*
X218563273Y-57952277D01*
X218610884Y-58003414D01*
X218614561Y-58011467D01*
X218635520Y-58062068D01*
X218635521Y-58062070D01*
X218742279Y-58221844D01*
X218742282Y-58221848D01*
X218878151Y-58357717D01*
X218878155Y-58357720D01*
X219037927Y-58464477D01*
X219037928Y-58464477D01*
X219037929Y-58464478D01*
X219037931Y-58464479D01*
X219215452Y-58538010D01*
X219215457Y-58538012D01*
X219403907Y-58575497D01*
X219403917Y-58575499D01*
X219403920Y-58575500D01*
X219403922Y-58575500D01*
X219596080Y-58575500D01*
X219596081Y-58575499D01*
X219784543Y-58538012D01*
X219962073Y-58464477D01*
X220121845Y-58357720D01*
X220257720Y-58221845D01*
X220364477Y-58062073D01*
X220384111Y-58014672D01*
X220385439Y-58011467D01*
X220429280Y-57957063D01*
X220495574Y-57934998D01*
X220563273Y-57952277D01*
X220610884Y-58003414D01*
X220614561Y-58011467D01*
X220635520Y-58062068D01*
X220635521Y-58062070D01*
X220742279Y-58221844D01*
X220742282Y-58221848D01*
X220878151Y-58357717D01*
X220878155Y-58357720D01*
X221037927Y-58464477D01*
X221037928Y-58464477D01*
X221037929Y-58464478D01*
X221037931Y-58464479D01*
X221215452Y-58538010D01*
X221215457Y-58538012D01*
X221403907Y-58575497D01*
X221403917Y-58575499D01*
X221403920Y-58575500D01*
X221403922Y-58575500D01*
X221596080Y-58575500D01*
X221596081Y-58575499D01*
X221784543Y-58538012D01*
X221962073Y-58464477D01*
X222121845Y-58357720D01*
X222257720Y-58221845D01*
X222364477Y-58062073D01*
X222384111Y-58014672D01*
X222385439Y-58011467D01*
X222429280Y-57957063D01*
X222495574Y-57934998D01*
X222563273Y-57952277D01*
X222610884Y-58003414D01*
X222614561Y-58011467D01*
X222635520Y-58062068D01*
X222635521Y-58062070D01*
X222742279Y-58221844D01*
X222742282Y-58221848D01*
X222878151Y-58357717D01*
X222878155Y-58357720D01*
X223037927Y-58464477D01*
X223037928Y-58464477D01*
X223037929Y-58464478D01*
X223037931Y-58464479D01*
X223215452Y-58538010D01*
X223215457Y-58538012D01*
X223403907Y-58575497D01*
X223403917Y-58575499D01*
X223403920Y-58575500D01*
X223403922Y-58575500D01*
X223596080Y-58575500D01*
X223596081Y-58575499D01*
X223784543Y-58538012D01*
X223962073Y-58464477D01*
X224121845Y-58357720D01*
X224257720Y-58221845D01*
X224364477Y-58062073D01*
X224384111Y-58014672D01*
X224385439Y-58011467D01*
X224429280Y-57957063D01*
X224495574Y-57934998D01*
X224563273Y-57952277D01*
X224610884Y-58003414D01*
X224614561Y-58011467D01*
X224635520Y-58062068D01*
X224635521Y-58062070D01*
X224742279Y-58221844D01*
X224742282Y-58221848D01*
X224878151Y-58357717D01*
X224878155Y-58357720D01*
X225037927Y-58464477D01*
X225037928Y-58464477D01*
X225037929Y-58464478D01*
X225037931Y-58464479D01*
X225215452Y-58538010D01*
X225215457Y-58538012D01*
X225403907Y-58575497D01*
X225403917Y-58575499D01*
X225403920Y-58575500D01*
X225403922Y-58575500D01*
X225596080Y-58575500D01*
X225596081Y-58575499D01*
X225784543Y-58538012D01*
X225962073Y-58464477D01*
X226121845Y-58357720D01*
X226257720Y-58221845D01*
X226364477Y-58062073D01*
X226438012Y-57884543D01*
X226475500Y-57696078D01*
X226475500Y-57503922D01*
X226475500Y-57503919D01*
X226475499Y-57503917D01*
X226459914Y-57425568D01*
X226438012Y-57315457D01*
X226432472Y-57302083D01*
X226364479Y-57137931D01*
X226364478Y-57137929D01*
X226359920Y-57131108D01*
X226257720Y-56978155D01*
X226257717Y-56978151D01*
X226121848Y-56842282D01*
X226121844Y-56842279D01*
X225962070Y-56735521D01*
X225962068Y-56735520D01*
X225784547Y-56661989D01*
X225784535Y-56661986D01*
X225596081Y-56624500D01*
X225596078Y-56624500D01*
X225403922Y-56624500D01*
X225403919Y-56624500D01*
X225215464Y-56661986D01*
X225215452Y-56661989D01*
X225037931Y-56735520D01*
X225037929Y-56735521D01*
X224878155Y-56842279D01*
X224878151Y-56842282D01*
X224742282Y-56978151D01*
X224742279Y-56978155D01*
X224635521Y-57137929D01*
X224614561Y-57188533D01*
X224570720Y-57242936D01*
X224504426Y-57265001D01*
X224436726Y-57247722D01*
X224389116Y-57196584D01*
X224385439Y-57188533D01*
X224364478Y-57137929D01*
X224359920Y-57131108D01*
X224257720Y-56978155D01*
X224257717Y-56978151D01*
X224121848Y-56842282D01*
X224121844Y-56842279D01*
X223962070Y-56735521D01*
X223962068Y-56735520D01*
X223784547Y-56661989D01*
X223784535Y-56661986D01*
X223596081Y-56624500D01*
X223596078Y-56624500D01*
X223403922Y-56624500D01*
X223403919Y-56624500D01*
X223215464Y-56661986D01*
X223215452Y-56661989D01*
X223037931Y-56735520D01*
X223037929Y-56735521D01*
X222878155Y-56842279D01*
X222878151Y-56842282D01*
X222742282Y-56978151D01*
X222742279Y-56978155D01*
X222635521Y-57137929D01*
X222614561Y-57188533D01*
X222570720Y-57242936D01*
X222504426Y-57265001D01*
X222436726Y-57247722D01*
X222389116Y-57196584D01*
X222385439Y-57188533D01*
X222364478Y-57137929D01*
X222359920Y-57131108D01*
X222257720Y-56978155D01*
X222257717Y-56978151D01*
X222121848Y-56842282D01*
X222121844Y-56842279D01*
X221962070Y-56735521D01*
X221962068Y-56735520D01*
X221784547Y-56661989D01*
X221784535Y-56661986D01*
X221596081Y-56624500D01*
X221596078Y-56624500D01*
X221403922Y-56624500D01*
X221403919Y-56624500D01*
X221215464Y-56661986D01*
X221215452Y-56661989D01*
X221037931Y-56735520D01*
X221037929Y-56735521D01*
X220878155Y-56842279D01*
X220878151Y-56842282D01*
X220742282Y-56978151D01*
X220742279Y-56978155D01*
X220635521Y-57137929D01*
X220614561Y-57188533D01*
X220570720Y-57242936D01*
X220504426Y-57265001D01*
X220436726Y-57247722D01*
X220389116Y-57196584D01*
X220385439Y-57188533D01*
X220364478Y-57137929D01*
X220359920Y-57131108D01*
X220257720Y-56978155D01*
X220257717Y-56978151D01*
X220121848Y-56842282D01*
X220121844Y-56842279D01*
X219962070Y-56735521D01*
X219962068Y-56735520D01*
X219784547Y-56661989D01*
X219784535Y-56661986D01*
X219596081Y-56624500D01*
X219596078Y-56624500D01*
X219403922Y-56624500D01*
X219403919Y-56624500D01*
X219215464Y-56661986D01*
X219215452Y-56661989D01*
X219037931Y-56735520D01*
X219037929Y-56735521D01*
X218878155Y-56842279D01*
X218878151Y-56842282D01*
X218742282Y-56978151D01*
X218742279Y-56978155D01*
X218635521Y-57137929D01*
X218614561Y-57188533D01*
X218570720Y-57242936D01*
X218504426Y-57265001D01*
X218436726Y-57247722D01*
X218389116Y-57196584D01*
X218385439Y-57188533D01*
X218364478Y-57137929D01*
X218359920Y-57131108D01*
X218257720Y-56978155D01*
X218257717Y-56978151D01*
X218121848Y-56842282D01*
X218121844Y-56842279D01*
X217962070Y-56735521D01*
X217962068Y-56735520D01*
X217784547Y-56661989D01*
X217784535Y-56661986D01*
X217596081Y-56624500D01*
X217596078Y-56624500D01*
X217403922Y-56624500D01*
X217403919Y-56624500D01*
X217215464Y-56661986D01*
X217215452Y-56661989D01*
X217037931Y-56735520D01*
X217037929Y-56735521D01*
X216878155Y-56842279D01*
X216878151Y-56842282D01*
X216742282Y-56978151D01*
X216742279Y-56978155D01*
X216635521Y-57137929D01*
X216614561Y-57188533D01*
X216570720Y-57242936D01*
X216504426Y-57265001D01*
X216436726Y-57247722D01*
X216389116Y-57196584D01*
X216385439Y-57188533D01*
X216364478Y-57137929D01*
X216359920Y-57131108D01*
X216257720Y-56978155D01*
X216257717Y-56978151D01*
X216121848Y-56842282D01*
X216121844Y-56842279D01*
X215962070Y-56735521D01*
X215962068Y-56735520D01*
X215784547Y-56661989D01*
X215784535Y-56661986D01*
X215596081Y-56624500D01*
X215596078Y-56624500D01*
X215403922Y-56624500D01*
X215403919Y-56624500D01*
X215215464Y-56661986D01*
X215215452Y-56661989D01*
X215037931Y-56735520D01*
X215037929Y-56735521D01*
X214878155Y-56842279D01*
X214878151Y-56842282D01*
X214742282Y-56978151D01*
X214742279Y-56978155D01*
X214702601Y-57037538D01*
X214648989Y-57082343D01*
X214579664Y-57091050D01*
X214516636Y-57060895D01*
X214479917Y-57001452D01*
X214475499Y-56968647D01*
X214475499Y-56880143D01*
X214475499Y-56880136D01*
X214475497Y-56880117D01*
X214472586Y-56855012D01*
X214472585Y-56855010D01*
X214472585Y-56855009D01*
X214427206Y-56752235D01*
X214347765Y-56672794D01*
X214323287Y-56661986D01*
X214244992Y-56627415D01*
X214219865Y-56624500D01*
X212780143Y-56624500D01*
X212780117Y-56624502D01*
X212755012Y-56627413D01*
X212755008Y-56627415D01*
X212652235Y-56672793D01*
X212572794Y-56752234D01*
X212527415Y-56855006D01*
X212527415Y-56855008D01*
X212524500Y-56880131D01*
X195347305Y-56880131D01*
X195350500Y-56864069D01*
X195350500Y-56735931D01*
X195350500Y-56735928D01*
X195325502Y-56610261D01*
X195325501Y-56610260D01*
X195325501Y-56610256D01*
X195276465Y-56491873D01*
X195276464Y-56491872D01*
X195276461Y-56491866D01*
X195205276Y-56385331D01*
X195205273Y-56385327D01*
X195114672Y-56294726D01*
X195114668Y-56294723D01*
X195008133Y-56223538D01*
X195008124Y-56223533D01*
X194889744Y-56174499D01*
X194889738Y-56174497D01*
X194764071Y-56149500D01*
X194764069Y-56149500D01*
X194635931Y-56149500D01*
X194635929Y-56149500D01*
X194510261Y-56174497D01*
X194510255Y-56174499D01*
X194391875Y-56223533D01*
X194391866Y-56223538D01*
X194285331Y-56294723D01*
X194285327Y-56294726D01*
X194194726Y-56385327D01*
X194194723Y-56385331D01*
X194123538Y-56491866D01*
X194123533Y-56491875D01*
X194074499Y-56610255D01*
X194074497Y-56610261D01*
X194049500Y-56735928D01*
X194049500Y-56735931D01*
X194049500Y-56864069D01*
X194049500Y-56864071D01*
X194049499Y-56864071D01*
X192030608Y-56864071D01*
X192050500Y-56764069D01*
X192050500Y-56635931D01*
X192050500Y-56635928D01*
X192025502Y-56510261D01*
X192025501Y-56510260D01*
X192025501Y-56510256D01*
X191976465Y-56391873D01*
X191927699Y-56318890D01*
X191906822Y-56252214D01*
X191925306Y-56184834D01*
X191927700Y-56181109D01*
X191948820Y-56149500D01*
X191976465Y-56108127D01*
X192025501Y-55989744D01*
X192042908Y-55902235D01*
X192050500Y-55864071D01*
X192050500Y-55735928D01*
X192025502Y-55610261D01*
X192025501Y-55610260D01*
X192025501Y-55610256D01*
X191982017Y-55505276D01*
X191976466Y-55491875D01*
X191976461Y-55491866D01*
X191905276Y-55385331D01*
X191905273Y-55385327D01*
X191814672Y-55294726D01*
X191814668Y-55294723D01*
X191708133Y-55223538D01*
X191708124Y-55223533D01*
X191589744Y-55174499D01*
X191589738Y-55174497D01*
X191464071Y-55149500D01*
X191464069Y-55149500D01*
X191335931Y-55149500D01*
X191335929Y-55149500D01*
X191210261Y-55174497D01*
X191210255Y-55174499D01*
X191091875Y-55223533D01*
X191091866Y-55223538D01*
X190985331Y-55294723D01*
X190985327Y-55294726D01*
X190894726Y-55385327D01*
X190894723Y-55385331D01*
X190823538Y-55491866D01*
X190823533Y-55491875D01*
X190774499Y-55610255D01*
X190774497Y-55610261D01*
X190761681Y-55674692D01*
X190729296Y-55736603D01*
X190668580Y-55771177D01*
X190640064Y-55774500D01*
X189605143Y-55774500D01*
X189605117Y-55774502D01*
X189580012Y-55777413D01*
X189580008Y-55777415D01*
X189477235Y-55822793D01*
X189397794Y-55902234D01*
X189352415Y-56005006D01*
X189352415Y-56005008D01*
X189349500Y-56030131D01*
X183700500Y-56030131D01*
X183700500Y-52664071D01*
X194849499Y-52664071D01*
X194874497Y-52789738D01*
X194874499Y-52789744D01*
X194923534Y-52908127D01*
X194938892Y-52931112D01*
X194959768Y-52997790D01*
X194941282Y-53065170D01*
X194938892Y-53068888D01*
X194923534Y-53091872D01*
X194874499Y-53210255D01*
X194874497Y-53210261D01*
X194849500Y-53335928D01*
X194849500Y-53335931D01*
X194849500Y-53464069D01*
X194849500Y-53464071D01*
X194849499Y-53464071D01*
X194874497Y-53589738D01*
X194874499Y-53589744D01*
X194923533Y-53708124D01*
X194923538Y-53708133D01*
X194994723Y-53814668D01*
X194994726Y-53814672D01*
X195085327Y-53905273D01*
X195085335Y-53905279D01*
X195196938Y-53979850D01*
X195196233Y-53980905D01*
X195241367Y-54025235D01*
X195256833Y-54093371D01*
X195254692Y-54109828D01*
X195249500Y-54135931D01*
X195249500Y-54264069D01*
X195249500Y-54264071D01*
X195249499Y-54264071D01*
X195274497Y-54389738D01*
X195274499Y-54389744D01*
X195323534Y-54508127D01*
X195338892Y-54531112D01*
X195359768Y-54597790D01*
X195341282Y-54665170D01*
X195338892Y-54668888D01*
X195323534Y-54691872D01*
X195274499Y-54810255D01*
X195274497Y-54810261D01*
X195249500Y-54935928D01*
X195249500Y-54935931D01*
X195249500Y-55064069D01*
X195249500Y-55064071D01*
X195249499Y-55064071D01*
X195274497Y-55189738D01*
X195274499Y-55189744D01*
X195323533Y-55308124D01*
X195323538Y-55308133D01*
X195394723Y-55414668D01*
X195394726Y-55414672D01*
X195485327Y-55505273D01*
X195485331Y-55505276D01*
X195591866Y-55576461D01*
X195591872Y-55576464D01*
X195591873Y-55576465D01*
X195710256Y-55625501D01*
X195710260Y-55625501D01*
X195710261Y-55625502D01*
X195835928Y-55650500D01*
X195835931Y-55650500D01*
X195964071Y-55650500D01*
X196048615Y-55633682D01*
X196089744Y-55625501D01*
X196208127Y-55576465D01*
X196314669Y-55505276D01*
X196405276Y-55414669D01*
X196476465Y-55308127D01*
X196525501Y-55189744D01*
X196550500Y-55064069D01*
X196550500Y-54935931D01*
X196550500Y-54935928D01*
X196525502Y-54810261D01*
X196525501Y-54810260D01*
X196525501Y-54810256D01*
X196476465Y-54691873D01*
X196461108Y-54668890D01*
X196440230Y-54602215D01*
X196458714Y-54534835D01*
X196461096Y-54531126D01*
X196476465Y-54508127D01*
X196525501Y-54389744D01*
X196550500Y-54264069D01*
X196550500Y-54135931D01*
X196550500Y-54135928D01*
X196525502Y-54010261D01*
X196525501Y-54010260D01*
X196525501Y-54010256D01*
X196482017Y-53905276D01*
X196476466Y-53891875D01*
X196476461Y-53891866D01*
X196405276Y-53785331D01*
X196405273Y-53785327D01*
X196314672Y-53694726D01*
X196314668Y-53694723D01*
X196203062Y-53620150D01*
X196203765Y-53619097D01*
X196158623Y-53574748D01*
X196143167Y-53506609D01*
X196145309Y-53490164D01*
X196150500Y-53464072D01*
X196150500Y-53335928D01*
X196125502Y-53210261D01*
X196125501Y-53210260D01*
X196125501Y-53210256D01*
X196076465Y-53091873D01*
X196061108Y-53068890D01*
X196040230Y-53002215D01*
X196058714Y-52934835D01*
X196061096Y-52931126D01*
X196076465Y-52908127D01*
X196125501Y-52789744D01*
X196150500Y-52664069D01*
X196150500Y-52535931D01*
X196150500Y-52535928D01*
X196125502Y-52410261D01*
X196125501Y-52410260D01*
X196125501Y-52410256D01*
X196076465Y-52291873D01*
X196076464Y-52291872D01*
X196076461Y-52291866D01*
X196005276Y-52185331D01*
X196005273Y-52185327D01*
X195914672Y-52094726D01*
X195914668Y-52094723D01*
X195808133Y-52023538D01*
X195808124Y-52023533D01*
X195689744Y-51974499D01*
X195689738Y-51974497D01*
X195564071Y-51949500D01*
X195564069Y-51949500D01*
X195435931Y-51949500D01*
X195435929Y-51949500D01*
X195310261Y-51974497D01*
X195310255Y-51974499D01*
X195191875Y-52023533D01*
X195191866Y-52023538D01*
X195085331Y-52094723D01*
X195085327Y-52094726D01*
X194994726Y-52185327D01*
X194994723Y-52185331D01*
X194923538Y-52291866D01*
X194923533Y-52291875D01*
X194874499Y-52410255D01*
X194874497Y-52410261D01*
X194849500Y-52535928D01*
X194849500Y-52535931D01*
X194849500Y-52664069D01*
X194849500Y-52664071D01*
X194849499Y-52664071D01*
X183700500Y-52664071D01*
X183700500Y-47480131D01*
X189274500Y-47480131D01*
X189274500Y-48919856D01*
X189274502Y-48919882D01*
X189277413Y-48944987D01*
X189277415Y-48944991D01*
X189322793Y-49047764D01*
X189322794Y-49047765D01*
X189402235Y-49127206D01*
X189505009Y-49172585D01*
X189530135Y-49175500D01*
X190969864Y-49175499D01*
X190969879Y-49175497D01*
X190969882Y-49175497D01*
X190994987Y-49172586D01*
X190994988Y-49172585D01*
X190994991Y-49172585D01*
X191097765Y-49127206D01*
X191177206Y-49047765D01*
X191222585Y-48944991D01*
X191225500Y-48919865D01*
X191225499Y-47480136D01*
X191225499Y-47480135D01*
X191225499Y-47480131D01*
X197524500Y-47480131D01*
X197524500Y-48919856D01*
X197524502Y-48919882D01*
X197527413Y-48944987D01*
X197527415Y-48944991D01*
X197572793Y-49047764D01*
X197572794Y-49047765D01*
X197652235Y-49127206D01*
X197755009Y-49172585D01*
X197780135Y-49175500D01*
X199219864Y-49175499D01*
X199219879Y-49175497D01*
X199219882Y-49175497D01*
X199244987Y-49172586D01*
X199244988Y-49172585D01*
X199244991Y-49172585D01*
X199347765Y-49127206D01*
X199427206Y-49047765D01*
X199472585Y-48944991D01*
X199475500Y-48919865D01*
X199475499Y-47480136D01*
X199475499Y-47480135D01*
X199475499Y-47480131D01*
X205924500Y-47480131D01*
X205924500Y-48919856D01*
X205924502Y-48919882D01*
X205927413Y-48944987D01*
X205927415Y-48944991D01*
X205972793Y-49047764D01*
X205972794Y-49047765D01*
X206052235Y-49127206D01*
X206155009Y-49172585D01*
X206180135Y-49175500D01*
X207619864Y-49175499D01*
X207619879Y-49175497D01*
X207619882Y-49175497D01*
X207644987Y-49172586D01*
X207644988Y-49172585D01*
X207644991Y-49172585D01*
X207747765Y-49127206D01*
X207827206Y-49047765D01*
X207872585Y-48944991D01*
X207875500Y-48919865D01*
X207875499Y-47480136D01*
X207875499Y-47480135D01*
X207875499Y-47480131D01*
X214224500Y-47480131D01*
X214224500Y-48919856D01*
X214224502Y-48919882D01*
X214227413Y-48944987D01*
X214227415Y-48944991D01*
X214272793Y-49047764D01*
X214272794Y-49047765D01*
X214352235Y-49127206D01*
X214455009Y-49172585D01*
X214480135Y-49175500D01*
X215919864Y-49175499D01*
X215919879Y-49175497D01*
X215919882Y-49175497D01*
X215944987Y-49172586D01*
X215944988Y-49172585D01*
X215944991Y-49172585D01*
X216047765Y-49127206D01*
X216127206Y-49047765D01*
X216172585Y-48944991D01*
X216175500Y-48919865D01*
X216175499Y-47480136D01*
X216175499Y-47480135D01*
X216175499Y-47480131D01*
X222424500Y-47480131D01*
X222424500Y-48919856D01*
X222424502Y-48919882D01*
X222427413Y-48944987D01*
X222427415Y-48944991D01*
X222472793Y-49047764D01*
X222472794Y-49047765D01*
X222552235Y-49127206D01*
X222655009Y-49172585D01*
X222680135Y-49175500D01*
X224119864Y-49175499D01*
X224119879Y-49175497D01*
X224119882Y-49175497D01*
X224144987Y-49172586D01*
X224144988Y-49172585D01*
X224144991Y-49172585D01*
X224247765Y-49127206D01*
X224327206Y-49047765D01*
X224372585Y-48944991D01*
X224375500Y-48919865D01*
X224375499Y-47480136D01*
X224375497Y-47480117D01*
X224372586Y-47455012D01*
X224372585Y-47455010D01*
X224372585Y-47455009D01*
X224327206Y-47352235D01*
X224247765Y-47272794D01*
X224247763Y-47272793D01*
X224144992Y-47227415D01*
X224119865Y-47224500D01*
X222680143Y-47224500D01*
X222680117Y-47224502D01*
X222655012Y-47227413D01*
X222655008Y-47227415D01*
X222552235Y-47272793D01*
X222472794Y-47352234D01*
X222427415Y-47455006D01*
X222427415Y-47455008D01*
X222424500Y-47480131D01*
X216175499Y-47480131D01*
X216175499Y-47480130D01*
X216172586Y-47455012D01*
X216172585Y-47455010D01*
X216172585Y-47455009D01*
X216127206Y-47352235D01*
X216047765Y-47272794D01*
X216047763Y-47272793D01*
X215944992Y-47227415D01*
X215919865Y-47224500D01*
X214480143Y-47224500D01*
X214480117Y-47224502D01*
X214455012Y-47227413D01*
X214455008Y-47227415D01*
X214352235Y-47272793D01*
X214272794Y-47352234D01*
X214227415Y-47455006D01*
X214227415Y-47455008D01*
X214224500Y-47480131D01*
X207875499Y-47480131D01*
X207875499Y-47480130D01*
X207872586Y-47455012D01*
X207872585Y-47455010D01*
X207872585Y-47455009D01*
X207827206Y-47352235D01*
X207747765Y-47272794D01*
X207747763Y-47272793D01*
X207644992Y-47227415D01*
X207619865Y-47224500D01*
X206180143Y-47224500D01*
X206180117Y-47224502D01*
X206155012Y-47227413D01*
X206155008Y-47227415D01*
X206052235Y-47272793D01*
X205972794Y-47352234D01*
X205927415Y-47455006D01*
X205927415Y-47455008D01*
X205924500Y-47480131D01*
X199475499Y-47480131D01*
X199475499Y-47480130D01*
X199472586Y-47455012D01*
X199472585Y-47455010D01*
X199472585Y-47455009D01*
X199427206Y-47352235D01*
X199347765Y-47272794D01*
X199347763Y-47272793D01*
X199244992Y-47227415D01*
X199219865Y-47224500D01*
X197780143Y-47224500D01*
X197780117Y-47224502D01*
X197755012Y-47227413D01*
X197755008Y-47227415D01*
X197652235Y-47272793D01*
X197572794Y-47352234D01*
X197527415Y-47455006D01*
X197527415Y-47455008D01*
X197524500Y-47480131D01*
X191225499Y-47480131D01*
X191225499Y-47480130D01*
X191222586Y-47455012D01*
X191222585Y-47455010D01*
X191222585Y-47455009D01*
X191177206Y-47352235D01*
X191097765Y-47272794D01*
X191097763Y-47272793D01*
X190994992Y-47227415D01*
X190969865Y-47224500D01*
X189530143Y-47224500D01*
X189530117Y-47224502D01*
X189505012Y-47227413D01*
X189505008Y-47227415D01*
X189402235Y-47272793D01*
X189322794Y-47352234D01*
X189277415Y-47455006D01*
X189277415Y-47455008D01*
X189274500Y-47480131D01*
X183700500Y-47480131D01*
X183700500Y-45226524D01*
X188527027Y-45226524D01*
X188527027Y-45226525D01*
X188550007Y-45241879D01*
X188722894Y-45313491D01*
X188722902Y-45313493D01*
X188906428Y-45349999D01*
X188906431Y-45350000D01*
X189093569Y-45350000D01*
X189093571Y-45349999D01*
X189277097Y-45313493D01*
X189277105Y-45313491D01*
X189449992Y-45241879D01*
X189449998Y-45241876D01*
X189472971Y-45226525D01*
X189472972Y-45226524D01*
X196827027Y-45226524D01*
X196827027Y-45226525D01*
X196850007Y-45241879D01*
X197022894Y-45313491D01*
X197022902Y-45313493D01*
X197206428Y-45349999D01*
X197206431Y-45350000D01*
X197393569Y-45350000D01*
X197393571Y-45349999D01*
X197577097Y-45313493D01*
X197577105Y-45313491D01*
X197749992Y-45241879D01*
X197749998Y-45241876D01*
X197772971Y-45226525D01*
X197772972Y-45226524D01*
X205127027Y-45226524D01*
X205127027Y-45226525D01*
X205150007Y-45241879D01*
X205322894Y-45313491D01*
X205322902Y-45313493D01*
X205506428Y-45349999D01*
X205506431Y-45350000D01*
X205693569Y-45350000D01*
X205693571Y-45349999D01*
X205877097Y-45313493D01*
X205877105Y-45313491D01*
X206049992Y-45241879D01*
X206049998Y-45241876D01*
X206072971Y-45226525D01*
X206072972Y-45226524D01*
X213427027Y-45226524D01*
X213427027Y-45226525D01*
X213450007Y-45241879D01*
X213622894Y-45313491D01*
X213622902Y-45313493D01*
X213806428Y-45349999D01*
X213806431Y-45350000D01*
X213993569Y-45350000D01*
X213993571Y-45349999D01*
X214177097Y-45313493D01*
X214177105Y-45313491D01*
X214349992Y-45241879D01*
X214349998Y-45241876D01*
X214372971Y-45226525D01*
X214372972Y-45226524D01*
X221727027Y-45226524D01*
X221727027Y-45226525D01*
X221750007Y-45241879D01*
X221922894Y-45313491D01*
X221922902Y-45313493D01*
X222106428Y-45349999D01*
X222106431Y-45350000D01*
X222293569Y-45350000D01*
X222293571Y-45349999D01*
X222477097Y-45313493D01*
X222477105Y-45313491D01*
X222649992Y-45241879D01*
X222649998Y-45241876D01*
X222672971Y-45226525D01*
X222672972Y-45226524D01*
X222200001Y-44753553D01*
X222200000Y-44753553D01*
X221727027Y-45226524D01*
X214372972Y-45226524D01*
X213900001Y-44753553D01*
X213900000Y-44753553D01*
X213427027Y-45226524D01*
X206072972Y-45226524D01*
X205600001Y-44753553D01*
X205600000Y-44753553D01*
X205127027Y-45226524D01*
X197772972Y-45226524D01*
X197300001Y-44753553D01*
X197300000Y-44753553D01*
X196827027Y-45226524D01*
X189472972Y-45226524D01*
X189000001Y-44753553D01*
X189000000Y-44753553D01*
X188527027Y-45226524D01*
X183700500Y-45226524D01*
X183700500Y-44306428D01*
X188050000Y-44306428D01*
X188050000Y-44493571D01*
X188086506Y-44677097D01*
X188086508Y-44677105D01*
X188158119Y-44849990D01*
X188158126Y-44850002D01*
X188173473Y-44872971D01*
X188173474Y-44872972D01*
X188646446Y-44400001D01*
X188646446Y-44399999D01*
X188591746Y-44345299D01*
X188725000Y-44345299D01*
X188725000Y-44454701D01*
X188766866Y-44555775D01*
X188844225Y-44633134D01*
X188945299Y-44675000D01*
X189054701Y-44675000D01*
X189155775Y-44633134D01*
X189233134Y-44555775D01*
X189275000Y-44454701D01*
X189275000Y-44399999D01*
X189353553Y-44399999D01*
X189353553Y-44400000D01*
X189490787Y-44537234D01*
X189524272Y-44598557D01*
X189524723Y-44600722D01*
X189528340Y-44618909D01*
X189528342Y-44618915D01*
X189584912Y-44755488D01*
X189584919Y-44755501D01*
X189667048Y-44878415D01*
X189667051Y-44878419D01*
X189771580Y-44982948D01*
X189771584Y-44982951D01*
X189894498Y-45065080D01*
X189894511Y-45065087D01*
X190031082Y-45121656D01*
X190031087Y-45121658D01*
X190031091Y-45121658D01*
X190031092Y-45121659D01*
X190176079Y-45150500D01*
X190176082Y-45150500D01*
X190323920Y-45150500D01*
X190421462Y-45131096D01*
X190468913Y-45121658D01*
X190603880Y-45065753D01*
X190605488Y-45065087D01*
X190605488Y-45065086D01*
X190605495Y-45065084D01*
X190728416Y-44982951D01*
X190728419Y-44982948D01*
X190787319Y-44924049D01*
X190848642Y-44890564D01*
X190918334Y-44895548D01*
X190962681Y-44924049D01*
X191021580Y-44982948D01*
X191021584Y-44982951D01*
X191144498Y-45065080D01*
X191144511Y-45065087D01*
X191281082Y-45121656D01*
X191281087Y-45121658D01*
X191281091Y-45121658D01*
X191281092Y-45121659D01*
X191426079Y-45150500D01*
X191426082Y-45150500D01*
X191573920Y-45150500D01*
X191671462Y-45131096D01*
X191718913Y-45121658D01*
X191776531Y-45097791D01*
X191853881Y-45065753D01*
X191853882Y-45065752D01*
X191855495Y-45065084D01*
X191978416Y-44982951D01*
X192082951Y-44878416D01*
X192165084Y-44755495D01*
X192221658Y-44618913D01*
X192250500Y-44473918D01*
X192250500Y-44326082D01*
X192250499Y-44326079D01*
X192250193Y-44324538D01*
X192250193Y-44324536D01*
X192250192Y-44324533D01*
X192246591Y-44306428D01*
X196350000Y-44306428D01*
X196350000Y-44493571D01*
X196386506Y-44677097D01*
X196386508Y-44677105D01*
X196458119Y-44849990D01*
X196458126Y-44850002D01*
X196473473Y-44872971D01*
X196473474Y-44872972D01*
X196946446Y-44400001D01*
X196946446Y-44399999D01*
X196891746Y-44345299D01*
X197025000Y-44345299D01*
X197025000Y-44454701D01*
X197066866Y-44555775D01*
X197144225Y-44633134D01*
X197245299Y-44675000D01*
X197354701Y-44675000D01*
X197455775Y-44633134D01*
X197533134Y-44555775D01*
X197575000Y-44454701D01*
X197575000Y-44399999D01*
X197653553Y-44399999D01*
X197653553Y-44400000D01*
X197790787Y-44537234D01*
X197824272Y-44598557D01*
X197824723Y-44600722D01*
X197828340Y-44618909D01*
X197828342Y-44618915D01*
X197884912Y-44755488D01*
X197884919Y-44755501D01*
X197967048Y-44878415D01*
X197967051Y-44878419D01*
X198071580Y-44982948D01*
X198071584Y-44982951D01*
X198194498Y-45065080D01*
X198194511Y-45065087D01*
X198331082Y-45121656D01*
X198331087Y-45121658D01*
X198331091Y-45121658D01*
X198331092Y-45121659D01*
X198476079Y-45150500D01*
X198476082Y-45150500D01*
X198623920Y-45150500D01*
X198721462Y-45131096D01*
X198768913Y-45121658D01*
X198903880Y-45065753D01*
X198905488Y-45065087D01*
X198905488Y-45065086D01*
X198905495Y-45065084D01*
X199028416Y-44982951D01*
X199028419Y-44982948D01*
X199087319Y-44924049D01*
X199148642Y-44890564D01*
X199218334Y-44895548D01*
X199262681Y-44924049D01*
X199321580Y-44982948D01*
X199321584Y-44982951D01*
X199444498Y-45065080D01*
X199444511Y-45065087D01*
X199581082Y-45121656D01*
X199581087Y-45121658D01*
X199581091Y-45121658D01*
X199581092Y-45121659D01*
X199726079Y-45150500D01*
X199726082Y-45150500D01*
X199873920Y-45150500D01*
X199971462Y-45131096D01*
X200018913Y-45121658D01*
X200076531Y-45097791D01*
X200153881Y-45065753D01*
X200153882Y-45065752D01*
X200155495Y-45065084D01*
X200278416Y-44982951D01*
X200382951Y-44878416D01*
X200465084Y-44755495D01*
X200521658Y-44618913D01*
X200550500Y-44473918D01*
X200550500Y-44326082D01*
X200550499Y-44326079D01*
X200550193Y-44324538D01*
X200550193Y-44324536D01*
X200550192Y-44324533D01*
X200546591Y-44306428D01*
X204650000Y-44306428D01*
X204650000Y-44493571D01*
X204686506Y-44677097D01*
X204686508Y-44677105D01*
X204758119Y-44849990D01*
X204758126Y-44850002D01*
X204773473Y-44872971D01*
X204773474Y-44872972D01*
X205246446Y-44400001D01*
X205246446Y-44399999D01*
X205191746Y-44345299D01*
X205325000Y-44345299D01*
X205325000Y-44454701D01*
X205366866Y-44555775D01*
X205444225Y-44633134D01*
X205545299Y-44675000D01*
X205654701Y-44675000D01*
X205755775Y-44633134D01*
X205833134Y-44555775D01*
X205875000Y-44454701D01*
X205875000Y-44399999D01*
X205953553Y-44399999D01*
X205953553Y-44400000D01*
X206090787Y-44537234D01*
X206124272Y-44598557D01*
X206124723Y-44600722D01*
X206128340Y-44618909D01*
X206128342Y-44618915D01*
X206184912Y-44755488D01*
X206184919Y-44755501D01*
X206267048Y-44878415D01*
X206267051Y-44878419D01*
X206371580Y-44982948D01*
X206371584Y-44982951D01*
X206494498Y-45065080D01*
X206494511Y-45065087D01*
X206631082Y-45121656D01*
X206631087Y-45121658D01*
X206631091Y-45121658D01*
X206631092Y-45121659D01*
X206776079Y-45150500D01*
X206776082Y-45150500D01*
X206923920Y-45150500D01*
X207021462Y-45131096D01*
X207068913Y-45121658D01*
X207203880Y-45065753D01*
X207205488Y-45065087D01*
X207205488Y-45065086D01*
X207205495Y-45065084D01*
X207328416Y-44982951D01*
X207328419Y-44982948D01*
X207387319Y-44924049D01*
X207448642Y-44890564D01*
X207518334Y-44895548D01*
X207562681Y-44924049D01*
X207621580Y-44982948D01*
X207621584Y-44982951D01*
X207744498Y-45065080D01*
X207744511Y-45065087D01*
X207881082Y-45121656D01*
X207881087Y-45121658D01*
X207881091Y-45121658D01*
X207881092Y-45121659D01*
X208026079Y-45150500D01*
X208026082Y-45150500D01*
X208173920Y-45150500D01*
X208271462Y-45131096D01*
X208318913Y-45121658D01*
X208376531Y-45097791D01*
X208453881Y-45065753D01*
X208453882Y-45065752D01*
X208455495Y-45065084D01*
X208578416Y-44982951D01*
X208682951Y-44878416D01*
X208765084Y-44755495D01*
X208821658Y-44618913D01*
X208850500Y-44473918D01*
X208850500Y-44326082D01*
X208850499Y-44326079D01*
X208850193Y-44324538D01*
X208850193Y-44324536D01*
X208850192Y-44324533D01*
X208846591Y-44306428D01*
X212950000Y-44306428D01*
X212950000Y-44493571D01*
X212986506Y-44677097D01*
X212986508Y-44677105D01*
X213058119Y-44849990D01*
X213058126Y-44850002D01*
X213073473Y-44872971D01*
X213073474Y-44872972D01*
X213546446Y-44400001D01*
X213546446Y-44399999D01*
X213491746Y-44345299D01*
X213625000Y-44345299D01*
X213625000Y-44454701D01*
X213666866Y-44555775D01*
X213744225Y-44633134D01*
X213845299Y-44675000D01*
X213954701Y-44675000D01*
X214055775Y-44633134D01*
X214133134Y-44555775D01*
X214175000Y-44454701D01*
X214175000Y-44399999D01*
X214253553Y-44399999D01*
X214253553Y-44400000D01*
X214390787Y-44537234D01*
X214424272Y-44598557D01*
X214424723Y-44600722D01*
X214428340Y-44618909D01*
X214428342Y-44618915D01*
X214484912Y-44755488D01*
X214484919Y-44755501D01*
X214567048Y-44878415D01*
X214567051Y-44878419D01*
X214671580Y-44982948D01*
X214671584Y-44982951D01*
X214794498Y-45065080D01*
X214794511Y-45065087D01*
X214931082Y-45121656D01*
X214931087Y-45121658D01*
X214931091Y-45121658D01*
X214931092Y-45121659D01*
X215076079Y-45150500D01*
X215076082Y-45150500D01*
X215223920Y-45150500D01*
X215321462Y-45131096D01*
X215368913Y-45121658D01*
X215503880Y-45065753D01*
X215505488Y-45065087D01*
X215505488Y-45065086D01*
X215505495Y-45065084D01*
X215628416Y-44982951D01*
X215628419Y-44982948D01*
X215687319Y-44924049D01*
X215748642Y-44890564D01*
X215818334Y-44895548D01*
X215862681Y-44924049D01*
X215921580Y-44982948D01*
X215921584Y-44982951D01*
X216044498Y-45065080D01*
X216044511Y-45065087D01*
X216181082Y-45121656D01*
X216181087Y-45121658D01*
X216181091Y-45121658D01*
X216181092Y-45121659D01*
X216326079Y-45150500D01*
X216326082Y-45150500D01*
X216473920Y-45150500D01*
X216571462Y-45131096D01*
X216618913Y-45121658D01*
X216676531Y-45097791D01*
X216753881Y-45065753D01*
X216753882Y-45065752D01*
X216755495Y-45065084D01*
X216878416Y-44982951D01*
X216982951Y-44878416D01*
X217065084Y-44755495D01*
X217121658Y-44618913D01*
X217150500Y-44473918D01*
X217150500Y-44326082D01*
X217150499Y-44326079D01*
X217150193Y-44324538D01*
X217150193Y-44324536D01*
X217150192Y-44324533D01*
X217146591Y-44306428D01*
X221250000Y-44306428D01*
X221250000Y-44493571D01*
X221286506Y-44677097D01*
X221286508Y-44677105D01*
X221358119Y-44849990D01*
X221358126Y-44850002D01*
X221373473Y-44872971D01*
X221373474Y-44872972D01*
X221846446Y-44400001D01*
X221846446Y-44399999D01*
X221791746Y-44345299D01*
X221925000Y-44345299D01*
X221925000Y-44454701D01*
X221966866Y-44555775D01*
X222044225Y-44633134D01*
X222145299Y-44675000D01*
X222254701Y-44675000D01*
X222355775Y-44633134D01*
X222433134Y-44555775D01*
X222475000Y-44454701D01*
X222475000Y-44399999D01*
X222553553Y-44399999D01*
X222553553Y-44400000D01*
X222690787Y-44537234D01*
X222724272Y-44598557D01*
X222724723Y-44600722D01*
X222728340Y-44618909D01*
X222728342Y-44618915D01*
X222784912Y-44755488D01*
X222784919Y-44755501D01*
X222867048Y-44878415D01*
X222867051Y-44878419D01*
X222971580Y-44982948D01*
X222971584Y-44982951D01*
X223094498Y-45065080D01*
X223094511Y-45065087D01*
X223231082Y-45121656D01*
X223231087Y-45121658D01*
X223231091Y-45121658D01*
X223231092Y-45121659D01*
X223376079Y-45150500D01*
X223376082Y-45150500D01*
X223523920Y-45150500D01*
X223621462Y-45131096D01*
X223668913Y-45121658D01*
X223803880Y-45065753D01*
X223805488Y-45065087D01*
X223805488Y-45065086D01*
X223805495Y-45065084D01*
X223928416Y-44982951D01*
X223928419Y-44982948D01*
X223987319Y-44924049D01*
X224048642Y-44890564D01*
X224118334Y-44895548D01*
X224162681Y-44924049D01*
X224221580Y-44982948D01*
X224221584Y-44982951D01*
X224344498Y-45065080D01*
X224344511Y-45065087D01*
X224481082Y-45121656D01*
X224481087Y-45121658D01*
X224481091Y-45121658D01*
X224481092Y-45121659D01*
X224626079Y-45150500D01*
X224626082Y-45150500D01*
X224773920Y-45150500D01*
X224871462Y-45131096D01*
X224918913Y-45121658D01*
X225053880Y-45065753D01*
X225055488Y-45065087D01*
X225055488Y-45065086D01*
X225055495Y-45065084D01*
X225178416Y-44982951D01*
X225282951Y-44878416D01*
X225365084Y-44755495D01*
X225421658Y-44618913D01*
X225450500Y-44473918D01*
X225450500Y-44326082D01*
X225450500Y-44326080D01*
X225450500Y-44326079D01*
X225421659Y-44181092D01*
X225421658Y-44181089D01*
X225421658Y-44181087D01*
X225371524Y-44060054D01*
X225364056Y-43990587D01*
X225395331Y-43928107D01*
X225455420Y-43892455D01*
X225461847Y-43890995D01*
X225539744Y-43875501D01*
X225658127Y-43826465D01*
X225764669Y-43755276D01*
X225855276Y-43664669D01*
X225926465Y-43558127D01*
X225975501Y-43439744D01*
X226000500Y-43314069D01*
X226000500Y-43185931D01*
X226000500Y-43185928D01*
X225975502Y-43060261D01*
X225975501Y-43060260D01*
X225975501Y-43060256D01*
X225926465Y-42941873D01*
X225926464Y-42941872D01*
X225926461Y-42941866D01*
X225855276Y-42835331D01*
X225855273Y-42835327D01*
X225764672Y-42744726D01*
X225764668Y-42744723D01*
X225658133Y-42673538D01*
X225658124Y-42673533D01*
X225539744Y-42624499D01*
X225539738Y-42624497D01*
X225414071Y-42599500D01*
X225414069Y-42599500D01*
X225285931Y-42599500D01*
X225285929Y-42599500D01*
X225160261Y-42624497D01*
X225160255Y-42624499D01*
X225041875Y-42673533D01*
X225041866Y-42673538D01*
X224935331Y-42744723D01*
X224935327Y-42744726D01*
X224844726Y-42835327D01*
X224844723Y-42835331D01*
X224773538Y-42941866D01*
X224773533Y-42941875D01*
X224724499Y-43060255D01*
X224724497Y-43060261D01*
X224699500Y-43185928D01*
X224699500Y-43185931D01*
X224699500Y-43314069D01*
X224699500Y-43314071D01*
X224699499Y-43314071D01*
X224724497Y-43439738D01*
X224724499Y-43439744D01*
X224738354Y-43473194D01*
X224740365Y-43478047D01*
X224747834Y-43547516D01*
X224716559Y-43609996D01*
X224656470Y-43645648D01*
X224632122Y-43648706D01*
X224632142Y-43648903D01*
X224626079Y-43649499D01*
X224481092Y-43678340D01*
X224481082Y-43678343D01*
X224344511Y-43734912D01*
X224344498Y-43734919D01*
X224221584Y-43817048D01*
X224221580Y-43817051D01*
X224162681Y-43875951D01*
X224101358Y-43909436D01*
X224031666Y-43904452D01*
X223987319Y-43875951D01*
X223928419Y-43817051D01*
X223928415Y-43817048D01*
X223805501Y-43734919D01*
X223805488Y-43734912D01*
X223668917Y-43678343D01*
X223668907Y-43678340D01*
X223523920Y-43649500D01*
X223523918Y-43649500D01*
X223376082Y-43649500D01*
X223376080Y-43649500D01*
X223231092Y-43678340D01*
X223231082Y-43678343D01*
X223094511Y-43734912D01*
X223094498Y-43734919D01*
X222971584Y-43817048D01*
X222971580Y-43817051D01*
X222867051Y-43921580D01*
X222867048Y-43921584D01*
X222784919Y-44044498D01*
X222784912Y-44044511D01*
X222728342Y-44181084D01*
X222728341Y-44181089D01*
X222724723Y-44199278D01*
X222715957Y-44216034D01*
X222711938Y-44234511D01*
X222693194Y-44259549D01*
X222692337Y-44261188D01*
X222690787Y-44262765D01*
X222553553Y-44399999D01*
X222475000Y-44399999D01*
X222475000Y-44345299D01*
X222433134Y-44244225D01*
X222355775Y-44166866D01*
X222254701Y-44125000D01*
X222145299Y-44125000D01*
X222044225Y-44166866D01*
X221966866Y-44244225D01*
X221925000Y-44345299D01*
X221791746Y-44345299D01*
X221373474Y-43927027D01*
X221373473Y-43927027D01*
X221358121Y-43950005D01*
X221286508Y-44122894D01*
X221286506Y-44122902D01*
X221250000Y-44306428D01*
X217146591Y-44306428D01*
X217121659Y-44181092D01*
X217121658Y-44181089D01*
X217121658Y-44181087D01*
X217067718Y-44050865D01*
X217060250Y-43981399D01*
X217091525Y-43918919D01*
X217151614Y-43883267D01*
X217158089Y-43881798D01*
X217167641Y-43879897D01*
X217189744Y-43875501D01*
X217308127Y-43826465D01*
X217414669Y-43755276D01*
X217505276Y-43664669D01*
X217566211Y-43573473D01*
X221727027Y-43573473D01*
X221727027Y-43573474D01*
X222200000Y-44046446D01*
X222200001Y-44046446D01*
X222672972Y-43573474D01*
X222672971Y-43573473D01*
X222650002Y-43558126D01*
X222649990Y-43558119D01*
X222477105Y-43486508D01*
X222477097Y-43486506D01*
X222293570Y-43450000D01*
X222106430Y-43450000D01*
X221922902Y-43486506D01*
X221922894Y-43486508D01*
X221750005Y-43558121D01*
X221727027Y-43573473D01*
X217566211Y-43573473D01*
X217576465Y-43558127D01*
X217625501Y-43439744D01*
X217650500Y-43314069D01*
X217650500Y-43185931D01*
X217650500Y-43185928D01*
X217625502Y-43060261D01*
X217625501Y-43060260D01*
X217625501Y-43060256D01*
X217576465Y-42941873D01*
X217576464Y-42941872D01*
X217576461Y-42941866D01*
X217505276Y-42835331D01*
X217505273Y-42835327D01*
X217414672Y-42744726D01*
X217414668Y-42744723D01*
X217308133Y-42673538D01*
X217308124Y-42673533D01*
X217189744Y-42624499D01*
X217189738Y-42624497D01*
X217064071Y-42599500D01*
X217064069Y-42599500D01*
X216935931Y-42599500D01*
X216935929Y-42599500D01*
X216810261Y-42624497D01*
X216810255Y-42624499D01*
X216691875Y-42673533D01*
X216691866Y-42673538D01*
X216585331Y-42744723D01*
X216585327Y-42744726D01*
X216494726Y-42835327D01*
X216494723Y-42835331D01*
X216423538Y-42941866D01*
X216423533Y-42941875D01*
X216374499Y-43060255D01*
X216374497Y-43060261D01*
X216349500Y-43185928D01*
X216349500Y-43185931D01*
X216349500Y-43314069D01*
X216349500Y-43314071D01*
X216349499Y-43314071D01*
X216374497Y-43439738D01*
X216374500Y-43439748D01*
X216393262Y-43485043D01*
X216400731Y-43554512D01*
X216369456Y-43616991D01*
X216309367Y-43652643D01*
X216302893Y-43654112D01*
X216181092Y-43678340D01*
X216181082Y-43678343D01*
X216044511Y-43734912D01*
X216044498Y-43734919D01*
X215921584Y-43817048D01*
X215921580Y-43817051D01*
X215862681Y-43875951D01*
X215801358Y-43909436D01*
X215731666Y-43904452D01*
X215687319Y-43875951D01*
X215628419Y-43817051D01*
X215628415Y-43817048D01*
X215505501Y-43734919D01*
X215505488Y-43734912D01*
X215368917Y-43678343D01*
X215368907Y-43678340D01*
X215223920Y-43649500D01*
X215223918Y-43649500D01*
X215076082Y-43649500D01*
X215076080Y-43649500D01*
X214931092Y-43678340D01*
X214931082Y-43678343D01*
X214794511Y-43734912D01*
X214794498Y-43734919D01*
X214671584Y-43817048D01*
X214671580Y-43817051D01*
X214567051Y-43921580D01*
X214567048Y-43921584D01*
X214484919Y-44044498D01*
X214484912Y-44044511D01*
X214428342Y-44181084D01*
X214428341Y-44181089D01*
X214424723Y-44199278D01*
X214415957Y-44216034D01*
X214411938Y-44234511D01*
X214393194Y-44259549D01*
X214392337Y-44261188D01*
X214390787Y-44262765D01*
X214253553Y-44399999D01*
X214175000Y-44399999D01*
X214175000Y-44345299D01*
X214133134Y-44244225D01*
X214055775Y-44166866D01*
X213954701Y-44125000D01*
X213845299Y-44125000D01*
X213744225Y-44166866D01*
X213666866Y-44244225D01*
X213625000Y-44345299D01*
X213491746Y-44345299D01*
X213073474Y-43927027D01*
X213073473Y-43927027D01*
X213058121Y-43950005D01*
X212986508Y-44122894D01*
X212986506Y-44122902D01*
X212950000Y-44306428D01*
X208846591Y-44306428D01*
X208821659Y-44181092D01*
X208821658Y-44181089D01*
X208821658Y-44181087D01*
X208821656Y-44181082D01*
X208765087Y-44044511D01*
X208765080Y-44044498D01*
X208712424Y-43965693D01*
X208691546Y-43899015D01*
X208710030Y-43831635D01*
X208762009Y-43784945D01*
X208784018Y-43777619D01*
X208783912Y-43777270D01*
X208789734Y-43775502D01*
X208789744Y-43775501D01*
X208908127Y-43726465D01*
X209014669Y-43655276D01*
X209096472Y-43573473D01*
X213427027Y-43573473D01*
X213427027Y-43573474D01*
X213900000Y-44046446D01*
X213900001Y-44046446D01*
X214372972Y-43573474D01*
X214372971Y-43573473D01*
X214350002Y-43558126D01*
X214349990Y-43558119D01*
X214177105Y-43486508D01*
X214177097Y-43486506D01*
X213993570Y-43450000D01*
X213806430Y-43450000D01*
X213622902Y-43486506D01*
X213622894Y-43486508D01*
X213450005Y-43558121D01*
X213427027Y-43573473D01*
X209096472Y-43573473D01*
X209105276Y-43564669D01*
X209116738Y-43547516D01*
X209176461Y-43458133D01*
X209176461Y-43458132D01*
X209176465Y-43458127D01*
X209225501Y-43339744D01*
X209250500Y-43214069D01*
X209250500Y-43085931D01*
X209250500Y-43085928D01*
X209225502Y-42960261D01*
X209225501Y-42960260D01*
X209225501Y-42960256D01*
X209176465Y-42841873D01*
X209176464Y-42841872D01*
X209176461Y-42841866D01*
X209105276Y-42735331D01*
X209105273Y-42735327D01*
X209014672Y-42644726D01*
X209014668Y-42644723D01*
X208908133Y-42573538D01*
X208908124Y-42573533D01*
X208789744Y-42524499D01*
X208789738Y-42524497D01*
X208664071Y-42499500D01*
X208664069Y-42499500D01*
X208535931Y-42499500D01*
X208535929Y-42499500D01*
X208410261Y-42524497D01*
X208410255Y-42524499D01*
X208291875Y-42573533D01*
X208291866Y-42573538D01*
X208185331Y-42644723D01*
X208185327Y-42644726D01*
X208094726Y-42735327D01*
X208094723Y-42735331D01*
X208023538Y-42841866D01*
X208023533Y-42841875D01*
X207974499Y-42960255D01*
X207974497Y-42960261D01*
X207949500Y-43085928D01*
X207949500Y-43085931D01*
X207949500Y-43214069D01*
X207949500Y-43214071D01*
X207949499Y-43214071D01*
X207974497Y-43339738D01*
X207974499Y-43339744D01*
X208023533Y-43458124D01*
X208023540Y-43458136D01*
X208033601Y-43473194D01*
X208054478Y-43539872D01*
X208035992Y-43607251D01*
X207984013Y-43653941D01*
X207954691Y-43663700D01*
X207881091Y-43678340D01*
X207881082Y-43678343D01*
X207744511Y-43734912D01*
X207744498Y-43734919D01*
X207621584Y-43817048D01*
X207621580Y-43817051D01*
X207562681Y-43875951D01*
X207501358Y-43909436D01*
X207431666Y-43904452D01*
X207387319Y-43875951D01*
X207328419Y-43817051D01*
X207328415Y-43817048D01*
X207205501Y-43734919D01*
X207205488Y-43734912D01*
X207068917Y-43678343D01*
X207068907Y-43678340D01*
X206923920Y-43649500D01*
X206923918Y-43649500D01*
X206776082Y-43649500D01*
X206776080Y-43649500D01*
X206631092Y-43678340D01*
X206631082Y-43678343D01*
X206494511Y-43734912D01*
X206494498Y-43734919D01*
X206371584Y-43817048D01*
X206371580Y-43817051D01*
X206267051Y-43921580D01*
X206267048Y-43921584D01*
X206184919Y-44044498D01*
X206184912Y-44044511D01*
X206128342Y-44181084D01*
X206128341Y-44181089D01*
X206124723Y-44199278D01*
X206115957Y-44216034D01*
X206111938Y-44234511D01*
X206093194Y-44259549D01*
X206092337Y-44261188D01*
X206090787Y-44262765D01*
X205953553Y-44399999D01*
X205875000Y-44399999D01*
X205875000Y-44345299D01*
X205833134Y-44244225D01*
X205755775Y-44166866D01*
X205654701Y-44125000D01*
X205545299Y-44125000D01*
X205444225Y-44166866D01*
X205366866Y-44244225D01*
X205325000Y-44345299D01*
X205191746Y-44345299D01*
X204773474Y-43927027D01*
X204773473Y-43927027D01*
X204758121Y-43950005D01*
X204686508Y-44122894D01*
X204686506Y-44122902D01*
X204650000Y-44306428D01*
X200546591Y-44306428D01*
X200521659Y-44181092D01*
X200521658Y-44181089D01*
X200521658Y-44181087D01*
X200521656Y-44181082D01*
X200465087Y-44044511D01*
X200465080Y-44044498D01*
X200412424Y-43965693D01*
X200391546Y-43899015D01*
X200410030Y-43831635D01*
X200462009Y-43784945D01*
X200484018Y-43777619D01*
X200483912Y-43777270D01*
X200489734Y-43775502D01*
X200489744Y-43775501D01*
X200608127Y-43726465D01*
X200714669Y-43655276D01*
X200796472Y-43573473D01*
X205127027Y-43573473D01*
X205127027Y-43573474D01*
X205600000Y-44046446D01*
X205600001Y-44046446D01*
X206072972Y-43573474D01*
X206072971Y-43573473D01*
X206050002Y-43558126D01*
X206049990Y-43558119D01*
X205877105Y-43486508D01*
X205877097Y-43486506D01*
X205693570Y-43450000D01*
X205506430Y-43450000D01*
X205322902Y-43486506D01*
X205322894Y-43486508D01*
X205150005Y-43558121D01*
X205127027Y-43573473D01*
X200796472Y-43573473D01*
X200805276Y-43564669D01*
X200816738Y-43547516D01*
X200876461Y-43458133D01*
X200876461Y-43458132D01*
X200876465Y-43458127D01*
X200925501Y-43339744D01*
X200950500Y-43214069D01*
X200950500Y-43085931D01*
X200950500Y-43085928D01*
X200925502Y-42960261D01*
X200925501Y-42960260D01*
X200925501Y-42960256D01*
X200876465Y-42841873D01*
X200876464Y-42841872D01*
X200876461Y-42841866D01*
X200805276Y-42735331D01*
X200805273Y-42735327D01*
X200714672Y-42644726D01*
X200714668Y-42644723D01*
X200608133Y-42573538D01*
X200608124Y-42573533D01*
X200489744Y-42524499D01*
X200489738Y-42524497D01*
X200364071Y-42499500D01*
X200364069Y-42499500D01*
X200235931Y-42499500D01*
X200235929Y-42499500D01*
X200110261Y-42524497D01*
X200110255Y-42524499D01*
X199991875Y-42573533D01*
X199991866Y-42573538D01*
X199885331Y-42644723D01*
X199885327Y-42644726D01*
X199794726Y-42735327D01*
X199794723Y-42735331D01*
X199723538Y-42841866D01*
X199723533Y-42841875D01*
X199674499Y-42960255D01*
X199674497Y-42960261D01*
X199649500Y-43085928D01*
X199649500Y-43085931D01*
X199649500Y-43214069D01*
X199649500Y-43214071D01*
X199649499Y-43214071D01*
X199674497Y-43339738D01*
X199674499Y-43339744D01*
X199723533Y-43458124D01*
X199723540Y-43458136D01*
X199733601Y-43473194D01*
X199754478Y-43539872D01*
X199735992Y-43607251D01*
X199684013Y-43653941D01*
X199654691Y-43663700D01*
X199581091Y-43678340D01*
X199581082Y-43678343D01*
X199444511Y-43734912D01*
X199444498Y-43734919D01*
X199321584Y-43817048D01*
X199321580Y-43817051D01*
X199262681Y-43875951D01*
X199201358Y-43909436D01*
X199131666Y-43904452D01*
X199087319Y-43875951D01*
X199028419Y-43817051D01*
X199028415Y-43817048D01*
X198905501Y-43734919D01*
X198905488Y-43734912D01*
X198768917Y-43678343D01*
X198768907Y-43678340D01*
X198623920Y-43649500D01*
X198623918Y-43649500D01*
X198476082Y-43649500D01*
X198476080Y-43649500D01*
X198331092Y-43678340D01*
X198331082Y-43678343D01*
X198194511Y-43734912D01*
X198194498Y-43734919D01*
X198071584Y-43817048D01*
X198071580Y-43817051D01*
X197967051Y-43921580D01*
X197967048Y-43921584D01*
X197884919Y-44044498D01*
X197884912Y-44044511D01*
X197828342Y-44181084D01*
X197828341Y-44181089D01*
X197824723Y-44199278D01*
X197815957Y-44216034D01*
X197811938Y-44234511D01*
X197793194Y-44259549D01*
X197792337Y-44261188D01*
X197790787Y-44262765D01*
X197653553Y-44399999D01*
X197575000Y-44399999D01*
X197575000Y-44345299D01*
X197533134Y-44244225D01*
X197455775Y-44166866D01*
X197354701Y-44125000D01*
X197245299Y-44125000D01*
X197144225Y-44166866D01*
X197066866Y-44244225D01*
X197025000Y-44345299D01*
X196891746Y-44345299D01*
X196473474Y-43927027D01*
X196473473Y-43927027D01*
X196458121Y-43950005D01*
X196386508Y-44122894D01*
X196386506Y-44122902D01*
X196350000Y-44306428D01*
X192246591Y-44306428D01*
X192221659Y-44181092D01*
X192221658Y-44181089D01*
X192221658Y-44181087D01*
X192221656Y-44181082D01*
X192165087Y-44044511D01*
X192165081Y-44044500D01*
X192139760Y-44006604D01*
X192118883Y-43939927D01*
X192137368Y-43872547D01*
X192189347Y-43825857D01*
X192195390Y-43823162D01*
X192287655Y-43784945D01*
X192308121Y-43776468D01*
X192308124Y-43776466D01*
X192308127Y-43776465D01*
X192414669Y-43705276D01*
X192505276Y-43614669D01*
X192532802Y-43573473D01*
X196827027Y-43573473D01*
X196827027Y-43573474D01*
X197300000Y-44046446D01*
X197300001Y-44046446D01*
X197772972Y-43573474D01*
X197772971Y-43573473D01*
X197750002Y-43558126D01*
X197749990Y-43558119D01*
X197577105Y-43486508D01*
X197577097Y-43486506D01*
X197393570Y-43450000D01*
X197206430Y-43450000D01*
X197022902Y-43486506D01*
X197022894Y-43486508D01*
X196850005Y-43558121D01*
X196827027Y-43573473D01*
X192532802Y-43573473D01*
X192543052Y-43558133D01*
X192547957Y-43550793D01*
X192576461Y-43508133D01*
X192576461Y-43508132D01*
X192576465Y-43508127D01*
X192625501Y-43389744D01*
X192650500Y-43264069D01*
X192650500Y-43135931D01*
X192650500Y-43135928D01*
X192625502Y-43010261D01*
X192625501Y-43010260D01*
X192625501Y-43010256D01*
X192576465Y-42891873D01*
X192576464Y-42891872D01*
X192576461Y-42891866D01*
X192505276Y-42785331D01*
X192505273Y-42785327D01*
X192414672Y-42694726D01*
X192414668Y-42694723D01*
X192308133Y-42623538D01*
X192308124Y-42623533D01*
X192189744Y-42574499D01*
X192189738Y-42574497D01*
X192064071Y-42549500D01*
X192064069Y-42549500D01*
X191935931Y-42549500D01*
X191935929Y-42549500D01*
X191810261Y-42574497D01*
X191810255Y-42574499D01*
X191691875Y-42623533D01*
X191691866Y-42623538D01*
X191585331Y-42694723D01*
X191585327Y-42694726D01*
X191494726Y-42785327D01*
X191494723Y-42785331D01*
X191423538Y-42891866D01*
X191423533Y-42891875D01*
X191374499Y-43010255D01*
X191374497Y-43010261D01*
X191349500Y-43135928D01*
X191349500Y-43135931D01*
X191349500Y-43264069D01*
X191349500Y-43264071D01*
X191349499Y-43264071D01*
X191374497Y-43389738D01*
X191374500Y-43389748D01*
X191420008Y-43499614D01*
X191427477Y-43569083D01*
X191396202Y-43631562D01*
X191336113Y-43667214D01*
X191329641Y-43668683D01*
X191281089Y-43678341D01*
X191281082Y-43678343D01*
X191144511Y-43734912D01*
X191144498Y-43734919D01*
X191021584Y-43817048D01*
X191021580Y-43817051D01*
X190962681Y-43875951D01*
X190901358Y-43909436D01*
X190831666Y-43904452D01*
X190787319Y-43875951D01*
X190728419Y-43817051D01*
X190728415Y-43817048D01*
X190605501Y-43734919D01*
X190605488Y-43734912D01*
X190468917Y-43678343D01*
X190468907Y-43678340D01*
X190323920Y-43649500D01*
X190323918Y-43649500D01*
X190176082Y-43649500D01*
X190176080Y-43649500D01*
X190031092Y-43678340D01*
X190031082Y-43678343D01*
X189894511Y-43734912D01*
X189894498Y-43734919D01*
X189771584Y-43817048D01*
X189771580Y-43817051D01*
X189667051Y-43921580D01*
X189667048Y-43921584D01*
X189584919Y-44044498D01*
X189584912Y-44044511D01*
X189528342Y-44181084D01*
X189528341Y-44181089D01*
X189524723Y-44199278D01*
X189515957Y-44216034D01*
X189511938Y-44234511D01*
X189493194Y-44259549D01*
X189492337Y-44261188D01*
X189490787Y-44262765D01*
X189353553Y-44399999D01*
X189275000Y-44399999D01*
X189275000Y-44345299D01*
X189233134Y-44244225D01*
X189155775Y-44166866D01*
X189054701Y-44125000D01*
X188945299Y-44125000D01*
X188844225Y-44166866D01*
X188766866Y-44244225D01*
X188725000Y-44345299D01*
X188591746Y-44345299D01*
X188173474Y-43927027D01*
X188173473Y-43927027D01*
X188158121Y-43950005D01*
X188086508Y-44122894D01*
X188086506Y-44122902D01*
X188050000Y-44306428D01*
X183700500Y-44306428D01*
X183700500Y-43573473D01*
X188527027Y-43573473D01*
X188527027Y-43573474D01*
X189000000Y-44046446D01*
X189000001Y-44046446D01*
X189472972Y-43573474D01*
X189472971Y-43573473D01*
X189450002Y-43558126D01*
X189449990Y-43558119D01*
X189277105Y-43486508D01*
X189277097Y-43486506D01*
X189093570Y-43450000D01*
X188906430Y-43450000D01*
X188722902Y-43486506D01*
X188722894Y-43486508D01*
X188550005Y-43558121D01*
X188527027Y-43573473D01*
X183700500Y-43573473D01*
X183700500Y-38303750D01*
X183700726Y-38296263D01*
X183706691Y-38197648D01*
X184699500Y-38197648D01*
X184699500Y-38402351D01*
X184731522Y-38604534D01*
X184794781Y-38799223D01*
X184887715Y-38981613D01*
X185008028Y-39147213D01*
X185152786Y-39291971D01*
X185304689Y-39402333D01*
X185318390Y-39412287D01*
X185434607Y-39471503D01*
X185500776Y-39505218D01*
X185500778Y-39505218D01*
X185500781Y-39505220D01*
X185589434Y-39534025D01*
X185695465Y-39568477D01*
X185796557Y-39584488D01*
X185897648Y-39600500D01*
X185897649Y-39600500D01*
X186102351Y-39600500D01*
X186102352Y-39600500D01*
X186304534Y-39568477D01*
X186499219Y-39505220D01*
X186681610Y-39412287D01*
X186774590Y-39344732D01*
X186847213Y-39291971D01*
X186847215Y-39291968D01*
X186847219Y-39291966D01*
X186991966Y-39147219D01*
X186991968Y-39147215D01*
X186991971Y-39147213D01*
X187045507Y-39073526D01*
X187112287Y-38981610D01*
X187205220Y-38799219D01*
X187240780Y-38689778D01*
X191399500Y-38689778D01*
X191399500Y-38910221D01*
X191433985Y-39127952D01*
X191502103Y-39337603D01*
X191502104Y-39337606D01*
X191540157Y-39412287D01*
X191587509Y-39505220D01*
X191602187Y-39534025D01*
X191731752Y-39712358D01*
X191731756Y-39712363D01*
X191887636Y-39868243D01*
X191887641Y-39868247D01*
X192043192Y-39981260D01*
X192065978Y-39997815D01*
X192194375Y-40063237D01*
X192262393Y-40097895D01*
X192262396Y-40097896D01*
X192367221Y-40131955D01*
X192472049Y-40166015D01*
X192689778Y-40200500D01*
X192689779Y-40200500D01*
X219910221Y-40200500D01*
X219910222Y-40200500D01*
X220127951Y-40166015D01*
X220337606Y-40097895D01*
X220534022Y-39997815D01*
X220712365Y-39868242D01*
X220868242Y-39712365D01*
X220997815Y-39534022D01*
X221097895Y-39337606D01*
X221166015Y-39127951D01*
X221200500Y-38910222D01*
X221200500Y-38689778D01*
X221166015Y-38472049D01*
X221097895Y-38262394D01*
X221097892Y-38262387D01*
X221091107Y-38249070D01*
X221064906Y-38197648D01*
X224199500Y-38197648D01*
X224199500Y-38402351D01*
X224231522Y-38604534D01*
X224294781Y-38799223D01*
X224387715Y-38981613D01*
X224508028Y-39147213D01*
X224652786Y-39291971D01*
X224804689Y-39402333D01*
X224818390Y-39412287D01*
X224934607Y-39471503D01*
X225000776Y-39505218D01*
X225000778Y-39505218D01*
X225000781Y-39505220D01*
X225089434Y-39534025D01*
X225195465Y-39568477D01*
X225296557Y-39584488D01*
X225397648Y-39600500D01*
X225397649Y-39600500D01*
X225602351Y-39600500D01*
X225602352Y-39600500D01*
X225804534Y-39568477D01*
X225999219Y-39505220D01*
X226181610Y-39412287D01*
X226274590Y-39344732D01*
X226347213Y-39291971D01*
X226347215Y-39291968D01*
X226347219Y-39291966D01*
X226491966Y-39147219D01*
X226491968Y-39147215D01*
X226491971Y-39147213D01*
X226545507Y-39073526D01*
X226612287Y-38981610D01*
X226705220Y-38799219D01*
X226768477Y-38604534D01*
X226800500Y-38402352D01*
X226800500Y-38197648D01*
X226768477Y-37995465D01*
X226739127Y-37905137D01*
X226705220Y-37800781D01*
X226705218Y-37800778D01*
X226705218Y-37800776D01*
X226670048Y-37731752D01*
X226612287Y-37618390D01*
X226600515Y-37602187D01*
X226491971Y-37452786D01*
X226347213Y-37308028D01*
X226181613Y-37187715D01*
X226181612Y-37187714D01*
X226181610Y-37187713D01*
X226124653Y-37158691D01*
X225999223Y-37094781D01*
X225804534Y-37031522D01*
X225629995Y-37003878D01*
X225602352Y-36999500D01*
X225397648Y-36999500D01*
X225373329Y-37003351D01*
X225195465Y-37031522D01*
X225000776Y-37094781D01*
X224818386Y-37187715D01*
X224652786Y-37308028D01*
X224508028Y-37452786D01*
X224387715Y-37618386D01*
X224294781Y-37800776D01*
X224231522Y-37995465D01*
X224199500Y-38197648D01*
X221064906Y-38197648D01*
X220997814Y-38065976D01*
X220868247Y-37887641D01*
X220868243Y-37887636D01*
X220712363Y-37731756D01*
X220712358Y-37731752D01*
X220534025Y-37602187D01*
X220534024Y-37602186D01*
X220534022Y-37602185D01*
X220471096Y-37570122D01*
X220337606Y-37502104D01*
X220337603Y-37502103D01*
X220127952Y-37433985D01*
X220019086Y-37416742D01*
X219910222Y-37399500D01*
X219839882Y-37399500D01*
X192839882Y-37399500D01*
X192800000Y-37399500D01*
X192689778Y-37399500D01*
X192617201Y-37410995D01*
X192472047Y-37433985D01*
X192262396Y-37502103D01*
X192262393Y-37502104D01*
X192065974Y-37602187D01*
X191887641Y-37731752D01*
X191887636Y-37731756D01*
X191731756Y-37887636D01*
X191731752Y-37887641D01*
X191602187Y-38065974D01*
X191502104Y-38262393D01*
X191502103Y-38262396D01*
X191433985Y-38472047D01*
X191399500Y-38689778D01*
X187240780Y-38689778D01*
X187268477Y-38604534D01*
X187300500Y-38402352D01*
X187300500Y-38197648D01*
X187268477Y-37995465D01*
X187239127Y-37905137D01*
X187205220Y-37800781D01*
X187205218Y-37800778D01*
X187205218Y-37800776D01*
X187170048Y-37731752D01*
X187112287Y-37618390D01*
X187100515Y-37602187D01*
X186991971Y-37452786D01*
X186847213Y-37308028D01*
X186681613Y-37187715D01*
X186681612Y-37187714D01*
X186681610Y-37187713D01*
X186624653Y-37158691D01*
X186499223Y-37094781D01*
X186304534Y-37031522D01*
X186129995Y-37003878D01*
X186102352Y-36999500D01*
X185897648Y-36999500D01*
X185873329Y-37003351D01*
X185695465Y-37031522D01*
X185500776Y-37094781D01*
X185318386Y-37187715D01*
X185152786Y-37308028D01*
X185008028Y-37452786D01*
X184887715Y-37618386D01*
X184794781Y-37800776D01*
X184731522Y-37995465D01*
X184699500Y-38197648D01*
X183706691Y-38197648D01*
X183707439Y-38185289D01*
X183716813Y-38030311D01*
X183718618Y-38015447D01*
X183722280Y-37995465D01*
X183765969Y-37757057D01*
X183769548Y-37742539D01*
X183847699Y-37491743D01*
X183853001Y-37477762D01*
X183960822Y-37238194D01*
X183967767Y-37224961D01*
X184103677Y-37000139D01*
X184112164Y-36987843D01*
X184274183Y-36781041D01*
X184284098Y-36769850D01*
X184469850Y-36584098D01*
X184481041Y-36574183D01*
X184687843Y-36412164D01*
X184700139Y-36403677D01*
X184924961Y-36267767D01*
X184938194Y-36260822D01*
X185177762Y-36153001D01*
X185191743Y-36147699D01*
X185442539Y-36069548D01*
X185457057Y-36065969D01*
X185715450Y-36018617D01*
X185730307Y-36016813D01*
X185996264Y-36000726D01*
X186003751Y-36000500D01*
X186039882Y-36000500D01*
X225460118Y-36000500D01*
X225496249Y-36000500D01*
X225503736Y-36000726D01*
G37*
%TD.AperFunction*%
%TD*%
M02*
