%TF.GenerationSoftware,KiCad,Pcbnew,9.0.0*%
%TF.CreationDate,2026-01-14T19:26:19-05:00*%
%TF.ProjectId,telemetry-node,74656c65-6d65-4747-9279-2d6e6f64652e,rev?*%
%TF.SameCoordinates,Original*%
%TF.FileFunction,Legend,Top*%
%TF.FilePolarity,Positive*%
%FSLAX46Y46*%
G04 Gerber Fmt 4.6, Leading zero omitted, Abs format (unit mm)*
G04 Created by KiCad (PCBNEW 9.0.0) date 2026-01-14 19:26:19*
%MOMM*%
%LPD*%
G01*
G04 APERTURE LIST*
%ADD10C,0.150000*%
%ADD11C,0.120000*%
%ADD12C,0.200000*%
%ADD13C,0.100000*%
G04 APERTURE END LIST*
D10*
X226319819Y-65672744D02*
X226319819Y-65577506D01*
X226319819Y-65577506D02*
X226367438Y-65482268D01*
X226367438Y-65482268D02*
X226415057Y-65434649D01*
X226415057Y-65434649D02*
X226510295Y-65387030D01*
X226510295Y-65387030D02*
X226700771Y-65339411D01*
X226700771Y-65339411D02*
X226938866Y-65339411D01*
X226938866Y-65339411D02*
X227129342Y-65387030D01*
X227129342Y-65387030D02*
X227224580Y-65434649D01*
X227224580Y-65434649D02*
X227272200Y-65482268D01*
X227272200Y-65482268D02*
X227319819Y-65577506D01*
X227319819Y-65577506D02*
X227319819Y-65672744D01*
X227319819Y-65672744D02*
X227272200Y-65767982D01*
X227272200Y-65767982D02*
X227224580Y-65815601D01*
X227224580Y-65815601D02*
X227129342Y-65863220D01*
X227129342Y-65863220D02*
X226938866Y-65910839D01*
X226938866Y-65910839D02*
X226700771Y-65910839D01*
X226700771Y-65910839D02*
X226510295Y-65863220D01*
X226510295Y-65863220D02*
X226415057Y-65815601D01*
X226415057Y-65815601D02*
X226367438Y-65767982D01*
X226367438Y-65767982D02*
X226319819Y-65672744D01*
X227319819Y-64387030D02*
X227319819Y-64958458D01*
X227319819Y-64672744D02*
X226319819Y-64672744D01*
X226319819Y-64672744D02*
X226462676Y-64767982D01*
X226462676Y-64767982D02*
X226557914Y-64863220D01*
X226557914Y-64863220D02*
X226605533Y-64958458D01*
X226272200Y-63244173D02*
X227557914Y-64101315D01*
X226415057Y-62958458D02*
X226367438Y-62910839D01*
X226367438Y-62910839D02*
X226319819Y-62815601D01*
X226319819Y-62815601D02*
X226319819Y-62577506D01*
X226319819Y-62577506D02*
X226367438Y-62482268D01*
X226367438Y-62482268D02*
X226415057Y-62434649D01*
X226415057Y-62434649D02*
X226510295Y-62387030D01*
X226510295Y-62387030D02*
X226605533Y-62387030D01*
X226605533Y-62387030D02*
X226748390Y-62434649D01*
X226748390Y-62434649D02*
X227319819Y-63006077D01*
X227319819Y-63006077D02*
X227319819Y-62387030D01*
X226319819Y-61767982D02*
X226319819Y-61672744D01*
X226319819Y-61672744D02*
X226367438Y-61577506D01*
X226367438Y-61577506D02*
X226415057Y-61529887D01*
X226415057Y-61529887D02*
X226510295Y-61482268D01*
X226510295Y-61482268D02*
X226700771Y-61434649D01*
X226700771Y-61434649D02*
X226938866Y-61434649D01*
X226938866Y-61434649D02*
X227129342Y-61482268D01*
X227129342Y-61482268D02*
X227224580Y-61529887D01*
X227224580Y-61529887D02*
X227272200Y-61577506D01*
X227272200Y-61577506D02*
X227319819Y-61672744D01*
X227319819Y-61672744D02*
X227319819Y-61767982D01*
X227319819Y-61767982D02*
X227272200Y-61863220D01*
X227272200Y-61863220D02*
X227224580Y-61910839D01*
X227224580Y-61910839D02*
X227129342Y-61958458D01*
X227129342Y-61958458D02*
X226938866Y-62006077D01*
X226938866Y-62006077D02*
X226700771Y-62006077D01*
X226700771Y-62006077D02*
X226510295Y-61958458D01*
X226510295Y-61958458D02*
X226415057Y-61910839D01*
X226415057Y-61910839D02*
X226367438Y-61863220D01*
X226367438Y-61863220D02*
X226319819Y-61767982D01*
X226415057Y-61053696D02*
X226367438Y-61006077D01*
X226367438Y-61006077D02*
X226319819Y-60910839D01*
X226319819Y-60910839D02*
X226319819Y-60672744D01*
X226319819Y-60672744D02*
X226367438Y-60577506D01*
X226367438Y-60577506D02*
X226415057Y-60529887D01*
X226415057Y-60529887D02*
X226510295Y-60482268D01*
X226510295Y-60482268D02*
X226605533Y-60482268D01*
X226605533Y-60482268D02*
X226748390Y-60529887D01*
X226748390Y-60529887D02*
X227319819Y-61101315D01*
X227319819Y-61101315D02*
X227319819Y-60482268D01*
X226319819Y-59625125D02*
X226319819Y-59815601D01*
X226319819Y-59815601D02*
X226367438Y-59910839D01*
X226367438Y-59910839D02*
X226415057Y-59958458D01*
X226415057Y-59958458D02*
X226557914Y-60053696D01*
X226557914Y-60053696D02*
X226748390Y-60101315D01*
X226748390Y-60101315D02*
X227129342Y-60101315D01*
X227129342Y-60101315D02*
X227224580Y-60053696D01*
X227224580Y-60053696D02*
X227272200Y-60006077D01*
X227272200Y-60006077D02*
X227319819Y-59910839D01*
X227319819Y-59910839D02*
X227319819Y-59720363D01*
X227319819Y-59720363D02*
X227272200Y-59625125D01*
X227272200Y-59625125D02*
X227224580Y-59577506D01*
X227224580Y-59577506D02*
X227129342Y-59529887D01*
X227129342Y-59529887D02*
X226891247Y-59529887D01*
X226891247Y-59529887D02*
X226796009Y-59577506D01*
X226796009Y-59577506D02*
X226748390Y-59625125D01*
X226748390Y-59625125D02*
X226700771Y-59720363D01*
X226700771Y-59720363D02*
X226700771Y-59910839D01*
X226700771Y-59910839D02*
X226748390Y-60006077D01*
X226748390Y-60006077D02*
X226796009Y-60053696D01*
X226796009Y-60053696D02*
X226891247Y-60101315D01*
X186069819Y-76306077D02*
X186069819Y-75734649D01*
X187069819Y-76020363D02*
X186069819Y-76020363D01*
X186069819Y-75496553D02*
X187069819Y-74829887D01*
X186069819Y-74829887D02*
X187069819Y-75496553D01*
X206189160Y-50922200D02*
X206332017Y-50969819D01*
X206332017Y-50969819D02*
X206570112Y-50969819D01*
X206570112Y-50969819D02*
X206665350Y-50922200D01*
X206665350Y-50922200D02*
X206712969Y-50874580D01*
X206712969Y-50874580D02*
X206760588Y-50779342D01*
X206760588Y-50779342D02*
X206760588Y-50684104D01*
X206760588Y-50684104D02*
X206712969Y-50588866D01*
X206712969Y-50588866D02*
X206665350Y-50541247D01*
X206665350Y-50541247D02*
X206570112Y-50493628D01*
X206570112Y-50493628D02*
X206379636Y-50446009D01*
X206379636Y-50446009D02*
X206284398Y-50398390D01*
X206284398Y-50398390D02*
X206236779Y-50350771D01*
X206236779Y-50350771D02*
X206189160Y-50255533D01*
X206189160Y-50255533D02*
X206189160Y-50160295D01*
X206189160Y-50160295D02*
X206236779Y-50065057D01*
X206236779Y-50065057D02*
X206284398Y-50017438D01*
X206284398Y-50017438D02*
X206379636Y-49969819D01*
X206379636Y-49969819D02*
X206617731Y-49969819D01*
X206617731Y-49969819D02*
X206760588Y-50017438D01*
X207141541Y-50065057D02*
X207189160Y-50017438D01*
X207189160Y-50017438D02*
X207284398Y-49969819D01*
X207284398Y-49969819D02*
X207522493Y-49969819D01*
X207522493Y-49969819D02*
X207617731Y-50017438D01*
X207617731Y-50017438D02*
X207665350Y-50065057D01*
X207665350Y-50065057D02*
X207712969Y-50160295D01*
X207712969Y-50160295D02*
X207712969Y-50255533D01*
X207712969Y-50255533D02*
X207665350Y-50398390D01*
X207665350Y-50398390D02*
X207093922Y-50969819D01*
X207093922Y-50969819D02*
X207712969Y-50969819D01*
G36*
X211205547Y-60710175D02*
G01*
X211282534Y-60748669D01*
X211356648Y-60822782D01*
X211394819Y-60937295D01*
X211394819Y-61088220D01*
X210544819Y-61088220D01*
X210544819Y-60937295D01*
X210582990Y-60822781D01*
X210657103Y-60748669D01*
X210734090Y-60710175D01*
X210907624Y-60666792D01*
X211032013Y-60666792D01*
X211205547Y-60710175D01*
G37*
G36*
X211109104Y-60106782D02*
G01*
X210706989Y-59972744D01*
X211109104Y-59838705D01*
X211109104Y-60106782D01*
G37*
G36*
X211109104Y-58487734D02*
G01*
X210706989Y-58353696D01*
X211109104Y-58219657D01*
X211109104Y-58487734D01*
G37*
G36*
X210853963Y-56462954D02*
G01*
X210884370Y-56493361D01*
X210918628Y-56561877D01*
X210918628Y-56850124D01*
X210544819Y-56850124D01*
X210544819Y-56561877D01*
X210579077Y-56493361D01*
X210609484Y-56462954D01*
X210678000Y-56428696D01*
X210785447Y-56428696D01*
X210853963Y-56462954D01*
G37*
G36*
X211655930Y-61349331D02*
G01*
X210283708Y-61349331D01*
X210283708Y-60925125D01*
X210394819Y-60925125D01*
X210394819Y-61163220D01*
X210396260Y-61177852D01*
X210407459Y-61204888D01*
X210428151Y-61225580D01*
X210455187Y-61236779D01*
X210469819Y-61238220D01*
X211469819Y-61238220D01*
X211484451Y-61236779D01*
X211511487Y-61225580D01*
X211532179Y-61204888D01*
X211543378Y-61177852D01*
X211544819Y-61163220D01*
X211544819Y-60925125D01*
X211544089Y-60917718D01*
X211544230Y-60915744D01*
X211543639Y-60913146D01*
X211543378Y-60910493D01*
X211542619Y-60908662D01*
X211540970Y-60901407D01*
X211493351Y-60758551D01*
X211487357Y-60745125D01*
X211485592Y-60743090D01*
X211484561Y-60740600D01*
X211475233Y-60729235D01*
X211379994Y-60633997D01*
X211374244Y-60629278D01*
X211372945Y-60627780D01*
X211370686Y-60626358D01*
X211368628Y-60624669D01*
X211366798Y-60623911D01*
X211360502Y-60619948D01*
X211265264Y-60572329D01*
X211264194Y-60571919D01*
X211263759Y-60571597D01*
X211257613Y-60569401D01*
X211251532Y-60567074D01*
X211250992Y-60567035D01*
X211249913Y-60566650D01*
X211059437Y-60519031D01*
X211056900Y-60518655D01*
X211055879Y-60518233D01*
X211050366Y-60517690D01*
X211044893Y-60516881D01*
X211043800Y-60517043D01*
X211041247Y-60516792D01*
X210898390Y-60516792D01*
X210895836Y-60517043D01*
X210894744Y-60516881D01*
X210889270Y-60517690D01*
X210883758Y-60518233D01*
X210882736Y-60518655D01*
X210880200Y-60519031D01*
X210689724Y-60566650D01*
X210688644Y-60567035D01*
X210688104Y-60567074D01*
X210682014Y-60569404D01*
X210675878Y-60571597D01*
X210675442Y-60571919D01*
X210674373Y-60572329D01*
X210579135Y-60619948D01*
X210572840Y-60623910D01*
X210571008Y-60624669D01*
X210568946Y-60626360D01*
X210566692Y-60627780D01*
X210565393Y-60629276D01*
X210559643Y-60633997D01*
X210464405Y-60729235D01*
X210455078Y-60740600D01*
X210454046Y-60743090D01*
X210452281Y-60745126D01*
X210446287Y-60758551D01*
X210398668Y-60901408D01*
X210397018Y-60908661D01*
X210396260Y-60910493D01*
X210395998Y-60913147D01*
X210395408Y-60915745D01*
X210395548Y-60917719D01*
X210394819Y-60925125D01*
X210283708Y-60925125D01*
X210283708Y-59963364D01*
X210395408Y-59963364D01*
X210396074Y-59972744D01*
X210395408Y-59982124D01*
X210397103Y-59987209D01*
X210397483Y-59992554D01*
X210401687Y-60000963D01*
X210404662Y-60009887D01*
X210408173Y-60013935D01*
X210410569Y-60018727D01*
X210417673Y-60024889D01*
X210423836Y-60031994D01*
X210428627Y-60034389D01*
X210432676Y-60037901D01*
X210446102Y-60043895D01*
X211446102Y-60377228D01*
X211460438Y-60380488D01*
X211489628Y-60378413D01*
X211515802Y-60365327D01*
X211534976Y-60343219D01*
X211544230Y-60315457D01*
X211542155Y-60286267D01*
X211529068Y-60260094D01*
X211506961Y-60240920D01*
X211493536Y-60234926D01*
X211259104Y-60156782D01*
X211259104Y-59788705D01*
X211493536Y-59710562D01*
X211506961Y-59704568D01*
X211529068Y-59685394D01*
X211542155Y-59659221D01*
X211544230Y-59630031D01*
X211534976Y-59602269D01*
X211515802Y-59580161D01*
X211489628Y-59567075D01*
X211460438Y-59565000D01*
X211446102Y-59568260D01*
X210446102Y-59901593D01*
X210432676Y-59907587D01*
X210428627Y-59911098D01*
X210423836Y-59913494D01*
X210417673Y-59920598D01*
X210410569Y-59926761D01*
X210408173Y-59931552D01*
X210404662Y-59935601D01*
X210401687Y-59944524D01*
X210397483Y-59952934D01*
X210397103Y-59958278D01*
X210395408Y-59963364D01*
X210283708Y-59963364D01*
X210283708Y-58877506D01*
X210394819Y-58877506D01*
X210394819Y-59448934D01*
X210396260Y-59463566D01*
X210407459Y-59490602D01*
X210428151Y-59511294D01*
X210455187Y-59522493D01*
X210484451Y-59522493D01*
X210511487Y-59511294D01*
X210532179Y-59490602D01*
X210543378Y-59463566D01*
X210544819Y-59448934D01*
X210544819Y-59238220D01*
X211469819Y-59238220D01*
X211484451Y-59236779D01*
X211511487Y-59225580D01*
X211532179Y-59204888D01*
X211543378Y-59177852D01*
X211543378Y-59148588D01*
X211532179Y-59121552D01*
X211511487Y-59100860D01*
X211484451Y-59089661D01*
X211469819Y-59088220D01*
X210544819Y-59088220D01*
X210544819Y-58877506D01*
X210543378Y-58862874D01*
X210532179Y-58835838D01*
X210511487Y-58815146D01*
X210484451Y-58803947D01*
X210455187Y-58803947D01*
X210428151Y-58815146D01*
X210407459Y-58835838D01*
X210396260Y-58862874D01*
X210394819Y-58877506D01*
X210283708Y-58877506D01*
X210283708Y-58344316D01*
X210395408Y-58344316D01*
X210396074Y-58353696D01*
X210395408Y-58363076D01*
X210397103Y-58368161D01*
X210397483Y-58373506D01*
X210401687Y-58381915D01*
X210404662Y-58390839D01*
X210408173Y-58394887D01*
X210410569Y-58399679D01*
X210417673Y-58405841D01*
X210423836Y-58412946D01*
X210428627Y-58415341D01*
X210432676Y-58418853D01*
X210446102Y-58424847D01*
X211446102Y-58758180D01*
X211460438Y-58761440D01*
X211489628Y-58759365D01*
X211515802Y-58746279D01*
X211534976Y-58724171D01*
X211544230Y-58696409D01*
X211542155Y-58667219D01*
X211529068Y-58641046D01*
X211506961Y-58621872D01*
X211493536Y-58615878D01*
X211259104Y-58537734D01*
X211259104Y-58169657D01*
X211493536Y-58091514D01*
X211506961Y-58085520D01*
X211529068Y-58066346D01*
X211542155Y-58040173D01*
X211544230Y-58010983D01*
X211534976Y-57983221D01*
X211515802Y-57961113D01*
X211489628Y-57948027D01*
X211460438Y-57945952D01*
X211446102Y-57949212D01*
X210446102Y-58282545D01*
X210432676Y-58288539D01*
X210428627Y-58292050D01*
X210423836Y-58294446D01*
X210417673Y-58301550D01*
X210410569Y-58307713D01*
X210408173Y-58312504D01*
X210404662Y-58316553D01*
X210401687Y-58325476D01*
X210397483Y-58333886D01*
X210397103Y-58339230D01*
X210395408Y-58344316D01*
X210283708Y-58344316D01*
X210283708Y-56544172D01*
X210394819Y-56544172D01*
X210394819Y-56925124D01*
X210396260Y-56939756D01*
X210407459Y-56966792D01*
X210428151Y-56987484D01*
X210455187Y-56998683D01*
X210469819Y-57000124D01*
X211469819Y-57000124D01*
X211484451Y-56998683D01*
X211511487Y-56987484D01*
X211532179Y-56966792D01*
X211543378Y-56939756D01*
X211543378Y-56910492D01*
X211532179Y-56883456D01*
X211511487Y-56862764D01*
X211484451Y-56851565D01*
X211469819Y-56850124D01*
X211068628Y-56850124D01*
X211068628Y-56544172D01*
X211067187Y-56529540D01*
X211066156Y-56527051D01*
X211065965Y-56524362D01*
X211060710Y-56510631D01*
X211013091Y-56415393D01*
X211009126Y-56409093D01*
X211008369Y-56407266D01*
X211006680Y-56405209D01*
X211005259Y-56402950D01*
X211003760Y-56401650D01*
X210999042Y-56395901D01*
X210951423Y-56348282D01*
X210945673Y-56343563D01*
X210944374Y-56342065D01*
X210942114Y-56340643D01*
X210940058Y-56338955D01*
X210938230Y-56338197D01*
X210931931Y-56334233D01*
X210836693Y-56286614D01*
X210822961Y-56281359D01*
X210820273Y-56281168D01*
X210817784Y-56280137D01*
X210803152Y-56278696D01*
X210660295Y-56278696D01*
X210645663Y-56280137D01*
X210643174Y-56281167D01*
X210640485Y-56281359D01*
X210626754Y-56286614D01*
X210531516Y-56334233D01*
X210525216Y-56338197D01*
X210523389Y-56338955D01*
X210521332Y-56340643D01*
X210519073Y-56342065D01*
X210517773Y-56343563D01*
X210512024Y-56348282D01*
X210464405Y-56395901D01*
X210459686Y-56401650D01*
X210458188Y-56402950D01*
X210456766Y-56405209D01*
X210455078Y-56407266D01*
X210454320Y-56409093D01*
X210450356Y-56415393D01*
X210402737Y-56510631D01*
X210397482Y-56524363D01*
X210397291Y-56527050D01*
X210396260Y-56529540D01*
X210394819Y-56544172D01*
X210283708Y-56544172D01*
X210283708Y-55910492D01*
X210396260Y-55910492D01*
X210396260Y-55939756D01*
X210407459Y-55966792D01*
X210428151Y-55987484D01*
X210455187Y-55998683D01*
X210469819Y-56000124D01*
X211469819Y-56000124D01*
X211484451Y-55998683D01*
X211511487Y-55987484D01*
X211532179Y-55966792D01*
X211543378Y-55939756D01*
X211543378Y-55910492D01*
X211532179Y-55883456D01*
X211511487Y-55862764D01*
X211484451Y-55851565D01*
X211469819Y-55850124D01*
X210469819Y-55850124D01*
X210455187Y-55851565D01*
X210428151Y-55862764D01*
X210407459Y-55883456D01*
X210396260Y-55910492D01*
X210283708Y-55910492D01*
X210283708Y-55443695D01*
X210395002Y-55443695D01*
X210396260Y-55453591D01*
X210396260Y-55463566D01*
X210398089Y-55467981D01*
X210398692Y-55472725D01*
X210403642Y-55481389D01*
X210407459Y-55490602D01*
X210410837Y-55493980D01*
X210413211Y-55498134D01*
X210421100Y-55504243D01*
X210428151Y-55511294D01*
X210432567Y-55513123D01*
X210436348Y-55516051D01*
X210445971Y-55518675D01*
X210455187Y-55522493D01*
X210462669Y-55523229D01*
X210464580Y-55523751D01*
X210466055Y-55523563D01*
X210469819Y-55523934D01*
X211469819Y-55523934D01*
X211484451Y-55522493D01*
X211511487Y-55511294D01*
X211532179Y-55490602D01*
X211543378Y-55463566D01*
X211543378Y-55434302D01*
X211532179Y-55407266D01*
X211511487Y-55386574D01*
X211484451Y-55375375D01*
X211469819Y-55373934D01*
X210752236Y-55373934D01*
X211507030Y-54942624D01*
X211510114Y-54940434D01*
X211511487Y-54939866D01*
X211512884Y-54938468D01*
X211519019Y-54934114D01*
X211525127Y-54926225D01*
X211532179Y-54919174D01*
X211534009Y-54914755D01*
X211536936Y-54910976D01*
X211539560Y-54901354D01*
X211543378Y-54892138D01*
X211543378Y-54887357D01*
X211544636Y-54882745D01*
X211543378Y-54872848D01*
X211543378Y-54862874D01*
X211541548Y-54858458D01*
X211540946Y-54853715D01*
X211535995Y-54845050D01*
X211532179Y-54835838D01*
X211528800Y-54832459D01*
X211526427Y-54828306D01*
X211518537Y-54822196D01*
X211511487Y-54815146D01*
X211507070Y-54813316D01*
X211503290Y-54810389D01*
X211493666Y-54807764D01*
X211484451Y-54803947D01*
X211476968Y-54803210D01*
X211475058Y-54802689D01*
X211473582Y-54802876D01*
X211469819Y-54802506D01*
X210469819Y-54802506D01*
X210455187Y-54803947D01*
X210428151Y-54815146D01*
X210407459Y-54835838D01*
X210396260Y-54862874D01*
X210396260Y-54892138D01*
X210407459Y-54919174D01*
X210428151Y-54939866D01*
X210455187Y-54951065D01*
X210469819Y-54952506D01*
X211187402Y-54952506D01*
X210432609Y-55383816D01*
X210429525Y-55386004D01*
X210428151Y-55386574D01*
X210426751Y-55387973D01*
X210420619Y-55392326D01*
X210414509Y-55400215D01*
X210407459Y-55407266D01*
X210405629Y-55411682D01*
X210402702Y-55415463D01*
X210400077Y-55425086D01*
X210396260Y-55434302D01*
X210396260Y-55439082D01*
X210395002Y-55443695D01*
X210283708Y-55443695D01*
X210283708Y-54020363D01*
X210394819Y-54020363D01*
X210394819Y-54258458D01*
X210396260Y-54273090D01*
X210397291Y-54275579D01*
X210397482Y-54278267D01*
X210402737Y-54291999D01*
X210450356Y-54387237D01*
X210454320Y-54393536D01*
X210455078Y-54395364D01*
X210456766Y-54397420D01*
X210458188Y-54399680D01*
X210459686Y-54400979D01*
X210464405Y-54406729D01*
X210512024Y-54454348D01*
X210517773Y-54459066D01*
X210519073Y-54460565D01*
X210521332Y-54461986D01*
X210523389Y-54463675D01*
X210525216Y-54464432D01*
X210531516Y-54468397D01*
X210626754Y-54516016D01*
X210640485Y-54521271D01*
X210643174Y-54521462D01*
X210645663Y-54522493D01*
X210660295Y-54523934D01*
X210755533Y-54523934D01*
X210770165Y-54522493D01*
X210772654Y-54521461D01*
X210775342Y-54521271D01*
X210789074Y-54516016D01*
X210884312Y-54468397D01*
X210890611Y-54464432D01*
X210892439Y-54463675D01*
X210894495Y-54461986D01*
X210896755Y-54460565D01*
X210898054Y-54459066D01*
X210903804Y-54454348D01*
X210951423Y-54406729D01*
X210956141Y-54400979D01*
X210957640Y-54399680D01*
X210959061Y-54397420D01*
X210960750Y-54395364D01*
X210961507Y-54393536D01*
X210965472Y-54387237D01*
X211013091Y-54291999D01*
X211013500Y-54290929D01*
X211013823Y-54290494D01*
X211016015Y-54284357D01*
X211018346Y-54278268D01*
X211018384Y-54277727D01*
X211018770Y-54276648D01*
X211064392Y-54094158D01*
X211102886Y-54017171D01*
X211133293Y-53986764D01*
X211201809Y-53952506D01*
X211261637Y-53952506D01*
X211330153Y-53986764D01*
X211360561Y-54017171D01*
X211394819Y-54085687D01*
X211394819Y-54293907D01*
X211351049Y-54425217D01*
X211347789Y-54439554D01*
X211349864Y-54468744D01*
X211362950Y-54494917D01*
X211385057Y-54514091D01*
X211412820Y-54523345D01*
X211442010Y-54521270D01*
X211468183Y-54508184D01*
X211487357Y-54486077D01*
X211493351Y-54472651D01*
X211540970Y-54329795D01*
X211542619Y-54322539D01*
X211543378Y-54320709D01*
X211543639Y-54318055D01*
X211544230Y-54315458D01*
X211544089Y-54313483D01*
X211544819Y-54306077D01*
X211544819Y-54067982D01*
X211543378Y-54053350D01*
X211542347Y-54050861D01*
X211542156Y-54048172D01*
X211536901Y-54034441D01*
X211489282Y-53939203D01*
X211485317Y-53932903D01*
X211484560Y-53931076D01*
X211482872Y-53929019D01*
X211481450Y-53926760D01*
X211479950Y-53925459D01*
X211475232Y-53919710D01*
X211427612Y-53872091D01*
X211421863Y-53867373D01*
X211420564Y-53865875D01*
X211418305Y-53864453D01*
X211416247Y-53862764D01*
X211414417Y-53862006D01*
X211408121Y-53858043D01*
X211312883Y-53810424D01*
X211299151Y-53805169D01*
X211296463Y-53804978D01*
X211293974Y-53803947D01*
X211279342Y-53802506D01*
X211184104Y-53802506D01*
X211169472Y-53803947D01*
X211166983Y-53804977D01*
X211164294Y-53805169D01*
X211150563Y-53810424D01*
X211055325Y-53858043D01*
X211049025Y-53862007D01*
X211047198Y-53862765D01*
X211045141Y-53864453D01*
X211042882Y-53865875D01*
X211041582Y-53867373D01*
X211035833Y-53872092D01*
X210988214Y-53919711D01*
X210983495Y-53925460D01*
X210981997Y-53926760D01*
X210980575Y-53929019D01*
X210978887Y-53931076D01*
X210978129Y-53932903D01*
X210974165Y-53939203D01*
X210926546Y-54034441D01*
X210926136Y-54035510D01*
X210925814Y-54035946D01*
X210923618Y-54042091D01*
X210921291Y-54048173D01*
X210921252Y-54048712D01*
X210920867Y-54049792D01*
X210875244Y-54232282D01*
X210836751Y-54309269D01*
X210806344Y-54339676D01*
X210737828Y-54373934D01*
X210678000Y-54373934D01*
X210609484Y-54339676D01*
X210579077Y-54309269D01*
X210544819Y-54240753D01*
X210544819Y-54032533D01*
X210588589Y-53901224D01*
X210591849Y-53886887D01*
X210589774Y-53857697D01*
X210576688Y-53831523D01*
X210554580Y-53812349D01*
X210526818Y-53803095D01*
X210497628Y-53805170D01*
X210471455Y-53818257D01*
X210452281Y-53840364D01*
X210446287Y-53853789D01*
X210398668Y-53996646D01*
X210397018Y-54003899D01*
X210396260Y-54005731D01*
X210395998Y-54008385D01*
X210395408Y-54010983D01*
X210395548Y-54012957D01*
X210394819Y-54020363D01*
X210283708Y-54020363D01*
X210283708Y-53691395D01*
X211655930Y-53691395D01*
X211655930Y-61349331D01*
G37*
G36*
X185355930Y-59271600D02*
G01*
X183983708Y-59271600D01*
X183983708Y-58562030D01*
X184094819Y-58562030D01*
X184094819Y-59038220D01*
X184095351Y-59043631D01*
X184095169Y-59045460D01*
X184095707Y-59047246D01*
X184096260Y-59052852D01*
X184100454Y-59062978D01*
X184103622Y-59073476D01*
X184106013Y-59076399D01*
X184107459Y-59079888D01*
X184115212Y-59087641D01*
X184122153Y-59096124D01*
X184125479Y-59097908D01*
X184128151Y-59100580D01*
X184138280Y-59104775D01*
X184147940Y-59109958D01*
X184153464Y-59111065D01*
X184155187Y-59111779D01*
X184157024Y-59111779D01*
X184162356Y-59112848D01*
X184638546Y-59160467D01*
X184653249Y-59160489D01*
X184656865Y-59159398D01*
X184660640Y-59159398D01*
X184670764Y-59155204D01*
X184681265Y-59152036D01*
X184684189Y-59149643D01*
X184687676Y-59148199D01*
X184695424Y-59140450D01*
X184703913Y-59133505D01*
X184705698Y-59130176D01*
X184708369Y-59127506D01*
X184712562Y-59117381D01*
X184717747Y-59107718D01*
X184718122Y-59103958D01*
X184719568Y-59100470D01*
X184719568Y-59089508D01*
X184720659Y-59078599D01*
X184719568Y-59074983D01*
X184719568Y-59071207D01*
X184715373Y-59061080D01*
X184712206Y-59050583D01*
X184709814Y-59047659D01*
X184708369Y-59044171D01*
X184699042Y-59032806D01*
X184660029Y-58993793D01*
X184625771Y-58925277D01*
X184625771Y-58722592D01*
X184660029Y-58654076D01*
X184690436Y-58623669D01*
X184758952Y-58589411D01*
X184961637Y-58589411D01*
X185030153Y-58623669D01*
X185060561Y-58654076D01*
X185094819Y-58722592D01*
X185094819Y-58925277D01*
X185060561Y-58993792D01*
X185021548Y-59032805D01*
X185012220Y-59044171D01*
X185001021Y-59071207D01*
X185001021Y-59100470D01*
X185012219Y-59127506D01*
X185032912Y-59148199D01*
X185059948Y-59159398D01*
X185089211Y-59159398D01*
X185116247Y-59148200D01*
X185127612Y-59138873D01*
X185175232Y-59091254D01*
X185179950Y-59085504D01*
X185181450Y-59084204D01*
X185182872Y-59081944D01*
X185184560Y-59079888D01*
X185185317Y-59078060D01*
X185189282Y-59071761D01*
X185236901Y-58976523D01*
X185242156Y-58962792D01*
X185242347Y-58960102D01*
X185243378Y-58957614D01*
X185244819Y-58942982D01*
X185244819Y-58704887D01*
X185243378Y-58690255D01*
X185242347Y-58687766D01*
X185242156Y-58685077D01*
X185236901Y-58671346D01*
X185189282Y-58576108D01*
X185185317Y-58569808D01*
X185184560Y-58567981D01*
X185182872Y-58565924D01*
X185181450Y-58563665D01*
X185179950Y-58562364D01*
X185175232Y-58556615D01*
X185127612Y-58508996D01*
X185121863Y-58504278D01*
X185120564Y-58502780D01*
X185118305Y-58501358D01*
X185116247Y-58499669D01*
X185114417Y-58498911D01*
X185108121Y-58494948D01*
X185012883Y-58447329D01*
X184999151Y-58442074D01*
X184996463Y-58441883D01*
X184993974Y-58440852D01*
X184979342Y-58439411D01*
X184741247Y-58439411D01*
X184726615Y-58440852D01*
X184724126Y-58441882D01*
X184721437Y-58442074D01*
X184707706Y-58447329D01*
X184612468Y-58494948D01*
X184606168Y-58498912D01*
X184604341Y-58499670D01*
X184602284Y-58501358D01*
X184600025Y-58502780D01*
X184598725Y-58504278D01*
X184592976Y-58508997D01*
X184545357Y-58556616D01*
X184540638Y-58562365D01*
X184539140Y-58563665D01*
X184537718Y-58565924D01*
X184536030Y-58567981D01*
X184535272Y-58569808D01*
X184531308Y-58576108D01*
X184483689Y-58671346D01*
X184478434Y-58685078D01*
X184478243Y-58687765D01*
X184477212Y-58690255D01*
X184475771Y-58704887D01*
X184475771Y-58942982D01*
X184477212Y-58957614D01*
X184478243Y-58960103D01*
X184478434Y-58962791D01*
X184483689Y-58976523D01*
X184493009Y-58995164D01*
X184244819Y-58970345D01*
X184244819Y-58562030D01*
X184243378Y-58547398D01*
X184232179Y-58520362D01*
X184211487Y-58499670D01*
X184184451Y-58488471D01*
X184155187Y-58488471D01*
X184128151Y-58499670D01*
X184107459Y-58520362D01*
X184096260Y-58547398D01*
X184094819Y-58562030D01*
X183983708Y-58562030D01*
X183983708Y-57552650D01*
X184095408Y-57552650D01*
X184097483Y-57581840D01*
X184110569Y-57608013D01*
X184132676Y-57627187D01*
X184146102Y-57633181D01*
X184932648Y-57895363D01*
X184146102Y-58157545D01*
X184132676Y-58163539D01*
X184110569Y-58182713D01*
X184097483Y-58208886D01*
X184095408Y-58238076D01*
X184104662Y-58265839D01*
X184123836Y-58287946D01*
X184150009Y-58301032D01*
X184179199Y-58303107D01*
X184193536Y-58299847D01*
X185193536Y-57966514D01*
X185206961Y-57960520D01*
X185211008Y-57957009D01*
X185215802Y-57954613D01*
X185221966Y-57947505D01*
X185229068Y-57941346D01*
X185231463Y-57936554D01*
X185234976Y-57932505D01*
X185237950Y-57923582D01*
X185242155Y-57915173D01*
X185242534Y-57909828D01*
X185244230Y-57904743D01*
X185243563Y-57895363D01*
X185244230Y-57885983D01*
X185242534Y-57880897D01*
X185242155Y-57875553D01*
X185237950Y-57867143D01*
X185234976Y-57858221D01*
X185231463Y-57854171D01*
X185229068Y-57849380D01*
X185221966Y-57843220D01*
X185215802Y-57836113D01*
X185211008Y-57833716D01*
X185206961Y-57830206D01*
X185193536Y-57824212D01*
X184193536Y-57490879D01*
X184179199Y-57487619D01*
X184150009Y-57489694D01*
X184123836Y-57502780D01*
X184104662Y-57524887D01*
X184095408Y-57552650D01*
X183983708Y-57552650D01*
X183983708Y-57376508D01*
X185355930Y-57376508D01*
X185355930Y-59271600D01*
G37*
X223969819Y-55813220D02*
X222969819Y-55813220D01*
X222969819Y-55813220D02*
X222969819Y-55432268D01*
X222969819Y-55432268D02*
X223017438Y-55337030D01*
X223017438Y-55337030D02*
X223065057Y-55289411D01*
X223065057Y-55289411D02*
X223160295Y-55241792D01*
X223160295Y-55241792D02*
X223303152Y-55241792D01*
X223303152Y-55241792D02*
X223398390Y-55289411D01*
X223398390Y-55289411D02*
X223446009Y-55337030D01*
X223446009Y-55337030D02*
X223493628Y-55432268D01*
X223493628Y-55432268D02*
X223493628Y-55813220D01*
X223684104Y-54860839D02*
X223684104Y-54384649D01*
X223969819Y-54956077D02*
X222969819Y-54622744D01*
X222969819Y-54622744D02*
X223969819Y-54289411D01*
X222969819Y-54051315D02*
X222969819Y-53384649D01*
X222969819Y-53384649D02*
X223969819Y-53813220D01*
X189422200Y-84510839D02*
X189469819Y-84367982D01*
X189469819Y-84367982D02*
X189469819Y-84129887D01*
X189469819Y-84129887D02*
X189422200Y-84034649D01*
X189422200Y-84034649D02*
X189374580Y-83987030D01*
X189374580Y-83987030D02*
X189279342Y-83939411D01*
X189279342Y-83939411D02*
X189184104Y-83939411D01*
X189184104Y-83939411D02*
X189088866Y-83987030D01*
X189088866Y-83987030D02*
X189041247Y-84034649D01*
X189041247Y-84034649D02*
X188993628Y-84129887D01*
X188993628Y-84129887D02*
X188946009Y-84320363D01*
X188946009Y-84320363D02*
X188898390Y-84415601D01*
X188898390Y-84415601D02*
X188850771Y-84463220D01*
X188850771Y-84463220D02*
X188755533Y-84510839D01*
X188755533Y-84510839D02*
X188660295Y-84510839D01*
X188660295Y-84510839D02*
X188565057Y-84463220D01*
X188565057Y-84463220D02*
X188517438Y-84415601D01*
X188517438Y-84415601D02*
X188469819Y-84320363D01*
X188469819Y-84320363D02*
X188469819Y-84082268D01*
X188469819Y-84082268D02*
X188517438Y-83939411D01*
X188469819Y-83606077D02*
X189469819Y-83367982D01*
X189469819Y-83367982D02*
X188755533Y-83177506D01*
X188755533Y-83177506D02*
X189469819Y-82987030D01*
X189469819Y-82987030D02*
X188469819Y-82748935D01*
X189469819Y-82367982D02*
X188469819Y-82367982D01*
X188469819Y-82367982D02*
X188469819Y-82129887D01*
X188469819Y-82129887D02*
X188517438Y-81987030D01*
X188517438Y-81987030D02*
X188612676Y-81891792D01*
X188612676Y-81891792D02*
X188707914Y-81844173D01*
X188707914Y-81844173D02*
X188898390Y-81796554D01*
X188898390Y-81796554D02*
X189041247Y-81796554D01*
X189041247Y-81796554D02*
X189231723Y-81844173D01*
X189231723Y-81844173D02*
X189326961Y-81891792D01*
X189326961Y-81891792D02*
X189422200Y-81987030D01*
X189422200Y-81987030D02*
X189469819Y-82129887D01*
X189469819Y-82129887D02*
X189469819Y-82367982D01*
X195769819Y-86163220D02*
X194769819Y-86163220D01*
X194769819Y-85496554D02*
X194769819Y-85306078D01*
X194769819Y-85306078D02*
X194817438Y-85210840D01*
X194817438Y-85210840D02*
X194912676Y-85115602D01*
X194912676Y-85115602D02*
X195103152Y-85067983D01*
X195103152Y-85067983D02*
X195436485Y-85067983D01*
X195436485Y-85067983D02*
X195626961Y-85115602D01*
X195626961Y-85115602D02*
X195722200Y-85210840D01*
X195722200Y-85210840D02*
X195769819Y-85306078D01*
X195769819Y-85306078D02*
X195769819Y-85496554D01*
X195769819Y-85496554D02*
X195722200Y-85591792D01*
X195722200Y-85591792D02*
X195626961Y-85687030D01*
X195626961Y-85687030D02*
X195436485Y-85734649D01*
X195436485Y-85734649D02*
X195103152Y-85734649D01*
X195103152Y-85734649D02*
X194912676Y-85687030D01*
X194912676Y-85687030D02*
X194817438Y-85591792D01*
X194817438Y-85591792D02*
X194769819Y-85496554D01*
X214069819Y-55863220D02*
X213069819Y-55863220D01*
X213069819Y-55863220D02*
X213069819Y-55482268D01*
X213069819Y-55482268D02*
X213117438Y-55387030D01*
X213117438Y-55387030D02*
X213165057Y-55339411D01*
X213165057Y-55339411D02*
X213260295Y-55291792D01*
X213260295Y-55291792D02*
X213403152Y-55291792D01*
X213403152Y-55291792D02*
X213498390Y-55339411D01*
X213498390Y-55339411D02*
X213546009Y-55387030D01*
X213546009Y-55387030D02*
X213593628Y-55482268D01*
X213593628Y-55482268D02*
X213593628Y-55863220D01*
X213546009Y-54529887D02*
X213593628Y-54387030D01*
X213593628Y-54387030D02*
X213641247Y-54339411D01*
X213641247Y-54339411D02*
X213736485Y-54291792D01*
X213736485Y-54291792D02*
X213879342Y-54291792D01*
X213879342Y-54291792D02*
X213974580Y-54339411D01*
X213974580Y-54339411D02*
X214022200Y-54387030D01*
X214022200Y-54387030D02*
X214069819Y-54482268D01*
X214069819Y-54482268D02*
X214069819Y-54863220D01*
X214069819Y-54863220D02*
X213069819Y-54863220D01*
X213069819Y-54863220D02*
X213069819Y-54529887D01*
X213069819Y-54529887D02*
X213117438Y-54434649D01*
X213117438Y-54434649D02*
X213165057Y-54387030D01*
X213165057Y-54387030D02*
X213260295Y-54339411D01*
X213260295Y-54339411D02*
X213355533Y-54339411D01*
X213355533Y-54339411D02*
X213450771Y-54387030D01*
X213450771Y-54387030D02*
X213498390Y-54434649D01*
X213498390Y-54434649D02*
X213546009Y-54529887D01*
X213546009Y-54529887D02*
X213546009Y-54863220D01*
X214069819Y-53339411D02*
X214069819Y-53910839D01*
X214069819Y-53625125D02*
X213069819Y-53625125D01*
X213069819Y-53625125D02*
X213212676Y-53720363D01*
X213212676Y-53720363D02*
X213307914Y-53815601D01*
X213307914Y-53815601D02*
X213355533Y-53910839D01*
X214069819Y-52387030D02*
X214069819Y-52958458D01*
X214069819Y-52672744D02*
X213069819Y-52672744D01*
X213069819Y-52672744D02*
X213212676Y-52767982D01*
X213212676Y-52767982D02*
X213307914Y-52863220D01*
X213307914Y-52863220D02*
X213355533Y-52958458D01*
X189489160Y-50922200D02*
X189632017Y-50969819D01*
X189632017Y-50969819D02*
X189870112Y-50969819D01*
X189870112Y-50969819D02*
X189965350Y-50922200D01*
X189965350Y-50922200D02*
X190012969Y-50874580D01*
X190012969Y-50874580D02*
X190060588Y-50779342D01*
X190060588Y-50779342D02*
X190060588Y-50684104D01*
X190060588Y-50684104D02*
X190012969Y-50588866D01*
X190012969Y-50588866D02*
X189965350Y-50541247D01*
X189965350Y-50541247D02*
X189870112Y-50493628D01*
X189870112Y-50493628D02*
X189679636Y-50446009D01*
X189679636Y-50446009D02*
X189584398Y-50398390D01*
X189584398Y-50398390D02*
X189536779Y-50350771D01*
X189536779Y-50350771D02*
X189489160Y-50255533D01*
X189489160Y-50255533D02*
X189489160Y-50160295D01*
X189489160Y-50160295D02*
X189536779Y-50065057D01*
X189536779Y-50065057D02*
X189584398Y-50017438D01*
X189584398Y-50017438D02*
X189679636Y-49969819D01*
X189679636Y-49969819D02*
X189917731Y-49969819D01*
X189917731Y-49969819D02*
X190060588Y-50017438D01*
X190679636Y-49969819D02*
X190774874Y-49969819D01*
X190774874Y-49969819D02*
X190870112Y-50017438D01*
X190870112Y-50017438D02*
X190917731Y-50065057D01*
X190917731Y-50065057D02*
X190965350Y-50160295D01*
X190965350Y-50160295D02*
X191012969Y-50350771D01*
X191012969Y-50350771D02*
X191012969Y-50588866D01*
X191012969Y-50588866D02*
X190965350Y-50779342D01*
X190965350Y-50779342D02*
X190917731Y-50874580D01*
X190917731Y-50874580D02*
X190870112Y-50922200D01*
X190870112Y-50922200D02*
X190774874Y-50969819D01*
X190774874Y-50969819D02*
X190679636Y-50969819D01*
X190679636Y-50969819D02*
X190584398Y-50922200D01*
X190584398Y-50922200D02*
X190536779Y-50874580D01*
X190536779Y-50874580D02*
X190489160Y-50779342D01*
X190489160Y-50779342D02*
X190441541Y-50588866D01*
X190441541Y-50588866D02*
X190441541Y-50350771D01*
X190441541Y-50350771D02*
X190489160Y-50160295D01*
X190489160Y-50160295D02*
X190536779Y-50065057D01*
X190536779Y-50065057D02*
X190584398Y-50017438D01*
X190584398Y-50017438D02*
X190679636Y-49969819D01*
G36*
X191855930Y-88243128D02*
G01*
X190483708Y-88243128D01*
X190483708Y-87439411D01*
X190594819Y-87439411D01*
X190594819Y-88058458D01*
X190596260Y-88073090D01*
X190607459Y-88100126D01*
X190628151Y-88120818D01*
X190655187Y-88132017D01*
X190684451Y-88132017D01*
X190711487Y-88120818D01*
X190732179Y-88100126D01*
X190743378Y-88073090D01*
X190744819Y-88058458D01*
X190744819Y-87604693D01*
X191001383Y-87829187D01*
X191007707Y-87833708D01*
X191009103Y-87835104D01*
X191010426Y-87835652D01*
X191013344Y-87837738D01*
X191024881Y-87841639D01*
X191036139Y-87846303D01*
X191038670Y-87846303D01*
X191041065Y-87847113D01*
X191053218Y-87846303D01*
X191065403Y-87846303D01*
X191067739Y-87845335D01*
X191070263Y-87845167D01*
X191081188Y-87839764D01*
X191092439Y-87835104D01*
X191094225Y-87833317D01*
X191096495Y-87832195D01*
X191104520Y-87823022D01*
X191113131Y-87814412D01*
X191114099Y-87812075D01*
X191115765Y-87810171D01*
X191119666Y-87798633D01*
X191124330Y-87787376D01*
X191124681Y-87783805D01*
X191125140Y-87782450D01*
X191125008Y-87780482D01*
X191125771Y-87772744D01*
X191125771Y-87647592D01*
X191160029Y-87579076D01*
X191190436Y-87548669D01*
X191258952Y-87514411D01*
X191461637Y-87514411D01*
X191530153Y-87548669D01*
X191560561Y-87579076D01*
X191594819Y-87647592D01*
X191594819Y-87897896D01*
X191560561Y-87966411D01*
X191521548Y-88005424D01*
X191512220Y-88016790D01*
X191501021Y-88043826D01*
X191501021Y-88073089D01*
X191512219Y-88100125D01*
X191532912Y-88120818D01*
X191559948Y-88132017D01*
X191589211Y-88132017D01*
X191616247Y-88120819D01*
X191627612Y-88111492D01*
X191675232Y-88063873D01*
X191679950Y-88058123D01*
X191681450Y-88056823D01*
X191682872Y-88054563D01*
X191684560Y-88052507D01*
X191685317Y-88050679D01*
X191689282Y-88044380D01*
X191736901Y-87949142D01*
X191742156Y-87935411D01*
X191742347Y-87932721D01*
X191743378Y-87930233D01*
X191744819Y-87915601D01*
X191744819Y-87629887D01*
X191743378Y-87615255D01*
X191742347Y-87612766D01*
X191742156Y-87610077D01*
X191736901Y-87596346D01*
X191689282Y-87501108D01*
X191685317Y-87494808D01*
X191684560Y-87492981D01*
X191682872Y-87490924D01*
X191681450Y-87488665D01*
X191679950Y-87487364D01*
X191675232Y-87481615D01*
X191627612Y-87433996D01*
X191621863Y-87429278D01*
X191620564Y-87427780D01*
X191618305Y-87426358D01*
X191616247Y-87424669D01*
X191614417Y-87423911D01*
X191608121Y-87419948D01*
X191512883Y-87372329D01*
X191499151Y-87367074D01*
X191496463Y-87366883D01*
X191493974Y-87365852D01*
X191479342Y-87364411D01*
X191241247Y-87364411D01*
X191226615Y-87365852D01*
X191224126Y-87366882D01*
X191221437Y-87367074D01*
X191207706Y-87372329D01*
X191112468Y-87419948D01*
X191106168Y-87423912D01*
X191104341Y-87424670D01*
X191102284Y-87426358D01*
X191100025Y-87427780D01*
X191098725Y-87429278D01*
X191092976Y-87433997D01*
X191045357Y-87481616D01*
X191040638Y-87487365D01*
X191039140Y-87488665D01*
X191037718Y-87490924D01*
X191036030Y-87492981D01*
X191035272Y-87494808D01*
X191031308Y-87501108D01*
X190983689Y-87596346D01*
X190978516Y-87609863D01*
X190719207Y-87382968D01*
X190712882Y-87378446D01*
X190711487Y-87377051D01*
X190710163Y-87376502D01*
X190707246Y-87374417D01*
X190695708Y-87370515D01*
X190684451Y-87365852D01*
X190681920Y-87365852D01*
X190679525Y-87365042D01*
X190667372Y-87365852D01*
X190655187Y-87365852D01*
X190652850Y-87366819D01*
X190650327Y-87366988D01*
X190639401Y-87372390D01*
X190628151Y-87377051D01*
X190626364Y-87378837D01*
X190624095Y-87379960D01*
X190616069Y-87389132D01*
X190607459Y-87397743D01*
X190606490Y-87400079D01*
X190604825Y-87401984D01*
X190600923Y-87413521D01*
X190596260Y-87424779D01*
X190595908Y-87428349D01*
X190595450Y-87429705D01*
X190595581Y-87431672D01*
X190594819Y-87439411D01*
X190483708Y-87439411D01*
X190483708Y-86996207D01*
X191501021Y-86996207D01*
X191501021Y-87025470D01*
X191512219Y-87052506D01*
X191512220Y-87052507D01*
X191521548Y-87063873D01*
X191569167Y-87111491D01*
X191580533Y-87120819D01*
X191607569Y-87132017D01*
X191636832Y-87132017D01*
X191663868Y-87120818D01*
X191675233Y-87111491D01*
X191722852Y-87063872D01*
X191732179Y-87052507D01*
X191743378Y-87025471D01*
X191743378Y-86996208D01*
X191735775Y-86977852D01*
X191732179Y-86969171D01*
X191722852Y-86957806D01*
X191675233Y-86910187D01*
X191663868Y-86900860D01*
X191663866Y-86900859D01*
X191636832Y-86889661D01*
X191607569Y-86889661D01*
X191580533Y-86900859D01*
X191569167Y-86910187D01*
X191521548Y-86957805D01*
X191512220Y-86969171D01*
X191512219Y-86969172D01*
X191508624Y-86977852D01*
X191501021Y-86996207D01*
X190483708Y-86996207D01*
X190483708Y-86010840D01*
X190594819Y-86010840D01*
X190594819Y-86629887D01*
X190596260Y-86644519D01*
X190607459Y-86671555D01*
X190628151Y-86692247D01*
X190655187Y-86703446D01*
X190684451Y-86703446D01*
X190711487Y-86692247D01*
X190732179Y-86671555D01*
X190743378Y-86644519D01*
X190744819Y-86629887D01*
X190744819Y-86176122D01*
X191001383Y-86400616D01*
X191007707Y-86405137D01*
X191009103Y-86406533D01*
X191010426Y-86407081D01*
X191013344Y-86409167D01*
X191024881Y-86413068D01*
X191036139Y-86417732D01*
X191038670Y-86417732D01*
X191041065Y-86418542D01*
X191053218Y-86417732D01*
X191065403Y-86417732D01*
X191067739Y-86416764D01*
X191070263Y-86416596D01*
X191081188Y-86411193D01*
X191092439Y-86406533D01*
X191094225Y-86404746D01*
X191096495Y-86403624D01*
X191104520Y-86394451D01*
X191113131Y-86385841D01*
X191114099Y-86383504D01*
X191115765Y-86381600D01*
X191119666Y-86370062D01*
X191124330Y-86358805D01*
X191124681Y-86355234D01*
X191125140Y-86353879D01*
X191125008Y-86351911D01*
X191125771Y-86344173D01*
X191125771Y-86219021D01*
X191160029Y-86150505D01*
X191190436Y-86120098D01*
X191258952Y-86085840D01*
X191461637Y-86085840D01*
X191530153Y-86120098D01*
X191560561Y-86150505D01*
X191594819Y-86219021D01*
X191594819Y-86469325D01*
X191560561Y-86537840D01*
X191521548Y-86576853D01*
X191512220Y-86588219D01*
X191501021Y-86615255D01*
X191501021Y-86644518D01*
X191512219Y-86671554D01*
X191532912Y-86692247D01*
X191559948Y-86703446D01*
X191589211Y-86703446D01*
X191616247Y-86692248D01*
X191627612Y-86682921D01*
X191675232Y-86635302D01*
X191679950Y-86629552D01*
X191681450Y-86628252D01*
X191682872Y-86625992D01*
X191684560Y-86623936D01*
X191685317Y-86622108D01*
X191689282Y-86615809D01*
X191736901Y-86520571D01*
X191742156Y-86506840D01*
X191742347Y-86504150D01*
X191743378Y-86501662D01*
X191744819Y-86487030D01*
X191744819Y-86201316D01*
X191743378Y-86186684D01*
X191742347Y-86184195D01*
X191742156Y-86181506D01*
X191736901Y-86167775D01*
X191689282Y-86072537D01*
X191685317Y-86066237D01*
X191684560Y-86064410D01*
X191682872Y-86062353D01*
X191681450Y-86060094D01*
X191679950Y-86058793D01*
X191675232Y-86053044D01*
X191627612Y-86005425D01*
X191621863Y-86000707D01*
X191620564Y-85999209D01*
X191618305Y-85997787D01*
X191616247Y-85996098D01*
X191614417Y-85995340D01*
X191608121Y-85991377D01*
X191512883Y-85943758D01*
X191499151Y-85938503D01*
X191496463Y-85938312D01*
X191493974Y-85937281D01*
X191479342Y-85935840D01*
X191241247Y-85935840D01*
X191226615Y-85937281D01*
X191224126Y-85938311D01*
X191221437Y-85938503D01*
X191207706Y-85943758D01*
X191112468Y-85991377D01*
X191106168Y-85995341D01*
X191104341Y-85996099D01*
X191102284Y-85997787D01*
X191100025Y-85999209D01*
X191098725Y-86000707D01*
X191092976Y-86005426D01*
X191045357Y-86053045D01*
X191040638Y-86058794D01*
X191039140Y-86060094D01*
X191037718Y-86062353D01*
X191036030Y-86064410D01*
X191035272Y-86066237D01*
X191031308Y-86072537D01*
X190983689Y-86167775D01*
X190978516Y-86181292D01*
X190719207Y-85954397D01*
X190712882Y-85949875D01*
X190711487Y-85948480D01*
X190710163Y-85947931D01*
X190707246Y-85945846D01*
X190695708Y-85941944D01*
X190684451Y-85937281D01*
X190681920Y-85937281D01*
X190679525Y-85936471D01*
X190667372Y-85937281D01*
X190655187Y-85937281D01*
X190652850Y-85938248D01*
X190650327Y-85938417D01*
X190639401Y-85943819D01*
X190628151Y-85948480D01*
X190626364Y-85950266D01*
X190624095Y-85951389D01*
X190616069Y-85960561D01*
X190607459Y-85969172D01*
X190606490Y-85971508D01*
X190604825Y-85973413D01*
X190600923Y-85984950D01*
X190596260Y-85996208D01*
X190595908Y-85999778D01*
X190595450Y-86001134D01*
X190595581Y-86003101D01*
X190594819Y-86010840D01*
X190483708Y-86010840D01*
X190483708Y-85049079D01*
X190595408Y-85049079D01*
X190597483Y-85078269D01*
X190610569Y-85104442D01*
X190632676Y-85123616D01*
X190646102Y-85129610D01*
X191432648Y-85391792D01*
X190646102Y-85653974D01*
X190632676Y-85659968D01*
X190610569Y-85679142D01*
X190597483Y-85705315D01*
X190595408Y-85734505D01*
X190604662Y-85762268D01*
X190623836Y-85784375D01*
X190650009Y-85797461D01*
X190679199Y-85799536D01*
X190693536Y-85796276D01*
X191693536Y-85462943D01*
X191706961Y-85456949D01*
X191711008Y-85453438D01*
X191715802Y-85451042D01*
X191721966Y-85443934D01*
X191729068Y-85437775D01*
X191731463Y-85432983D01*
X191734976Y-85428934D01*
X191737950Y-85420011D01*
X191742155Y-85411602D01*
X191742534Y-85406257D01*
X191744230Y-85401172D01*
X191743563Y-85391792D01*
X191744230Y-85382412D01*
X191742534Y-85377326D01*
X191742155Y-85371982D01*
X191737950Y-85363572D01*
X191734976Y-85354650D01*
X191731463Y-85350600D01*
X191729068Y-85345809D01*
X191721966Y-85339649D01*
X191715802Y-85332542D01*
X191711008Y-85330145D01*
X191706961Y-85326635D01*
X191693536Y-85320641D01*
X190693536Y-84987308D01*
X190679199Y-84984048D01*
X190650009Y-84986123D01*
X190623836Y-84999209D01*
X190604662Y-85021316D01*
X190595408Y-85049079D01*
X190483708Y-85049079D01*
X190483708Y-84872937D01*
X191855930Y-84872937D01*
X191855930Y-88243128D01*
G37*
X220386779Y-87919819D02*
X220386779Y-86919819D01*
X220386779Y-86919819D02*
X220958207Y-87919819D01*
X220958207Y-87919819D02*
X220958207Y-86919819D01*
X222005826Y-87919819D02*
X221672493Y-87443628D01*
X221434398Y-87919819D02*
X221434398Y-86919819D01*
X221434398Y-86919819D02*
X221815350Y-86919819D01*
X221815350Y-86919819D02*
X221910588Y-86967438D01*
X221910588Y-86967438D02*
X221958207Y-87015057D01*
X221958207Y-87015057D02*
X222005826Y-87110295D01*
X222005826Y-87110295D02*
X222005826Y-87253152D01*
X222005826Y-87253152D02*
X221958207Y-87348390D01*
X221958207Y-87348390D02*
X221910588Y-87396009D01*
X221910588Y-87396009D02*
X221815350Y-87443628D01*
X221815350Y-87443628D02*
X221434398Y-87443628D01*
X222386779Y-87872200D02*
X222529636Y-87919819D01*
X222529636Y-87919819D02*
X222767731Y-87919819D01*
X222767731Y-87919819D02*
X222862969Y-87872200D01*
X222862969Y-87872200D02*
X222910588Y-87824580D01*
X222910588Y-87824580D02*
X222958207Y-87729342D01*
X222958207Y-87729342D02*
X222958207Y-87634104D01*
X222958207Y-87634104D02*
X222910588Y-87538866D01*
X222910588Y-87538866D02*
X222862969Y-87491247D01*
X222862969Y-87491247D02*
X222767731Y-87443628D01*
X222767731Y-87443628D02*
X222577255Y-87396009D01*
X222577255Y-87396009D02*
X222482017Y-87348390D01*
X222482017Y-87348390D02*
X222434398Y-87300771D01*
X222434398Y-87300771D02*
X222386779Y-87205533D01*
X222386779Y-87205533D02*
X222386779Y-87110295D01*
X222386779Y-87110295D02*
X222434398Y-87015057D01*
X222434398Y-87015057D02*
X222482017Y-86967438D01*
X222482017Y-86967438D02*
X222577255Y-86919819D01*
X222577255Y-86919819D02*
X222815350Y-86919819D01*
X222815350Y-86919819D02*
X222958207Y-86967438D01*
X223243922Y-86919819D02*
X223815350Y-86919819D01*
X223529636Y-87919819D02*
X223529636Y-86919819D01*
X219969819Y-55813220D02*
X218969819Y-55813220D01*
X218969819Y-55813220D02*
X218969819Y-55432268D01*
X218969819Y-55432268D02*
X219017438Y-55337030D01*
X219017438Y-55337030D02*
X219065057Y-55289411D01*
X219065057Y-55289411D02*
X219160295Y-55241792D01*
X219160295Y-55241792D02*
X219303152Y-55241792D01*
X219303152Y-55241792D02*
X219398390Y-55289411D01*
X219398390Y-55289411D02*
X219446009Y-55337030D01*
X219446009Y-55337030D02*
X219493628Y-55432268D01*
X219493628Y-55432268D02*
X219493628Y-55813220D01*
X219446009Y-54479887D02*
X219493628Y-54337030D01*
X219493628Y-54337030D02*
X219541247Y-54289411D01*
X219541247Y-54289411D02*
X219636485Y-54241792D01*
X219636485Y-54241792D02*
X219779342Y-54241792D01*
X219779342Y-54241792D02*
X219874580Y-54289411D01*
X219874580Y-54289411D02*
X219922200Y-54337030D01*
X219922200Y-54337030D02*
X219969819Y-54432268D01*
X219969819Y-54432268D02*
X219969819Y-54813220D01*
X219969819Y-54813220D02*
X218969819Y-54813220D01*
X218969819Y-54813220D02*
X218969819Y-54479887D01*
X218969819Y-54479887D02*
X219017438Y-54384649D01*
X219017438Y-54384649D02*
X219065057Y-54337030D01*
X219065057Y-54337030D02*
X219160295Y-54289411D01*
X219160295Y-54289411D02*
X219255533Y-54289411D01*
X219255533Y-54289411D02*
X219350771Y-54337030D01*
X219350771Y-54337030D02*
X219398390Y-54384649D01*
X219398390Y-54384649D02*
X219446009Y-54479887D01*
X219446009Y-54479887D02*
X219446009Y-54813220D01*
X219969819Y-53289411D02*
X219969819Y-53860839D01*
X219969819Y-53575125D02*
X218969819Y-53575125D01*
X218969819Y-53575125D02*
X219112676Y-53670363D01*
X219112676Y-53670363D02*
X219207914Y-53765601D01*
X219207914Y-53765601D02*
X219255533Y-53860839D01*
X221919819Y-55813220D02*
X220919819Y-55813220D01*
X220919819Y-55813220D02*
X220919819Y-55432268D01*
X220919819Y-55432268D02*
X220967438Y-55337030D01*
X220967438Y-55337030D02*
X221015057Y-55289411D01*
X221015057Y-55289411D02*
X221110295Y-55241792D01*
X221110295Y-55241792D02*
X221253152Y-55241792D01*
X221253152Y-55241792D02*
X221348390Y-55289411D01*
X221348390Y-55289411D02*
X221396009Y-55337030D01*
X221396009Y-55337030D02*
X221443628Y-55432268D01*
X221443628Y-55432268D02*
X221443628Y-55813220D01*
X221396009Y-54479887D02*
X221443628Y-54337030D01*
X221443628Y-54337030D02*
X221491247Y-54289411D01*
X221491247Y-54289411D02*
X221586485Y-54241792D01*
X221586485Y-54241792D02*
X221729342Y-54241792D01*
X221729342Y-54241792D02*
X221824580Y-54289411D01*
X221824580Y-54289411D02*
X221872200Y-54337030D01*
X221872200Y-54337030D02*
X221919819Y-54432268D01*
X221919819Y-54432268D02*
X221919819Y-54813220D01*
X221919819Y-54813220D02*
X220919819Y-54813220D01*
X220919819Y-54813220D02*
X220919819Y-54479887D01*
X220919819Y-54479887D02*
X220967438Y-54384649D01*
X220967438Y-54384649D02*
X221015057Y-54337030D01*
X221015057Y-54337030D02*
X221110295Y-54289411D01*
X221110295Y-54289411D02*
X221205533Y-54289411D01*
X221205533Y-54289411D02*
X221300771Y-54337030D01*
X221300771Y-54337030D02*
X221348390Y-54384649D01*
X221348390Y-54384649D02*
X221396009Y-54479887D01*
X221396009Y-54479887D02*
X221396009Y-54813220D01*
X220919819Y-53622744D02*
X220919819Y-53527506D01*
X220919819Y-53527506D02*
X220967438Y-53432268D01*
X220967438Y-53432268D02*
X221015057Y-53384649D01*
X221015057Y-53384649D02*
X221110295Y-53337030D01*
X221110295Y-53337030D02*
X221300771Y-53289411D01*
X221300771Y-53289411D02*
X221538866Y-53289411D01*
X221538866Y-53289411D02*
X221729342Y-53337030D01*
X221729342Y-53337030D02*
X221824580Y-53384649D01*
X221824580Y-53384649D02*
X221872200Y-53432268D01*
X221872200Y-53432268D02*
X221919819Y-53527506D01*
X221919819Y-53527506D02*
X221919819Y-53622744D01*
X221919819Y-53622744D02*
X221872200Y-53717982D01*
X221872200Y-53717982D02*
X221824580Y-53765601D01*
X221824580Y-53765601D02*
X221729342Y-53813220D01*
X221729342Y-53813220D02*
X221538866Y-53860839D01*
X221538866Y-53860839D02*
X221300771Y-53860839D01*
X221300771Y-53860839D02*
X221110295Y-53813220D01*
X221110295Y-53813220D02*
X221015057Y-53765601D01*
X221015057Y-53765601D02*
X220967438Y-53717982D01*
X220967438Y-53717982D02*
X220919819Y-53622744D01*
X197774580Y-86891792D02*
X197822200Y-86939411D01*
X197822200Y-86939411D02*
X197869819Y-87082268D01*
X197869819Y-87082268D02*
X197869819Y-87177506D01*
X197869819Y-87177506D02*
X197822200Y-87320363D01*
X197822200Y-87320363D02*
X197726961Y-87415601D01*
X197726961Y-87415601D02*
X197631723Y-87463220D01*
X197631723Y-87463220D02*
X197441247Y-87510839D01*
X197441247Y-87510839D02*
X197298390Y-87510839D01*
X197298390Y-87510839D02*
X197107914Y-87463220D01*
X197107914Y-87463220D02*
X197012676Y-87415601D01*
X197012676Y-87415601D02*
X196917438Y-87320363D01*
X196917438Y-87320363D02*
X196869819Y-87177506D01*
X196869819Y-87177506D02*
X196869819Y-87082268D01*
X196869819Y-87082268D02*
X196917438Y-86939411D01*
X196917438Y-86939411D02*
X196965057Y-86891792D01*
X197869819Y-85987030D02*
X197869819Y-86463220D01*
X197869819Y-86463220D02*
X196869819Y-86463220D01*
X197869819Y-85653696D02*
X196869819Y-85653696D01*
X197869819Y-85082268D02*
X197298390Y-85510839D01*
X196869819Y-85082268D02*
X197441247Y-85653696D01*
X201769819Y-88463220D02*
X200769819Y-88463220D01*
X200769819Y-88463220D02*
X201769819Y-87891792D01*
X201769819Y-87891792D02*
X200769819Y-87891792D01*
X201769819Y-86844173D02*
X201293628Y-87177506D01*
X201769819Y-87415601D02*
X200769819Y-87415601D01*
X200769819Y-87415601D02*
X200769819Y-87034649D01*
X200769819Y-87034649D02*
X200817438Y-86939411D01*
X200817438Y-86939411D02*
X200865057Y-86891792D01*
X200865057Y-86891792D02*
X200960295Y-86844173D01*
X200960295Y-86844173D02*
X201103152Y-86844173D01*
X201103152Y-86844173D02*
X201198390Y-86891792D01*
X201198390Y-86891792D02*
X201246009Y-86939411D01*
X201246009Y-86939411D02*
X201293628Y-87034649D01*
X201293628Y-87034649D02*
X201293628Y-87415601D01*
X201722200Y-86463220D02*
X201769819Y-86320363D01*
X201769819Y-86320363D02*
X201769819Y-86082268D01*
X201769819Y-86082268D02*
X201722200Y-85987030D01*
X201722200Y-85987030D02*
X201674580Y-85939411D01*
X201674580Y-85939411D02*
X201579342Y-85891792D01*
X201579342Y-85891792D02*
X201484104Y-85891792D01*
X201484104Y-85891792D02*
X201388866Y-85939411D01*
X201388866Y-85939411D02*
X201341247Y-85987030D01*
X201341247Y-85987030D02*
X201293628Y-86082268D01*
X201293628Y-86082268D02*
X201246009Y-86272744D01*
X201246009Y-86272744D02*
X201198390Y-86367982D01*
X201198390Y-86367982D02*
X201150771Y-86415601D01*
X201150771Y-86415601D02*
X201055533Y-86463220D01*
X201055533Y-86463220D02*
X200960295Y-86463220D01*
X200960295Y-86463220D02*
X200865057Y-86415601D01*
X200865057Y-86415601D02*
X200817438Y-86367982D01*
X200817438Y-86367982D02*
X200769819Y-86272744D01*
X200769819Y-86272744D02*
X200769819Y-86034649D01*
X200769819Y-86034649D02*
X200817438Y-85891792D01*
X200769819Y-85606077D02*
X200769819Y-85034649D01*
X201769819Y-85320363D02*
X200769819Y-85320363D01*
X186546009Y-81763220D02*
X186546009Y-81429887D01*
X187069819Y-81287030D02*
X187069819Y-81763220D01*
X187069819Y-81763220D02*
X186069819Y-81763220D01*
X186069819Y-81763220D02*
X186069819Y-81287030D01*
X187069819Y-80287030D02*
X186593628Y-80620363D01*
X187069819Y-80858458D02*
X186069819Y-80858458D01*
X186069819Y-80858458D02*
X186069819Y-80477506D01*
X186069819Y-80477506D02*
X186117438Y-80382268D01*
X186117438Y-80382268D02*
X186165057Y-80334649D01*
X186165057Y-80334649D02*
X186260295Y-80287030D01*
X186260295Y-80287030D02*
X186403152Y-80287030D01*
X186403152Y-80287030D02*
X186498390Y-80334649D01*
X186498390Y-80334649D02*
X186546009Y-80382268D01*
X186546009Y-80382268D02*
X186593628Y-80477506D01*
X186593628Y-80477506D02*
X186593628Y-80858458D01*
X187069819Y-79287030D02*
X186593628Y-79620363D01*
X187069819Y-79858458D02*
X186069819Y-79858458D01*
X186069819Y-79858458D02*
X186069819Y-79477506D01*
X186069819Y-79477506D02*
X186117438Y-79382268D01*
X186117438Y-79382268D02*
X186165057Y-79334649D01*
X186165057Y-79334649D02*
X186260295Y-79287030D01*
X186260295Y-79287030D02*
X186403152Y-79287030D01*
X186403152Y-79287030D02*
X186498390Y-79334649D01*
X186498390Y-79334649D02*
X186546009Y-79382268D01*
X186546009Y-79382268D02*
X186593628Y-79477506D01*
X186593628Y-79477506D02*
X186593628Y-79858458D01*
X222689160Y-50922200D02*
X222832017Y-50969819D01*
X222832017Y-50969819D02*
X223070112Y-50969819D01*
X223070112Y-50969819D02*
X223165350Y-50922200D01*
X223165350Y-50922200D02*
X223212969Y-50874580D01*
X223212969Y-50874580D02*
X223260588Y-50779342D01*
X223260588Y-50779342D02*
X223260588Y-50684104D01*
X223260588Y-50684104D02*
X223212969Y-50588866D01*
X223212969Y-50588866D02*
X223165350Y-50541247D01*
X223165350Y-50541247D02*
X223070112Y-50493628D01*
X223070112Y-50493628D02*
X222879636Y-50446009D01*
X222879636Y-50446009D02*
X222784398Y-50398390D01*
X222784398Y-50398390D02*
X222736779Y-50350771D01*
X222736779Y-50350771D02*
X222689160Y-50255533D01*
X222689160Y-50255533D02*
X222689160Y-50160295D01*
X222689160Y-50160295D02*
X222736779Y-50065057D01*
X222736779Y-50065057D02*
X222784398Y-50017438D01*
X222784398Y-50017438D02*
X222879636Y-49969819D01*
X222879636Y-49969819D02*
X223117731Y-49969819D01*
X223117731Y-49969819D02*
X223260588Y-50017438D01*
X224117731Y-50303152D02*
X224117731Y-50969819D01*
X223879636Y-49922200D02*
X223641541Y-50636485D01*
X223641541Y-50636485D02*
X224260588Y-50636485D01*
X203986779Y-88019819D02*
X203986779Y-87019819D01*
X203986779Y-87496009D02*
X204558207Y-87496009D01*
X204558207Y-88019819D02*
X204558207Y-87019819D01*
X214489160Y-50922200D02*
X214632017Y-50969819D01*
X214632017Y-50969819D02*
X214870112Y-50969819D01*
X214870112Y-50969819D02*
X214965350Y-50922200D01*
X214965350Y-50922200D02*
X215012969Y-50874580D01*
X215012969Y-50874580D02*
X215060588Y-50779342D01*
X215060588Y-50779342D02*
X215060588Y-50684104D01*
X215060588Y-50684104D02*
X215012969Y-50588866D01*
X215012969Y-50588866D02*
X214965350Y-50541247D01*
X214965350Y-50541247D02*
X214870112Y-50493628D01*
X214870112Y-50493628D02*
X214679636Y-50446009D01*
X214679636Y-50446009D02*
X214584398Y-50398390D01*
X214584398Y-50398390D02*
X214536779Y-50350771D01*
X214536779Y-50350771D02*
X214489160Y-50255533D01*
X214489160Y-50255533D02*
X214489160Y-50160295D01*
X214489160Y-50160295D02*
X214536779Y-50065057D01*
X214536779Y-50065057D02*
X214584398Y-50017438D01*
X214584398Y-50017438D02*
X214679636Y-49969819D01*
X214679636Y-49969819D02*
X214917731Y-49969819D01*
X214917731Y-49969819D02*
X215060588Y-50017438D01*
X215393922Y-49969819D02*
X216012969Y-49969819D01*
X216012969Y-49969819D02*
X215679636Y-50350771D01*
X215679636Y-50350771D02*
X215822493Y-50350771D01*
X215822493Y-50350771D02*
X215917731Y-50398390D01*
X215917731Y-50398390D02*
X215965350Y-50446009D01*
X215965350Y-50446009D02*
X216012969Y-50541247D01*
X216012969Y-50541247D02*
X216012969Y-50779342D01*
X216012969Y-50779342D02*
X215965350Y-50874580D01*
X215965350Y-50874580D02*
X215917731Y-50922200D01*
X215917731Y-50922200D02*
X215822493Y-50969819D01*
X215822493Y-50969819D02*
X215536779Y-50969819D01*
X215536779Y-50969819D02*
X215441541Y-50922200D01*
X215441541Y-50922200D02*
X215393922Y-50874580D01*
X209348088Y-85969819D02*
X208776660Y-85969819D01*
X209062374Y-85969819D02*
X209062374Y-84969819D01*
X209062374Y-84969819D02*
X208967136Y-85112676D01*
X208967136Y-85112676D02*
X208871898Y-85207914D01*
X208871898Y-85207914D02*
X208776660Y-85255533D01*
X209729041Y-85065057D02*
X209776660Y-85017438D01*
X209776660Y-85017438D02*
X209871898Y-84969819D01*
X209871898Y-84969819D02*
X210109993Y-84969819D01*
X210109993Y-84969819D02*
X210205231Y-85017438D01*
X210205231Y-85017438D02*
X210252850Y-85065057D01*
X210252850Y-85065057D02*
X210300469Y-85160295D01*
X210300469Y-85160295D02*
X210300469Y-85255533D01*
X210300469Y-85255533D02*
X210252850Y-85398390D01*
X210252850Y-85398390D02*
X209681422Y-85969819D01*
X209681422Y-85969819D02*
X210300469Y-85969819D01*
X210919517Y-84969819D02*
X211014755Y-84969819D01*
X211014755Y-84969819D02*
X211109993Y-85017438D01*
X211109993Y-85017438D02*
X211157612Y-85065057D01*
X211157612Y-85065057D02*
X211205231Y-85160295D01*
X211205231Y-85160295D02*
X211252850Y-85350771D01*
X211252850Y-85350771D02*
X211252850Y-85588866D01*
X211252850Y-85588866D02*
X211205231Y-85779342D01*
X211205231Y-85779342D02*
X211157612Y-85874580D01*
X211157612Y-85874580D02*
X211109993Y-85922200D01*
X211109993Y-85922200D02*
X211014755Y-85969819D01*
X211014755Y-85969819D02*
X210919517Y-85969819D01*
X210919517Y-85969819D02*
X210824279Y-85922200D01*
X210824279Y-85922200D02*
X210776660Y-85874580D01*
X210776660Y-85874580D02*
X210729041Y-85779342D01*
X210729041Y-85779342D02*
X210681422Y-85588866D01*
X210681422Y-85588866D02*
X210681422Y-85350771D01*
X210681422Y-85350771D02*
X210729041Y-85160295D01*
X210729041Y-85160295D02*
X210776660Y-85065057D01*
X210776660Y-85065057D02*
X210824279Y-85017438D01*
X210824279Y-85017438D02*
X210919517Y-84969819D01*
X184217438Y-56539411D02*
X184169819Y-56634649D01*
X184169819Y-56634649D02*
X184169819Y-56777506D01*
X184169819Y-56777506D02*
X184217438Y-56920363D01*
X184217438Y-56920363D02*
X184312676Y-57015601D01*
X184312676Y-57015601D02*
X184407914Y-57063220D01*
X184407914Y-57063220D02*
X184598390Y-57110839D01*
X184598390Y-57110839D02*
X184741247Y-57110839D01*
X184741247Y-57110839D02*
X184931723Y-57063220D01*
X184931723Y-57063220D02*
X185026961Y-57015601D01*
X185026961Y-57015601D02*
X185122200Y-56920363D01*
X185122200Y-56920363D02*
X185169819Y-56777506D01*
X185169819Y-56777506D02*
X185169819Y-56682268D01*
X185169819Y-56682268D02*
X185122200Y-56539411D01*
X185122200Y-56539411D02*
X185074580Y-56491792D01*
X185074580Y-56491792D02*
X184741247Y-56491792D01*
X184741247Y-56491792D02*
X184741247Y-56682268D01*
X185169819Y-56063220D02*
X184169819Y-56063220D01*
X184169819Y-56063220D02*
X185169819Y-55491792D01*
X185169819Y-55491792D02*
X184169819Y-55491792D01*
X185169819Y-55015601D02*
X184169819Y-55015601D01*
X184169819Y-55015601D02*
X184169819Y-54777506D01*
X184169819Y-54777506D02*
X184217438Y-54634649D01*
X184217438Y-54634649D02*
X184312676Y-54539411D01*
X184312676Y-54539411D02*
X184407914Y-54491792D01*
X184407914Y-54491792D02*
X184598390Y-54444173D01*
X184598390Y-54444173D02*
X184741247Y-54444173D01*
X184741247Y-54444173D02*
X184931723Y-54491792D01*
X184931723Y-54491792D02*
X185026961Y-54539411D01*
X185026961Y-54539411D02*
X185122200Y-54634649D01*
X185122200Y-54634649D02*
X185169819Y-54777506D01*
X185169819Y-54777506D02*
X185169819Y-55015601D01*
G36*
X205561293Y-79909104D02*
G01*
X205293217Y-79909104D01*
X205427255Y-79506989D01*
X205561293Y-79909104D01*
G37*
G36*
X206851461Y-80455930D02*
G01*
X204003049Y-80455930D01*
X204003049Y-79698390D01*
X204114160Y-79698390D01*
X204114160Y-79841247D01*
X204114411Y-79843800D01*
X204114249Y-79844893D01*
X204115058Y-79850366D01*
X204115601Y-79855879D01*
X204116023Y-79856900D01*
X204116399Y-79859437D01*
X204164018Y-80049913D01*
X204164403Y-80050992D01*
X204164442Y-80051532D01*
X204166769Y-80057613D01*
X204168965Y-80063759D01*
X204169287Y-80064194D01*
X204169697Y-80065264D01*
X204217316Y-80160502D01*
X204221279Y-80166798D01*
X204222037Y-80168628D01*
X204223726Y-80170686D01*
X204225148Y-80172945D01*
X204226646Y-80174244D01*
X204231365Y-80179994D01*
X204326603Y-80275233D01*
X204337968Y-80284561D01*
X204340458Y-80285592D01*
X204342493Y-80287357D01*
X204355919Y-80293351D01*
X204498775Y-80340970D01*
X204506030Y-80342619D01*
X204507861Y-80343378D01*
X204510514Y-80343639D01*
X204513112Y-80344230D01*
X204515086Y-80344089D01*
X204522493Y-80344819D01*
X204617731Y-80344819D01*
X204625136Y-80344089D01*
X204627111Y-80344230D01*
X204629708Y-80343639D01*
X204632363Y-80343378D01*
X204634194Y-80342619D01*
X204641448Y-80340970D01*
X204784305Y-80293351D01*
X204797730Y-80287357D01*
X204799765Y-80285591D01*
X204802256Y-80284560D01*
X204813622Y-80275232D01*
X204828415Y-80260439D01*
X205019511Y-80260439D01*
X205021586Y-80289629D01*
X205034672Y-80315802D01*
X205056779Y-80334976D01*
X205084542Y-80344230D01*
X205113732Y-80342155D01*
X205139905Y-80329069D01*
X205159079Y-80306962D01*
X205165073Y-80293536D01*
X205243217Y-80059104D01*
X205611293Y-80059104D01*
X205689437Y-80293536D01*
X205695431Y-80306961D01*
X205714605Y-80329068D01*
X205740778Y-80342155D01*
X205769968Y-80344230D01*
X205797730Y-80334976D01*
X205819838Y-80315802D01*
X205832924Y-80289628D01*
X205834999Y-80260438D01*
X205831739Y-80246102D01*
X205506312Y-79269819D01*
X206018922Y-79269819D01*
X206018922Y-80269819D01*
X206020363Y-80284451D01*
X206031562Y-80311487D01*
X206052254Y-80332179D01*
X206079290Y-80343378D01*
X206108554Y-80343378D01*
X206135590Y-80332179D01*
X206156282Y-80311487D01*
X206167481Y-80284451D01*
X206168922Y-80269819D01*
X206168922Y-79552235D01*
X206600232Y-80307030D01*
X206602421Y-80310114D01*
X206602990Y-80311487D01*
X206604387Y-80312884D01*
X206608742Y-80319019D01*
X206616630Y-80325127D01*
X206623682Y-80332179D01*
X206628100Y-80334009D01*
X206631880Y-80336936D01*
X206641501Y-80339560D01*
X206650718Y-80343378D01*
X206655499Y-80343378D01*
X206660111Y-80344636D01*
X206670008Y-80343378D01*
X206679982Y-80343378D01*
X206684397Y-80341548D01*
X206689141Y-80340946D01*
X206697805Y-80335995D01*
X206707018Y-80332179D01*
X206710396Y-80328800D01*
X206714550Y-80326427D01*
X206720659Y-80318537D01*
X206727710Y-80311487D01*
X206729539Y-80307070D01*
X206732467Y-80303290D01*
X206735091Y-80293666D01*
X206738909Y-80284451D01*
X206739645Y-80276968D01*
X206740167Y-80275058D01*
X206739979Y-80273582D01*
X206740350Y-80269819D01*
X206740350Y-79269819D01*
X206738909Y-79255187D01*
X206727710Y-79228151D01*
X206707018Y-79207459D01*
X206679982Y-79196260D01*
X206650718Y-79196260D01*
X206623682Y-79207459D01*
X206602990Y-79228151D01*
X206591791Y-79255187D01*
X206590350Y-79269819D01*
X206590350Y-79987402D01*
X206159040Y-79232609D01*
X206156851Y-79229525D01*
X206156282Y-79228151D01*
X206154882Y-79226751D01*
X206150530Y-79220619D01*
X206142640Y-79214509D01*
X206135590Y-79207459D01*
X206131173Y-79205629D01*
X206127393Y-79202702D01*
X206117769Y-79200077D01*
X206108554Y-79196260D01*
X206103773Y-79196260D01*
X206099161Y-79195002D01*
X206089264Y-79196260D01*
X206079290Y-79196260D01*
X206074874Y-79198089D01*
X206070131Y-79198692D01*
X206061466Y-79203642D01*
X206052254Y-79207459D01*
X206048875Y-79210837D01*
X206044722Y-79213211D01*
X206038612Y-79221100D01*
X206031562Y-79228151D01*
X206029732Y-79232567D01*
X206026805Y-79236348D01*
X206024180Y-79245971D01*
X206020363Y-79255187D01*
X206019626Y-79262669D01*
X206019105Y-79264580D01*
X206019292Y-79266055D01*
X206018922Y-79269819D01*
X205506312Y-79269819D01*
X205498406Y-79246102D01*
X205492412Y-79232676D01*
X205488900Y-79228627D01*
X205486505Y-79223836D01*
X205479401Y-79217674D01*
X205473238Y-79210569D01*
X205468444Y-79208172D01*
X205464397Y-79204662D01*
X205455475Y-79201688D01*
X205447065Y-79197483D01*
X205441720Y-79197103D01*
X205436635Y-79195408D01*
X205427255Y-79196074D01*
X205417875Y-79195408D01*
X205412789Y-79197103D01*
X205407445Y-79197483D01*
X205399037Y-79201687D01*
X205390112Y-79204662D01*
X205386061Y-79208175D01*
X205381272Y-79210570D01*
X205375113Y-79217670D01*
X205368005Y-79223836D01*
X205365608Y-79228629D01*
X205362098Y-79232677D01*
X205356104Y-79246102D01*
X205022771Y-80246102D01*
X205019511Y-80260439D01*
X204828415Y-80260439D01*
X204861240Y-80227613D01*
X204870568Y-80216247D01*
X204881766Y-80189211D01*
X204881766Y-80159948D01*
X204870567Y-80132912D01*
X204849874Y-80112219D01*
X204822838Y-80101021D01*
X204793575Y-80101021D01*
X204766539Y-80112220D01*
X204755173Y-80121548D01*
X204720074Y-80156647D01*
X204605561Y-80194819D01*
X204534663Y-80194819D01*
X204420150Y-80156648D01*
X204346037Y-80082534D01*
X204307543Y-80005547D01*
X204264160Y-79832013D01*
X204264160Y-79707624D01*
X204307543Y-79534090D01*
X204346037Y-79457103D01*
X204420150Y-79382990D01*
X204534663Y-79344819D01*
X204605561Y-79344819D01*
X204720074Y-79382990D01*
X204755174Y-79418090D01*
X204766539Y-79427417D01*
X204793575Y-79438616D01*
X204822838Y-79438616D01*
X204849874Y-79427417D01*
X204870567Y-79406724D01*
X204881766Y-79379688D01*
X204881766Y-79350425D01*
X204870567Y-79323389D01*
X204861240Y-79312024D01*
X204813621Y-79264405D01*
X204802256Y-79255078D01*
X204799765Y-79254046D01*
X204797730Y-79252281D01*
X204784305Y-79246287D01*
X204641448Y-79198668D01*
X204634194Y-79197018D01*
X204632363Y-79196260D01*
X204629708Y-79195998D01*
X204627111Y-79195408D01*
X204625136Y-79195548D01*
X204617731Y-79194819D01*
X204522493Y-79194819D01*
X204515086Y-79195548D01*
X204513112Y-79195408D01*
X204510514Y-79195998D01*
X204507861Y-79196260D01*
X204506030Y-79197018D01*
X204498775Y-79198668D01*
X204355919Y-79246287D01*
X204342493Y-79252281D01*
X204340458Y-79254045D01*
X204337968Y-79255077D01*
X204326603Y-79264405D01*
X204231365Y-79359643D01*
X204226646Y-79365392D01*
X204225148Y-79366692D01*
X204223726Y-79368951D01*
X204222038Y-79371008D01*
X204221280Y-79372835D01*
X204217316Y-79379135D01*
X204169697Y-79474373D01*
X204169287Y-79475442D01*
X204168965Y-79475878D01*
X204166769Y-79482023D01*
X204164442Y-79488105D01*
X204164403Y-79488644D01*
X204164018Y-79489724D01*
X204116399Y-79680200D01*
X204116023Y-79682736D01*
X204115601Y-79683758D01*
X204115058Y-79689270D01*
X204114249Y-79694744D01*
X204114411Y-79695836D01*
X204114160Y-79698390D01*
X204003049Y-79698390D01*
X204003049Y-79083708D01*
X206851461Y-79083708D01*
X206851461Y-80455930D01*
G37*
X186169819Y-53687030D02*
X186169819Y-54163220D01*
X186169819Y-54163220D02*
X186646009Y-54210839D01*
X186646009Y-54210839D02*
X186598390Y-54163220D01*
X186598390Y-54163220D02*
X186550771Y-54067982D01*
X186550771Y-54067982D02*
X186550771Y-53829887D01*
X186550771Y-53829887D02*
X186598390Y-53734649D01*
X186598390Y-53734649D02*
X186646009Y-53687030D01*
X186646009Y-53687030D02*
X186741247Y-53639411D01*
X186741247Y-53639411D02*
X186979342Y-53639411D01*
X186979342Y-53639411D02*
X187074580Y-53687030D01*
X187074580Y-53687030D02*
X187122200Y-53734649D01*
X187122200Y-53734649D02*
X187169819Y-53829887D01*
X187169819Y-53829887D02*
X187169819Y-54067982D01*
X187169819Y-54067982D02*
X187122200Y-54163220D01*
X187122200Y-54163220D02*
X187074580Y-54210839D01*
X186169819Y-53353696D02*
X187169819Y-53020363D01*
X187169819Y-53020363D02*
X186169819Y-52687030D01*
X187569819Y-62958458D02*
X187569819Y-62339411D01*
X187569819Y-62339411D02*
X187950771Y-62672744D01*
X187950771Y-62672744D02*
X187950771Y-62529887D01*
X187950771Y-62529887D02*
X187998390Y-62434649D01*
X187998390Y-62434649D02*
X188046009Y-62387030D01*
X188046009Y-62387030D02*
X188141247Y-62339411D01*
X188141247Y-62339411D02*
X188379342Y-62339411D01*
X188379342Y-62339411D02*
X188474580Y-62387030D01*
X188474580Y-62387030D02*
X188522200Y-62434649D01*
X188522200Y-62434649D02*
X188569819Y-62529887D01*
X188569819Y-62529887D02*
X188569819Y-62815601D01*
X188569819Y-62815601D02*
X188522200Y-62910839D01*
X188522200Y-62910839D02*
X188474580Y-62958458D01*
X188474580Y-61910839D02*
X188522200Y-61863220D01*
X188522200Y-61863220D02*
X188569819Y-61910839D01*
X188569819Y-61910839D02*
X188522200Y-61958458D01*
X188522200Y-61958458D02*
X188474580Y-61910839D01*
X188474580Y-61910839D02*
X188569819Y-61910839D01*
X187569819Y-61529887D02*
X187569819Y-60910840D01*
X187569819Y-60910840D02*
X187950771Y-61244173D01*
X187950771Y-61244173D02*
X187950771Y-61101316D01*
X187950771Y-61101316D02*
X187998390Y-61006078D01*
X187998390Y-61006078D02*
X188046009Y-60958459D01*
X188046009Y-60958459D02*
X188141247Y-60910840D01*
X188141247Y-60910840D02*
X188379342Y-60910840D01*
X188379342Y-60910840D02*
X188474580Y-60958459D01*
X188474580Y-60958459D02*
X188522200Y-61006078D01*
X188522200Y-61006078D02*
X188569819Y-61101316D01*
X188569819Y-61101316D02*
X188569819Y-61387030D01*
X188569819Y-61387030D02*
X188522200Y-61482268D01*
X188522200Y-61482268D02*
X188474580Y-61529887D01*
X187569819Y-60625125D02*
X188569819Y-60291792D01*
X188569819Y-60291792D02*
X187569819Y-59958459D01*
X216069819Y-55813220D02*
X215069819Y-55813220D01*
X215069819Y-55813220D02*
X215069819Y-55432268D01*
X215069819Y-55432268D02*
X215117438Y-55337030D01*
X215117438Y-55337030D02*
X215165057Y-55289411D01*
X215165057Y-55289411D02*
X215260295Y-55241792D01*
X215260295Y-55241792D02*
X215403152Y-55241792D01*
X215403152Y-55241792D02*
X215498390Y-55289411D01*
X215498390Y-55289411D02*
X215546009Y-55337030D01*
X215546009Y-55337030D02*
X215593628Y-55432268D01*
X215593628Y-55432268D02*
X215593628Y-55813220D01*
X215546009Y-54479887D02*
X215593628Y-54337030D01*
X215593628Y-54337030D02*
X215641247Y-54289411D01*
X215641247Y-54289411D02*
X215736485Y-54241792D01*
X215736485Y-54241792D02*
X215879342Y-54241792D01*
X215879342Y-54241792D02*
X215974580Y-54289411D01*
X215974580Y-54289411D02*
X216022200Y-54337030D01*
X216022200Y-54337030D02*
X216069819Y-54432268D01*
X216069819Y-54432268D02*
X216069819Y-54813220D01*
X216069819Y-54813220D02*
X215069819Y-54813220D01*
X215069819Y-54813220D02*
X215069819Y-54479887D01*
X215069819Y-54479887D02*
X215117438Y-54384649D01*
X215117438Y-54384649D02*
X215165057Y-54337030D01*
X215165057Y-54337030D02*
X215260295Y-54289411D01*
X215260295Y-54289411D02*
X215355533Y-54289411D01*
X215355533Y-54289411D02*
X215450771Y-54337030D01*
X215450771Y-54337030D02*
X215498390Y-54384649D01*
X215498390Y-54384649D02*
X215546009Y-54479887D01*
X215546009Y-54479887D02*
X215546009Y-54813220D01*
X216069819Y-53289411D02*
X216069819Y-53860839D01*
X216069819Y-53575125D02*
X215069819Y-53575125D01*
X215069819Y-53575125D02*
X215212676Y-53670363D01*
X215212676Y-53670363D02*
X215307914Y-53765601D01*
X215307914Y-53765601D02*
X215355533Y-53860839D01*
X215069819Y-52670363D02*
X215069819Y-52575125D01*
X215069819Y-52575125D02*
X215117438Y-52479887D01*
X215117438Y-52479887D02*
X215165057Y-52432268D01*
X215165057Y-52432268D02*
X215260295Y-52384649D01*
X215260295Y-52384649D02*
X215450771Y-52337030D01*
X215450771Y-52337030D02*
X215688866Y-52337030D01*
X215688866Y-52337030D02*
X215879342Y-52384649D01*
X215879342Y-52384649D02*
X215974580Y-52432268D01*
X215974580Y-52432268D02*
X216022200Y-52479887D01*
X216022200Y-52479887D02*
X216069819Y-52575125D01*
X216069819Y-52575125D02*
X216069819Y-52670363D01*
X216069819Y-52670363D02*
X216022200Y-52765601D01*
X216022200Y-52765601D02*
X215974580Y-52813220D01*
X215974580Y-52813220D02*
X215879342Y-52860839D01*
X215879342Y-52860839D02*
X215688866Y-52908458D01*
X215688866Y-52908458D02*
X215450771Y-52908458D01*
X215450771Y-52908458D02*
X215260295Y-52860839D01*
X215260295Y-52860839D02*
X215165057Y-52813220D01*
X215165057Y-52813220D02*
X215117438Y-52765601D01*
X215117438Y-52765601D02*
X215069819Y-52670363D01*
X187069819Y-77991792D02*
X186593628Y-78325125D01*
X187069819Y-78563220D02*
X186069819Y-78563220D01*
X186069819Y-78563220D02*
X186069819Y-78182268D01*
X186069819Y-78182268D02*
X186117438Y-78087030D01*
X186117438Y-78087030D02*
X186165057Y-78039411D01*
X186165057Y-78039411D02*
X186260295Y-77991792D01*
X186260295Y-77991792D02*
X186403152Y-77991792D01*
X186403152Y-77991792D02*
X186498390Y-78039411D01*
X186498390Y-78039411D02*
X186546009Y-78087030D01*
X186546009Y-78087030D02*
X186593628Y-78182268D01*
X186593628Y-78182268D02*
X186593628Y-78563220D01*
X186069819Y-77658458D02*
X187069819Y-76991792D01*
X186069819Y-76991792D02*
X187069819Y-77658458D01*
G36*
X226344999Y-86873934D02*
G01*
X226263714Y-86873934D01*
X226206672Y-86845413D01*
X226178152Y-86788372D01*
X226178152Y-86633306D01*
X226206672Y-86576264D01*
X226263714Y-86547744D01*
X226279761Y-86547744D01*
X226344999Y-86873934D01*
G37*
G36*
X226344999Y-85492981D02*
G01*
X226263714Y-85492981D01*
X226206672Y-85464460D01*
X226178152Y-85407419D01*
X226178152Y-85252353D01*
X226206672Y-85195311D01*
X226263714Y-85166791D01*
X226279761Y-85166791D01*
X226344999Y-85492981D01*
G37*
G36*
X226344999Y-83302505D02*
G01*
X226263714Y-83302505D01*
X226206672Y-83273984D01*
X226178152Y-83216943D01*
X226178152Y-83061877D01*
X226206672Y-83004835D01*
X226263714Y-82976315D01*
X226279761Y-82976315D01*
X226344999Y-83302505D01*
G37*
G36*
X226630153Y-78343905D02*
G01*
X226660561Y-78374312D01*
X226694819Y-78442828D01*
X226694819Y-78550275D01*
X226660561Y-78618790D01*
X226630153Y-78649197D01*
X226561637Y-78683456D01*
X226311333Y-78683456D01*
X226242817Y-78649198D01*
X226212410Y-78618791D01*
X226178152Y-78550275D01*
X226178152Y-78442828D01*
X226212410Y-78374312D01*
X226242817Y-78343905D01*
X226311333Y-78309647D01*
X226561637Y-78309647D01*
X226630153Y-78343905D01*
G37*
G36*
X226694819Y-77490447D02*
G01*
X226694819Y-77645513D01*
X226660561Y-77714028D01*
X226630153Y-77744435D01*
X226561637Y-77778694D01*
X226311333Y-77778694D01*
X226242817Y-77744436D01*
X226212410Y-77714029D01*
X226178152Y-77645513D01*
X226178152Y-77490447D01*
X226197124Y-77452504D01*
X226675847Y-77452504D01*
X226694819Y-77490447D01*
G37*
G36*
X226344999Y-76873932D02*
G01*
X226263714Y-76873932D01*
X226206672Y-76845411D01*
X226178152Y-76788370D01*
X226178152Y-76633304D01*
X226206672Y-76576262D01*
X226263714Y-76547742D01*
X226279761Y-76547742D01*
X226344999Y-76873932D01*
G37*
G36*
X227288674Y-87990747D02*
G01*
X225583708Y-87990747D01*
X225583708Y-87234649D01*
X225694819Y-87234649D01*
X225694819Y-87806077D01*
X225696260Y-87820709D01*
X225707459Y-87847745D01*
X225728151Y-87868437D01*
X225755187Y-87879636D01*
X225784451Y-87879636D01*
X225811487Y-87868437D01*
X225832179Y-87847745D01*
X225843378Y-87820709D01*
X225844819Y-87806077D01*
X225844819Y-87595363D01*
X226769819Y-87595363D01*
X226784451Y-87593922D01*
X226811487Y-87582723D01*
X226832179Y-87562031D01*
X226843378Y-87534995D01*
X226843378Y-87505731D01*
X226832179Y-87478695D01*
X226811487Y-87458003D01*
X226784451Y-87446804D01*
X226769819Y-87445363D01*
X225844819Y-87445363D01*
X225844819Y-87234649D01*
X225843378Y-87220017D01*
X225832179Y-87192981D01*
X225811487Y-87172289D01*
X225784451Y-87161090D01*
X225755187Y-87161090D01*
X225728151Y-87172289D01*
X225707459Y-87192981D01*
X225696260Y-87220017D01*
X225694819Y-87234649D01*
X225583708Y-87234649D01*
X225583708Y-86615601D01*
X226028152Y-86615601D01*
X226028152Y-86806077D01*
X226029593Y-86820709D01*
X226030624Y-86823198D01*
X226030815Y-86825886D01*
X226036070Y-86839618D01*
X226083689Y-86934856D01*
X226085229Y-86937303D01*
X226085614Y-86938457D01*
X226086859Y-86939893D01*
X226091521Y-86947299D01*
X226098625Y-86953460D01*
X226104787Y-86960565D01*
X226112192Y-86965226D01*
X226113629Y-86966472D01*
X226114782Y-86966856D01*
X226117230Y-86968397D01*
X226212468Y-87016016D01*
X226226199Y-87021271D01*
X226228888Y-87021462D01*
X226231377Y-87022493D01*
X226246009Y-87023934D01*
X226436563Y-87023934D01*
X226626961Y-87023934D01*
X226641593Y-87022493D01*
X226644082Y-87021461D01*
X226646770Y-87021271D01*
X226660502Y-87016016D01*
X226755741Y-86968397D01*
X226758187Y-86966856D01*
X226759342Y-86966472D01*
X226760779Y-86965225D01*
X226768183Y-86960565D01*
X226774342Y-86953462D01*
X226781450Y-86947299D01*
X226786111Y-86939893D01*
X226787357Y-86938457D01*
X226787741Y-86937303D01*
X226789282Y-86934856D01*
X226836901Y-86839618D01*
X226842156Y-86825887D01*
X226842347Y-86823197D01*
X226843378Y-86820709D01*
X226844819Y-86806077D01*
X226844819Y-86615601D01*
X226843378Y-86600969D01*
X226842347Y-86598480D01*
X226842156Y-86595791D01*
X226836901Y-86582060D01*
X226789282Y-86486822D01*
X226781450Y-86474379D01*
X226759342Y-86455206D01*
X226731581Y-86445952D01*
X226702391Y-86448026D01*
X226676216Y-86461113D01*
X226657043Y-86483221D01*
X226647789Y-86510982D01*
X226649863Y-86540172D01*
X226655118Y-86553904D01*
X226694819Y-86633306D01*
X226694819Y-86788372D01*
X226666298Y-86845413D01*
X226609256Y-86873934D01*
X226497970Y-86873934D01*
X226414791Y-86458035D01*
X226410508Y-86443970D01*
X226406418Y-86437864D01*
X226403607Y-86431076D01*
X226398356Y-86425825D01*
X226394224Y-86419655D01*
X226388110Y-86415579D01*
X226382915Y-86410384D01*
X226376055Y-86407542D01*
X226369876Y-86403423D01*
X226362667Y-86401996D01*
X226355879Y-86399185D01*
X226341247Y-86397744D01*
X226246009Y-86397744D01*
X226231377Y-86399185D01*
X226228888Y-86400215D01*
X226226199Y-86400407D01*
X226212468Y-86405662D01*
X226117230Y-86453281D01*
X226114782Y-86454821D01*
X226113629Y-86455206D01*
X226112192Y-86456451D01*
X226104787Y-86461113D01*
X226098625Y-86468217D01*
X226091521Y-86474379D01*
X226086859Y-86481784D01*
X226085614Y-86483221D01*
X226085229Y-86484374D01*
X226083689Y-86486822D01*
X226036070Y-86582060D01*
X226030815Y-86595792D01*
X226030624Y-86598479D01*
X226029593Y-86600969D01*
X226028152Y-86615601D01*
X225583708Y-86615601D01*
X225583708Y-86029540D01*
X225696260Y-86029540D01*
X225696260Y-86058804D01*
X225707459Y-86085840D01*
X225728151Y-86106532D01*
X225755187Y-86117731D01*
X225769819Y-86119172D01*
X226626961Y-86119172D01*
X226641593Y-86117731D01*
X226644082Y-86116699D01*
X226646770Y-86116509D01*
X226660502Y-86111254D01*
X226755741Y-86063635D01*
X226758187Y-86062094D01*
X226759342Y-86061710D01*
X226760779Y-86060463D01*
X226768183Y-86055803D01*
X226774342Y-86048700D01*
X226781450Y-86042537D01*
X226786111Y-86035131D01*
X226787357Y-86033695D01*
X226787741Y-86032541D01*
X226789282Y-86030094D01*
X226836901Y-85934856D01*
X226842156Y-85921125D01*
X226844230Y-85891935D01*
X226834976Y-85864173D01*
X226815803Y-85842066D01*
X226789628Y-85828978D01*
X226760438Y-85826904D01*
X226732677Y-85836158D01*
X226710569Y-85855331D01*
X226702737Y-85867774D01*
X226666298Y-85940651D01*
X226609256Y-85969172D01*
X225769819Y-85969172D01*
X225755187Y-85970613D01*
X225728151Y-85981812D01*
X225707459Y-86002504D01*
X225696260Y-86029540D01*
X225583708Y-86029540D01*
X225583708Y-85234648D01*
X226028152Y-85234648D01*
X226028152Y-85425124D01*
X226029593Y-85439756D01*
X226030624Y-85442245D01*
X226030815Y-85444933D01*
X226036070Y-85458665D01*
X226083689Y-85553903D01*
X226085229Y-85556350D01*
X226085614Y-85557504D01*
X226086859Y-85558940D01*
X226091521Y-85566346D01*
X226098625Y-85572507D01*
X226104787Y-85579612D01*
X226112192Y-85584273D01*
X226113629Y-85585519D01*
X226114782Y-85585903D01*
X226117230Y-85587444D01*
X226212468Y-85635063D01*
X226226199Y-85640318D01*
X226228888Y-85640509D01*
X226231377Y-85641540D01*
X226246009Y-85642981D01*
X226436563Y-85642981D01*
X226626961Y-85642981D01*
X226641593Y-85641540D01*
X226644082Y-85640508D01*
X226646770Y-85640318D01*
X226660502Y-85635063D01*
X226755741Y-85587444D01*
X226758187Y-85585903D01*
X226759342Y-85585519D01*
X226760779Y-85584272D01*
X226768183Y-85579612D01*
X226774342Y-85572509D01*
X226781450Y-85566346D01*
X226786111Y-85558940D01*
X226787357Y-85557504D01*
X226787741Y-85556350D01*
X226789282Y-85553903D01*
X226836901Y-85458665D01*
X226842156Y-85444934D01*
X226842347Y-85442244D01*
X226843378Y-85439756D01*
X226844819Y-85425124D01*
X226844819Y-85234648D01*
X226843378Y-85220016D01*
X226842347Y-85217527D01*
X226842156Y-85214838D01*
X226836901Y-85201107D01*
X226789282Y-85105869D01*
X226781450Y-85093426D01*
X226759342Y-85074253D01*
X226731581Y-85064999D01*
X226702391Y-85067073D01*
X226676216Y-85080160D01*
X226657043Y-85102268D01*
X226647789Y-85130029D01*
X226649863Y-85159219D01*
X226655118Y-85172951D01*
X226694819Y-85252353D01*
X226694819Y-85407419D01*
X226666298Y-85464460D01*
X226609256Y-85492981D01*
X226497970Y-85492981D01*
X226414791Y-85077082D01*
X226410508Y-85063017D01*
X226406418Y-85056911D01*
X226403607Y-85050123D01*
X226398356Y-85044872D01*
X226394224Y-85038702D01*
X226388110Y-85034626D01*
X226382915Y-85029431D01*
X226376055Y-85026589D01*
X226369876Y-85022470D01*
X226362667Y-85021043D01*
X226355879Y-85018232D01*
X226341247Y-85016791D01*
X226246009Y-85016791D01*
X226231377Y-85018232D01*
X226228888Y-85019262D01*
X226226199Y-85019454D01*
X226212468Y-85024709D01*
X226117230Y-85072328D01*
X226114782Y-85073868D01*
X226113629Y-85074253D01*
X226112192Y-85075498D01*
X226104787Y-85080160D01*
X226098625Y-85087264D01*
X226091521Y-85093426D01*
X226086859Y-85100831D01*
X226085614Y-85102268D01*
X226085229Y-85103421D01*
X226083689Y-85105869D01*
X226036070Y-85201107D01*
X226030815Y-85214839D01*
X226030624Y-85217526D01*
X226029593Y-85220016D01*
X226028152Y-85234648D01*
X225583708Y-85234648D01*
X225583708Y-83948934D01*
X226028152Y-83948934D01*
X226028152Y-84091791D01*
X226029593Y-84106423D01*
X226030624Y-84108912D01*
X226030815Y-84111600D01*
X226036070Y-84125332D01*
X226083689Y-84220570D01*
X226085229Y-84223017D01*
X226085614Y-84224171D01*
X226086859Y-84225607D01*
X226091521Y-84233013D01*
X226093406Y-84234648D01*
X226091521Y-84236283D01*
X226086859Y-84243688D01*
X226085614Y-84245125D01*
X226085229Y-84246278D01*
X226083689Y-84248726D01*
X226036070Y-84343964D01*
X226030815Y-84357696D01*
X226030624Y-84360383D01*
X226029593Y-84362873D01*
X226028152Y-84377505D01*
X226028152Y-84520362D01*
X226029593Y-84534994D01*
X226030624Y-84537483D01*
X226030815Y-84540171D01*
X226036070Y-84553903D01*
X226060193Y-84602149D01*
X226040792Y-84621551D01*
X226029593Y-84648587D01*
X226029593Y-84677851D01*
X226040792Y-84704887D01*
X226061484Y-84725579D01*
X226088520Y-84736778D01*
X226103152Y-84738219D01*
X226769819Y-84738219D01*
X226784451Y-84736778D01*
X226811487Y-84725579D01*
X226832179Y-84704887D01*
X226843378Y-84677851D01*
X226843378Y-84648587D01*
X226832179Y-84621551D01*
X226811487Y-84600859D01*
X226784451Y-84589660D01*
X226769819Y-84588219D01*
X226229456Y-84588219D01*
X226212410Y-84571173D01*
X226178152Y-84502657D01*
X226178152Y-84395210D01*
X226206672Y-84338168D01*
X226263714Y-84309648D01*
X226769819Y-84309648D01*
X226784451Y-84308207D01*
X226811487Y-84297008D01*
X226832179Y-84276316D01*
X226843378Y-84249280D01*
X226843378Y-84220016D01*
X226832179Y-84192980D01*
X226811487Y-84172288D01*
X226784451Y-84161089D01*
X226769819Y-84159648D01*
X226263714Y-84159648D01*
X226206672Y-84131127D01*
X226178152Y-84074086D01*
X226178152Y-83966638D01*
X226206672Y-83909596D01*
X226263714Y-83881076D01*
X226769819Y-83881076D01*
X226784451Y-83879635D01*
X226811487Y-83868436D01*
X226832179Y-83847744D01*
X226843378Y-83820708D01*
X226843378Y-83791444D01*
X226832179Y-83764408D01*
X226811487Y-83743716D01*
X226784451Y-83732517D01*
X226769819Y-83731076D01*
X226246009Y-83731076D01*
X226231377Y-83732517D01*
X226228888Y-83733547D01*
X226226199Y-83733739D01*
X226212468Y-83738994D01*
X226117230Y-83786613D01*
X226114782Y-83788153D01*
X226113629Y-83788538D01*
X226112192Y-83789783D01*
X226104787Y-83794445D01*
X226098623Y-83801552D01*
X226091521Y-83807712D01*
X226086860Y-83815115D01*
X226085614Y-83816553D01*
X226085229Y-83817707D01*
X226083689Y-83820154D01*
X226036070Y-83915393D01*
X226030815Y-83929125D01*
X226030624Y-83931812D01*
X226029593Y-83934302D01*
X226028152Y-83948934D01*
X225583708Y-83948934D01*
X225583708Y-83044172D01*
X226028152Y-83044172D01*
X226028152Y-83234648D01*
X226029593Y-83249280D01*
X226030624Y-83251769D01*
X226030815Y-83254457D01*
X226036070Y-83268189D01*
X226083689Y-83363427D01*
X226085229Y-83365874D01*
X226085614Y-83367028D01*
X226086859Y-83368464D01*
X226091521Y-83375870D01*
X226098625Y-83382031D01*
X226104787Y-83389136D01*
X226112192Y-83393797D01*
X226113629Y-83395043D01*
X226114782Y-83395427D01*
X226117230Y-83396968D01*
X226212468Y-83444587D01*
X226226199Y-83449842D01*
X226228888Y-83450033D01*
X226231377Y-83451064D01*
X226246009Y-83452505D01*
X226436563Y-83452505D01*
X226626961Y-83452505D01*
X226641593Y-83451064D01*
X226644082Y-83450032D01*
X226646770Y-83449842D01*
X226660502Y-83444587D01*
X226755741Y-83396968D01*
X226758187Y-83395427D01*
X226759342Y-83395043D01*
X226760779Y-83393796D01*
X226768183Y-83389136D01*
X226774342Y-83382033D01*
X226781450Y-83375870D01*
X226786111Y-83368464D01*
X226787357Y-83367028D01*
X226787741Y-83365874D01*
X226789282Y-83363427D01*
X226836901Y-83268189D01*
X226842156Y-83254458D01*
X226842347Y-83251768D01*
X226843378Y-83249280D01*
X226844819Y-83234648D01*
X226844819Y-83044172D01*
X226843378Y-83029540D01*
X226842347Y-83027051D01*
X226842156Y-83024362D01*
X226836901Y-83010631D01*
X226789282Y-82915393D01*
X226781450Y-82902950D01*
X226759342Y-82883777D01*
X226731581Y-82874523D01*
X226702391Y-82876597D01*
X226676216Y-82889684D01*
X226657043Y-82911792D01*
X226647789Y-82939553D01*
X226649863Y-82968743D01*
X226655118Y-82982475D01*
X226694819Y-83061877D01*
X226694819Y-83216943D01*
X226666298Y-83273984D01*
X226609256Y-83302505D01*
X226497970Y-83302505D01*
X226414791Y-82886606D01*
X226410508Y-82872541D01*
X226406418Y-82866435D01*
X226403607Y-82859647D01*
X226398356Y-82854396D01*
X226394224Y-82848226D01*
X226388110Y-82844150D01*
X226382915Y-82838955D01*
X226376055Y-82836113D01*
X226369876Y-82831994D01*
X226362667Y-82830567D01*
X226355879Y-82827756D01*
X226341247Y-82826315D01*
X226246009Y-82826315D01*
X226231377Y-82827756D01*
X226228888Y-82828786D01*
X226226199Y-82828978D01*
X226212468Y-82834233D01*
X226117230Y-82881852D01*
X226114782Y-82883392D01*
X226113629Y-82883777D01*
X226112192Y-82885022D01*
X226104787Y-82889684D01*
X226098625Y-82896788D01*
X226091521Y-82902950D01*
X226086859Y-82910355D01*
X226085614Y-82911792D01*
X226085229Y-82912945D01*
X226083689Y-82915393D01*
X226036070Y-83010631D01*
X226030815Y-83024363D01*
X226030624Y-83027050D01*
X226029593Y-83029540D01*
X226028152Y-83044172D01*
X225583708Y-83044172D01*
X225583708Y-82458111D01*
X225696260Y-82458111D01*
X225696260Y-82487375D01*
X225707459Y-82514411D01*
X225728151Y-82535103D01*
X225755187Y-82546302D01*
X225769819Y-82547743D01*
X226028152Y-82547743D01*
X226028152Y-82615600D01*
X226029593Y-82630232D01*
X226040792Y-82657268D01*
X226061484Y-82677960D01*
X226088520Y-82689159D01*
X226117784Y-82689159D01*
X226144820Y-82677960D01*
X226165512Y-82657268D01*
X226176711Y-82630232D01*
X226178152Y-82615600D01*
X226178152Y-82547743D01*
X226626961Y-82547743D01*
X226641593Y-82546302D01*
X226644082Y-82545270D01*
X226646770Y-82545080D01*
X226660502Y-82539825D01*
X226755741Y-82492206D01*
X226758187Y-82490665D01*
X226759342Y-82490281D01*
X226760779Y-82489034D01*
X226768183Y-82484374D01*
X226774342Y-82477271D01*
X226781450Y-82471108D01*
X226786111Y-82463702D01*
X226787357Y-82462266D01*
X226787741Y-82461112D01*
X226789282Y-82458665D01*
X226836901Y-82363427D01*
X226842156Y-82349696D01*
X226842347Y-82347006D01*
X226843378Y-82344518D01*
X226844819Y-82329886D01*
X226844819Y-82234648D01*
X226843378Y-82220016D01*
X226832179Y-82192980D01*
X226811487Y-82172288D01*
X226784451Y-82161089D01*
X226755187Y-82161089D01*
X226728151Y-82172288D01*
X226707459Y-82192980D01*
X226696260Y-82220016D01*
X226694819Y-82234648D01*
X226694819Y-82312181D01*
X226666298Y-82369222D01*
X226609256Y-82397743D01*
X226178152Y-82397743D01*
X226178152Y-82234648D01*
X226176711Y-82220016D01*
X226165512Y-82192980D01*
X226144820Y-82172288D01*
X226117784Y-82161089D01*
X226088520Y-82161089D01*
X226061484Y-82172288D01*
X226040792Y-82192980D01*
X226029593Y-82220016D01*
X226028152Y-82234648D01*
X226028152Y-82397743D01*
X225769819Y-82397743D01*
X225755187Y-82399184D01*
X225728151Y-82410383D01*
X225707459Y-82431075D01*
X225696260Y-82458111D01*
X225583708Y-82458111D01*
X225583708Y-81615600D01*
X226028152Y-81615600D01*
X226028152Y-81710838D01*
X226029593Y-81725470D01*
X226030624Y-81727959D01*
X226030815Y-81730647D01*
X226036070Y-81744379D01*
X226079604Y-81831448D01*
X226061484Y-81838954D01*
X226040792Y-81859646D01*
X226029593Y-81886682D01*
X226029593Y-81915946D01*
X226040792Y-81942982D01*
X226061484Y-81963674D01*
X226088520Y-81974873D01*
X226103152Y-81976314D01*
X226769819Y-81976314D01*
X226784451Y-81974873D01*
X226811487Y-81963674D01*
X226832179Y-81942982D01*
X226843378Y-81915946D01*
X226843378Y-81886682D01*
X226832179Y-81859646D01*
X226811487Y-81838954D01*
X226784451Y-81827755D01*
X226769819Y-81826314D01*
X226311333Y-81826314D01*
X226242817Y-81792056D01*
X226212410Y-81761649D01*
X226178152Y-81693133D01*
X226178152Y-81615600D01*
X226176711Y-81600968D01*
X226165512Y-81573932D01*
X226144820Y-81553240D01*
X226117784Y-81542041D01*
X226088520Y-81542041D01*
X226061484Y-81553240D01*
X226040792Y-81573932D01*
X226029593Y-81600968D01*
X226028152Y-81615600D01*
X225583708Y-81615600D01*
X225583708Y-80890353D01*
X226028957Y-80890353D01*
X226030411Y-80919581D01*
X226042938Y-80946027D01*
X226064632Y-80965666D01*
X226077927Y-80971945D01*
X226546826Y-81139409D01*
X226077927Y-81306873D01*
X226064632Y-81313152D01*
X226042938Y-81332791D01*
X226030411Y-81359237D01*
X226028957Y-81388465D01*
X226038800Y-81416024D01*
X226058439Y-81437718D01*
X226084885Y-81450245D01*
X226114113Y-81451699D01*
X226128377Y-81448135D01*
X226768316Y-81219585D01*
X226965766Y-81298565D01*
X226993894Y-81326693D01*
X227036070Y-81411045D01*
X227043902Y-81423488D01*
X227066010Y-81442661D01*
X227093771Y-81451915D01*
X227122961Y-81449841D01*
X227149136Y-81436753D01*
X227168309Y-81414646D01*
X227177563Y-81386884D01*
X227175489Y-81357694D01*
X227170234Y-81343963D01*
X227122615Y-81248725D01*
X227118650Y-81242425D01*
X227117893Y-81240598D01*
X227116204Y-81238541D01*
X227114783Y-81236282D01*
X227113284Y-81234982D01*
X227108566Y-81229233D01*
X227060947Y-81181614D01*
X227049582Y-81172287D01*
X227049151Y-81172108D01*
X227048818Y-81171783D01*
X227035768Y-81165011D01*
X226797673Y-81069773D01*
X226796319Y-81069380D01*
X226795044Y-81068778D01*
X226128377Y-80830683D01*
X226114113Y-80827119D01*
X226084885Y-80828573D01*
X226058439Y-80841100D01*
X226038800Y-80862794D01*
X226028957Y-80890353D01*
X225583708Y-80890353D01*
X225583708Y-79753217D01*
X225695002Y-79753217D01*
X225696260Y-79763113D01*
X225696260Y-79773088D01*
X225698089Y-79777503D01*
X225698692Y-79782247D01*
X225703642Y-79790911D01*
X225707459Y-79800124D01*
X225710837Y-79803502D01*
X225713211Y-79807656D01*
X225721100Y-79813765D01*
X225728151Y-79820816D01*
X225732567Y-79822645D01*
X225736348Y-79825573D01*
X225745971Y-79828197D01*
X225755187Y-79832015D01*
X225762669Y-79832751D01*
X225764580Y-79833273D01*
X225766055Y-79833085D01*
X225769819Y-79833456D01*
X226769819Y-79833456D01*
X226784451Y-79832015D01*
X226811487Y-79820816D01*
X226832179Y-79800124D01*
X226843378Y-79773088D01*
X226843378Y-79743824D01*
X226832179Y-79716788D01*
X226811487Y-79696096D01*
X226784451Y-79684897D01*
X226769819Y-79683456D01*
X226052236Y-79683456D01*
X226807030Y-79252146D01*
X226810114Y-79249956D01*
X226811487Y-79249388D01*
X226812884Y-79247990D01*
X226819019Y-79243636D01*
X226825127Y-79235747D01*
X226832179Y-79228696D01*
X226834009Y-79224277D01*
X226836936Y-79220498D01*
X226839560Y-79210876D01*
X226843378Y-79201660D01*
X226843378Y-79196879D01*
X226844636Y-79192267D01*
X226843378Y-79182370D01*
X226843378Y-79172396D01*
X226841548Y-79167980D01*
X226840946Y-79163237D01*
X226835995Y-79154572D01*
X226832179Y-79145360D01*
X226828800Y-79141981D01*
X226826427Y-79137828D01*
X226818537Y-79131718D01*
X226811487Y-79124668D01*
X226807070Y-79122838D01*
X226803290Y-79119911D01*
X226793666Y-79117286D01*
X226784451Y-79113469D01*
X226776968Y-79112732D01*
X226775058Y-79112211D01*
X226773582Y-79112398D01*
X226769819Y-79112028D01*
X225769819Y-79112028D01*
X225755187Y-79113469D01*
X225728151Y-79124668D01*
X225707459Y-79145360D01*
X225696260Y-79172396D01*
X225696260Y-79201660D01*
X225707459Y-79228696D01*
X225728151Y-79249388D01*
X225755187Y-79260587D01*
X225769819Y-79262028D01*
X226487402Y-79262028D01*
X225732609Y-79693338D01*
X225729525Y-79695526D01*
X225728151Y-79696096D01*
X225726751Y-79697495D01*
X225720619Y-79701848D01*
X225714509Y-79709737D01*
X225707459Y-79716788D01*
X225705629Y-79721204D01*
X225702702Y-79724985D01*
X225700077Y-79734608D01*
X225696260Y-79743824D01*
X225696260Y-79748604D01*
X225695002Y-79753217D01*
X225583708Y-79753217D01*
X225583708Y-78425123D01*
X226028152Y-78425123D01*
X226028152Y-78567980D01*
X226029593Y-78582612D01*
X226030624Y-78585101D01*
X226030815Y-78587789D01*
X226036070Y-78601521D01*
X226083689Y-78696759D01*
X226087653Y-78703058D01*
X226088411Y-78704886D01*
X226090099Y-78706942D01*
X226091521Y-78709202D01*
X226093019Y-78710501D01*
X226097738Y-78716251D01*
X226145357Y-78763870D01*
X226151106Y-78768588D01*
X226152406Y-78770087D01*
X226154665Y-78771508D01*
X226156722Y-78773197D01*
X226158549Y-78773954D01*
X226164849Y-78777919D01*
X226260087Y-78825538D01*
X226273818Y-78830793D01*
X226276507Y-78830984D01*
X226278996Y-78832015D01*
X226293628Y-78833456D01*
X226579342Y-78833456D01*
X226593974Y-78832015D01*
X226596463Y-78830983D01*
X226599151Y-78830793D01*
X226612883Y-78825538D01*
X226708121Y-78777919D01*
X226714417Y-78773955D01*
X226716247Y-78773198D01*
X226718305Y-78771508D01*
X226720564Y-78770087D01*
X226721863Y-78768588D01*
X226727612Y-78763871D01*
X226775232Y-78716252D01*
X226779950Y-78710502D01*
X226781450Y-78709202D01*
X226782872Y-78706942D01*
X226784560Y-78704886D01*
X226785317Y-78703058D01*
X226789282Y-78696759D01*
X226836901Y-78601521D01*
X226842156Y-78587790D01*
X226842347Y-78585100D01*
X226843378Y-78582612D01*
X226844819Y-78567980D01*
X226844819Y-78425123D01*
X226843378Y-78410491D01*
X226842347Y-78408002D01*
X226842156Y-78405313D01*
X226836901Y-78391582D01*
X226789282Y-78296344D01*
X226785317Y-78290044D01*
X226784560Y-78288217D01*
X226782872Y-78286160D01*
X226781450Y-78283901D01*
X226779950Y-78282600D01*
X226775232Y-78276851D01*
X226727612Y-78229232D01*
X226721863Y-78224514D01*
X226720564Y-78223016D01*
X226718305Y-78221594D01*
X226716247Y-78219905D01*
X226714417Y-78219147D01*
X226708121Y-78215184D01*
X226612883Y-78167565D01*
X226599151Y-78162310D01*
X226596463Y-78162119D01*
X226593974Y-78161088D01*
X226579342Y-78159647D01*
X226293628Y-78159647D01*
X226278996Y-78161088D01*
X226276507Y-78162118D01*
X226273818Y-78162310D01*
X226260087Y-78167565D01*
X226164849Y-78215184D01*
X226158549Y-78219148D01*
X226156722Y-78219906D01*
X226154665Y-78221594D01*
X226152406Y-78223016D01*
X226151106Y-78224514D01*
X226145357Y-78229233D01*
X226097738Y-78276852D01*
X226093019Y-78282601D01*
X226091521Y-78283901D01*
X226090099Y-78286160D01*
X226088411Y-78288217D01*
X226087653Y-78290044D01*
X226083689Y-78296344D01*
X226036070Y-78391582D01*
X226030815Y-78405314D01*
X226030624Y-78408001D01*
X226029593Y-78410491D01*
X226028152Y-78425123D01*
X225583708Y-78425123D01*
X225583708Y-77362872D01*
X225696260Y-77362872D01*
X225696260Y-77392136D01*
X225707459Y-77419172D01*
X225728151Y-77439864D01*
X225755187Y-77451063D01*
X225769819Y-77452504D01*
X226030979Y-77452504D01*
X226030815Y-77452933D01*
X226030624Y-77455620D01*
X226029593Y-77458110D01*
X226028152Y-77472742D01*
X226028152Y-77663218D01*
X226029593Y-77677850D01*
X226030624Y-77680339D01*
X226030815Y-77683027D01*
X226036070Y-77696759D01*
X226083689Y-77791997D01*
X226087653Y-77798296D01*
X226088411Y-77800124D01*
X226090099Y-77802180D01*
X226091521Y-77804440D01*
X226093019Y-77805739D01*
X226097738Y-77811489D01*
X226145357Y-77859108D01*
X226151106Y-77863826D01*
X226152406Y-77865325D01*
X226154665Y-77866746D01*
X226156722Y-77868435D01*
X226158549Y-77869192D01*
X226164849Y-77873157D01*
X226260087Y-77920776D01*
X226273818Y-77926031D01*
X226276507Y-77926222D01*
X226278996Y-77927253D01*
X226293628Y-77928694D01*
X226579342Y-77928694D01*
X226593974Y-77927253D01*
X226596463Y-77926221D01*
X226599151Y-77926031D01*
X226612883Y-77920776D01*
X226708121Y-77873157D01*
X226714417Y-77869193D01*
X226716247Y-77868436D01*
X226718305Y-77866746D01*
X226720564Y-77865325D01*
X226721863Y-77863826D01*
X226727612Y-77859109D01*
X226775232Y-77811490D01*
X226779950Y-77805740D01*
X226781450Y-77804440D01*
X226782872Y-77802180D01*
X226784560Y-77800124D01*
X226785317Y-77798296D01*
X226789282Y-77791997D01*
X226836901Y-77696759D01*
X226842156Y-77683028D01*
X226842347Y-77680338D01*
X226843378Y-77677850D01*
X226844819Y-77663218D01*
X226844819Y-77472742D01*
X226843378Y-77458110D01*
X226842347Y-77455621D01*
X226842156Y-77452932D01*
X226836901Y-77439201D01*
X226828650Y-77422700D01*
X226832179Y-77419172D01*
X226843378Y-77392136D01*
X226843378Y-77362872D01*
X226832179Y-77335836D01*
X226811487Y-77315144D01*
X226784451Y-77303945D01*
X226769819Y-77302504D01*
X225769819Y-77302504D01*
X225755187Y-77303945D01*
X225728151Y-77315144D01*
X225707459Y-77335836D01*
X225696260Y-77362872D01*
X225583708Y-77362872D01*
X225583708Y-76615599D01*
X226028152Y-76615599D01*
X226028152Y-76806075D01*
X226029593Y-76820707D01*
X226030624Y-76823196D01*
X226030815Y-76825884D01*
X226036070Y-76839616D01*
X226083689Y-76934854D01*
X226085229Y-76937301D01*
X226085614Y-76938455D01*
X226086859Y-76939891D01*
X226091521Y-76947297D01*
X226098625Y-76953458D01*
X226104787Y-76960563D01*
X226112192Y-76965224D01*
X226113629Y-76966470D01*
X226114782Y-76966854D01*
X226117230Y-76968395D01*
X226212468Y-77016014D01*
X226226199Y-77021269D01*
X226228888Y-77021460D01*
X226231377Y-77022491D01*
X226246009Y-77023932D01*
X226436563Y-77023932D01*
X226626961Y-77023932D01*
X226641593Y-77022491D01*
X226644082Y-77021459D01*
X226646770Y-77021269D01*
X226660502Y-77016014D01*
X226755741Y-76968395D01*
X226758187Y-76966854D01*
X226759342Y-76966470D01*
X226760779Y-76965223D01*
X226768183Y-76960563D01*
X226774342Y-76953460D01*
X226781450Y-76947297D01*
X226786111Y-76939891D01*
X226787357Y-76938455D01*
X226787741Y-76937301D01*
X226789282Y-76934854D01*
X226836901Y-76839616D01*
X226842156Y-76825885D01*
X226842347Y-76823195D01*
X226843378Y-76820707D01*
X226844819Y-76806075D01*
X226844819Y-76615599D01*
X226843378Y-76600967D01*
X226842347Y-76598478D01*
X226842156Y-76595789D01*
X226836901Y-76582058D01*
X226789282Y-76486820D01*
X226781450Y-76474377D01*
X226759342Y-76455204D01*
X226731581Y-76445950D01*
X226702391Y-76448024D01*
X226676216Y-76461111D01*
X226657043Y-76483219D01*
X226647789Y-76510980D01*
X226649863Y-76540170D01*
X226655118Y-76553902D01*
X226694819Y-76633304D01*
X226694819Y-76788370D01*
X226666298Y-76845411D01*
X226609256Y-76873932D01*
X226497970Y-76873932D01*
X226414791Y-76458033D01*
X226410508Y-76443968D01*
X226406418Y-76437862D01*
X226403607Y-76431074D01*
X226398356Y-76425823D01*
X226394224Y-76419653D01*
X226388110Y-76415577D01*
X226382915Y-76410382D01*
X226376055Y-76407540D01*
X226369876Y-76403421D01*
X226362667Y-76401994D01*
X226355879Y-76399183D01*
X226341247Y-76397742D01*
X226246009Y-76397742D01*
X226231377Y-76399183D01*
X226228888Y-76400213D01*
X226226199Y-76400405D01*
X226212468Y-76405660D01*
X226117230Y-76453279D01*
X226114782Y-76454819D01*
X226113629Y-76455204D01*
X226112192Y-76456449D01*
X226104787Y-76461111D01*
X226098625Y-76468215D01*
X226091521Y-76474377D01*
X226086859Y-76481782D01*
X226085614Y-76483219D01*
X226085229Y-76484372D01*
X226083689Y-76486820D01*
X226036070Y-76582058D01*
X226030815Y-76595790D01*
X226030624Y-76598477D01*
X226029593Y-76600967D01*
X226028152Y-76615599D01*
X225583708Y-76615599D01*
X225583708Y-76286631D01*
X227288674Y-76286631D01*
X227288674Y-87990747D01*
G37*
X207162969Y-87969819D02*
X206686779Y-87969819D01*
X206686779Y-87969819D02*
X206686779Y-86969819D01*
X226965057Y-73596554D02*
X226917438Y-73691792D01*
X226917438Y-73691792D02*
X226822200Y-73787030D01*
X226822200Y-73787030D02*
X226679342Y-73929887D01*
X226679342Y-73929887D02*
X226631723Y-74025125D01*
X226631723Y-74025125D02*
X226631723Y-74120363D01*
X226869819Y-74072744D02*
X226822200Y-74167982D01*
X226822200Y-74167982D02*
X226726961Y-74263220D01*
X226726961Y-74263220D02*
X226536485Y-74310839D01*
X226536485Y-74310839D02*
X226203152Y-74310839D01*
X226203152Y-74310839D02*
X226012676Y-74263220D01*
X226012676Y-74263220D02*
X225917438Y-74167982D01*
X225917438Y-74167982D02*
X225869819Y-74072744D01*
X225869819Y-74072744D02*
X225869819Y-73882268D01*
X225869819Y-73882268D02*
X225917438Y-73787030D01*
X225917438Y-73787030D02*
X226012676Y-73691792D01*
X226012676Y-73691792D02*
X226203152Y-73644173D01*
X226203152Y-73644173D02*
X226536485Y-73644173D01*
X226536485Y-73644173D02*
X226726961Y-73691792D01*
X226726961Y-73691792D02*
X226822200Y-73787030D01*
X226822200Y-73787030D02*
X226869819Y-73882268D01*
X226869819Y-73882268D02*
X226869819Y-74072744D01*
X226203152Y-72787030D02*
X226869819Y-72787030D01*
X226203152Y-73215601D02*
X226726961Y-73215601D01*
X226726961Y-73215601D02*
X226822200Y-73167982D01*
X226822200Y-73167982D02*
X226869819Y-73072744D01*
X226869819Y-73072744D02*
X226869819Y-72929887D01*
X226869819Y-72929887D02*
X226822200Y-72834649D01*
X226822200Y-72834649D02*
X226774580Y-72787030D01*
X226869819Y-71882268D02*
X226346009Y-71882268D01*
X226346009Y-71882268D02*
X226250771Y-71929887D01*
X226250771Y-71929887D02*
X226203152Y-72025125D01*
X226203152Y-72025125D02*
X226203152Y-72215601D01*
X226203152Y-72215601D02*
X226250771Y-72310839D01*
X226822200Y-71882268D02*
X226869819Y-71977506D01*
X226869819Y-71977506D02*
X226869819Y-72215601D01*
X226869819Y-72215601D02*
X226822200Y-72310839D01*
X226822200Y-72310839D02*
X226726961Y-72358458D01*
X226726961Y-72358458D02*
X226631723Y-72358458D01*
X226631723Y-72358458D02*
X226536485Y-72310839D01*
X226536485Y-72310839D02*
X226488866Y-72215601D01*
X226488866Y-72215601D02*
X226488866Y-71977506D01*
X226488866Y-71977506D02*
X226441247Y-71882268D01*
X226203152Y-71406077D02*
X226869819Y-71406077D01*
X226298390Y-71406077D02*
X226250771Y-71358458D01*
X226250771Y-71358458D02*
X226203152Y-71263220D01*
X226203152Y-71263220D02*
X226203152Y-71120363D01*
X226203152Y-71120363D02*
X226250771Y-71025125D01*
X226250771Y-71025125D02*
X226346009Y-70977506D01*
X226346009Y-70977506D02*
X226869819Y-70977506D01*
X226203152Y-70072744D02*
X227012676Y-70072744D01*
X227012676Y-70072744D02*
X227107914Y-70120363D01*
X227107914Y-70120363D02*
X227155533Y-70167982D01*
X227155533Y-70167982D02*
X227203152Y-70263220D01*
X227203152Y-70263220D02*
X227203152Y-70406077D01*
X227203152Y-70406077D02*
X227155533Y-70501315D01*
X226822200Y-70072744D02*
X226869819Y-70167982D01*
X226869819Y-70167982D02*
X226869819Y-70358458D01*
X226869819Y-70358458D02*
X226822200Y-70453696D01*
X226822200Y-70453696D02*
X226774580Y-70501315D01*
X226774580Y-70501315D02*
X226679342Y-70548934D01*
X226679342Y-70548934D02*
X226393628Y-70548934D01*
X226393628Y-70548934D02*
X226298390Y-70501315D01*
X226298390Y-70501315D02*
X226250771Y-70453696D01*
X226250771Y-70453696D02*
X226203152Y-70358458D01*
X226203152Y-70358458D02*
X226203152Y-70167982D01*
X226203152Y-70167982D02*
X226250771Y-70072744D01*
X226774580Y-69596553D02*
X226822200Y-69548934D01*
X226822200Y-69548934D02*
X226869819Y-69596553D01*
X226869819Y-69596553D02*
X226822200Y-69644172D01*
X226822200Y-69644172D02*
X226774580Y-69596553D01*
X226774580Y-69596553D02*
X226869819Y-69596553D01*
X226774580Y-68358458D02*
X226822200Y-68310839D01*
X226822200Y-68310839D02*
X226869819Y-68358458D01*
X226869819Y-68358458D02*
X226822200Y-68406077D01*
X226822200Y-68406077D02*
X226774580Y-68358458D01*
X226774580Y-68358458D02*
X226869819Y-68358458D01*
X226250771Y-68358458D02*
X226298390Y-68310839D01*
X226298390Y-68310839D02*
X226346009Y-68358458D01*
X226346009Y-68358458D02*
X226298390Y-68406077D01*
X226298390Y-68406077D02*
X226250771Y-68358458D01*
X226250771Y-68358458D02*
X226346009Y-68358458D01*
X227250771Y-67977506D02*
X227203152Y-67929887D01*
X227203152Y-67929887D02*
X227060295Y-67834649D01*
X227060295Y-67834649D02*
X226965057Y-67787030D01*
X226965057Y-67787030D02*
X226822200Y-67739411D01*
X226822200Y-67739411D02*
X226584104Y-67691792D01*
X226584104Y-67691792D02*
X226393628Y-67691792D01*
X226393628Y-67691792D02*
X226155533Y-67739411D01*
X226155533Y-67739411D02*
X226012676Y-67787030D01*
X226012676Y-67787030D02*
X225917438Y-67834649D01*
X225917438Y-67834649D02*
X225774580Y-67929887D01*
X225774580Y-67929887D02*
X225726961Y-67977506D01*
X227250771Y-67310839D02*
X227203152Y-67263220D01*
X227203152Y-67263220D02*
X227060295Y-67167982D01*
X227060295Y-67167982D02*
X226965057Y-67120363D01*
X226965057Y-67120363D02*
X226822200Y-67072744D01*
X226822200Y-67072744D02*
X226584104Y-67025125D01*
X226584104Y-67025125D02*
X226393628Y-67025125D01*
X226393628Y-67025125D02*
X226155533Y-67072744D01*
X226155533Y-67072744D02*
X226012676Y-67120363D01*
X226012676Y-67120363D02*
X225917438Y-67167982D01*
X225917438Y-67167982D02*
X225774580Y-67263220D01*
X225774580Y-67263220D02*
X225726961Y-67310839D01*
X197889160Y-50922200D02*
X198032017Y-50969819D01*
X198032017Y-50969819D02*
X198270112Y-50969819D01*
X198270112Y-50969819D02*
X198365350Y-50922200D01*
X198365350Y-50922200D02*
X198412969Y-50874580D01*
X198412969Y-50874580D02*
X198460588Y-50779342D01*
X198460588Y-50779342D02*
X198460588Y-50684104D01*
X198460588Y-50684104D02*
X198412969Y-50588866D01*
X198412969Y-50588866D02*
X198365350Y-50541247D01*
X198365350Y-50541247D02*
X198270112Y-50493628D01*
X198270112Y-50493628D02*
X198079636Y-50446009D01*
X198079636Y-50446009D02*
X197984398Y-50398390D01*
X197984398Y-50398390D02*
X197936779Y-50350771D01*
X197936779Y-50350771D02*
X197889160Y-50255533D01*
X197889160Y-50255533D02*
X197889160Y-50160295D01*
X197889160Y-50160295D02*
X197936779Y-50065057D01*
X197936779Y-50065057D02*
X197984398Y-50017438D01*
X197984398Y-50017438D02*
X198079636Y-49969819D01*
X198079636Y-49969819D02*
X198317731Y-49969819D01*
X198317731Y-49969819D02*
X198460588Y-50017438D01*
X199412969Y-50969819D02*
X198841541Y-50969819D01*
X199127255Y-50969819D02*
X199127255Y-49969819D01*
X199127255Y-49969819D02*
X199032017Y-50112676D01*
X199032017Y-50112676D02*
X198936779Y-50207914D01*
X198936779Y-50207914D02*
X198841541Y-50255533D01*
G36*
X193505547Y-85262556D02*
G01*
X193582534Y-85301050D01*
X193656648Y-85375163D01*
X193694819Y-85489676D01*
X193694819Y-85640601D01*
X192844819Y-85640601D01*
X192844819Y-85489676D01*
X192882990Y-85375162D01*
X192957103Y-85301050D01*
X193034090Y-85262556D01*
X193207624Y-85219173D01*
X193332013Y-85219173D01*
X193505547Y-85262556D01*
G37*
G36*
X193955930Y-87996950D02*
G01*
X192583708Y-87996950D01*
X192583708Y-87334649D01*
X192694819Y-87334649D01*
X192694819Y-87477506D01*
X192695548Y-87484911D01*
X192695408Y-87486886D01*
X192695998Y-87489483D01*
X192696260Y-87492138D01*
X192697018Y-87493969D01*
X192698668Y-87501223D01*
X192746287Y-87644080D01*
X192752281Y-87657505D01*
X192754046Y-87659540D01*
X192755078Y-87662031D01*
X192764405Y-87673396D01*
X192859643Y-87768634D01*
X192865393Y-87773354D01*
X192866692Y-87774851D01*
X192868946Y-87776270D01*
X192871008Y-87777962D01*
X192872840Y-87778720D01*
X192879135Y-87782683D01*
X192974373Y-87830302D01*
X192975442Y-87830711D01*
X192975878Y-87831034D01*
X192982014Y-87833226D01*
X192988104Y-87835557D01*
X192988644Y-87835595D01*
X192989724Y-87835981D01*
X193180200Y-87883600D01*
X193182736Y-87883975D01*
X193183758Y-87884398D01*
X193189270Y-87884940D01*
X193194744Y-87885750D01*
X193195836Y-87885587D01*
X193198390Y-87885839D01*
X193341247Y-87885839D01*
X193343800Y-87885587D01*
X193344893Y-87885750D01*
X193350366Y-87884940D01*
X193355879Y-87884398D01*
X193356900Y-87883975D01*
X193359437Y-87883600D01*
X193549913Y-87835981D01*
X193550992Y-87835595D01*
X193551532Y-87835557D01*
X193557613Y-87833229D01*
X193563759Y-87831034D01*
X193564194Y-87830711D01*
X193565264Y-87830302D01*
X193660502Y-87782683D01*
X193666798Y-87778719D01*
X193668628Y-87777962D01*
X193670686Y-87776272D01*
X193672945Y-87774851D01*
X193674244Y-87773352D01*
X193679994Y-87768634D01*
X193775233Y-87673396D01*
X193784561Y-87662031D01*
X193785592Y-87659540D01*
X193787357Y-87657506D01*
X193793351Y-87644080D01*
X193840970Y-87501224D01*
X193842619Y-87493968D01*
X193843378Y-87492138D01*
X193843639Y-87489484D01*
X193844230Y-87486887D01*
X193844089Y-87484912D01*
X193844819Y-87477506D01*
X193844819Y-87382268D01*
X193844089Y-87374861D01*
X193844230Y-87372887D01*
X193843639Y-87370289D01*
X193843378Y-87367636D01*
X193842619Y-87365805D01*
X193840970Y-87358550D01*
X193793351Y-87215694D01*
X193787357Y-87202268D01*
X193785590Y-87200231D01*
X193784560Y-87197743D01*
X193775232Y-87186377D01*
X193727612Y-87138758D01*
X193716247Y-87129431D01*
X193700410Y-87122871D01*
X193689212Y-87118233D01*
X193674580Y-87116792D01*
X193341247Y-87116792D01*
X193326615Y-87118233D01*
X193299579Y-87129432D01*
X193278887Y-87150124D01*
X193267688Y-87177160D01*
X193266247Y-87191792D01*
X193266247Y-87382268D01*
X193267688Y-87396900D01*
X193278887Y-87423936D01*
X193299579Y-87444628D01*
X193326615Y-87455827D01*
X193355879Y-87455827D01*
X193382915Y-87444628D01*
X193403607Y-87423936D01*
X193414806Y-87396900D01*
X193416247Y-87382268D01*
X193416247Y-87266792D01*
X193643514Y-87266792D01*
X193656648Y-87279925D01*
X193694819Y-87394438D01*
X193694819Y-87465336D01*
X193656648Y-87579848D01*
X193582534Y-87653961D01*
X193505547Y-87692455D01*
X193332013Y-87735839D01*
X193207624Y-87735839D01*
X193034090Y-87692455D01*
X192957103Y-87653962D01*
X192882990Y-87579849D01*
X192844819Y-87465335D01*
X192844819Y-87352354D01*
X192884520Y-87272952D01*
X192889775Y-87259221D01*
X192891849Y-87230031D01*
X192882595Y-87202269D01*
X192863422Y-87180162D01*
X192837247Y-87167074D01*
X192808057Y-87165000D01*
X192780296Y-87174254D01*
X192758188Y-87193427D01*
X192750356Y-87205870D01*
X192702737Y-87301108D01*
X192697482Y-87314840D01*
X192697291Y-87317527D01*
X192696260Y-87320017D01*
X192694819Y-87334649D01*
X192583708Y-87334649D01*
X192583708Y-86757981D01*
X192695002Y-86757981D01*
X192696260Y-86767877D01*
X192696260Y-86777852D01*
X192698089Y-86782267D01*
X192698692Y-86787011D01*
X192703642Y-86795675D01*
X192707459Y-86804888D01*
X192710837Y-86808266D01*
X192713211Y-86812420D01*
X192721100Y-86818529D01*
X192728151Y-86825580D01*
X192732567Y-86827409D01*
X192736348Y-86830337D01*
X192745971Y-86832961D01*
X192755187Y-86836779D01*
X192762669Y-86837515D01*
X192764580Y-86838037D01*
X192766055Y-86837849D01*
X192769819Y-86838220D01*
X193769819Y-86838220D01*
X193784451Y-86836779D01*
X193811487Y-86825580D01*
X193832179Y-86804888D01*
X193843378Y-86777852D01*
X193843378Y-86748588D01*
X193832179Y-86721552D01*
X193811487Y-86700860D01*
X193784451Y-86689661D01*
X193769819Y-86688220D01*
X193052236Y-86688220D01*
X193807030Y-86256910D01*
X193810114Y-86254720D01*
X193811487Y-86254152D01*
X193812884Y-86252754D01*
X193819019Y-86248400D01*
X193825127Y-86240511D01*
X193832179Y-86233460D01*
X193834009Y-86229041D01*
X193836936Y-86225262D01*
X193839560Y-86215640D01*
X193843378Y-86206424D01*
X193843378Y-86201643D01*
X193844636Y-86197031D01*
X193843378Y-86187134D01*
X193843378Y-86177160D01*
X193841548Y-86172744D01*
X193840946Y-86168001D01*
X193835995Y-86159336D01*
X193832179Y-86150124D01*
X193828800Y-86146745D01*
X193826427Y-86142592D01*
X193818537Y-86136482D01*
X193811487Y-86129432D01*
X193807070Y-86127602D01*
X193803290Y-86124675D01*
X193793666Y-86122050D01*
X193784451Y-86118233D01*
X193776968Y-86117496D01*
X193775058Y-86116975D01*
X193773582Y-86117162D01*
X193769819Y-86116792D01*
X192769819Y-86116792D01*
X192755187Y-86118233D01*
X192728151Y-86129432D01*
X192707459Y-86150124D01*
X192696260Y-86177160D01*
X192696260Y-86206424D01*
X192707459Y-86233460D01*
X192728151Y-86254152D01*
X192755187Y-86265351D01*
X192769819Y-86266792D01*
X193487402Y-86266792D01*
X192732609Y-86698102D01*
X192729525Y-86700290D01*
X192728151Y-86700860D01*
X192726751Y-86702259D01*
X192720619Y-86706612D01*
X192714509Y-86714501D01*
X192707459Y-86721552D01*
X192705629Y-86725968D01*
X192702702Y-86729749D01*
X192700077Y-86739372D01*
X192696260Y-86748588D01*
X192696260Y-86753368D01*
X192695002Y-86757981D01*
X192583708Y-86757981D01*
X192583708Y-85477506D01*
X192694819Y-85477506D01*
X192694819Y-85715601D01*
X192696260Y-85730233D01*
X192707459Y-85757269D01*
X192728151Y-85777961D01*
X192755187Y-85789160D01*
X192769819Y-85790601D01*
X193769819Y-85790601D01*
X193784451Y-85789160D01*
X193811487Y-85777961D01*
X193832179Y-85757269D01*
X193843378Y-85730233D01*
X193844819Y-85715601D01*
X193844819Y-85477506D01*
X193844089Y-85470099D01*
X193844230Y-85468125D01*
X193843639Y-85465527D01*
X193843378Y-85462874D01*
X193842619Y-85461043D01*
X193840970Y-85453788D01*
X193793351Y-85310932D01*
X193787357Y-85297506D01*
X193785592Y-85295471D01*
X193784561Y-85292981D01*
X193775233Y-85281616D01*
X193679994Y-85186378D01*
X193674244Y-85181659D01*
X193672945Y-85180161D01*
X193670686Y-85178739D01*
X193668628Y-85177050D01*
X193666798Y-85176292D01*
X193660502Y-85172329D01*
X193565264Y-85124710D01*
X193564194Y-85124300D01*
X193563759Y-85123978D01*
X193557613Y-85121782D01*
X193551532Y-85119455D01*
X193550992Y-85119416D01*
X193549913Y-85119031D01*
X193359437Y-85071412D01*
X193356900Y-85071036D01*
X193355879Y-85070614D01*
X193350366Y-85070071D01*
X193344893Y-85069262D01*
X193343800Y-85069424D01*
X193341247Y-85069173D01*
X193198390Y-85069173D01*
X193195836Y-85069424D01*
X193194744Y-85069262D01*
X193189270Y-85070071D01*
X193183758Y-85070614D01*
X193182736Y-85071036D01*
X193180200Y-85071412D01*
X192989724Y-85119031D01*
X192988644Y-85119416D01*
X192988104Y-85119455D01*
X192982014Y-85121785D01*
X192975878Y-85123978D01*
X192975442Y-85124300D01*
X192974373Y-85124710D01*
X192879135Y-85172329D01*
X192872840Y-85176291D01*
X192871008Y-85177050D01*
X192868946Y-85178741D01*
X192866692Y-85180161D01*
X192865393Y-85181657D01*
X192859643Y-85186378D01*
X192764405Y-85281616D01*
X192755078Y-85292981D01*
X192754046Y-85295471D01*
X192752281Y-85297507D01*
X192746287Y-85310932D01*
X192698668Y-85453789D01*
X192697018Y-85461042D01*
X192696260Y-85462874D01*
X192695998Y-85465528D01*
X192695408Y-85468126D01*
X192695548Y-85470100D01*
X192694819Y-85477506D01*
X192583708Y-85477506D01*
X192583708Y-84958062D01*
X193955930Y-84958062D01*
X193955930Y-87996950D01*
G37*
X225969819Y-55763220D02*
X224969819Y-55763220D01*
X224969819Y-55763220D02*
X224969819Y-55382268D01*
X224969819Y-55382268D02*
X225017438Y-55287030D01*
X225017438Y-55287030D02*
X225065057Y-55239411D01*
X225065057Y-55239411D02*
X225160295Y-55191792D01*
X225160295Y-55191792D02*
X225303152Y-55191792D01*
X225303152Y-55191792D02*
X225398390Y-55239411D01*
X225398390Y-55239411D02*
X225446009Y-55287030D01*
X225446009Y-55287030D02*
X225493628Y-55382268D01*
X225493628Y-55382268D02*
X225493628Y-55763220D01*
X225684104Y-54810839D02*
X225684104Y-54334649D01*
X225969819Y-54906077D02*
X224969819Y-54572744D01*
X224969819Y-54572744D02*
X225969819Y-54239411D01*
X224969819Y-53477506D02*
X224969819Y-53667982D01*
X224969819Y-53667982D02*
X225017438Y-53763220D01*
X225017438Y-53763220D02*
X225065057Y-53810839D01*
X225065057Y-53810839D02*
X225207914Y-53906077D01*
X225207914Y-53906077D02*
X225398390Y-53953696D01*
X225398390Y-53953696D02*
X225779342Y-53953696D01*
X225779342Y-53953696D02*
X225874580Y-53906077D01*
X225874580Y-53906077D02*
X225922200Y-53858458D01*
X225922200Y-53858458D02*
X225969819Y-53763220D01*
X225969819Y-53763220D02*
X225969819Y-53572744D01*
X225969819Y-53572744D02*
X225922200Y-53477506D01*
X225922200Y-53477506D02*
X225874580Y-53429887D01*
X225874580Y-53429887D02*
X225779342Y-53382268D01*
X225779342Y-53382268D02*
X225541247Y-53382268D01*
X225541247Y-53382268D02*
X225446009Y-53429887D01*
X225446009Y-53429887D02*
X225398390Y-53477506D01*
X225398390Y-53477506D02*
X225350771Y-53572744D01*
X225350771Y-53572744D02*
X225350771Y-53763220D01*
X225350771Y-53763220D02*
X225398390Y-53858458D01*
X225398390Y-53858458D02*
X225446009Y-53906077D01*
X225446009Y-53906077D02*
X225541247Y-53953696D01*
X217969819Y-55813220D02*
X216969819Y-55813220D01*
X216969819Y-55813220D02*
X216969819Y-55432268D01*
X216969819Y-55432268D02*
X217017438Y-55337030D01*
X217017438Y-55337030D02*
X217065057Y-55289411D01*
X217065057Y-55289411D02*
X217160295Y-55241792D01*
X217160295Y-55241792D02*
X217303152Y-55241792D01*
X217303152Y-55241792D02*
X217398390Y-55289411D01*
X217398390Y-55289411D02*
X217446009Y-55337030D01*
X217446009Y-55337030D02*
X217493628Y-55432268D01*
X217493628Y-55432268D02*
X217493628Y-55813220D01*
X217446009Y-54479887D02*
X217493628Y-54337030D01*
X217493628Y-54337030D02*
X217541247Y-54289411D01*
X217541247Y-54289411D02*
X217636485Y-54241792D01*
X217636485Y-54241792D02*
X217779342Y-54241792D01*
X217779342Y-54241792D02*
X217874580Y-54289411D01*
X217874580Y-54289411D02*
X217922200Y-54337030D01*
X217922200Y-54337030D02*
X217969819Y-54432268D01*
X217969819Y-54432268D02*
X217969819Y-54813220D01*
X217969819Y-54813220D02*
X216969819Y-54813220D01*
X216969819Y-54813220D02*
X216969819Y-54479887D01*
X216969819Y-54479887D02*
X217017438Y-54384649D01*
X217017438Y-54384649D02*
X217065057Y-54337030D01*
X217065057Y-54337030D02*
X217160295Y-54289411D01*
X217160295Y-54289411D02*
X217255533Y-54289411D01*
X217255533Y-54289411D02*
X217350771Y-54337030D01*
X217350771Y-54337030D02*
X217398390Y-54384649D01*
X217398390Y-54384649D02*
X217446009Y-54479887D01*
X217446009Y-54479887D02*
X217446009Y-54813220D01*
X217065057Y-53860839D02*
X217017438Y-53813220D01*
X217017438Y-53813220D02*
X216969819Y-53717982D01*
X216969819Y-53717982D02*
X216969819Y-53479887D01*
X216969819Y-53479887D02*
X217017438Y-53384649D01*
X217017438Y-53384649D02*
X217065057Y-53337030D01*
X217065057Y-53337030D02*
X217160295Y-53289411D01*
X217160295Y-53289411D02*
X217255533Y-53289411D01*
X217255533Y-53289411D02*
X217398390Y-53337030D01*
X217398390Y-53337030D02*
X217969819Y-53908458D01*
X217969819Y-53908458D02*
X217969819Y-53289411D01*
G36*
X197109104Y-80106782D02*
G01*
X196706989Y-79972744D01*
X197109104Y-79838705D01*
X197109104Y-80106782D01*
G37*
G36*
X197109104Y-75725829D02*
G01*
X196706989Y-75591791D01*
X197109104Y-75457752D01*
X197109104Y-75725829D01*
G37*
G36*
X197655930Y-81396950D02*
G01*
X196283708Y-81396950D01*
X196283708Y-80782268D01*
X196394819Y-80782268D01*
X196394819Y-80877506D01*
X196395548Y-80884911D01*
X196395408Y-80886886D01*
X196395998Y-80889483D01*
X196396260Y-80892138D01*
X196397018Y-80893969D01*
X196398668Y-80901223D01*
X196446287Y-81044080D01*
X196452281Y-81057505D01*
X196454046Y-81059540D01*
X196455078Y-81062031D01*
X196464405Y-81073396D01*
X196559643Y-81168634D01*
X196565393Y-81173354D01*
X196566692Y-81174851D01*
X196568946Y-81176270D01*
X196571008Y-81177962D01*
X196572840Y-81178720D01*
X196579135Y-81182683D01*
X196674373Y-81230302D01*
X196675442Y-81230711D01*
X196675878Y-81231034D01*
X196682014Y-81233226D01*
X196688104Y-81235557D01*
X196688644Y-81235595D01*
X196689724Y-81235981D01*
X196880200Y-81283600D01*
X196882736Y-81283975D01*
X196883758Y-81284398D01*
X196889270Y-81284940D01*
X196894744Y-81285750D01*
X196895836Y-81285587D01*
X196898390Y-81285839D01*
X197041247Y-81285839D01*
X197043800Y-81285587D01*
X197044893Y-81285750D01*
X197050366Y-81284940D01*
X197055879Y-81284398D01*
X197056900Y-81283975D01*
X197059437Y-81283600D01*
X197249913Y-81235981D01*
X197250992Y-81235595D01*
X197251532Y-81235557D01*
X197257613Y-81233229D01*
X197263759Y-81231034D01*
X197264194Y-81230711D01*
X197265264Y-81230302D01*
X197360502Y-81182683D01*
X197366798Y-81178719D01*
X197368628Y-81177962D01*
X197370686Y-81176272D01*
X197372945Y-81174851D01*
X197374244Y-81173352D01*
X197379994Y-81168634D01*
X197475233Y-81073396D01*
X197484561Y-81062031D01*
X197485592Y-81059540D01*
X197487357Y-81057506D01*
X197493351Y-81044080D01*
X197540970Y-80901224D01*
X197542619Y-80893968D01*
X197543378Y-80892138D01*
X197543639Y-80889484D01*
X197544230Y-80886887D01*
X197544089Y-80884912D01*
X197544819Y-80877506D01*
X197544819Y-80782268D01*
X197544089Y-80774861D01*
X197544230Y-80772887D01*
X197543639Y-80770289D01*
X197543378Y-80767636D01*
X197542619Y-80765805D01*
X197540970Y-80758550D01*
X197493351Y-80615694D01*
X197487357Y-80602268D01*
X197485590Y-80600231D01*
X197484560Y-80597743D01*
X197475232Y-80586377D01*
X197427612Y-80538758D01*
X197416247Y-80529431D01*
X197389211Y-80518233D01*
X197359948Y-80518233D01*
X197332912Y-80529432D01*
X197312219Y-80550125D01*
X197301021Y-80577161D01*
X197301021Y-80606424D01*
X197312220Y-80633460D01*
X197321548Y-80644826D01*
X197356648Y-80679925D01*
X197394819Y-80794438D01*
X197394819Y-80865336D01*
X197356648Y-80979848D01*
X197282534Y-81053961D01*
X197205547Y-81092455D01*
X197032013Y-81135839D01*
X196907624Y-81135839D01*
X196734090Y-81092455D01*
X196657103Y-81053962D01*
X196582990Y-80979849D01*
X196544819Y-80865335D01*
X196544819Y-80794438D01*
X196582990Y-80679924D01*
X196618090Y-80644825D01*
X196627417Y-80633460D01*
X196638616Y-80606424D01*
X196638616Y-80577161D01*
X196627417Y-80550125D01*
X196606724Y-80529432D01*
X196579688Y-80518233D01*
X196550425Y-80518233D01*
X196523389Y-80529432D01*
X196512024Y-80538759D01*
X196464405Y-80586378D01*
X196455078Y-80597743D01*
X196454046Y-80600233D01*
X196452281Y-80602269D01*
X196446287Y-80615694D01*
X196398668Y-80758551D01*
X196397018Y-80765804D01*
X196396260Y-80767636D01*
X196395998Y-80770290D01*
X196395408Y-80772888D01*
X196395548Y-80774862D01*
X196394819Y-80782268D01*
X196283708Y-80782268D01*
X196283708Y-79963364D01*
X196395408Y-79963364D01*
X196396074Y-79972744D01*
X196395408Y-79982124D01*
X196397103Y-79987209D01*
X196397483Y-79992554D01*
X196401687Y-80000963D01*
X196404662Y-80009887D01*
X196408173Y-80013935D01*
X196410569Y-80018727D01*
X196417673Y-80024889D01*
X196423836Y-80031994D01*
X196428627Y-80034389D01*
X196432676Y-80037901D01*
X196446102Y-80043895D01*
X197446102Y-80377228D01*
X197460438Y-80380488D01*
X197489628Y-80378413D01*
X197515802Y-80365327D01*
X197534976Y-80343219D01*
X197544230Y-80315457D01*
X197542155Y-80286267D01*
X197529068Y-80260094D01*
X197506961Y-80240920D01*
X197493536Y-80234926D01*
X197259104Y-80156782D01*
X197259104Y-79788705D01*
X197493536Y-79710562D01*
X197506961Y-79704568D01*
X197529068Y-79685394D01*
X197542155Y-79659221D01*
X197544230Y-79630031D01*
X197534976Y-79602269D01*
X197515802Y-79580161D01*
X197489628Y-79567075D01*
X197460438Y-79565000D01*
X197446102Y-79568260D01*
X196446102Y-79901593D01*
X196432676Y-79907587D01*
X196428627Y-79911098D01*
X196423836Y-79913494D01*
X196417673Y-79920598D01*
X196410569Y-79926761D01*
X196408173Y-79931552D01*
X196404662Y-79935601D01*
X196401687Y-79944524D01*
X196397483Y-79952934D01*
X196397103Y-79958278D01*
X196395408Y-79963364D01*
X196283708Y-79963364D01*
X196283708Y-79300838D01*
X196395002Y-79300838D01*
X196396260Y-79310734D01*
X196396260Y-79320709D01*
X196398089Y-79325124D01*
X196398692Y-79329868D01*
X196403642Y-79338532D01*
X196407459Y-79347745D01*
X196410837Y-79351123D01*
X196413211Y-79355277D01*
X196421100Y-79361386D01*
X196428151Y-79368437D01*
X196432567Y-79370266D01*
X196436348Y-79373194D01*
X196445971Y-79375818D01*
X196455187Y-79379636D01*
X196462669Y-79380372D01*
X196464580Y-79380894D01*
X196466055Y-79380706D01*
X196469819Y-79381077D01*
X197469819Y-79381077D01*
X197484451Y-79379636D01*
X197511487Y-79368437D01*
X197532179Y-79347745D01*
X197543378Y-79320709D01*
X197543378Y-79291445D01*
X197532179Y-79264409D01*
X197511487Y-79243717D01*
X197484451Y-79232518D01*
X197469819Y-79231077D01*
X196752236Y-79231077D01*
X197507030Y-78799767D01*
X197510114Y-78797577D01*
X197511487Y-78797009D01*
X197512884Y-78795611D01*
X197519019Y-78791257D01*
X197525127Y-78783368D01*
X197532179Y-78776317D01*
X197534009Y-78771898D01*
X197536936Y-78768119D01*
X197539560Y-78758497D01*
X197543378Y-78749281D01*
X197543378Y-78744500D01*
X197544636Y-78739888D01*
X197543378Y-78729991D01*
X197543378Y-78720017D01*
X197541548Y-78715601D01*
X197540946Y-78710858D01*
X197535995Y-78702193D01*
X197532179Y-78692981D01*
X197528800Y-78689602D01*
X197526427Y-78685449D01*
X197518537Y-78679339D01*
X197511487Y-78672289D01*
X197507070Y-78670459D01*
X197503290Y-78667532D01*
X197493666Y-78664907D01*
X197484451Y-78661090D01*
X197476968Y-78660353D01*
X197475058Y-78659832D01*
X197473582Y-78660019D01*
X197469819Y-78659649D01*
X196469819Y-78659649D01*
X196455187Y-78661090D01*
X196428151Y-78672289D01*
X196407459Y-78692981D01*
X196396260Y-78720017D01*
X196396260Y-78749281D01*
X196407459Y-78776317D01*
X196428151Y-78797009D01*
X196455187Y-78808208D01*
X196469819Y-78809649D01*
X197187402Y-78809649D01*
X196432609Y-79240959D01*
X196429525Y-79243147D01*
X196428151Y-79243717D01*
X196426751Y-79245116D01*
X196420619Y-79249469D01*
X196414509Y-79257358D01*
X196407459Y-79264409D01*
X196405629Y-79268825D01*
X196402702Y-79272606D01*
X196400077Y-79282229D01*
X196396260Y-79291445D01*
X196396260Y-79296225D01*
X196395002Y-79300838D01*
X196283708Y-79300838D01*
X196283708Y-77115601D01*
X196394819Y-77115601D01*
X196394819Y-77353696D01*
X196396260Y-77368328D01*
X196397291Y-77370817D01*
X196397482Y-77373505D01*
X196402737Y-77387237D01*
X196450356Y-77482475D01*
X196454320Y-77488774D01*
X196455078Y-77490602D01*
X196456766Y-77492658D01*
X196458188Y-77494918D01*
X196459686Y-77496217D01*
X196464405Y-77501967D01*
X196512024Y-77549586D01*
X196517773Y-77554304D01*
X196519073Y-77555803D01*
X196521332Y-77557224D01*
X196523389Y-77558913D01*
X196525216Y-77559670D01*
X196531516Y-77563635D01*
X196626754Y-77611254D01*
X196640485Y-77616509D01*
X196643174Y-77616700D01*
X196645663Y-77617731D01*
X196660295Y-77619172D01*
X196755533Y-77619172D01*
X196770165Y-77617731D01*
X196772654Y-77616699D01*
X196775342Y-77616509D01*
X196789074Y-77611254D01*
X196884312Y-77563635D01*
X196890611Y-77559670D01*
X196892439Y-77558913D01*
X196894495Y-77557224D01*
X196896755Y-77555803D01*
X196898054Y-77554304D01*
X196903804Y-77549586D01*
X196951423Y-77501967D01*
X196956141Y-77496217D01*
X196957640Y-77494918D01*
X196959061Y-77492658D01*
X196960750Y-77490602D01*
X196961507Y-77488774D01*
X196965472Y-77482475D01*
X197013091Y-77387237D01*
X197013500Y-77386167D01*
X197013823Y-77385732D01*
X197016015Y-77379595D01*
X197018346Y-77373506D01*
X197018384Y-77372965D01*
X197018770Y-77371886D01*
X197064392Y-77189396D01*
X197102886Y-77112409D01*
X197133293Y-77082002D01*
X197201809Y-77047744D01*
X197261637Y-77047744D01*
X197330153Y-77082002D01*
X197360561Y-77112409D01*
X197394819Y-77180925D01*
X197394819Y-77389145D01*
X197351049Y-77520455D01*
X197347789Y-77534792D01*
X197349864Y-77563982D01*
X197362950Y-77590155D01*
X197385057Y-77609329D01*
X197412820Y-77618583D01*
X197442010Y-77616508D01*
X197468183Y-77603422D01*
X197487357Y-77581315D01*
X197493351Y-77567889D01*
X197540970Y-77425033D01*
X197542619Y-77417777D01*
X197543378Y-77415947D01*
X197543639Y-77413293D01*
X197544230Y-77410696D01*
X197544089Y-77408721D01*
X197544819Y-77401315D01*
X197544819Y-77163220D01*
X197543378Y-77148588D01*
X197542347Y-77146099D01*
X197542156Y-77143410D01*
X197536901Y-77129679D01*
X197489282Y-77034441D01*
X197485317Y-77028141D01*
X197484560Y-77026314D01*
X197482872Y-77024257D01*
X197481450Y-77021998D01*
X197479950Y-77020697D01*
X197475232Y-77014948D01*
X197427612Y-76967329D01*
X197421863Y-76962611D01*
X197420564Y-76961113D01*
X197418305Y-76959691D01*
X197416247Y-76958002D01*
X197414417Y-76957244D01*
X197408121Y-76953281D01*
X197312883Y-76905662D01*
X197299151Y-76900407D01*
X197296463Y-76900216D01*
X197293974Y-76899185D01*
X197279342Y-76897744D01*
X197184104Y-76897744D01*
X197169472Y-76899185D01*
X197166983Y-76900215D01*
X197164294Y-76900407D01*
X197150563Y-76905662D01*
X197055325Y-76953281D01*
X197049025Y-76957245D01*
X197047198Y-76958003D01*
X197045141Y-76959691D01*
X197042882Y-76961113D01*
X197041582Y-76962611D01*
X197035833Y-76967330D01*
X196988214Y-77014949D01*
X196983495Y-77020698D01*
X196981997Y-77021998D01*
X196980575Y-77024257D01*
X196978887Y-77026314D01*
X196978129Y-77028141D01*
X196974165Y-77034441D01*
X196926546Y-77129679D01*
X196926136Y-77130748D01*
X196925814Y-77131184D01*
X196923618Y-77137329D01*
X196921291Y-77143411D01*
X196921252Y-77143950D01*
X196920867Y-77145030D01*
X196875244Y-77327520D01*
X196836751Y-77404507D01*
X196806344Y-77434914D01*
X196737828Y-77469172D01*
X196678000Y-77469172D01*
X196609484Y-77434914D01*
X196579077Y-77404507D01*
X196544819Y-77335991D01*
X196544819Y-77127771D01*
X196588589Y-76996462D01*
X196591849Y-76982125D01*
X196589774Y-76952935D01*
X196576688Y-76926761D01*
X196554580Y-76907587D01*
X196526818Y-76898333D01*
X196497628Y-76900408D01*
X196471455Y-76913495D01*
X196452281Y-76935602D01*
X196446287Y-76949027D01*
X196398668Y-77091884D01*
X196397018Y-77099137D01*
X196396260Y-77100969D01*
X196395998Y-77103623D01*
X196395408Y-77106221D01*
X196395548Y-77108195D01*
X196394819Y-77115601D01*
X196283708Y-77115601D01*
X196283708Y-76115601D01*
X196394819Y-76115601D01*
X196394819Y-76687029D01*
X196396260Y-76701661D01*
X196407459Y-76728697D01*
X196428151Y-76749389D01*
X196455187Y-76760588D01*
X196484451Y-76760588D01*
X196511487Y-76749389D01*
X196532179Y-76728697D01*
X196543378Y-76701661D01*
X196544819Y-76687029D01*
X196544819Y-76476315D01*
X197469819Y-76476315D01*
X197484451Y-76474874D01*
X197511487Y-76463675D01*
X197532179Y-76442983D01*
X197543378Y-76415947D01*
X197543378Y-76386683D01*
X197532179Y-76359647D01*
X197511487Y-76338955D01*
X197484451Y-76327756D01*
X197469819Y-76326315D01*
X196544819Y-76326315D01*
X196544819Y-76115601D01*
X196543378Y-76100969D01*
X196532179Y-76073933D01*
X196511487Y-76053241D01*
X196484451Y-76042042D01*
X196455187Y-76042042D01*
X196428151Y-76053241D01*
X196407459Y-76073933D01*
X196396260Y-76100969D01*
X196394819Y-76115601D01*
X196283708Y-76115601D01*
X196283708Y-75582411D01*
X196395408Y-75582411D01*
X196396074Y-75591791D01*
X196395408Y-75601171D01*
X196397103Y-75606256D01*
X196397483Y-75611601D01*
X196401687Y-75620010D01*
X196404662Y-75628934D01*
X196408173Y-75632982D01*
X196410569Y-75637774D01*
X196417673Y-75643936D01*
X196423836Y-75651041D01*
X196428627Y-75653436D01*
X196432676Y-75656948D01*
X196446102Y-75662942D01*
X197446102Y-75996275D01*
X197460438Y-75999535D01*
X197489628Y-75997460D01*
X197515802Y-75984374D01*
X197534976Y-75962266D01*
X197544230Y-75934504D01*
X197542155Y-75905314D01*
X197529068Y-75879141D01*
X197506961Y-75859967D01*
X197493536Y-75853973D01*
X197259104Y-75775829D01*
X197259104Y-75407752D01*
X197493536Y-75329609D01*
X197506961Y-75323615D01*
X197529068Y-75304441D01*
X197542155Y-75278268D01*
X197544230Y-75249078D01*
X197534976Y-75221316D01*
X197515802Y-75199208D01*
X197489628Y-75186122D01*
X197460438Y-75184047D01*
X197446102Y-75187307D01*
X196446102Y-75520640D01*
X196432676Y-75526634D01*
X196428627Y-75530145D01*
X196423836Y-75532541D01*
X196417673Y-75539645D01*
X196410569Y-75545808D01*
X196408173Y-75550599D01*
X196404662Y-75554648D01*
X196401687Y-75563571D01*
X196397483Y-75571981D01*
X196397103Y-75577325D01*
X196395408Y-75582411D01*
X196283708Y-75582411D01*
X196283708Y-74496553D01*
X196394819Y-74496553D01*
X196394819Y-75067981D01*
X196396260Y-75082613D01*
X196407459Y-75109649D01*
X196428151Y-75130341D01*
X196455187Y-75141540D01*
X196484451Y-75141540D01*
X196511487Y-75130341D01*
X196532179Y-75109649D01*
X196543378Y-75082613D01*
X196544819Y-75067981D01*
X196544819Y-74857267D01*
X197469819Y-74857267D01*
X197484451Y-74855826D01*
X197511487Y-74844627D01*
X197532179Y-74823935D01*
X197543378Y-74796899D01*
X197543378Y-74767635D01*
X197532179Y-74740599D01*
X197511487Y-74719907D01*
X197484451Y-74708708D01*
X197469819Y-74707267D01*
X196544819Y-74707267D01*
X196544819Y-74496553D01*
X196543378Y-74481921D01*
X196532179Y-74454885D01*
X196511487Y-74434193D01*
X196484451Y-74422994D01*
X196455187Y-74422994D01*
X196428151Y-74434193D01*
X196407459Y-74454885D01*
X196396260Y-74481921D01*
X196394819Y-74496553D01*
X196283708Y-74496553D01*
X196283708Y-74311883D01*
X197655930Y-74311883D01*
X197655930Y-81396950D01*
G37*
X199722200Y-87810839D02*
X199769819Y-87667982D01*
X199769819Y-87667982D02*
X199769819Y-87429887D01*
X199769819Y-87429887D02*
X199722200Y-87334649D01*
X199722200Y-87334649D02*
X199674580Y-87287030D01*
X199674580Y-87287030D02*
X199579342Y-87239411D01*
X199579342Y-87239411D02*
X199484104Y-87239411D01*
X199484104Y-87239411D02*
X199388866Y-87287030D01*
X199388866Y-87287030D02*
X199341247Y-87334649D01*
X199341247Y-87334649D02*
X199293628Y-87429887D01*
X199293628Y-87429887D02*
X199246009Y-87620363D01*
X199246009Y-87620363D02*
X199198390Y-87715601D01*
X199198390Y-87715601D02*
X199150771Y-87763220D01*
X199150771Y-87763220D02*
X199055533Y-87810839D01*
X199055533Y-87810839D02*
X198960295Y-87810839D01*
X198960295Y-87810839D02*
X198865057Y-87763220D01*
X198865057Y-87763220D02*
X198817438Y-87715601D01*
X198817438Y-87715601D02*
X198769819Y-87620363D01*
X198769819Y-87620363D02*
X198769819Y-87382268D01*
X198769819Y-87382268D02*
X198817438Y-87239411D01*
X198769819Y-86906077D02*
X199769819Y-86667982D01*
X199769819Y-86667982D02*
X199055533Y-86477506D01*
X199055533Y-86477506D02*
X199769819Y-86287030D01*
X199769819Y-86287030D02*
X198769819Y-86048935D01*
X198769819Y-85477506D02*
X198769819Y-85287030D01*
X198769819Y-85287030D02*
X198817438Y-85191792D01*
X198817438Y-85191792D02*
X198912676Y-85096554D01*
X198912676Y-85096554D02*
X199103152Y-85048935D01*
X199103152Y-85048935D02*
X199436485Y-85048935D01*
X199436485Y-85048935D02*
X199626961Y-85096554D01*
X199626961Y-85096554D02*
X199722200Y-85191792D01*
X199722200Y-85191792D02*
X199769819Y-85287030D01*
X199769819Y-85287030D02*
X199769819Y-85477506D01*
X199769819Y-85477506D02*
X199722200Y-85572744D01*
X199722200Y-85572744D02*
X199626961Y-85667982D01*
X199626961Y-85667982D02*
X199436485Y-85715601D01*
X199436485Y-85715601D02*
X199103152Y-85715601D01*
X199103152Y-85715601D02*
X198912676Y-85667982D01*
X198912676Y-85667982D02*
X198817438Y-85572744D01*
X198817438Y-85572744D02*
X198769819Y-85477506D01*
X213020112Y-87346009D02*
X213162969Y-87393628D01*
X213162969Y-87393628D02*
X213210588Y-87441247D01*
X213210588Y-87441247D02*
X213258207Y-87536485D01*
X213258207Y-87536485D02*
X213258207Y-87679342D01*
X213258207Y-87679342D02*
X213210588Y-87774580D01*
X213210588Y-87774580D02*
X213162969Y-87822200D01*
X213162969Y-87822200D02*
X213067731Y-87869819D01*
X213067731Y-87869819D02*
X212686779Y-87869819D01*
X212686779Y-87869819D02*
X212686779Y-86869819D01*
X212686779Y-86869819D02*
X213020112Y-86869819D01*
X213020112Y-86869819D02*
X213115350Y-86917438D01*
X213115350Y-86917438D02*
X213162969Y-86965057D01*
X213162969Y-86965057D02*
X213210588Y-87060295D01*
X213210588Y-87060295D02*
X213210588Y-87155533D01*
X213210588Y-87155533D02*
X213162969Y-87250771D01*
X213162969Y-87250771D02*
X213115350Y-87298390D01*
X213115350Y-87298390D02*
X213020112Y-87346009D01*
X213020112Y-87346009D02*
X212686779Y-87346009D01*
X213877255Y-86869819D02*
X214067731Y-86869819D01*
X214067731Y-86869819D02*
X214162969Y-86917438D01*
X214162969Y-86917438D02*
X214258207Y-87012676D01*
X214258207Y-87012676D02*
X214305826Y-87203152D01*
X214305826Y-87203152D02*
X214305826Y-87536485D01*
X214305826Y-87536485D02*
X214258207Y-87726961D01*
X214258207Y-87726961D02*
X214162969Y-87822200D01*
X214162969Y-87822200D02*
X214067731Y-87869819D01*
X214067731Y-87869819D02*
X213877255Y-87869819D01*
X213877255Y-87869819D02*
X213782017Y-87822200D01*
X213782017Y-87822200D02*
X213686779Y-87726961D01*
X213686779Y-87726961D02*
X213639160Y-87536485D01*
X213639160Y-87536485D02*
X213639160Y-87203152D01*
X213639160Y-87203152D02*
X213686779Y-87012676D01*
X213686779Y-87012676D02*
X213782017Y-86917438D01*
X213782017Y-86917438D02*
X213877255Y-86869819D01*
X214924874Y-86869819D02*
X215115350Y-86869819D01*
X215115350Y-86869819D02*
X215210588Y-86917438D01*
X215210588Y-86917438D02*
X215305826Y-87012676D01*
X215305826Y-87012676D02*
X215353445Y-87203152D01*
X215353445Y-87203152D02*
X215353445Y-87536485D01*
X215353445Y-87536485D02*
X215305826Y-87726961D01*
X215305826Y-87726961D02*
X215210588Y-87822200D01*
X215210588Y-87822200D02*
X215115350Y-87869819D01*
X215115350Y-87869819D02*
X214924874Y-87869819D01*
X214924874Y-87869819D02*
X214829636Y-87822200D01*
X214829636Y-87822200D02*
X214734398Y-87726961D01*
X214734398Y-87726961D02*
X214686779Y-87536485D01*
X214686779Y-87536485D02*
X214686779Y-87203152D01*
X214686779Y-87203152D02*
X214734398Y-87012676D01*
X214734398Y-87012676D02*
X214829636Y-86917438D01*
X214829636Y-86917438D02*
X214924874Y-86869819D01*
X215639160Y-86869819D02*
X216210588Y-86869819D01*
X215924874Y-87869819D02*
X215924874Y-86869819D01*
D11*
%TO.C,C25*%
X207865000Y-57201248D02*
X207865000Y-57723752D01*
X209335000Y-57201248D02*
X209335000Y-57723752D01*
%TO.C,D11*%
X188400000Y-54560000D02*
X191260000Y-54560000D01*
X191260000Y-52640000D02*
X188400000Y-52640000D01*
X191260000Y-54560000D02*
X191260000Y-52640000D01*
%TO.C,R5*%
X222254724Y-75227500D02*
X221745276Y-75227500D01*
X222254724Y-76272500D02*
X221745276Y-76272500D01*
%TO.C,R30*%
X195229724Y-60477500D02*
X194720276Y-60477500D01*
X195229724Y-61522500D02*
X194720276Y-61522500D01*
%TO.C,C23*%
X203265000Y-57176248D02*
X203265000Y-57698752D01*
X204735000Y-57176248D02*
X204735000Y-57698752D01*
%TO.C,C22*%
X199688748Y-60090000D02*
X200211252Y-60090000D01*
X199688748Y-61560000D02*
X200211252Y-61560000D01*
D12*
%TO.C,IC1*%
X199850000Y-56275000D02*
X200450000Y-56275000D01*
X199850000Y-59175000D02*
X199850000Y-56275000D01*
X200450000Y-56275000D02*
X200450000Y-59175000D01*
X200450000Y-59175000D02*
X199850000Y-59175000D01*
X202000000Y-59225000D02*
X200800000Y-59225000D01*
%TO.C,J4*%
X203337500Y-81900000D02*
X203337500Y-86350000D01*
X203337500Y-86350000D02*
X207587500Y-86350000D01*
X207587500Y-86350000D02*
X207587500Y-80850000D01*
D13*
%TO.C,J9*%
X203550000Y-44400000D02*
X203550000Y-44400000D01*
X203650000Y-44400000D02*
X203650000Y-44400000D01*
X204100000Y-42350000D02*
X209600000Y-42350000D01*
X204100000Y-45550000D02*
X204100000Y-42350000D01*
X209600000Y-42350000D02*
X209600000Y-45550000D01*
X209600000Y-45550000D02*
X204100000Y-45550000D01*
X203550000Y-44400000D02*
G75*
G02*
X203650000Y-44400000I50000J0D01*
G01*
X203650000Y-44400000D02*
G75*
G02*
X203550000Y-44400000I-50000J0D01*
G01*
%TO.C,J1*%
X186950000Y-44400000D02*
X186950000Y-44400000D01*
X187050000Y-44400000D02*
X187050000Y-44400000D01*
X187500000Y-42350000D02*
X193000000Y-42350000D01*
X187500000Y-45550000D02*
X187500000Y-42350000D01*
X193000000Y-42350000D02*
X193000000Y-45550000D01*
X193000000Y-45550000D02*
X187500000Y-45550000D01*
X186950000Y-44400000D02*
G75*
G02*
X187050000Y-44400000I50000J0D01*
G01*
X187050000Y-44400000D02*
G75*
G02*
X186950000Y-44400000I-50000J0D01*
G01*
D11*
%TO.C,J15*%
X222340000Y-47140000D02*
X223400000Y-47140000D01*
X222340000Y-48200000D02*
X222340000Y-47140000D01*
X222340000Y-49200000D02*
X222340000Y-49260000D01*
X222340000Y-49200000D02*
X224460000Y-49200000D01*
X222340000Y-49260000D02*
X224460000Y-49260000D01*
X224460000Y-49200000D02*
X224460000Y-49260000D01*
%TO.C,C58*%
X201677500Y-73653733D02*
X201677500Y-73946267D01*
X202697500Y-73653733D02*
X202697500Y-73946267D01*
%TO.C,D15*%
X188665000Y-79140000D02*
X188665000Y-81060000D01*
X188665000Y-81060000D02*
X191525000Y-81060000D01*
X191525000Y-79140000D02*
X188665000Y-79140000D01*
%TO.C,C18*%
X218427500Y-69558767D02*
X218427500Y-69266233D01*
X219447500Y-69558767D02*
X219447500Y-69266233D01*
D13*
%TO.C,L2*%
X202500000Y-53000000D02*
X202500000Y-55000000D01*
D11*
%TO.C,R34*%
X220442224Y-59677500D02*
X219932776Y-59677500D01*
X220442224Y-60722500D02*
X219932776Y-60722500D01*
%TO.C,D12*%
X189215000Y-60040000D02*
X189215000Y-61960000D01*
X189215000Y-61960000D02*
X192075000Y-61960000D01*
X192075000Y-60040000D02*
X189215000Y-60040000D01*
%TO.C,C16*%
X209376248Y-76865000D02*
X209898752Y-76865000D01*
X209376248Y-78335000D02*
X209898752Y-78335000D01*
%TO.C,R10*%
X199722936Y-62365000D02*
X200177064Y-62365000D01*
X199722936Y-63835000D02*
X200177064Y-63835000D01*
%TO.C,C2*%
X199815000Y-66051248D02*
X199815000Y-66573752D01*
X201285000Y-66051248D02*
X201285000Y-66573752D01*
D12*
%TO.C,J3*%
X185750000Y-55125000D02*
X185750000Y-59375000D01*
X185750000Y-59375000D02*
X191250000Y-59375000D01*
X190200000Y-55125000D02*
X185750000Y-55125000D01*
D11*
%TO.C,C7*%
X214286252Y-76965000D02*
X213763748Y-76965000D01*
X214286252Y-78435000D02*
X213763748Y-78435000D01*
%TO.C,R4*%
X217665000Y-77445276D02*
X217665000Y-77954724D01*
X218710000Y-77445276D02*
X218710000Y-77954724D01*
%TO.C,C12*%
X218427500Y-72903733D02*
X218427500Y-73196267D01*
X219447500Y-72903733D02*
X219447500Y-73196267D01*
%TO.C,R9*%
X204154724Y-66527500D02*
X203645276Y-66527500D01*
X204154724Y-67572500D02*
X203645276Y-67572500D01*
%TO.C,R13*%
X210092224Y-79677500D02*
X209582776Y-79677500D01*
X210092224Y-80722500D02*
X209582776Y-80722500D01*
%TO.C,C13*%
X216141233Y-73490000D02*
X216433767Y-73490000D01*
X216141233Y-74510000D02*
X216433767Y-74510000D01*
D10*
%TO.C,J11*%
X185300000Y-73050000D02*
X185750000Y-73050000D01*
X185750000Y-65050000D02*
X185750000Y-65350000D01*
X185750000Y-65350000D02*
X185300000Y-65350000D01*
X185750000Y-73050000D02*
X185750000Y-73350000D01*
X185750000Y-73350000D02*
X185900000Y-73350000D01*
X185900000Y-65050000D02*
X185750000Y-65050000D01*
X188300000Y-73350000D02*
X189700000Y-73350000D01*
X189700000Y-65050000D02*
X188300000Y-65050000D01*
X191450000Y-67400000D02*
X191450000Y-66400000D01*
X191450000Y-71000000D02*
X191450000Y-72000000D01*
X191875000Y-67400000D02*
X191450000Y-67400000D01*
X191875000Y-68125000D02*
X191875000Y-67400000D01*
D11*
%TO.C,R29*%
X184577500Y-51445276D02*
X184577500Y-51954724D01*
X185622500Y-51445276D02*
X185622500Y-51954724D01*
%TO.C,J10*%
X205840000Y-47140000D02*
X206900000Y-47140000D01*
X205840000Y-48200000D02*
X205840000Y-47140000D01*
X205840000Y-49200000D02*
X205840000Y-49260000D01*
X205840000Y-49200000D02*
X207960000Y-49200000D01*
X205840000Y-49260000D02*
X207960000Y-49260000D01*
X207960000Y-49200000D02*
X207960000Y-49260000D01*
D13*
%TO.C,J14*%
X220150000Y-44400000D02*
X220150000Y-44400000D01*
X220250000Y-44400000D02*
X220250000Y-44400000D01*
X220700000Y-42350000D02*
X226200000Y-42350000D01*
X220700000Y-45550000D02*
X220700000Y-42350000D01*
X226200000Y-42350000D02*
X226200000Y-45550000D01*
X226200000Y-45550000D02*
X220700000Y-45550000D01*
X220150000Y-44400000D02*
G75*
G02*
X220250000Y-44400000I50000J0D01*
G01*
X220250000Y-44400000D02*
G75*
G02*
X220150000Y-44400000I-50000J0D01*
G01*
D11*
%TO.C,C8*%
X216877500Y-66108767D02*
X216877500Y-65816233D01*
X217897500Y-66108767D02*
X217897500Y-65816233D01*
%TO.C,C11*%
X217677500Y-81191233D02*
X217677500Y-81483767D01*
X218697500Y-81191233D02*
X218697500Y-81483767D01*
%TO.C,R6*%
X204327500Y-64107776D02*
X204327500Y-64617224D01*
X205372500Y-64107776D02*
X205372500Y-64617224D01*
%TO.C,C17*%
X209491233Y-75090000D02*
X209783767Y-75090000D01*
X209491233Y-76110000D02*
X209783767Y-76110000D01*
%TO.C,C21*%
X198183767Y-54290000D02*
X197891233Y-54290000D01*
X198183767Y-55310000D02*
X197891233Y-55310000D01*
%TO.C,D6*%
X188652500Y-74440000D02*
X188652500Y-76360000D01*
X188652500Y-76360000D02*
X191512500Y-76360000D01*
X191512500Y-74440000D02*
X188652500Y-74440000D01*
%TO.C,C20*%
X197551248Y-52065000D02*
X198073752Y-52065000D01*
X197551248Y-53535000D02*
X198073752Y-53535000D01*
%TO.C,U1*%
X207565000Y-65690000D02*
X207565000Y-66140000D01*
X207565000Y-72910000D02*
X207565000Y-72460000D01*
X208015000Y-65690000D02*
X207565000Y-65690000D01*
X208015000Y-72910000D02*
X207565000Y-72910000D01*
X214335000Y-65690000D02*
X214785000Y-65690000D01*
X214335000Y-72910000D02*
X214785000Y-72910000D01*
X214785000Y-65690000D02*
X214785000Y-66140000D01*
X214785000Y-72910000D02*
X214785000Y-72460000D01*
X215715000Y-72930000D02*
X215035000Y-72930000D01*
X215375000Y-72460000D01*
X215715000Y-72930000D01*
G36*
X215715000Y-72930000D02*
G01*
X215035000Y-72930000D01*
X215375000Y-72460000D01*
X215715000Y-72930000D01*
G37*
%TO.C,C6*%
X214171267Y-75190000D02*
X213878733Y-75190000D01*
X214171267Y-76210000D02*
X213878733Y-76210000D01*
%TO.C,D16*%
X219375000Y-63160000D02*
X222235000Y-63160000D01*
X222235000Y-61240000D02*
X219375000Y-61240000D01*
X222235000Y-63160000D02*
X222235000Y-61240000D01*
%TO.C,R32*%
X194667224Y-77277500D02*
X194157776Y-77277500D01*
X194667224Y-78322500D02*
X194157776Y-78322500D01*
%TO.C,F2*%
X202440000Y-64191233D02*
X202440000Y-64533767D01*
X203460000Y-64191233D02*
X203460000Y-64533767D01*
%TO.C,C14*%
X206290000Y-63646267D02*
X206290000Y-63353733D01*
X207310000Y-63646267D02*
X207310000Y-63353733D01*
%TO.C,C5*%
X204427500Y-72658767D02*
X204427500Y-72366233D01*
X205447500Y-72658767D02*
X205447500Y-72366233D01*
%TO.C,R8*%
X194667224Y-74877500D02*
X194157776Y-74877500D01*
X194667224Y-75922500D02*
X194157776Y-75922500D01*
%TO.C,FB1*%
X220877500Y-66160242D02*
X220877500Y-65339758D01*
X221997500Y-66160242D02*
X221997500Y-65339758D01*
D13*
%TO.C,S4*%
X212837500Y-81275000D02*
X212837500Y-81275000D01*
X212837500Y-81275000D02*
X212837500Y-84775000D01*
X212837500Y-84775000D02*
X212837500Y-81275000D01*
X212837500Y-84775000D02*
X212837500Y-84775000D01*
D12*
X213687500Y-79825000D02*
X213687500Y-79825000D01*
X213687500Y-79825000D02*
X213687500Y-79825000D01*
X213687500Y-79925000D02*
X213687500Y-79925000D01*
D13*
X216037500Y-81275000D02*
X216037500Y-81275000D01*
X216037500Y-81275000D02*
X216037500Y-84775000D01*
X216037500Y-84775000D02*
X216037500Y-81275000D01*
X216037500Y-84775000D02*
X216037500Y-84775000D01*
D12*
X213687500Y-79825000D02*
G75*
G02*
X213687500Y-79925000I0J-50000D01*
G01*
X213687500Y-79925000D02*
G75*
G02*
X213687500Y-79825000I0J50000D01*
G01*
X213687500Y-79925000D02*
G75*
G02*
X213687500Y-79825000I0J50000D01*
G01*
D11*
%TO.C,C1*%
X198090000Y-65916233D02*
X198090000Y-66208767D01*
X199110000Y-65916233D02*
X199110000Y-66208767D01*
%TO.C,J8*%
X197440000Y-47140000D02*
X198500000Y-47140000D01*
X197440000Y-48200000D02*
X197440000Y-47140000D01*
X197440000Y-49200000D02*
X197440000Y-49260000D01*
X197440000Y-49200000D02*
X199560000Y-49200000D01*
X197440000Y-49260000D02*
X199560000Y-49260000D01*
X199560000Y-49200000D02*
X199560000Y-49260000D01*
D13*
%TO.C,IC2*%
X196545000Y-69850000D02*
X196545000Y-69850000D01*
X196545000Y-69950000D02*
X196545000Y-69950000D01*
X196545000Y-69850000D02*
G75*
G02*
X196545000Y-69950000I0J-50000D01*
G01*
X196545000Y-69950000D02*
G75*
G02*
X196545000Y-69850000I0J50000D01*
G01*
D11*
%TO.C,J2*%
X190240000Y-84260000D02*
X190240000Y-83200000D01*
X191300000Y-84260000D02*
X190240000Y-84260000D01*
X192300000Y-82140000D02*
X202360000Y-82140000D01*
X192300000Y-84260000D02*
X192300000Y-82140000D01*
X192300000Y-84260000D02*
X202360000Y-84260000D01*
X202360000Y-84260000D02*
X202360000Y-82140000D01*
%TO.C,D4*%
X195590000Y-55865000D02*
X195590000Y-58725000D01*
X197510000Y-55865000D02*
X195590000Y-55865000D01*
X197510000Y-58725000D02*
X197510000Y-55865000D01*
%TO.C,C24*%
X205565000Y-57188748D02*
X205565000Y-57711252D01*
X207035000Y-57188748D02*
X207035000Y-57711252D01*
%TO.C,D7*%
X188662500Y-76740000D02*
X188662500Y-78660000D01*
X188662500Y-78660000D02*
X191522500Y-78660000D01*
X191522500Y-76740000D02*
X188662500Y-76740000D01*
%TO.C,JP1*%
X208887500Y-83600000D02*
X208887500Y-82200000D01*
X209587500Y-81500000D02*
X210187500Y-81500000D01*
X210187500Y-84300000D02*
X209587500Y-84300000D01*
X210887500Y-82200000D02*
X210887500Y-83600000D01*
X208887500Y-82200000D02*
G75*
G02*
X209587500Y-81500000I699999J1D01*
G01*
X209587500Y-84300000D02*
G75*
G02*
X208887500Y-83600000I0J700000D01*
G01*
X210187500Y-81500000D02*
G75*
G02*
X210887500Y-82200000I1J-699999D01*
G01*
X210887500Y-83600000D02*
G75*
G02*
X210187500Y-84300000I-700000J0D01*
G01*
%TO.C,R33*%
X194642224Y-79577500D02*
X194132776Y-79577500D01*
X194642224Y-80622500D02*
X194132776Y-80622500D01*
%TO.C,C10*%
X222952500Y-65476248D02*
X222952500Y-65998752D01*
X224422500Y-65476248D02*
X224422500Y-65998752D01*
%TO.C,J13*%
X214140000Y-47140000D02*
X215200000Y-47140000D01*
X214140000Y-48200000D02*
X214140000Y-47140000D01*
X214140000Y-49200000D02*
X214140000Y-49260000D01*
X214140000Y-49200000D02*
X216260000Y-49200000D01*
X214140000Y-49260000D02*
X216260000Y-49260000D01*
X216260000Y-49200000D02*
X216260000Y-49260000D01*
D13*
%TO.C,D2*%
X195225000Y-65300000D02*
X195025000Y-65300000D01*
X195225000Y-66300000D02*
X195025000Y-66300000D01*
X196525000Y-65800000D02*
X196525000Y-65800000D01*
X196525000Y-65900000D02*
X196525000Y-65900000D01*
X196525000Y-65800000D02*
G75*
G02*
X196525000Y-65900000I0J-50000D01*
G01*
X196525000Y-65900000D02*
G75*
G02*
X196525000Y-65800000I0J50000D01*
G01*
%TO.C,D1*%
X194725000Y-59200000D02*
X194725000Y-59200000D01*
X194825000Y-59200000D02*
X194825000Y-59200000D01*
X194725000Y-59200000D02*
G75*
G02*
X194825000Y-59200000I50000J0D01*
G01*
X194825000Y-59200000D02*
G75*
G02*
X194725000Y-59200000I-50000J0D01*
G01*
%TO.C,J6*%
X195250000Y-44400000D02*
X195250000Y-44400000D01*
X195350000Y-44400000D02*
X195350000Y-44400000D01*
X195800000Y-42350000D02*
X201300000Y-42350000D01*
X195800000Y-45550000D02*
X195800000Y-42350000D01*
X201300000Y-42350000D02*
X201300000Y-45550000D01*
X201300000Y-45550000D02*
X195800000Y-45550000D01*
X195250000Y-44400000D02*
G75*
G02*
X195350000Y-44400000I50000J0D01*
G01*
X195350000Y-44400000D02*
G75*
G02*
X195250000Y-44400000I-50000J0D01*
G01*
D11*
%TO.C,C59*%
X199452500Y-73301248D02*
X199452500Y-73823752D01*
X200922500Y-73301248D02*
X200922500Y-73823752D01*
%TO.C,R14*%
X195672936Y-62390000D02*
X196127064Y-62390000D01*
X195672936Y-63860000D02*
X196127064Y-63860000D01*
%TO.C,R3*%
X199732776Y-69977500D02*
X200242224Y-69977500D01*
X199732776Y-71022500D02*
X200242224Y-71022500D01*
%TO.C,C19*%
X204046267Y-68490000D02*
X203753733Y-68490000D01*
X204046267Y-69510000D02*
X203753733Y-69510000D01*
%TO.C,J7*%
X212440000Y-58660000D02*
X212440000Y-57600000D01*
X213500000Y-58660000D02*
X212440000Y-58660000D01*
X214500000Y-56540000D02*
X226560000Y-56540000D01*
X214500000Y-58660000D02*
X214500000Y-56540000D01*
X214500000Y-58660000D02*
X226560000Y-58660000D01*
X226560000Y-58660000D02*
X226560000Y-56540000D01*
%TO.C,C15*%
X221828733Y-76965000D02*
X222121267Y-76965000D01*
X221828733Y-77985000D02*
X222121267Y-77985000D01*
%TO.C,U2*%
X203677500Y-77785000D02*
X203677500Y-77635000D01*
X206737500Y-74615000D02*
X203737500Y-74615000D01*
X206737500Y-77835000D02*
X203737500Y-77835000D01*
X207297500Y-78045000D02*
X207297500Y-77565000D01*
X207777500Y-77565000D01*
X207297500Y-78045000D01*
G36*
X207297500Y-78045000D02*
G01*
X207297500Y-77565000D01*
X207777500Y-77565000D01*
X207297500Y-78045000D01*
G37*
%TO.C,C9*%
X218552500Y-65986252D02*
X218552500Y-65463748D01*
X220022500Y-65986252D02*
X220022500Y-65463748D01*
%TO.C,J5*%
X189190000Y-47140000D02*
X190250000Y-47140000D01*
X189190000Y-48200000D02*
X189190000Y-47140000D01*
X189190000Y-49200000D02*
X189190000Y-49260000D01*
X189190000Y-49200000D02*
X191310000Y-49200000D01*
X189190000Y-49260000D02*
X191310000Y-49260000D01*
X191310000Y-49200000D02*
X191310000Y-49260000D01*
D13*
%TO.C,S3*%
X220387500Y-81250000D02*
X220387500Y-81250000D01*
X220387500Y-81250000D02*
X220387500Y-84750000D01*
X220387500Y-84750000D02*
X220387500Y-81250000D01*
X220387500Y-84750000D02*
X220387500Y-84750000D01*
D12*
X221237500Y-79800000D02*
X221237500Y-79800000D01*
X221237500Y-79800000D02*
X221237500Y-79800000D01*
X221237500Y-79900000D02*
X221237500Y-79900000D01*
D13*
X223587500Y-81250000D02*
X223587500Y-81250000D01*
X223587500Y-81250000D02*
X223587500Y-84750000D01*
X223587500Y-84750000D02*
X223587500Y-81250000D01*
X223587500Y-84750000D02*
X223587500Y-84750000D01*
D12*
X221237500Y-79800000D02*
G75*
G02*
X221237500Y-79900000I0J-50000D01*
G01*
X221237500Y-79900000D02*
G75*
G02*
X221237500Y-79800000I0J50000D01*
G01*
X221237500Y-79900000D02*
G75*
G02*
X221237500Y-79800000I0J50000D01*
G01*
D13*
%TO.C,J12*%
X211850000Y-44400000D02*
X211850000Y-44400000D01*
X211950000Y-44400000D02*
X211950000Y-44400000D01*
X212400000Y-42350000D02*
X217900000Y-42350000D01*
X212400000Y-45550000D02*
X212400000Y-42350000D01*
X217900000Y-42350000D02*
X217900000Y-45550000D01*
X217900000Y-45550000D02*
X212400000Y-45550000D01*
X211850000Y-44400000D02*
G75*
G02*
X211950000Y-44400000I50000J0D01*
G01*
X211950000Y-44400000D02*
G75*
G02*
X211850000Y-44400000I-50000J0D01*
G01*
D11*
%TO.C,Y1*%
X219987500Y-73250000D02*
X223287500Y-73250000D01*
X223287500Y-73250000D02*
X223287500Y-69250000D01*
%TD*%
M02*
