%TF.GenerationSoftware,KiCad,Pcbnew,9.0.0*%
%TF.CreationDate,2026-01-14T19:26:19-05:00*%
%TF.ProjectId,telemetry-node,74656c65-6d65-4747-9279-2d6e6f64652e,rev?*%
%TF.SameCoordinates,Original*%
%TF.FileFunction,Paste,Top*%
%TF.FilePolarity,Positive*%
%FSLAX46Y46*%
G04 Gerber Fmt 4.6, Leading zero omitted, Abs format (unit mm)*
G04 Created by KiCad (PCBNEW 9.0.0) date 2026-01-14 19:26:19*
%MOMM*%
%LPD*%
G01*
G04 APERTURE LIST*
G04 Aperture macros list*
%AMRoundRect*
0 Rectangle with rounded corners*
0 $1 Rounding radius*
0 $2 $3 $4 $5 $6 $7 $8 $9 X,Y pos of 4 corners*
0 Add a 4 corners polygon primitive as box body*
4,1,4,$2,$3,$4,$5,$6,$7,$8,$9,$2,$3,0*
0 Add four circle primitives for the rounded corners*
1,1,$1+$1,$2,$3*
1,1,$1+$1,$4,$5*
1,1,$1+$1,$6,$7*
1,1,$1+$1,$8,$9*
0 Add four rect primitives between the rounded corners*
20,1,$1+$1,$2,$3,$4,$5,0*
20,1,$1+$1,$4,$5,$6,$7,0*
20,1,$1+$1,$6,$7,$8,$9,0*
20,1,$1+$1,$8,$9,$2,$3,0*%
G04 Aperture macros list end*
%ADD10RoundRect,0.250000X-0.475000X0.337500X-0.475000X-0.337500X0.475000X-0.337500X0.475000X0.337500X0*%
%ADD11RoundRect,0.250000X0.325000X0.450000X-0.325000X0.450000X-0.325000X-0.450000X0.325000X-0.450000X0*%
%ADD12RoundRect,0.237500X0.250000X0.237500X-0.250000X0.237500X-0.250000X-0.237500X0.250000X-0.237500X0*%
%ADD13RoundRect,0.250000X-0.337500X-0.475000X0.337500X-0.475000X0.337500X0.475000X-0.337500X0.475000X0*%
%ADD14R,1.200000X0.600000*%
%ADD15RoundRect,0.237500X-0.237500X0.300000X-0.237500X-0.300000X0.237500X-0.300000X0.237500X0.300000X0*%
%ADD16RoundRect,0.250000X-0.325000X-0.450000X0.325000X-0.450000X0.325000X0.450000X-0.325000X0.450000X0*%
%ADD17RoundRect,0.237500X0.237500X-0.300000X0.237500X0.300000X-0.237500X0.300000X-0.237500X-0.300000X0*%
%ADD18R,0.700000X1.500000*%
%ADD19RoundRect,0.250000X-0.350000X-0.450000X0.350000X-0.450000X0.350000X0.450000X-0.350000X0.450000X0*%
%ADD20RoundRect,0.250000X0.337500X0.475000X-0.337500X0.475000X-0.337500X-0.475000X0.337500X-0.475000X0*%
%ADD21RoundRect,0.237500X-0.237500X0.250000X-0.237500X-0.250000X0.237500X-0.250000X0.237500X0.250000X0*%
%ADD22RoundRect,0.237500X-0.300000X-0.237500X0.300000X-0.237500X0.300000X0.237500X-0.300000X0.237500X0*%
%ADD23R,1.300000X0.450000*%
%ADD24RoundRect,0.237500X0.300000X0.237500X-0.300000X0.237500X-0.300000X-0.237500X0.300000X-0.237500X0*%
%ADD25RoundRect,0.075000X0.662500X0.075000X-0.662500X0.075000X-0.662500X-0.075000X0.662500X-0.075000X0*%
%ADD26RoundRect,0.075000X0.075000X0.662500X-0.075000X0.662500X-0.075000X-0.662500X0.075000X-0.662500X0*%
%ADD27RoundRect,0.237500X-0.237500X0.287500X-0.237500X-0.287500X0.237500X-0.287500X0.237500X0.287500X0*%
%ADD28RoundRect,0.250000X0.350000X-0.275000X0.350000X0.275000X-0.350000X0.275000X-0.350000X-0.275000X0*%
%ADD29R,0.900000X1.050000*%
%ADD30R,0.990000X0.300000*%
%ADD31RoundRect,0.250000X-0.450000X0.325000X-0.450000X-0.325000X0.450000X-0.325000X0.450000X0.325000X0*%
%ADD32R,0.550000X0.800000*%
%ADD33R,0.280000X0.200000*%
%ADD34RoundRect,0.237500X-0.250000X-0.237500X0.250000X-0.237500X0.250000X0.237500X-0.250000X0.237500X0*%
%ADD35R,0.600000X1.000000*%
%ADD36R,0.650000X0.350000*%
%ADD37RoundRect,0.250000X0.475000X-0.337500X0.475000X0.337500X-0.475000X0.337500X-0.475000X-0.337500X0*%
%ADD38R,1.200000X1.400000*%
G04 APERTURE END LIST*
D10*
%TO.C,C25*%
X208600000Y-56425000D03*
X208600000Y-58500000D03*
%TD*%
D11*
%TO.C,D11*%
X190425000Y-53600000D03*
X188375000Y-53600000D03*
%TD*%
D12*
%TO.C,R5*%
X222912500Y-75750000D03*
X221087500Y-75750000D03*
%TD*%
%TO.C,R30*%
X195887500Y-61000000D03*
X194062500Y-61000000D03*
%TD*%
D10*
%TO.C,C23*%
X204000000Y-56400000D03*
X204000000Y-58475000D03*
%TD*%
D13*
%TO.C,C22*%
X198912500Y-60825000D03*
X200987500Y-60825000D03*
%TD*%
D14*
%TO.C,IC1*%
X201400000Y-58675000D03*
X201400000Y-57725000D03*
X201400000Y-56775000D03*
X198900000Y-56775000D03*
X198900000Y-58675000D03*
%TD*%
D15*
%TO.C,C58*%
X202187500Y-72937500D03*
X202187500Y-74662500D03*
%TD*%
D16*
%TO.C,D15*%
X189500000Y-80100000D03*
X191550000Y-80100000D03*
%TD*%
D17*
%TO.C,C18*%
X218937500Y-70275000D03*
X218937500Y-68550000D03*
%TD*%
D18*
%TO.C,L2*%
X201350000Y-54000000D03*
X203650000Y-54000000D03*
%TD*%
D12*
%TO.C,R34*%
X221100000Y-60200000D03*
X219275000Y-60200000D03*
%TD*%
D16*
%TO.C,D12*%
X190050000Y-61000000D03*
X192100000Y-61000000D03*
%TD*%
D13*
%TO.C,C16*%
X208600000Y-77600000D03*
X210675000Y-77600000D03*
%TD*%
D19*
%TO.C,R10*%
X198950000Y-63100000D03*
X200950000Y-63100000D03*
%TD*%
D10*
%TO.C,C2*%
X200550000Y-65275000D03*
X200550000Y-67350000D03*
%TD*%
D20*
%TO.C,C7*%
X215062500Y-77700000D03*
X212987500Y-77700000D03*
%TD*%
D21*
%TO.C,R4*%
X218187500Y-76787500D03*
X218187500Y-78612500D03*
%TD*%
D15*
%TO.C,C12*%
X218937500Y-72187500D03*
X218937500Y-73912500D03*
%TD*%
D12*
%TO.C,R9*%
X204812500Y-67050000D03*
X202987500Y-67050000D03*
%TD*%
%TO.C,R13*%
X210750000Y-80200000D03*
X208925000Y-80200000D03*
%TD*%
D22*
%TO.C,C13*%
X215425000Y-74000000D03*
X217150000Y-74000000D03*
%TD*%
D23*
%TO.C,J11*%
X190950000Y-67900000D03*
X190950000Y-68550000D03*
X190950000Y-69200000D03*
X190950000Y-69850000D03*
X190950000Y-70500000D03*
%TD*%
D21*
%TO.C,R29*%
X185100000Y-50787500D03*
X185100000Y-52612500D03*
%TD*%
D17*
%TO.C,C8*%
X217387500Y-66825000D03*
X217387500Y-65100000D03*
%TD*%
D15*
%TO.C,C11*%
X218187500Y-80475000D03*
X218187500Y-82200000D03*
%TD*%
D21*
%TO.C,R6*%
X204850000Y-63450000D03*
X204850000Y-65275000D03*
%TD*%
D22*
%TO.C,C17*%
X208775000Y-75600000D03*
X210500000Y-75600000D03*
%TD*%
D24*
%TO.C,C21*%
X198900000Y-54800000D03*
X197175000Y-54800000D03*
%TD*%
D16*
%TO.C,D6*%
X189487500Y-75400000D03*
X191537500Y-75400000D03*
%TD*%
D13*
%TO.C,C20*%
X196775000Y-52800000D03*
X198850000Y-52800000D03*
%TD*%
D25*
%TO.C,U1*%
X215337500Y-72050000D03*
X215337500Y-71550000D03*
X215337500Y-71050000D03*
X215337500Y-70550000D03*
X215337500Y-70050000D03*
X215337500Y-69550000D03*
X215337500Y-69050000D03*
X215337500Y-68550000D03*
X215337500Y-68050000D03*
X215337500Y-67550000D03*
X215337500Y-67050000D03*
X215337500Y-66550000D03*
D26*
X213925000Y-65137500D03*
X213425000Y-65137500D03*
X212925000Y-65137500D03*
X212425000Y-65137500D03*
X211925000Y-65137500D03*
X211425000Y-65137500D03*
X210925000Y-65137500D03*
X210425000Y-65137500D03*
X209925000Y-65137500D03*
X209425000Y-65137500D03*
X208925000Y-65137500D03*
X208425000Y-65137500D03*
D25*
X207012500Y-66550000D03*
X207012500Y-67050000D03*
X207012500Y-67550000D03*
X207012500Y-68050000D03*
X207012500Y-68550000D03*
X207012500Y-69050000D03*
X207012500Y-69550000D03*
X207012500Y-70050000D03*
X207012500Y-70550000D03*
X207012500Y-71050000D03*
X207012500Y-71550000D03*
X207012500Y-72050000D03*
D26*
X208425000Y-73462500D03*
X208925000Y-73462500D03*
X209425000Y-73462500D03*
X209925000Y-73462500D03*
X210425000Y-73462500D03*
X210925000Y-73462500D03*
X211425000Y-73462500D03*
X211925000Y-73462500D03*
X212425000Y-73462500D03*
X212925000Y-73462500D03*
X213425000Y-73462500D03*
X213925000Y-73462500D03*
%TD*%
D24*
%TO.C,C6*%
X214887500Y-75700000D03*
X213162500Y-75700000D03*
%TD*%
D11*
%TO.C,D16*%
X221400000Y-62200000D03*
X219350000Y-62200000D03*
%TD*%
D12*
%TO.C,R32*%
X195325000Y-77800000D03*
X193500000Y-77800000D03*
%TD*%
D27*
%TO.C,F2*%
X202950000Y-63487500D03*
X202950000Y-65237500D03*
%TD*%
D17*
%TO.C,C14*%
X206800000Y-64362500D03*
X206800000Y-62637500D03*
%TD*%
%TO.C,C5*%
X204937500Y-73375000D03*
X204937500Y-71650000D03*
%TD*%
D12*
%TO.C,R8*%
X195325000Y-75400000D03*
X193500000Y-75400000D03*
%TD*%
D28*
%TO.C,FB1*%
X221437500Y-66900000D03*
X221437500Y-64600000D03*
%TD*%
D29*
%TO.C,S4*%
X213787500Y-81050000D03*
X213787500Y-85000000D03*
X215087500Y-81050000D03*
X215087500Y-85000000D03*
%TD*%
D15*
%TO.C,C1*%
X198600000Y-65200000D03*
X198600000Y-66925000D03*
%TD*%
D30*
%TO.C,IC2*%
X195750000Y-69850000D03*
X195750000Y-69350000D03*
X195750000Y-68850000D03*
X194140000Y-68850000D03*
X194140000Y-69350000D03*
X194140000Y-69850000D03*
%TD*%
D31*
%TO.C,D4*%
X196550000Y-56700000D03*
X196550000Y-58750000D03*
%TD*%
D10*
%TO.C,C24*%
X206300000Y-56412500D03*
X206300000Y-58487500D03*
%TD*%
D16*
%TO.C,D7*%
X189497500Y-77700000D03*
X191547500Y-77700000D03*
%TD*%
D12*
%TO.C,R33*%
X195300000Y-80100000D03*
X193475000Y-80100000D03*
%TD*%
D10*
%TO.C,C10*%
X223687500Y-64700000D03*
X223687500Y-66775000D03*
%TD*%
D32*
%TO.C,D2*%
X195750000Y-65800000D03*
X194500000Y-65800000D03*
%TD*%
D33*
%TO.C,D1*%
X194775000Y-58850000D03*
X194775000Y-58450000D03*
%TD*%
D10*
%TO.C,C59*%
X200187500Y-72525000D03*
X200187500Y-74600000D03*
%TD*%
D19*
%TO.C,R14*%
X194900000Y-63125000D03*
X196900000Y-63125000D03*
%TD*%
D34*
%TO.C,R3*%
X199075000Y-70500000D03*
X200900000Y-70500000D03*
%TD*%
D24*
%TO.C,C19*%
X204762500Y-69000000D03*
X203037500Y-69000000D03*
%TD*%
D22*
%TO.C,C15*%
X221112500Y-77475000D03*
X222837500Y-77475000D03*
%TD*%
D35*
%TO.C,U2*%
X205625000Y-76825000D03*
X205625000Y-75625000D03*
X204850000Y-76825000D03*
X204850000Y-75625000D03*
D36*
X206787500Y-77200000D03*
X206787500Y-76550000D03*
X206787500Y-75900000D03*
X206787500Y-75250000D03*
X203687500Y-75250000D03*
X203687500Y-75900000D03*
X203687500Y-76550000D03*
X203687500Y-77200000D03*
%TD*%
D37*
%TO.C,C9*%
X219287500Y-66762500D03*
X219287500Y-64687500D03*
%TD*%
D29*
%TO.C,S3*%
X221337500Y-81025000D03*
X221337500Y-84975000D03*
X222637500Y-81025000D03*
X222637500Y-84975000D03*
%TD*%
D38*
%TO.C,Y1*%
X222487500Y-72350000D03*
X222487500Y-70150000D03*
X220787500Y-70150000D03*
X220787500Y-72350000D03*
%TD*%
M02*
