%TF.GenerationSoftware,KiCad,Pcbnew,9.0.0*%
%TF.CreationDate,2026-01-14T19:26:19-05:00*%
%TF.ProjectId,telemetry-node,74656c65-6d65-4747-9279-2d6e6f64652e,rev?*%
%TF.SameCoordinates,Original*%
%TF.FileFunction,Soldermask,Bot*%
%TF.FilePolarity,Negative*%
%FSLAX46Y46*%
G04 Gerber Fmt 4.6, Leading zero omitted, Abs format (unit mm)*
G04 Created by KiCad (PCBNEW 9.0.0) date 2026-01-14 19:26:19*
%MOMM*%
%LPD*%
G01*
G04 APERTURE LIST*
%ADD10R,1.100000X1.100000*%
%ADD11C,1.100000*%
%ADD12C,0.900000*%
%ADD13R,1.350000X1.350000*%
%ADD14O,0.800000X0.800000*%
%ADD15O,1.800000X1.150000*%
%ADD16O,2.000000X1.450000*%
%ADD17C,2.200000*%
%ADD18O,1.350000X1.350000*%
G04 APERTURE END LIST*
D10*
%TO.C,J4*%
X204837500Y-81900000D03*
D11*
X206087500Y-81900000D03*
%TD*%
D12*
%TO.C,J9*%
X205600000Y-44400000D03*
X206850000Y-44400000D03*
X208100000Y-44400000D03*
%TD*%
%TO.C,J1*%
X189000000Y-44400000D03*
X190250000Y-44400000D03*
X191500000Y-44400000D03*
%TD*%
D13*
%TO.C,J15*%
X223400000Y-48200000D03*
%TD*%
D10*
%TO.C,J3*%
X190200000Y-56625000D03*
D11*
X190200000Y-57875000D03*
%TD*%
D14*
%TO.C,J11*%
X189850000Y-66700000D03*
X189850000Y-71700000D03*
D15*
X187100000Y-65325000D03*
D16*
X190900000Y-65475000D03*
X190900000Y-72925000D03*
D15*
X187100000Y-73075000D03*
%TD*%
D13*
%TO.C,J10*%
X206900000Y-48200000D03*
%TD*%
D12*
%TO.C,J14*%
X222200000Y-44400000D03*
X223450000Y-44400000D03*
X224700000Y-44400000D03*
%TD*%
D17*
%TO.C,H3*%
X225500000Y-91000000D03*
%TD*%
D13*
%TO.C,J8*%
X198500000Y-48200000D03*
%TD*%
D17*
%TO.C,H1*%
X186000000Y-38300000D03*
%TD*%
D13*
%TO.C,J2*%
X191300000Y-83200000D03*
D18*
X193300000Y-83200000D03*
X195300000Y-83200000D03*
X197300000Y-83200000D03*
X199300000Y-83200000D03*
X201300000Y-83200000D03*
%TD*%
D17*
%TO.C,H4*%
X186000000Y-91000000D03*
%TD*%
D13*
%TO.C,J13*%
X215200000Y-48200000D03*
%TD*%
D12*
%TO.C,J6*%
X197300000Y-44400000D03*
X198550000Y-44400000D03*
X199800000Y-44400000D03*
%TD*%
D17*
%TO.C,H2*%
X225500000Y-38300000D03*
%TD*%
D13*
%TO.C,J7*%
X213500000Y-57600000D03*
D18*
X215500000Y-57600000D03*
X217500000Y-57600000D03*
X219500000Y-57600000D03*
X221500000Y-57600000D03*
X223500000Y-57600000D03*
X225500000Y-57600000D03*
%TD*%
D13*
%TO.C,J5*%
X190250000Y-48200000D03*
%TD*%
D12*
%TO.C,J12*%
X213900000Y-44400000D03*
X215150000Y-44400000D03*
X216400000Y-44400000D03*
%TD*%
M02*
