M48
; DRILL file {KiCad 9.0.0} date 2026-01-14T19:26:04-0500
; FORMAT={-:-/ absolute / metric / decimal}
; #@! TF.CreationDate,2026-01-14T19:26:04-05:00
; #@! TF.GenerationSoftware,Kicad,Pcbnew,9.0.0
; #@! TF.FileFunction,MixedPlating,1,4
FMAT,2
METRIC
; #@! TA.AperFunction,Plated,PTH,ViaDrill
T1C0.300
; #@! TA.AperFunction,Plated,PTH,ComponentDrill
T2C0.550
; #@! TA.AperFunction,Plated,PTH,ComponentDrill
T3C0.700
; #@! TA.AperFunction,Plated,PTH,ComponentDrill
T4C0.800
; #@! TA.AperFunction,Plated,PTH,ComponentDrill
T5C0.850
; #@! TA.AperFunction,NonPlated,NPTH,ComponentDrill
T6C0.800
; #@! TA.AperFunction,NonPlated,NPTH,ComponentDrill
T7C2.200
%
G90
G05
T1
X188.0Y-75.4
X188.0Y-77.7
X188.0Y-80.0
X188.4Y-43.15
X189.5Y-70.4
X189.5Y-85.1
X189.675Y-68.525
X189.675Y-69.425
X190.5Y-62.7
X191.4Y-55.8
X191.4Y-56.7
X192.0Y-43.2
X193.132Y-68.143
X193.178Y-70.028
X193.4Y-63.6
X193.4Y-65.8
X193.9Y-81.5
X194.7Y-56.8
X194.7Y-57.6
X195.5Y-52.6
X195.5Y-53.4
X195.9Y-54.2
X195.9Y-55.0
X196.75Y-43.2
X197.05Y-69.325
X197.3Y-61.4
X198.3Y-71.7
X198.305Y-79.205
X198.5Y-68.3
X198.55Y-76.45
X198.6Y-72.8
X198.6Y-74.3
X198.628Y-75.378
X200.055Y-79.705
X200.1Y-80.65
X200.278Y-78.773
X200.3Y-43.15
X201.5Y-68.7
X202.3Y-62.1
X202.6Y-57.8
X203.587Y-72.4
X203.587Y-73.4
X203.6Y-59.7
X204.4Y-59.7
X204.7Y-53.2
X204.7Y-54.0
X204.7Y-54.8
X204.837Y-77.85
X205.0Y-43.2
X205.4Y-62.1
X205.637Y-77.85
X205.7Y-55.1
X205.8Y-59.7
X206.1Y-65.6
X206.6Y-55.1
X206.6Y-59.7
X206.987Y-78.451
X207.45Y-74.45
X207.7Y-79.0
X208.0Y-55.1
X208.2Y-59.7
X208.3Y-63.5
X208.486Y-69.851
X208.533Y-68.943
X208.55Y-71.649
X208.55Y-70.749
X208.6Y-43.15
X208.8Y-55.1
X209.0Y-59.7
X209.45Y-71.65
X209.9Y-69.3
X210.0Y-79.0
X211.8Y-75.85
X212.008Y-62.208
X212.2Y-71.35
X212.5Y-80.3
X212.9Y-68.3
X213.037Y-79.4
X213.053Y-62.153
X213.1Y-43.2
X213.125Y-71.416
X213.75Y-68.6
X213.85Y-71.95
X213.973Y-62.223
X216.45Y-75.35
X216.537Y-78.2
X216.7Y-77.25
X217.0Y-43.25
X217.05Y-68.2
X217.5Y-63.7
X217.688Y-75.4
X218.2Y-83.7
X219.65Y-75.4
X220.337Y-74.2
X220.35Y-63.5
X220.4Y-68.7
X221.188Y-73.85
X221.45Y-43.2
X223.05Y-61.0
X223.938Y-70.15
X224.15Y-74.25
X224.2Y-63.2
X224.3Y-77.9
X224.65Y-68.1
X225.35Y-43.25
T2
X189.0Y-44.4
X190.25Y-44.4
X191.5Y-44.4
X197.3Y-44.4
X198.55Y-44.4
X199.8Y-44.4
X205.6Y-44.4
X206.85Y-44.4
X208.1Y-44.4
X213.9Y-44.4
X215.15Y-44.4
X216.4Y-44.4
X222.2Y-44.4
X223.45Y-44.4
X224.7Y-44.4
T3
X190.2Y-56.625
X190.2Y-57.875
X204.837Y-81.9
X206.087Y-81.9
T4
X190.25Y-48.2
X191.3Y-83.2
X193.3Y-83.2
X195.3Y-83.2
X197.3Y-83.2
X198.5Y-48.2
X199.3Y-83.2
X201.3Y-83.2
X206.9Y-48.2
X213.5Y-57.6
X215.2Y-48.2
X215.5Y-57.6
X217.5Y-57.6
X219.5Y-57.6
X221.5Y-57.6
X223.4Y-48.2
X223.5Y-57.6
X225.5Y-57.6
T6
X189.85Y-66.7
X189.85Y-71.7
T7
X186.0Y-38.3
X186.0Y-91.0
X225.5Y-38.3
X225.5Y-91.0
T2
G00X187.425Y-65.325
M15
G01X186.775Y-65.325
M16
G05
G00X187.425Y-73.075
M15
G01X186.775Y-73.075
M16
G05
T5
G00X191.175Y-65.475
M15
G01X190.625Y-65.475
M16
G05
G00X191.175Y-72.925
M15
G01X190.625Y-72.925
M16
G05
M30
